<svg xmlns="http://www.w3.org/2000/svg" viewBox="0 0 279.27 96.82">
  <path d="M112 94.39l-3.11-13.25a.64.64 0 0 0-.68-.54H82.93a.64.64 0 0 0-.68.54l-3.11 13.25a1.78 1.78 0 0 1-1.89 1.35H60.89q-1.76 0-1.35-1.76L83.87 2.43a1.78 1.78 0 0 1 1.89-1.35h19.61a1.78 1.78 0 0 1 1.89 1.35L131.74 94l.13.54q0 1.22-1.49 1.22h-16.62a1.7 1.7 0 0 1-1.76-1.37zM86.17 65.65a.89.89 0 0 0 .54.2h17.85a.9.9 0 0 0 .54-.2.5.5 0 0 0 .13-.61l-9.06-38.4c-.09-.36-.23-.52-.41-.47a.63.63 0 0 0-.41.47L86 65a.49.49 0 0 0 .17.65zM155.47 93.51a25 25 0 0 1-10.75-9.33 25.46 25.46 0 0 1-3.79-13.86v-3.65a1.62 1.62 0 0 1 1.63-1.67h15.55a1.62 1.62 0 0 1 1.62 1.62v2.7a10.22 10.22 0 0 0 3.52 7.91 13.18 13.18 0 0 0 9.2 3.18q5.27 0 8-2.7a9.22 9.22 0 0 0 2.77-6.9 8.38 8.38 0 0 0-1.76-5.34 18.72 18.72 0 0 0-4.94-4.19q-3.18-2-9.8-5.34a114.5 114.5 0 0 1-13.25-7.57 32.39 32.39 0 0 1-8.79-9.06A23.79 23.79 0 0 1 141.07 26q0-11.9 8.11-18.93t21.37-7a36.1 36.1 0 0 1 16.09 3.45 26.33 26.33 0 0 1 11 9.67 26.31 26.31 0 0 1 3.92 14.33v2.7a1.62 1.62 0 0 1-1.62 1.62h-15.6a1.62 1.62 0 0 1-1.62-1.62v-2.5a10.79 10.79 0 0 0-3.38-8.11 12.53 12.53 0 0 0-9.06-3.25 11 11 0 0 0-7.64 2.5 8.9 8.9 0 0 0-2.77 7 9.13 9.13 0 0 0 1.62 5.41 16.88 16.88 0 0 0 5 4.39q3.38 2.1 10.14 5.48l3 1.62a139.83 139.83 0 0 1 12.24 7.64 27.83 27.83 0 0 1 7.37 8 21.8 21.8 0 0 1 3 11.7q0 12.17-8.38 19.47t-22.18 7.3a37.19 37.19 0 0 1-16.21-3.36zM232.08 93.17a26.2 26.2 0 0 1-10.89-10.34 30.47 30.47 0 0 1-3.85-15.48v-38a30.11 30.11 0 0 1 3.85-15.42 26.34 26.34 0 0 1 10.89-10.28A34.72 34.72 0 0 1 248.3 0a35.4 35.4 0 0 1 16.16 3.58 26.22 26.22 0 0 1 11 10 27.71 27.71 0 0 1 3.85 14.54v3a1.62 1.62 0 0 1-1.62 1.62h-15.86a1.62 1.62 0 0 1-1.62-1.62v-2.86a11.81 11.81 0 0 0-3.21-8.52 12.67 12.67 0 0 0-17.38.13 12.86 12.86 0 0 0-3.31 9.2v38.68a12.57 12.57 0 0 0 3.45 9.2 12 12 0 0 0 9 3.52 11.56 11.56 0 0 0 8.45-3.11 11.38 11.38 0 0 0 3.18-8.52v-8.39a.6.6 0 0 0-.68-.68h-10.6a1.62 1.62 0 0 1-1.62-1.62V45.84a1.62 1.62 0 0 1 1.62-1.62h28.53a1.62 1.62 0 0 1 1.62 1.62v21.5q0 13.52-8.45 21.5t-22.51 8a34.7 34.7 0 0 1-16.22-3.67zM.32 95.26a1.54 1.54 0 0 1-.27-1.42L24.43 2.43a1.53 1.53 0 0 1 1.64-1.35h15.55a1.65 1.65 0 0 1 1.26.47A1.55 1.55 0 0 1 43.14 3L18.9 94.38a1.53 1.53 0 0 1-1.64 1.35H1.57a1.62 1.62 0 0 1-1.25-.47z" fill="#f5f5f5"/>
</svg>
