<?xml version="1.0" encoding="utf-8"?>
<!-- Generator: Adobe Illustrator 21.0.0, SVG Export Plug-In . SVG Version: 6.00 Build 0)  -->
<svg version="1.1" id="Layer_1" xmlns="http://www.w3.org/2000/svg" xmlns:xlink="http://www.w3.org/1999/xlink" x="0px" y="0px"
	 viewBox="0 0 374.9 76.7" style="enable-background:new 0 0 374.9 76.7;" xml:space="preserve">
<style type="text/css">
	.st0{fill:#FFC900;}
	.st1{fill:#FFC900;stroke:#000000;stroke-width:0.5;stroke-miterlimit:10;}
	.st2{fill:none;stroke:#000000;stroke-width:0.5;stroke-linecap:round;stroke-linejoin:round;}
</style>
<g>
	<polygon class="st0" points="374.6,57.1 374.6,0.5 369.5,19.7 369.5,76 	"/>
	<rect x="0.5" y="19.5" class="st0" width="369" height="56.6"/>
	<path class="st1" d="M0.3,19.6L5.4,0.5c0-0.1,0.2-0.2,0.3-0.2h368.6c0.2,0,0.3,0.1,0.2,0.3l-5.1,19.1c0,0.1-0.2,0.2-0.3,0.2H0.5
		C0.3,19.9,0.2,19.8,0.3,19.6z"/>
	<path class="st2" d="M0.3,76.1l5.2-19.1c0-0.1,0.2-0.2,0.3-0.2h368.6c0.2,0,0.3,0.1,0.2,0.3l-5.1,19.1c0,0.1-0.2,0.2-0.3,0.2H0.5
		C0.3,76.4,0.2,76.3,0.3,76.1z"/>
	<line class="st2" x1="369.1" y1="19.9" x2="369.1" y2="76"/>
	<line class="st2" x1="374.6" y1="0.5" x2="374.6" y2="57.1"/>
	<line class="st2" x1="0.5" y1="19.7" x2="0.5" y2="76"/>
	<line class="st2" x1="5.7" y1="0.3" x2="5.7" y2="56.9"/>
</g>
</svg>
