<svg xmlns="http://www.w3.org/2000/svg" viewBox="0 0 79.37 35.03"><title>Asset 39</title><path d="M55.11,26.91l-.32,2H52.17V0h3.24V11.23a30.86,30.86,0,0,1,2.66-1.7A7.11,7.11,0,0,1,65.8,10a6.82,6.82,0,0,1,2.59,3.72A14.78,14.78,0,0,1,68,24.28a7.9,7.9,0,0,1-6.09,5,7.41,7.41,0,0,1-5.56-1.42C56,27.58,55.57,27.26,55.11,26.91Zm.35-7.65q0,1.72,0,3.45c0,2.11,0,2.12,1.88,3.11,2.83,1.5,5.75.8,7.19-1.93A11.2,11.2,0,0,0,64.85,14a4.32,4.32,0,0,0-5-2.51A8.9,8.9,0,0,0,55.6,14a.8.8,0,0,0-.14.53C55.46,16.1,55.46,17.68,55.46,19.25Z" style="fill:#a9a5a6"/><path d="M32.89,13.48,31.6,11.22c.24-.16.48-.32.72-.47a13.81,13.81,0,0,1,6.07-2.08,7.07,7.07,0,0,1,4.9,1.12,6.51,6.51,0,0,1,2.49,4.65A20.32,20.32,0,0,1,46,17.24c0,3.68,0,7.36,0,11,0,.17,0,.35,0,.56h-2.7L43,26.53c-.6.43-1.11.82-1.65,1.18a8.73,8.73,0,0,1-5.13,1.65,5.4,5.4,0,0,1-5.42-6.18,5.71,5.71,0,0,1,3.3-4.62,19.77,19.77,0,0,1,6.11-1.83c.82-.14,1.65-.25,2.47-.37.16-2.8-1.14-5.06-4.11-4.95a8.64,8.64,0,0,0-3.74,1C34.18,12.73,33.58,13.09,32.89,13.48Zm9.83,5.14a1.28,1.28,0,0,0-.34,0c-1.81.42-3.63.8-5.42,1.3a4.51,4.51,0,0,0-2.39,1.69c-1,1.32-.92,4.34,1.54,4.94a5.29,5.29,0,0,0,3.21-.2,10.12,10.12,0,0,0,3.18-2.13.61.61,0,0,0,.2-.39C42.72,22.09,42.72,20.37,42.72,18.62Z" style="fill:#a9a5a6"/><path d="M0,.12H7.07V2.06H2.46V33.13h4.6V35H0Z" style="fill:#a9a5a6"/><path d="M76.93,2.08H72.34V.14h7V35h-7V33.16h4.58Z" style="fill:#a9a5a6"/><path d="M21.54,0h3.23c0,.23,0,.41,0,.6q0,12.12,0,24.24a4.69,4.69,0,0,0,.09.93c.13.62.44.88,1.07.81.41,0,.55.07.6.47a11.59,11.59,0,0,0,.29,1.6c.08.34,0,.47-.33.54a5.13,5.13,0,0,1-2.87,0c-1.51-.53-1.86-1.81-2-3.19a6.91,6.91,0,0,1,0-.87q0-12.18,0-24.36Z" style="fill:#a9a5a6"/><path d="M10.91,26.84a2.39,2.39,0,0,1,2.35-2.58,2.43,2.43,0,0,1,2.39,2.56,2.38,2.38,0,0,1-2.34,2.53A2.34,2.34,0,0,1,10.91,26.84Z" style="fill:#a9a5a6"/></svg>