<svg xmlns="http://www.w3.org/2000/svg" viewBox="0 0 153.3 59.26"><title>Asset 4</title><path d="M57.56,59.1v-10h1.13v10Z" style="fill:#a7a3a4"/><path d="M61.23,59.1v-10h2.25a3.74,3.74,0,0,1,3.17,1.3,6,6,0,0,1,.93,3.67q0,3-1.34,4.18a4.75,4.75,0,0,1-3.12.85ZM62.36,50v8.12h.76a3.17,3.17,0,0,0,2.34-.73,4.86,4.86,0,0,0,.88-3.35q0-2.49-.94-3.38A3.48,3.48,0,0,0,63,50Z" style="fill:#a7a3a4"/><path d="M68.44,59.1l3.19-10H73l3.23,10H75.12l-1-3.09H70.54l-1,3.09Zm3.87-9-1.46,4.95h3l-1.47-4.95Z" style="fill:#a7a3a4"/><path d="M77.59,59.1v-10h2.47a4.46,4.46,0,0,1,1.85.35,2.2,2.2,0,0,1,1.34,2.17,2.39,2.39,0,0,1-2,2.51v0a2.07,2.07,0,0,1,1.3.82A5,5,0,0,1,83,56.36l.58,2.74H82.41l-.5-2.31a3.87,3.87,0,0,0-.61-1.61,1.94,1.94,0,0,0-1.54-.53h-1V59.1ZM78.72,50V53.7h.63q2.79,0,2.79-2a1.45,1.45,0,0,0-.83-1.49A4.92,4.92,0,0,0,79.56,50Z" style="fill:#a7a3a4"/><path d="M91.37,57.49v1.18l-.93.36a6,6,0,0,1-1.73.23,3.27,3.27,0,0,1-3.06-1.76,7.26,7.26,0,0,1-.79-3.59,6.36,6.36,0,0,1,.81-3.46,3.26,3.26,0,0,1,3-1.52,3.13,3.13,0,0,1,2.3.84,2.77,2.77,0,0,1,.8,2.05H90.47A2,2,0,0,0,90,50.43a1.71,1.71,0,0,0-1.35-.56q-2.53,0-2.53,4.1a6.63,6.63,0,0,0,.52,2.81A2.45,2.45,0,0,0,89,58.32,3.83,3.83,0,0,0,91.37,57.49Z" style="fill:#a7a3a4"/><path d="M93.14,59.1v-10h1.13v4.33H98.4V49.09h1.13v10H98.4V54.37H94.27V59.1Z" style="fill:#a7a3a4"/><path d="M102.05,59.1v-10h1.13v10Z" style="fill:#a7a3a4"/><path d="M106.88,59.1V50h-2.39v-.94h5.91V50H108V59.1Z" style="fill:#a7a3a4"/><path d="M111.61,59.1v-10h5V50h-3.84v3.35h3.54v.94h-3.54v3.83h3.84v.94Z" style="fill:#a7a3a4"/><path d="M124.31,57.49v1.18l-.93.36a6,6,0,0,1-1.73.23,3.27,3.27,0,0,1-3.06-1.76,7.26,7.26,0,0,1-.79-3.59,6.36,6.36,0,0,1,.81-3.46,3.26,3.26,0,0,1,3-1.52,3.13,3.13,0,0,1,2.3.84,2.77,2.77,0,0,1,.8,2.05h-1.27a2,2,0,0,0-.47-1.39,1.71,1.71,0,0,0-1.35-.56q-2.53,0-2.53,4.1a6.63,6.63,0,0,0,.52,2.81,2.45,2.45,0,0,0,2.37,1.54A3.83,3.83,0,0,0,124.31,57.49Z" style="fill:#a7a3a4"/><path d="M127.24,59.1V50h-2.39v-.94h5.91V50h-2.39V59.1Z" style="fill:#a7a3a4"/><path d="M138.19,49.09v6.78a4.09,4.09,0,0,1-.48,2.18,3,3,0,0,1-2.77,1.2q-3.06,0-3.05-3.38V49.09H133v6.58a4.26,4.26,0,0,0,.27,1.75,1.72,1.72,0,0,0,1.7.9,1.83,1.83,0,0,0,1.82-.9,4.21,4.21,0,0,0,.26-1.75V49.09Z" style="fill:#a7a3a4"/><path d="M140.55,59.1v-10H143a4.46,4.46,0,0,1,1.85.35,2.2,2.2,0,0,1,1.34,2.17,2.39,2.39,0,0,1-2,2.51v0a2.07,2.07,0,0,1,1.3.82,5,5,0,0,1,.43,1.38l.58,2.74h-1.12l-.5-2.31a3.87,3.87,0,0,0-.61-1.61,1.94,1.94,0,0,0-1.54-.53h-1V59.1ZM141.68,50V53.7h.63q2.79,0,2.79-2a1.45,1.45,0,0,0-.83-1.49,4.92,4.92,0,0,0-1.74-.21Z" style="fill:#a7a3a4"/><path d="M148.33,59.1v-10h5V50h-3.84v3.35H153v.94h-3.54v3.83h3.84v.94Z" style="fill:#a7a3a4"/><polygon points="61.21 0 66.79 0 41.89 57.98 36.68 57.98 61.21 0" style="fill:#a7a3a4"/><path d="M70.68,33.17c-.2-.3-6.08-13.95-6.08-13.95L66.79,13,80,44.13H75.26l-2.94-6.57-14.69-.1,1.59-4.18Z" style="fill:#a7a3a4"/><polygon points="0.52 13.9 5.68 13.9 5.68 44.9 0 44.9 0.52 13.9" style="fill:#a7a3a4"/><path d="M29.44,13.9h-17l-.3,31H30.86S41.76,41.09,41.76,31C41.76,15.76,29.44,13.9,29.44,13.9Zm.36,26.32H18l.19-21H28.91s7.78,1.27,7.78,11.59C36.68,37.64,29.8,40.22,29.8,40.22Z" style="fill:#a7a3a4"/></svg>