<svg xmlns="http://www.w3.org/2000/svg" viewBox="0 0 82.44 33.28"><title>Asset 41</title><polygon points="82.44 2.37 68.72 2.37 69.56 0 82.44 0 82.44 2.37" style="fill:#a9a5a6"/><path d="M45.86,0H58.6l.83,2.37H45.86Z" style="fill:#a9a5a6"/><path d="M35.74,0a9.16,9.16,0,0,1,5.48,2.37H18.12V0Z" style="fill:#a9a5a6"/><rect width="16.04" height="2.37" style="fill:#a9a5a6"/><path d="M8,1.18" style="fill:#a9a5a6"/><path d="M82.44,6.81H67.14S68,4.45,68,4.45H82.44Z" style="fill:#a9a5a6"/><polygon points="61.01 6.81 45.86 6.81 45.86 4.45 60.18 4.45 61.01 6.81" style="fill:#a9a5a6"/><path d="M43,4.45a6.11,6.11,0,0,1,.66,2.35H18.13V4.45Z" style="fill:#a9a5a6"/><rect y="4.45" width="16.04" height="2.35" style="fill:#a9a5a6"/><path d="M8,5.63" style="fill:#a9a5a6"/><polygon points="65.58 11.26 66.42 8.89 77.9 8.89 77.9 11.25 65.58 11.26" style="fill:#a9a5a6"/><polygon points="61.74 8.89 62.58 11.26 50.37 11.26 50.37 8.89 61.74 8.89" style="fill:#a9a5a6"/><path d="M43.88,8.89a7.72,7.72,0,0,1-.34,2.37h-7V8.89Z" style="fill:#a9a5a6"/><rect x="4.47" y="8.9" width="6.9" height="2.35" style="fill:#a9a5a6"/><path d="M7.92,10.08" style="fill:#a9a5a6"/><rect x="22.77" y="8.89" width="6.88" height="2.37" style="fill:#a9a5a6"/><path d="M26.21,10.07" style="fill:#a9a5a6"/><path d="M57.15,13.81v1.79H50.37V13.25H63.3l.8,2.2s.77-2.2.78-2.2h13v2.36H71.15V13.81l-.62,1.79H57.78Z" style="fill:#a9a5a6"/><path d="M22.77,13.25H42.53a8.88,8.88,0,0,1-2,2.36H22.77Z" style="fill:#a9a5a6"/><rect x="4.47" y="13.25" width="6.9" height="2.35" style="fill:#a9a5a6"/><path d="M7.92,14.43" style="fill:#a9a5a6"/><rect x="71.15" y="17.69" width="6.75" height="2.35" style="fill:#a9a5a6"/><path d="M74.52,18.87" style="fill:#a9a5a6"/><path d="M57.15,17.69H50.37V20h6.78S57.16,17.69,57.15,17.69Z" style="fill:#a9a5a6"/><path d="M69.79,17.69S69,20,69,20H59.35s-.85-2.36-.85-2.36Z" style="fill:#a9a5a6"/><path d="M22.77,17.69H40.54A11.62,11.62,0,0,1,42.66,20H22.77Z" style="fill:#a9a5a6"/><polygon points="11.37 20.05 11.37 17.69 4.49 17.69 4.49 20.04 11.37 20.05" style="fill:#a9a5a6"/><rect x="71.15" y="22.13" width="6.75" height="2.36" style="fill:#a9a5a6"/><path d="M74.52,23.31" style="fill:#a9a5a6"/><rect x="50.37" y="22.13" width="6.78" height="2.35" style="fill:#a9a5a6"/><path d="M53.76,23.31" style="fill:#a9a5a6"/><path d="M67.39,24.5s.83-2.37.85-2.37H60.06s.84,2.36.84,2.36Z" style="fill:#a9a5a6"/><path d="M22.77,24.48s0-2.35,0-2.35h7s0,2.36,0,2.36Z" style="fill:#a9a5a6"/><path d="M43.64,22.13a6.82,6.82,0,0,1,.44,2.37h-7.4V22.13Z" style="fill:#a9a5a6"/><rect x="4.48" y="22.13" width="6.88" height="2.35" style="fill:#a9a5a6"/><path d="M7.93,23.31" style="fill:#a9a5a6"/><rect x="71.15" y="26.48" width="11.29" height="2.36" style="fill:#a9a5a6"/><path d="M76.79,27.66" style="fill:#a9a5a6"/><rect x="45.86" y="26.48" width="11.3" height="2.36" style="fill:#a9a5a6"/><path d="M51.5,27.66" style="fill:#a9a5a6"/><polygon points="65.87 28.83 62.42 28.83 61.59 26.48 66.67 26.48 65.87 28.83" style="fill:#a9a5a6"/><path d="M0,26.48v2.35H16s0-2.35,0-2.35Z" style="fill:#a9a5a6"/><path d="M43.78,26.48a5.06,5.06,0,0,1-.89,2.36H18.13V26.48Z" style="fill:#a9a5a6"/><polygon points="64.31 33.28 63.99 33.28 63.18 30.92 65.13 30.92 64.31 33.28" style="fill:#a9a5a6"/><rect x="71.15" y="30.92" width="11.29" height="2.37" style="fill:#a9a5a6"/><path d="M76.79,32.1" style="fill:#a9a5a6"/><path d="M18.12,33.28V30.92H41.35a8.79,8.79,0,0,1-6,2.36H18.13" style="fill:#a9a5a6"/><rect x="45.86" y="30.92" width="11.3" height="2.37" style="fill:#a9a5a6"/><path d="M51.5,32.1" style="fill:#a9a5a6"/><path d="M16,30.93s0,2.35,0,2.35H0s0-2.36,0-2.36Z" style="fill:#a9a5a6"/></svg>