<svg xmlns="http://www.w3.org/2000/svg" viewBox="0 0 117.1 96.1"><title>Asset 35</title><path d="M11.33,96.1V94.66h93.09V96.1Z" style="fill:#a9a5a6"/><path d="M102.26,0a11.16,11.16,0,0,1,1.61,2.21c.51,1.25-.46,3.68-2.43,3.63A2.44,2.44,0,0,1,99,4.32a2.87,2.87,0,0,1,.3-3.22c.31-.39.66-.74,1-1.1Z" style="fill:#a9a5a6"/><path d="M48.18,23.73c2-1,3.72-1.95,5.51-2.78,2.25-1,4.52-2.07,6.84-3,3.16-1.24,6.34-2.43,9.56-3.51,2.72-.92,5.48-1.72,8.25-2.47,2.6-.7,5.25-1.26,7.88-1.86,2.05-.46,4.11-.92,6.17-1.3,2.56-.47,5.12-.95,7.7-1.26,3.09-.38,6.2-.59,9.3-.89,1.34-.13,2.67-.33,4-.41s2.46,0,3.69,0v.5c-1.6,0-3.21,0-4.79.17a43.85,43.85,0,0,0-7.66,1.34,34.71,34.71,0,0,1-5.92,1.27,16.45,16.45,0,0,0-3.14,1.12c-.76.27-1.52.53-2.3.74a3.15,3.15,0,0,0-2.51,2.22c-.48,1.6-2.14,1.49-3.4,1.89s-2.31.58-3.45.91a.82.82,0,0,0-.4.54,3.47,3.47,0,0,0,0,.86q0,22.08,0,44.17v1.37c-1.78,0-3.46,0-5.13,0-.24,0-.53-.43-.66-.72a2.19,2.19,0,0,1,0-.85q0-21.12,0-42.23V18.14l-5.18,1.47a12.09,12.09,0,0,1-2.22.6A2.06,2.06,0,0,1,69,19.62a2,2,0,0,0-2.44-.41c-4.07,1.89-8.22,3.64-12.24,5.63a71.21,71.21,0,0,0-8.51,4.84c-3.81,2.59-7.46,5.44-11.11,8.25-3.27,2.52-6.51,5.09-9.66,7.76-1.73,1.47-3.24,3.19-4.85,4.8-2.82,2.82-5.68,5.59-8.44,8.46s-5.29,5.78-8,8.64A34,34,0,0,1,0,71l4.13-6.68L4,64.14,2,65.68l-.19-.15c.5-.73,1-1.48,1.49-2.19,1.4-1.86,2.78-3.73,4.25-5.54s2.83-3.33,4.3-4.95,3.12-3.3,4.71-4.92a11.75,11.75,0,0,1,1.38-1.17c2.34-1.76,3.13-4.49,4.33-7,1.06-2.17,2-4.41,3-6.61Q28.07,26.94,31,20.68C32,18.53,33,16.4,34,14.25c1.34-2.85,2.65-5.72,4-8.56A1.26,1.26,0,0,1,38.85,5a1.22,1.22,0,0,1,1,.54c1.38,2.89,2.71,5.8,4,8.71,1.23,2.68,2.44,5.36,3.66,8C47.73,22.77,48,23.26,48.18,23.73ZM30.9,35.25c.32-.2.47-.28.6-.37q5.43-3.82,10.86-7.64A.79.79,0,0,0,42.68,26c-.92-1.73-1.7-3.53-2.54-5.3l-1.24-2.6Z" style="fill:#a9a5a6"/><path d="M98.8,63.14c0-2.07,0-3.9,0-5.73,0-2.57,0-5.14,0-7.7,0-1.14-.16-2.28-.18-3.42,0-.52.18-1,.18-1.57,0-1.64-.12-3.29-.13-4.93,0-1,.15-2,.13-3,0-1.72-.15-3.43-.19-5.14,0-.56.2-1.12.19-1.68,0-2-.18-4.08-.19-6.11s.16-3.86.18-5.79,0-3.58-.11-5.37c0-.94.7-.91,1.18-1A32.94,32.94,0,0,1,103.7,11c.21,0,.54.31.69.56s0,.49,0,.74q0,24.82,0,49.64c0,1.09-.28,1.48-1.38,1.38s-2.15,0-3.23,0A5.32,5.32,0,0,1,98.8,63.14Z" style="fill:#a9a5a6"/><path d="M45.5,32.07,50.56,29,66.09,63.12a4.86,4.86,0,0,1-1,.22c-1.44,0-2.87.06-4.3,0a1.52,1.52,0,0,1-1.11-.68c-2.08-4.4-4.09-8.83-6.15-13.24-1.85-4-3.73-7.92-5.58-11.89C47.14,35.74,46.35,33.95,45.5,32.07Z" style="fill:#a9a5a6"/><path d="M104.35,66.58H12.42c-.68,0-1.48.15-1.29-1,0-.19.28-.48.44-.48,1.3-.05,2.6-.07,3.89,0,1,0,2,.19,3,.2,3,0,5.9,0,8.85,0,1.64,0,3.27-.19,4.91-.19s3.5.19,5.25.18c2,0,4-.17,6-.18,1.21,0,2.41.19,3.62.18,2,0,4-.2,6-.18,4.94,0,9.88.14,14.82.19,1,0,1.91-.2,2.86-.19,1.67,0,3.35.19,5,.18,2.29,0,4.57-.16,6.86-.16,2.55,0,5.09.14,7.64.16,1.24,0,2.48-.19,3.73-.19,1.49,0,3,.19,4.48.18,1.72,0,3.43-.11,5.15-.2C104.31,65,104.45,65.28,104.35,66.58Z" style="fill:#a9a5a6"/><path d="M24.52,48.82c-.31.68-.61,1.35-.93,2-1.79,3.8-3.6,7.59-5.35,11.41a1.62,1.62,0,0,1-1.79,1.12c-1.32-.08-2.65,0-4,0-1,0-1-.18-.68-1C13,58.64,15.94,56.49,18.58,54c1.65-1.53,3.26-3.1,4.88-4.66l.76-.71Z" style="fill:#a9a5a6"/><path d="M40.35,90c-1.82-.31-1.82-.31-1.79-1.1a19.4,19.4,0,0,1,2.52-.26c.75,0,.7.68.61,1.21a3.53,3.53,0,0,1-3.05,3,3.75,3.75,0,0,1-3.58-1.8A4.1,4.1,0,0,1,35,86.78,3.3,3.3,0,0,1,38.53,85a13.09,13.09,0,0,1,3.07,1.33l-.93,1.29c-1.17-1.2-2.39-2.13-4-.94a3.22,3.22,0,0,0-.93,3.12,3.35,3.35,0,0,0,2.48,2A2.29,2.29,0,0,0,40.35,90Z" style="fill:#a9a5a6"/><path d="M26.63,89.55c0-1.25,0-2.5,0-3.75,0-.3.33-.59.5-.89.26.29.72.58.73.88.06,2.1,0,4.2,0,6.3,0,.19-.29.54-.39.52a1.41,1.41,0,0,1-.78-.43c-.84-1.09-1.62-2.22-2.45-3.31a6.29,6.29,0,0,0-.83-.73c.06,1.36.1,2.46.17,3.55,0,.65-.13,1-.88,1s-.45-.52-.44-1c0-1.87,0-3.73,0-5.6,0-.37.07-.73.15-1.44l3.9,5Z" style="fill:#a9a5a6"/><path d="M60.24,89.54c0-1.25,0-2.5,0-3.75,0-.3.32-.59.5-.89.19.28.52.56.53.85.1,2.13.15,4.27.19,6.4,0,.14-.15.41-.24.41a.73.73,0,0,1-.53-.21c-1-1.17-1.89-2.37-2.84-3.55a4.83,4.83,0,0,0-.62-.55L57,88.4c.06,1.15.16,2.3.17,3.45a1,1,0,0,1-.42.76c-.16.08-.72-.22-.72-.35,0-2.41,0-4.82,0-7.23l.35-.13L60,89.65Z" style="fill:#a9a5a6"/><path d="M25.66,73.08l2,3.19c-2.31.06-2.21-2.23-3.62-3v3c-.73.17-1.12.06-1.12-.66,0-2.29,0-4.58,0-6.94,1.3-.08,2.6-.38,3.63.49,1.21,1,1.33,2.32,0,3.34Zm-1.52-3.27c-.21,1.71-.15,1.89.65,1.94s1.47,0,1.39-1C26.07,69.36,25,69.95,24.14,69.81Z" style="fill:#a9a5a6"/><path d="M91.9,89.46l2.17,3.14c-1,.13-1.65,0-2.1-.85A5.41,5.41,0,0,0,90.44,90v2.59l-1.05.08V84.92c1,.13,2.09.19,3.1.4s1.13,1.15,1.17,2.09a1.8,1.8,0,0,1-1.2,1.79ZM90.24,87c.15.76.07,1.37,1,1.33s1.28-.4,1.33-1.2c.07-1.17-1.06-.5-1.48-.93Z" style="fill:#a9a5a6"/><path d="M45,76.17v-7.5c1.18-.23,1.17-.23,1.06.9a4.61,4.61,0,0,0,0,1.3c0,.25.31.6.51.64a5,5,0,0,0,1.71,0c.22,0,.5-.46.52-.74a21,21,0,0,0,0-2.17c.8-.14,1.19-.16,1.12.89a58.07,58.07,0,0,0,0,6c0,.57-.07.87-.62.74-.22-.05-.47-.44-.52-.71a7,7,0,0,1,0-1.28c0-1.42,0-1.39-1.44-1.43-1,0-1.67,0-1.17,1.33a2.37,2.37,0,0,1,0,1.52c-.12.33-.61.54-.93.8Z" style="fill:#a9a5a6"/><path d="M82.75,85.07c.05.21.31.71.18.86a2.13,2.13,0,0,1-1.08.46,1.46,1.46,0,0,1-.85,0c-.75-.31-1.08,0-1.13.71s.24,1.15,1.05,1c.55-.07,1.11-.08,1.76-.12l.6,1.19c-.94,0-1.66.06-2.37,0-1-.11-1.06.47-1.08,1.24s.13,1.25,1.05,1.15a5.73,5.73,0,0,1,1.61,0c.22,0,.38.41.56.63-.18.14-.36.39-.54.39a31.53,31.53,0,0,1-3.33,0c-.23,0-.59-.49-.6-.77-.05-2,0-4.08,0-6.12,0-.72.23-.85,1-.7A18.34,18.34,0,0,0,82.75,85.07Z" style="fill:#a9a5a6"/><path d="M83.6,68.53a2.74,2.74,0,0,1,2.64,1.15,1,1,0,0,1,0,1c-.29.44-.54.28-.87-.14A2,2,0,0,0,83,69.6a2.83,2.83,0,0,0-1.87,2.52c.11,2.1.47,2.83,2.29,3.05a3.08,3.08,0,0,0,1.92-.88c.35-.29.56-.6.88-.15a1,1,0,0,1,.07,1c-1,1.36-2.48,1.41-3.86,1.1A3.18,3.18,0,0,1,80,73.5a4.51,4.51,0,0,1,.45-3.33A3,3,0,0,1,83.6,68.53Z" style="fill:#a9a5a6"/><path d="M68.17,85.23c1.29-.12,2.41-.25,3.53-.3.19,0,.58.38.56.56a1.29,1.29,0,0,1-.49.87c-.23.15-.63,0-.95,0s-1.09-.1-1.19.09a5,5,0,0,0-.24,1.63,6.23,6.23,0,0,0,1.88,0c1-.37,1,.24,1.19,1h-3v2.44a20.92,20.92,0,0,1,2.26,0c.26,0,.49.37.73.57-.23.16-.46.45-.69.46-1.2,0-2.4,0-3.63,0Z" style="fill:#a9a5a6"/><path d="M71.91,72.83c0,.33,0,.51,0,.69,0,1.5,0,1.5,1.41,1.47a2,2,0,0,1,.85,0,3.41,3.41,0,0,1,.74.7c-.24.19-.48.52-.74.54a14.64,14.64,0,0,1-2.58,0c-.27,0-.73-.41-.73-.63-.05-2.32,0-4.65,0-7.09,1.22,0,2.36,0,3.49,0,.21,0,.59.42.55.57a1,1,0,0,1-.59.66,3.26,3.26,0,0,1-1.39,0c-.53-.11-1-.31-1,.53s0,1.34,1,1.23a4.09,4.09,0,0,1,1.39,0,1,1,0,0,1,.6.67c0,.14-.36.54-.58.56C73.5,72.87,72.75,72.83,71.91,72.83Z" style="fill:#a9a5a6"/><path d="M14.73,68.49l3.16,7.68c-1.22.09-1.22.09-2.21-2.26h-.51c-1.86,0-1.88,0-2.56,1.77-.31.82-.88.6-1.58.54l3.34-7.72Zm.12,2.88-.6-.06-.18,1.36.67.07Z" style="fill:#a9a5a6"/><path d="M38.91,71.13c-2-1.79-3.12-1.93-4.33-.76a3.28,3.28,0,0,0-.11,4c1.17,1.32,2.24,1.22,4.22-.41.72.39.88.8.19,1.45a3.68,3.68,0,0,1-4.42.43A4.05,4.05,0,0,1,32.8,72a3.86,3.86,0,0,1,2.09-3.26c1.07-.66,3.71-.06,4.28,1C39.31,70.07,39,70.55,38.91,71.13Z" style="fill:#a9a5a6"/><path d="M13,86.21A4.11,4.11,0,0,0,13,87.75c.11.25.74.28,1.15.38a1.19,1.19,0,0,0,.64,0c1.12-.42,1.07.25,1,1.09-.55,0-1.08,0-1.62,0-.74,0-1.44-.13-1.38,1,0,1,.28,1.48,1.35,1.34a13.09,13.09,0,0,1,1.64,0v1h-4c0-2.39,0-4.78,0-7.16,0-.17.47-.48.72-.48a20.74,20.74,0,0,1,2.63.11c.24,0,.67.31.66.41-.06.32-.26.86-.45.88a12.16,12.16,0,0,1-2-.07Z" style="fill:#a9a5a6"/><path d="M101.95,86c-.72.55-.72,1-.14,1.57a13.63,13.63,0,0,1,1.87,1.92,2.38,2.38,0,0,1-.57,3.05,2.12,2.12,0,0,1-3-.84c-.14-.2-.26-.42-.43-.7l.83-.91c.21.4.27.74.46.86.42.25,1.09.68,1.34.52.62-.39.54-1.09,0-1.63s-1-1-1.52-1.52a2,2,0,0,1-.11-2.89,1.82,1.82,0,0,1,2.85.27c.16.18.19.73.05.84a1.08,1.08,0,0,1-.91.12C102.43,86.57,102.21,86.25,101.95,86Z" style="fill:#a9a5a6"/><path d="M104.23,69.59c-.51.7-.93.88-1.57.34-.23-.2-.67-.15-1-.21,0,.41-.05.94.17,1.21a22.24,22.24,0,0,1,2,2.15,2.9,2.9,0,0,1,.11,2,1.67,1.67,0,0,1-2.3,1.11A4.69,4.69,0,0,1,100,74.84c-.08-.08.26-.56.41-.85.31.2.75.32.9.6.29.53.69.88,1.15.48a1.72,1.72,0,0,0,.32-1.37c-.05-.34-.53-.6-.8-.9a11.54,11.54,0,0,1-1.36-1.61,1.72,1.72,0,0,1,.44-2.37,2.13,2.13,0,0,1,2.53.24C103.75,69.24,104,69.41,104.23,69.59Z" style="fill:#a9a5a6"/><path d="M91.57,68.52c1.13,0,2.21,0,3.28,0,.26,0,.48.43.72.66-.27.17-.57.53-.8.49-.77-.14-.71.33-.71.79q0,2.85,0,5.69c-1.27.06-1.43-.22-1.28-1.67A30.59,30.59,0,0,0,93,70.8a1.25,1.25,0,0,0-.68-.94C91.58,69.64,91.34,69.31,91.57,68.52Z" style="fill:#a9a5a6"/><path d="M64.33,69.85c0,1.84,0,3.62,0,5.41,0,.45.1,1-.61,1s-.49-.53-.48-1c0-1.51.05-3,0-4.53,0-.46.05-1.18-.9-1-.2,0-.51-.59-.77-.91l.22-.32c1.16,0,2.33,0,3.49,0,.19,0,.56.38.53.48a1.44,1.44,0,0,1-.56.75C65,69.91,64.7,69.84,64.33,69.85Z" style="fill:#a9a5a6"/><path d="M56.38,80.35c.66-.12,1.51,0,1.93-.43s.32-1.21.47-1.85c0-.08.16-.14.46-.38a6.73,6.73,0,0,1,.33,1.5c0,.75.26,1,1,1,.39,0,.78.34,1.16.53-.42.17-.83.37-1.26.51a2.56,2.56,0,0,1-.73,0l-.48,2.12-.44,0A9.63,9.63,0,0,1,58.49,82c-.06-.61-.13-1-.93-.83-.37.08-.82-.2-1.24-.32Z" style="fill:#a9a5a6"/><path d="M49,84.9A5.46,5.46,0,0,1,49.24,86c0,1.9,0,3.79,0,5.69a1.13,1.13,0,0,1-.59.88c-.67.15-.68-.41-.68-.9,0-1.93,0-3.86,0-5.79C47.94,85.25,48.16,84.92,49,84.9Z" style="fill:#a9a5a6"/><path d="M55.5,68.59c.86-.17,1.18-.07,1.12.92-.13,2,0,3.94,0,5.91a2.52,2.52,0,0,1-.38.86c-.23-.24-.66-.47-.67-.72C55.48,73.24,55.5,70.91,55.5,68.59Z" style="fill:#a9a5a6"/></svg>