<svg xmlns="http://www.w3.org/2000/svg" viewBox="0 0 144.02 66.99"><title>Asset 36</title><path d="M40.47,8.15a8.48,8.48,0,0,1,16.94.61,8.48,8.48,0,1,1-16.94-.61Z" style="fill:#a9a5a6"/><path d="M0,28.59a8.48,8.48,0,1,1,8.32,8.55A8.53,8.53,0,0,1,0,28.59Z" style="fill:#a9a5a6"/><path d="M0,8.44a8.47,8.47,0,0,1,16.94-.08A8.52,8.52,0,0,1,8.47,17,8.52,8.52,0,0,1,0,8.44Z" style="fill:#a9a5a6"/><path d="M48.82,57.34a8.41,8.41,0,0,1-8.38-8.43,8.48,8.48,0,0,1,17,0A8.41,8.41,0,0,1,48.82,57.34Z" style="fill:#a9a5a6"/><path d="M48.91,37.14a8.48,8.48,0,0,1,0-17,8.48,8.48,0,1,1,0,17Z" style="fill:#a9a5a6"/><path d="M102.91,20.36a8.43,8.43,0,1,1-8.53,8.39A8.32,8.32,0,0,1,102.91,20.36Z" style="fill:#a9a5a6"/><path d="M8.41,57.34a8.45,8.45,0,1,1,8.53-8.48A8.36,8.36,0,0,1,8.41,57.34Z" style="fill:#a9a5a6"/><path d="M92.7.11a8.54,8.54,0,0,1,8.49,8.51A8.48,8.48,0,1,1,92.7.11Z" style="fill:#a9a5a6"/><path d="M121.36,49a8.46,8.46,0,1,1-16.92,0,8.46,8.46,0,0,1,16.92,0Z" style="fill:#a9a5a6"/><path d="M80.85,49.1a8.45,8.45,0,1,1-8.29-8.49A8.3,8.3,0,0,1,80.85,49.1Z" style="fill:#a9a5a6"/><path d="M82.57,20.36a8.43,8.43,0,1,1-8.48,8.33A8.39,8.39,0,0,1,82.57,20.36Z" style="fill:#a9a5a6"/><path d="M28.69,57.34A8.37,8.37,0,0,1,20.24,49a8.47,8.47,0,1,1,16.93,0A8.38,8.38,0,0,1,28.69,57.34Z" style="fill:#a9a5a6"/><path d="M133.9,2.83c1.53-2.3,3.64-3.18,6-2.53a5.32,5.32,0,0,1,4,5.33c0,2.08,0,4.17,0,6.25,0,.61-.19.87-.83.86-4.27,0-8.55,0-12.82,0a5.56,5.56,0,0,1-5.35-4.93,5.71,5.71,0,0,1,3.61-6.43C130.37.73,132,1.15,133.9,2.83Zm4.62,7.54h0c.76,0,1.53,0,2.29,0s.86-.17.84-.83c0-1.31,0-2.63,0-3.95a3,3,0,0,0-3.15-3.14,3,3,0,0,0-3.15,3.11c0,1.21.07,2.43,0,3.63-.09,1,.34,1.26,1.25,1.18C137.19,10.32,137.86,10.37,138.51,10.37ZM133,7.9a14.7,14.7,0,0,0,0-2.07,2.82,2.82,0,0,0-4.46-1.9,3.81,3.81,0,0,0-1.27,4,3.59,3.59,0,0,0,3.29,2.44C133,10.41,133,10.41,133,7.9Z" style="fill:#a9a5a6"/><path d="M143.83,30.67h-6.7v8.52h5.42c1.28,0,1.77.69,1.3,1.88a.81.81,0,0,1-.62.38c-4.17,0-8.35.15-12.51,0a6.24,6.24,0,0,1-5.85-6.73,6.39,6.39,0,0,1,6.55-6.31h11c1.58,0,1.58,0,1.53,1.61C143.89,30.15,143.86,30.32,143.83,30.67Zm-9.12.07a34.48,34.48,0,0,0-3.94,0,4.12,4.12,0,0,0-3.66,4.13,4.06,4.06,0,0,0,3.5,4.13,23.11,23.11,0,0,0,3.52.16.78.78,0,0,0,.55-.53C134.72,36,134.71,33.41,134.71,30.74Z" style="fill:#a9a5a6"/><path d="M125.36,64.44H138c2.67,0,3.64-1,3.64-3.64,0-1.36,0-2.71,0-4.07,0-.82.39-.92,1-.87s1.32-.2,1.27.85a58.51,58.51,0,0,1-.3,6.33,4.25,4.25,0,0,1-4.24,3.66c-4.45.12-8.9.08-13.35.07a.88.88,0,0,1-.63-.57A10.49,10.49,0,0,1,125.36,64.44Z" style="fill:#a9a5a6"/><path d="M14.41,63.16c2.1-.43,3.21.29,3.16,1.87A1.92,1.92,0,0,1,16,67a1.82,1.82,0,0,1-2.14-1.38,30,30,0,0,1-.14-3.83c0-.12.19-.24.29-.36.14.12.39.23.41.37A12.21,12.21,0,0,1,14.41,63.16Zm2.5,1.69a1.3,1.3,0,0,0-1.25-1.23A1.23,1.23,0,0,0,14.43,65a1.27,1.27,0,0,0,1.22,1.31C16.28,66.37,16.93,65.6,16.91,64.86Z" style="fill:#a9a5a6"/><path d="M119.44,64.57l-2.72,1.2c1,1.07,1.75.12,2.56-.29A1.52,1.52,0,0,1,117.61,67a1.94,1.94,0,0,1-1.91-1.83A2,2,0,0,1,117.21,63C118.24,62.75,119.07,63.32,119.44,64.57Zm-1-.32,0-.38c-.45,0-1-.22-1.32-.06s-.56.67-.84,1l.26.24Z" style="fill:#a9a5a6"/><path d="M85.44,65.69A1.51,1.51,0,0,1,83.65,67a2,2,0,0,1-.56-3.89,1.77,1.77,0,0,1,2.14.57c.46.53.52,1-.27,1.24s-1.33.54-2.07.85C83.85,66.86,84.6,65.8,85.44,65.69Zm-.77-1.45,0-.43a4,4,0,0,0-1.44,0c-.32.13-.48.65-.71,1l.27.22Z" style="fill:#a9a5a6"/><path d="M46.57,66.69a11.75,11.75,0,0,0-1.43.21,1.91,1.91,0,0,1-2.37-1.33A2,2,0,0,1,44.11,63a1.78,1.78,0,0,1,2.3,1.21A15.24,15.24,0,0,1,46.57,66.69ZM45.88,65a1.32,1.32,0,0,0-1.3-1.35c-.82,0-1.13.62-1.16,1.34a1.19,1.19,0,0,0,1.15,1.35A1.31,1.31,0,0,0,45.88,65Z" style="fill:#a9a5a6"/><path d="M66.63,66.83c0-.63,0-1.27,0-1.9s-.12-1.25-.88-1.29-1,.55-1,1.25,0,1.26,0,2c-.81-.58-.93-4.65-.21-5.82L64.81,63l.13-.26c.7.29,1.71.38,2,.9a4.06,4.06,0,0,1,.11,3.19Z" style="fill:#a9a5a6"/><path d="M25.28,66.66c-.66.11-1.08.15-1.47.25a1.92,1.92,0,0,1-2.35-1.34A2.08,2.08,0,0,1,22.79,63a1.84,1.84,0,0,1,2.34,1.32A15.79,15.79,0,0,1,25.28,66.66ZM24.57,65a1.27,1.27,0,0,0-1.3-1.34,1.36,1.36,0,0,0,0,2.69A1.29,1.29,0,0,0,24.57,65Z" style="fill:#a9a5a6"/><path d="M1.25,62.85c0,.85,0,1.51,0,2.17s.14,1.24.9,1.25.94-.57.94-1.23,0-1.31,0-2.2c1.18,1.08.79,3.62-.33,4-.75.27-1.66.21-1.89-.55a12.56,12.56,0,0,1-.23-3.12C.63,63.13.85,63.07,1.25,62.85Z" style="fill:#a9a5a6"/><path d="M60,64.46c-1.07-.38-2-1.53-2.84-.17a1.28,1.28,0,0,0,1.27,1.94c.46-.12.87-.44,1.39-.56A1.44,1.44,0,0,1,58.36,67a2,2,0,0,1-2.06-1.68A2.05,2.05,0,0,1,57.71,63C58.66,62.74,59.48,63.17,60,64.46Z" style="fill:#a9a5a6"/><path d="M92.9,64.37l-.77-.5a1.06,1.06,0,0,0-1.63.27,2,2,0,0,0,0,1.6,1.07,1.07,0,0,0,1.63.32c.09-.05.15-.16.24-.19a6.15,6.15,0,0,1,.62-.13c-.07.23-.08.53-.23.69a2,2,0,0,1-3.2-2A1.79,1.79,0,0,1,91.29,63,1.59,1.59,0,0,1,93.1,64.1Z" style="fill:#a9a5a6"/><path d="M105.88,63.05c.11,1.06.4,2.18-.23,3.13a2,2,0,0,1-1.64.67,2,2,0,0,1-1.22-1.26,10.6,10.6,0,0,1-.05-2.56l.42,0a2.71,2.71,0,0,1,.21.67,6.3,6.3,0,0,0,0,1.55c.13.41.59.71.9,1.06.31-.34.77-.64.9-1a7,7,0,0,0,.06-1.55,2.61,2.61,0,0,1,.29-.71Z" style="fill:#a9a5a6"/><path d="M32.16,66.88A9.16,9.16,0,0,1,32,66a4.11,4.11,0,0,0,0-1.33c-.18-.39-.64-.66-1-1-.28.32-.71.61-.8,1a10.57,10.57,0,0,0,0,1.65c0,.2-.25.38-.39.58-.12-.18-.33-.36-.34-.54a10.63,10.63,0,0,1,0-2,1.61,1.61,0,0,1,3.2.19c0,.78-.05,1.56-.08,2.34Z" style="fill:#a9a5a6"/><path d="M97.51,62.32l1.21,1.09c-1.24.8-1.24,1.91,0,3.2a.78.78,0,0,1-1.35-.4,35.72,35.72,0,0,1-.26-3.88Z" style="fill:#a9a5a6"/><path d="M77.89,63.24a7.39,7.39,0,0,0-.6,1.53c-.08.57-.25,1.29.67,1.48.07,0,.16.32.1.42s-.35.24-.41.19c-.36-.27-.92-.56-1-.91a25.21,25.21,0,0,1-.12-3.3.55.55,0,0,1,.28-.37c.07,0,.27,0,.35.12C77.47,62.71,77.73,63,77.89,63.24Z" style="fill:#a9a5a6"/><path d="M112.2,63.43c-2.34.35-.9,2.42-1.74,3.54-.55-1-.49-3.1.14-3.58a4.27,4.27,0,0,1,1.32-.43Z" style="fill:#a9a5a6"/><path d="M8.62,66.85c-1-.95-.74-3.3.21-3.72a2.44,2.44,0,0,1,.93,0,4.09,4.09,0,0,0-.52.58,3.62,3.62,0,0,0-.6,1.2A12.62,12.62,0,0,0,8.62,66.85Z" style="fill:#a9a5a6"/><path d="M52.92,63.39c-1.79.31-1.43,1.51-1.46,2.55a3.21,3.21,0,0,1-.3.88c-.15-.29-.42-.58-.42-.87A7.34,7.34,0,0,1,51,63.8C51.2,63,51.93,62.83,52.92,63.39Z" style="fill:#a9a5a6"/><path d="M71.74,66.84c0-.43-.11-.86-.12-1.29,0-.66,0-1.32,0-2a.88.88,0,0,1,.29-.47s.32.09.32.15c0,1.19,0,2.37,0,3.56Z" style="fill:#a9a5a6"/><path d="M37.83,65.4l-1-.54a3,3,0,0,1,.94-.33,4.07,4.07,0,0,1,1.07.3Z" style="fill:#a9a5a6"/></svg>