<svg xmlns="http://www.w3.org/2000/svg" viewBox="0 0 157.85 40.89"><title>Asset 43</title><path d="M37.86,28.69a3.75,3.75,0,0,1-.2,1.1C34.91,34.93,31.12,39,25.27,40.39a16.7,16.7,0,0,1-14.93-3.53A27.32,27.32,0,0,1,1.19,22.55,31,31,0,0,1,2.62,1.66,4.67,4.67,0,0,1,3.14.89L3.43,1c-.06.8-.11,1.6-.19,2.4C2.68,9.07,3,14.67,5.16,20S10.72,30.1,15.92,33.14a15.46,15.46,0,0,0,18.23-1.58c1.15-1,2.26-2,3.39-3Z" style="fill:#a9a5a6"/><path d="M28.06,6.9c0,1.41-.92,2.33-2,3.41L29,11.47c-.59,1.28-2,1.4-3.32,2l2,2.38c-1.18.73-2.42.32-3.95,0l.51,3.1c-1.42.06-2.28-1-3.47-2l-1,2.89c-1.35-.56-1.41-2-2.07-3.32l-2.36,2c-.69-1.23-.28-2.47,0-4l-3,.53c-.22-1.47,1-2.23,1.87-3.45l-2.94-1.08c.74-1.22,2-1.48,3.42-2l-2-2.39c1.25-.65,2.49-.31,4,0L16,3.23C16.83,3,16.83,3,19.47,5l1-2.92c1.28.69,1.46,2.07,2.08,3.41L24.92,3.5c.74,1.21.29,2.41,0,3.91Z" style="fill:#a9a5a6"/><path d="M38.39,0a20.65,20.65,0,0,1,.86,2.44c1.56,7.06,1.26,14-2.14,20.48-2.59,5-6.43,8.52-12.3,9.22A12.77,12.77,0,0,1,17,30.5c-.37-.2-.56-.72-.83-1.09a4.05,4.05,0,0,1,1.3-.51A16.84,16.84,0,0,0,29,24.69a24.77,24.77,0,0,0,6.67-10.56A37.31,37.31,0,0,0,37.76,1.08a4.27,4.27,0,0,1,.23-1Z" style="fill:#a9a5a6"/><path d="M68.58,26.43a14.5,14.5,0,0,1,2.16-.72A2.55,2.55,0,0,1,74,28.41c.05,1.67,0,3.34,0,5,0,1-.54,1-1.23,1s-1.09-.25-1.07-1.05c0-1.36,0-2.73,0-4.1,0-.78-.2-1.39-1.12-1.36s-1.37.42-1.32,1.43c.07,1.4,0,2.81,0,4.21,0,.87-.5.87-1.11.86s-1.25,0-1.23-.89c0-1.44,0-2.88,0-4.33,0-.76-.24-1.32-1.07-1.27s-1.35.34-1.3,1.33c.07,1.36,0,2.73,0,4.1,0,.91-.37,1.08-1.16,1.07s-1.24-.07-1.2-1c.07-1.48.05-3,0-4.44,0-.54-.34-1.07-.34-1.6A2.25,2.25,0,0,1,62.41,26a1,1,0,0,1,1-.06,1.11,1.11,0,0,0,1.42.11A3.27,3.27,0,0,1,68.58,26.43Z" style="fill:#a9a5a6"/><path d="M56,34.66c-.93-.14-1.8-.22-2.64-.41-.64-.14-1.25-.35-.9-1.31.29-.8.57-1.18,1.55-.91a7.91,7.91,0,0,0,3.08.25c.46-.06,1-.86,1.13-1.4.06-.3-.65-.9-1.13-1.13A11.94,11.94,0,0,0,55,29.17c-1.37-.38-2.45-1.07-2.63-2.62a3.54,3.54,0,0,1,1.71-3.7,5.88,5.88,0,0,1,5.36-.12c.24.09.38.79.34,1.18s-.34,1-1.08.84A8,8,0,0,0,56,24.5c-.51.08-.92.81-1.38,1.24.39.4.72.94,1.19,1.15a21.86,21.86,0,0,0,2.5.75,3.06,3.06,0,0,1,2.37,3.08,3.84,3.84,0,0,1-2.64,3.59C57.38,34.48,56.66,34.55,56,34.66Z" style="fill:#a9a5a6"/><path d="M102.9,22.11c.74.13,1.49.23,2.22.41s1.12.49.82,1.3-.53,1.1-1.41.84a7.13,7.13,0,0,0-2.34-.24,1.32,1.32,0,0,0-1.4,1.23c-.08.86.55,1.09,1.17,1.29.83.27,1.69.44,2.51.71a2.85,2.85,0,0,1,2.26,3.13c0,1.57-1.09,3.33-2.43,3.47a28.18,28.18,0,0,1-5-.08c-1-.07-.84-.83-.65-1.54s.73-.74,1.4-.6a11.85,11.85,0,0,0,2.88.36A1.46,1.46,0,0,0,104.4,31c0-.8-.64-1.12-1.37-1.28s-1.17-.32-1.75-.48c-2.23-.59-3-1.57-2.81-3.58a3.76,3.76,0,0,1,3.62-3.42c.26,0,.53,0,.8,0Z" style="fill:#a9a5a6"/><path d="M77.75,13.88a2.47,2.47,0,0,1-1.35-2.68c.33-2,2.28-2.93,4.62-2.37a19.15,19.15,0,0,0,2.29.07,4.34,4.34,0,0,1,1.15.48l0,.42-1.33.49c-.2,1-.12,2.15-.65,2.82S80.8,14,79.94,14.4l-1.41.66.09.45c.95.07,1.9.1,2.84.23a2.22,2.22,0,0,1,2.08,2.79,2.32,2.32,0,0,1-.21.64c-1,1.91-5.47,2.31-6.71.57a2.15,2.15,0,0,1-.38-1.37c0-.3.48-.68.81-.78.18-.05.71.38.75.64.15,1.07,1,1.21,1.74,1.27s1.81,0,2.22-1-.18-1.33-.92-1.49a14,14,0,0,0-2.26-.23c-.77,0-1.73,0-1.79-1C76.74,15.26,77.36,14.63,77.75,13.88Zm1.87-3.83a1.47,1.47,0,0,0-1.56,1.56,1.4,1.4,0,0,0,1.58,1.52,1.51,1.51,0,0,0,1.72-1.53A1.57,1.57,0,0,0,79.62,10.05Z" style="fill:#a9a5a6"/><path d="M52.47,10.21c0-1.4,0-2.81,0-4.21,0-.62.22-.88.87-.88s.88.26.88.88q0,3.13,0,6.26a16,16,0,0,0,.09,1.7c.16,1.39.71,1.81,2.25,1.78a1.93,1.93,0,0,0,2.14-2c0-2.43,0-4.86,0-7.29,0-.62-.2-1.33.87-1.34s.93.63.93,1.29c0,2.39,0,4.78,0,7.18A3.11,3.11,0,0,1,57.83,17a8.63,8.63,0,0,1-3.54-.21,2.5,2.5,0,0,1-1.82-2.6c0-1.33,0-2.66,0-4Z" style="fill:#a9a5a6"/><path d="M80,29.16c-.08-1.56-.87-2-2.52-1.4-.34.12-.85.25-1.09.09-.85-.58-.79-1.4.21-1.64a11.47,11.47,0,0,1,3.77-.3,2.17,2.17,0,0,1,1.89,2c.13,1.09.08,2.19.18,3.29.05.58.34,1.14.37,1.72a1.84,1.84,0,0,1-.39,1.21,1.06,1.06,0,0,1-1,.16c-.56-.54-1-.38-1.59-.09a3.5,3.5,0,0,1-3.29-.09,2.42,2.42,0,0,1-1.2-2.63,2.28,2.28,0,0,1,1.9-2C78.07,29.3,79,29.26,80,29.16Zm0,1.91c-1.63-.19-2.29,0-2.32.78s.55,1,1.21,1C79.85,32.79,80.06,32.48,79.92,31.07Z" style="fill:#a9a5a6"/><path d="M145.35,30.92c0,1.43.48,1.87,1.63,1.78a5.33,5.33,0,0,0,1.45-.23c.81-.31,1.13.2,1.15.77a1.25,1.25,0,0,1-.71,1,18.3,18.3,0,0,1-3.47.17,2.37,2.37,0,0,1-2.24-2,12.28,12.28,0,0,1,.07-4.55c.39-1.69,1.94-2.34,3.91-2.08a3.27,3.27,0,0,1,2.82,3c0,.37,0,.76.06,1.14.06.72-.25,1-1,1C147.83,30.9,146.62,30.92,145.35,30.92Zm2.48-1.82c-.26-.56-.35-1.15-.67-1.32a1.61,1.61,0,0,0-1.36.06c-.31.18-.4.74-.64,1.26Z" style="fill:#a9a5a6"/><path d="M110.27,31.14c.28,1.36.74,1.7,2,1.52a7.62,7.62,0,0,0,1.34-.25c.72-.24.95.22,1,.73,0,.35-.28,1-.47,1-1.41.12-2.82.12-4.24.14-.13,0-.26-.15-.39-.21-2.26-1.07-2.1-7,.17-8a4.5,4.5,0,0,1,4.19.39c.84.69,1.57,2.89,1.15,3.84a1.43,1.43,0,0,1-1.06.54c-1.13.08-2.27.05-3.4.08C110.46,31,110.4,31,110.27,31.14Zm2.4-2.06c.17-.94-.17-1.45-1.07-1.49s-1.29.53-1.3,1.49Z" style="fill:#a9a5a6"/><path d="M154.27,34.57c-.79-.1-1.47-.14-2.13-.29s-1-.39-.84-1.1.52-1.07,1.31-.87a7.19,7.19,0,0,0,2,.3c.35,0,.68-.45,1-.69a3.85,3.85,0,0,0-.86-.73,14.86,14.86,0,0,0-1.53-.41,2.35,2.35,0,0,1-1.88-2.26A2.41,2.41,0,0,1,153.2,26a14.18,14.18,0,0,1,3.67.12c.24,0,.62.65.58.94-.07.51-.26,1.16-1.1.94a6.64,6.64,0,0,0-1.77-.3c-.32,0-.64.36-1,.56.25.24.45.57.75.69.55.23,1.17.32,1.74.5a2.25,2.25,0,0,1,1.75,2.35,2.66,2.66,0,0,1-1.79,2.51A16.49,16.49,0,0,1,154.27,34.57Z" style="fill:#a9a5a6"/><path d="M126.2,31.79c.64-1.84,1.24-3.39,1.72-5a1.26,1.26,0,0,1,1.49-1c.77,0,1.06.3.78,1.06-.86,2.3-1.73,4.61-2.57,6.92-.29.81-1,.58-1.53.61s-1.12,0-1.38-.69c-.78-2.21-1.63-4.4-2.38-6.62-.12-.35.08-1.16.22-1.18.65-.1,1.48-.4,1.81.6.51,1.55,1,3.09,1.56,4.63C126,31.26,126,31.38,126.2,31.79Z" style="fill:#a9a5a6"/><path d="M91.55,28.39c-.47-.57-.93-.89-1-1.29-.14-.6-.2-1.33.79-1.42.11,0,.23-.42.26-.66a1.42,1.42,0,0,1,1.76-1.35,1,1,0,0,1,.59.67,4.08,4.08,0,0,1,0,1.09c.63.75,2.21-.45,2.1,1.36-.09,1.44-1.13,1-2,1.14,0,1.22-.07,2.46.05,3.67,0,.29.68.67,1.08.73.84.12.93.61.91,1.28s-.58.74-1.12.75c-2,0-3-.75-3.27-2.8C91.57,30.41,91.59,29.23,91.55,28.39Z" style="fill:#a9a5a6"/><path d="M98.14,11.78c-.11-1.55-.72-2-2.12-1.58a3.42,3.42,0,0,0-.95.37c-.76.51-1.18.22-1.44-.54a4.84,4.84,0,0,1,4.78-1.1,2.15,2.15,0,0,1,1.38,2c0,1.25,0,2.5,0,3.75a1.92,1.92,0,0,0,.23,1.07.77.77,0,0,1-.26,1.31c-.24.11-.71-.25-1.07-.42-.09,0-.14-.17-.05-.06a20.05,20.05,0,0,1-3.21.61,2.23,2.23,0,0,1-2.19-2.07,2.27,2.27,0,0,1,1.42-2.67A30.12,30.12,0,0,1,98.14,11.78Zm-.07,1.48c-1.95-.32-2.95.12-3,1.28A1.23,1.23,0,0,0,96.34,16C97.66,16,98.17,15.23,98.06,13.26Z" style="fill:#a9a5a6"/><path d="M139.67,25.74a7.64,7.64,0,0,1,1.21.19c.52.15,1.06.4.78,1.12-.22.54-.45.92-1.26.69-1.72-.49-2.49.14-2.6,1.93a7.84,7.84,0,0,0,0,1.25c.15,1.45.86,2,2.31,1.72.59-.11,1.21-.27,1.42.44a1.28,1.28,0,0,1-.35,1.15,4.52,4.52,0,0,1-4.5-.52,5.14,5.14,0,0,1-1-5.58C136.4,26.43,137.54,25.7,139.67,25.74Z" style="fill:#a9a5a6"/><path d="M101.39,19.71a11.24,11.24,0,0,0,1-.75,2.39,2.39,0,0,0,.8-2.73c-.7-2-1.33-4.1-1.93-6.16-.1-.33,0-1,.2-1.08.58-.21,1.22-.16,1.41.66q.52,2.2,1.06,4.4c0,.14.1.27.26.7.5-1.73,1-3.18,1.33-4.66.28-1.06.84-1.45,2-1a4.84,4.84,0,0,1-.13.81c-.85,2.54-1.64,5.1-2.62,7.58a9.53,9.53,0,0,1-1.95,2.82C102.37,20.82,101.66,20.78,101.39,19.71Z" style="fill:#a9a5a6"/><path d="M74.07,17.28l-.59-.68a17.26,17.26,0,0,1-3.2.65,2,2,0,0,1-2-2.15c0-1.78,0-3.57,0-5.35A1.18,1.18,0,0,1,69,8.94c.63-.17.84.25.83.86,0,1.44,0,2.88,0,4.33,0,1.23.54,1.88,1.38,1.86a2,2,0,0,0,1.91-2c0-1.4,0-2.81,0-4.21a1.2,1.2,0,0,1,.73-.83c.63-.18.84.24.83.85,0,1.48,0,3,0,4.44a6.05,6.05,0,0,0,.14,1.35C75.13,16.62,75.15,16.62,74.07,17.28Z" style="fill:#a9a5a6"/><path d="M91.12,17.29l-.54-.7a17.85,17.85,0,0,1-3.21.67,2,2,0,0,1-2-2.13c0-1.78-.05-3.56,0-5.34A1.19,1.19,0,0,1,86,8.94c.59-.17.88.18.86.82,0,1.4,0,2.8,0,4.21s.48,2,1.35,2a2,2,0,0,0,1.94-2.07c0-1.36,0-2.73,0-4.09,0-.59.15-.92.82-.93s.8.37.79.94c0,1.52,0,3,0,4.55a2.83,2.83,0,0,0,.15,1.22C92.41,16.51,92,16.92,91.12,17.29Z" style="fill:#a9a5a6"/><path d="M86.46,26.46a10.77,10.77,0,0,1,2.09-.65c.36,0,.76.35,1.14.54-.29.51-.48,1.35-.89,1.47-1.65.51-1.67.43-1.67,2.17,0,1.14,0,2.28,0,3.41s-.56,1-1.25,1-1.17,0-1.13-1c.06-1.44,0-2.88,0-4.32a3,3,0,0,0-.25-1.43,1.23,1.23,0,0,1,.37-1.77c.66-.56,1,.11,1.42.43Z" style="fill:#a9a5a6"/><path d="M116.38,26.61c.87-1.18.87-1.18,2.18-.15a13.33,13.33,0,0,1,2.16-.66c.32,0,.71.33,1.06.52-.28.52-.46,1.37-.87,1.5-1.69.57-1.72.49-1.72,2.22,0,1.14,0,2.28,0,3.41,0,.92-.52.94-1.18.94s-1.22,0-1.18-.91c.05-1.33.06-2.66,0-4C116.78,28.63,116.56,27.77,116.38,26.61Z" style="fill:#a9a5a6"/><path d="M131.37,30.18c0-1.17,0-2.35,0-3.52,0-.76.41-.87,1-.84s1.29-.13,1.3.82c0,2.31,0,4.62,0,6.93,0,1-.68.8-1.28.84s-1.09-.11-1.05-.92C131.41,32.38,131.37,31.28,131.37,30.18Z" style="fill:#a9a5a6"/><path d="M64.52,9.8a4.83,4.83,0,0,1,1.15-.73,3.22,3.22,0,0,1,1.23.09c-.24.46-.37,1.19-.74,1.35-1.88.81-1.91.76-1.9,2.77a29.51,29.51,0,0,1,0,3,1.09,1.09,0,0,1-.78.74c-.28,0-.82-.44-.82-.7-.07-2.2-.06-4.4,0-6.6,0-.26.49-.76.58-.72A7.82,7.82,0,0,1,64.52,9.8Z" style="fill:#a9a5a6"/><path d="M132.07,24.8c-.23-.37-.77-.87-.8-1.39a1.13,1.13,0,0,1,1.32-1.2,1.15,1.15,0,0,1,1.13,1.29C133.71,24.28,133.26,24.73,132.07,24.8Z" style="fill:#a9a5a6"/></svg>