<svg xmlns="http://www.w3.org/2000/svg" viewBox="0 0 182.11 69.54"><title>Asset 7</title><rect width="182.11" height="69.54" style="fill:#a7a3a4"/><path d="M27,58a4.53,4.53,0,0,1-3.93-4.7,4.69,4.69,0,0,1,3.22-4.59c2.6-.78,5.21.09,6.31,2.08a3.79,3.79,0,0,1,.5,2.53c0,1.87-.36,2.74-1.44,3.63A6.12,6.12,0,0,1,27,58Zm2.74-.71a2.76,2.76,0,0,0,1.69-1.78A4.91,4.91,0,0,0,31.77,53c-.05-1.49-.11-1.71-.59-2.42A3.79,3.79,0,0,0,25.55,50c-1.14,1.08-1.4,4.29-.5,5.89A3.74,3.74,0,0,0,29.76,57.29Z" style="fill:#f4f4f4"/><path d="M11.57,57.79c-1.92-.62-3-2.26-3-4.55A4.87,4.87,0,0,1,9,51.08a5,5,0,0,1,3.09-2.47,8.67,8.67,0,0,1,3.88.2c.52.18.57.27.46.68a2.53,2.53,0,0,1-.18.52,2.36,2.36,0,0,1-.71-.39,3.53,3.53,0,0,0-5.1,1.19A4.37,4.37,0,0,0,10,53.36c0,1.73,0,1.83.53,2.56a3.42,3.42,0,0,0,4.16,1.49,3.11,3.11,0,0,0,1.08-.55c.32-.37.53-.3.53.16a.72.72,0,0,1-.48.66A9.61,9.61,0,0,1,11.57,57.79Zm-2-2.19c-.07-.05-.12,0-.12.12s.05.18.12.12A.21.21,0,0,0,9.53,55.6Z" style="fill:#f4f4f4"/><path d="M47.6,57.4c-.76-1-5.85-6.47-6-6.47a19,19,0,0,0-.16,3.47v3.47H41c-.36,0-.43-.07-.36-.32s.14-2.28.2-4.66.12-4.36.16-4.39a20.56,20.56,0,0,1,1.9,1.94,54.2,54.2,0,0,0,4.82,4.94,21.5,21.5,0,0,0,.14-3.4c0-3.36,0-3.38.39-3.33s.37.12.3,1.65c0,.89-.05,3,0,4.68C48.51,58.34,48.46,58.52,47.6,57.4Zm-4.59-6c0-.05-.09-.14-.21-.21s-.14-.05-.07.07S43,51.53,43,51.39Z" style="fill:#f4f4f4"/><path d="M56.57,57.75c-.53-.27-.57-.36-.46-.85.16-.76.21-.78.66-.25a2.19,2.19,0,0,0,2.81.59,1.82,1.82,0,0,0,.59-2.54,6.56,6.56,0,0,0-1.76-1.1c-1.78-.85-2.13-1.28-2.13-2.6,0-2,1.78-3,4-2.38.82.23.89.36.64,1l-.21.55-.55-.6a1.6,1.6,0,0,0-2.86.73c-.2,1,.16,1.48,1.74,2.22,2.21,1,2.61,1.53,2.4,3.06a2.81,2.81,0,0,1-1.26,2A4.89,4.89,0,0,1,56.57,57.75Zm4.23-8.5c0-.05-.09-.14-.21-.21s-.14-.05-.07.07S60.8,49.39,60.8,49.25Z" style="fill:#f4f4f4"/><path d="M86.82,57.5a27.25,27.25,0,0,0-3.36-4.09c-.2,0-.25.46-.25,2.22v2.22H82V48.58l2.33.05,2.33.07.6.66a2,2,0,0,1,.25,2.58,3.38,3.38,0,0,1-2.06,1.3c-.44,0-.23.34,1.53,2.45.87,1.07,1.6,2,1.6,2s-.32.12-.71.16C87.21,57.95,87.07,57.89,86.82,57.5Zm-1.3-4.89a1.87,1.87,0,0,0,.64-2.88c-.37-.43-.57-.5-1.69-.55l-1.26-.07v3.77h.89A3.9,3.9,0,0,0,85.52,52.61Zm1.07-3.18c0-.05-.09-.14-.21-.21s-.14-.05-.07.07S86.59,49.57,86.59,49.43Z" style="fill:#f4f4f4"/><path d="M97.35,57.63a2.57,2.57,0,0,1-1.1-1.19c-.39-.73-.41-1-.41-4.32V48.59l.53.05.55.05,0,3.47c0,3.84.14,4.23,1.26,4.91a4.05,4.05,0,0,0,3.22,0c1-.57,1.19-1.19,1.35-3.84a26.18,26.18,0,0,0,0-3.5l-.11-1.12h1L103.55,52c-.09,2.6-.18,3.49-.43,4-.68,1.53-1.6,2-3.68,2A3.65,3.65,0,0,1,97.35,57.63Zm5.9-8.52c-.05-.14-.11-.09-.11.11s0,.3.09.23A.36.36,0,0,0,103.25,49.11Z" style="fill:#f4f4f4"/><path d="M114,57.79c-2.86-1-3.84-5.19-1.81-7.72,1.16-1.42,3.49-2,5.8-1.4.71.2.91.32.94.64.11.68-.2.75-.92.23a2.67,2.67,0,0,0-2-.48,2.86,2.86,0,0,0-3.08,1.87,4.25,4.25,0,0,0-.48,2.31c0,2,.64,3.29,2,4s2.44.46,4.41-.55c.07,0,.12.11.12.32C119,57.86,115.68,58.41,114,57.79Z" style="fill:#f4f4f4"/><path d="M140,57.91l-.59-.07V48.61h1.17V58S140.29,57.95,140,57.91Z" style="fill:#f4f4f4"/><path d="M150.49,57.59c-1-.48-1.94-1.55-1.73-1.9.07-.11.05-.14-.05-.09-.34.21-.68-1-.66-2.45a4.11,4.11,0,0,1,1.35-3.45c1.65-1.57,5-1.67,7-.23A4.52,4.52,0,0,1,158,52.93a4.31,4.31,0,0,1-1.57,4A4.8,4.8,0,0,1,152.82,58,4.23,4.23,0,0,1,150.49,57.59Zm3.79-.2c1.1-.37,1.32-.57,2-1.73a4,4,0,0,0,.52-2.35A4,4,0,0,0,156.3,51a3.14,3.14,0,0,0-3-2,3,3,0,0,0-2,.34c-1.44.73-2,2.15-1.92,4.41.12,2.1,1,3.34,2.7,3.73A3.17,3.17,0,0,0,154.27,57.4Z" style="fill:#f4f4f4"/><path d="M171.93,56.76c-.62-.71-1.55-1.74-2-2.28s-1.42-1.51-2-2.17a5.62,5.62,0,0,0-1.37-1.21c-.2,0-.23.6-.2,3.38l.05,3.38h-.89l.11-1.81c.07-1,.12-3.13.14-4.71a14.27,14.27,0,0,1,.16-2.88,76.52,76.52,0,0,1,5.8,6.47c0,.14.07.2.2.16a.3.3,0,0,1,.36.09c.36.59.44-.07.44-3.2V48.59l.41.05c.27,0,.37.16.34.41s-.05,2.29-.07,4.68a34.45,34.45,0,0,1-.14,4.3A9.9,9.9,0,0,1,171.93,56.76Zm-1-1.81c0-.05-.09-.14-.21-.21s-.14-.05-.07.07S170.88,55.08,170.88,54.94Zm-4-4.82c-.07-.14-.14-.27-.18-.27s-.07.12-.07.27.07.27.18.27S166.92,50.26,166.86,50.12Z" style="fill:#f4f4f4"/><path d="M70.86,54.8a42.07,42.07,0,0,0,0-4.3l-.14-1.21-1.39.07c-1.33.05-1.39,0-1.35-.34l0-.41h6.85V49c0,.41,0,.43-1.42.34L72,49.27v8.59H70.76Zm.73,2.58a.21.21,0,0,0-.25,0c-.05.07,0,.12.12.12S71.65,57.45,71.59,57.38Z" style="fill:#f4f4f4"/><path d="M128.2,53.57V49.29l-1.37.05c-1.33.07-1.39.05-1.44-.32l-.05-.41h7V49c0,.41,0,.43-1.42.34l-1.42-.09v8.59H128.2Z" style="fill:#f4f4f4"/><path d="M8.25,45.94a.19.19,0,0,1,.12-.27c.12-.05,37.35-.11,82.72-.14,78.43,0,82.47,0,82.47.28s-4.05.3-82.59.3C35.69,46.12,8.32,46.07,8.25,45.94Z" style="fill:#f4f4f4"/><path d="M23.81,43.36c-.14,0-1-.16-1.87-.28A15.19,15.19,0,0,1,13.07,39C7.3,33.55,7,23.93,12.35,17.42a18.21,18.21,0,0,1,8.07-5.32,14.86,14.86,0,0,1,5.55-.6,15.84,15.84,0,0,1,6.47,1.42c2,.82,2.76.85,3.47.14A2.47,2.47,0,0,0,36.54,12c.09-.43.21-.55.53-.55h.43V21.93h-.39c-.36,0-.46-.2-.8-1.3a10.68,10.68,0,0,0-5.05-6.14,9.2,9.2,0,0,0-12.7,4.07,17.51,17.51,0,0,0-1.87,8.87c0,6.46,1.85,10.88,5.28,12.66a9.29,9.29,0,0,0,4.94,1.1,8.75,8.75,0,0,0,3-.41,14.47,14.47,0,0,0,6.1-4l.92-1v2.65l-1,.87a13.49,13.49,0,0,1-6.46,3.54A23.17,23.17,0,0,1,23.81,43.36ZM18.6,41.75a.36.36,0,0,0-.34,0c-.14.05-.09.11.11.11S18.67,41.8,18.6,41.75Zm2.81-27.46c.05-.09.07-.18,0-.18s-.14.09-.2.18-.07.18,0,.18S21.35,14.39,21.41,14.29Zm11.06-1a.21.21,0,0,0-.25,0c-.05.07,0,.12.12.12S32.52,13.34,32.47,13.27Z" style="fill:#f4f4f4"/><path d="M39.4,42.62a.7.7,0,0,1-.12-.44c0-.25.14-.32.69-.32a4.59,4.59,0,0,0,3-.89,2.85,2.85,0,0,0,.62-1.46c.12-.62.18-5.23.14-12.79-.05-10.9-.07-11.84-.37-12.38-.46-.85-1-1.16-2.63-1.37-1.28-.16-1.42-.21-1.37-.55s.16-.36,8.16-.41l8.13,0,.07.43c.09.39,0,.43-1.17.53a6.85,6.85,0,0,0-2.06.52,1.75,1.75,0,0,0-1.12,1.26c-.3.82-.32,1.69-.27,12.63.07,12.84.05,12.66,1.1,13.21.73.39,4.78.53,6.86.23,3.68-.52,5.19-2,7.11-7.11.57-1.49.69-1.69,1.08-1.69s.43.09.39.44c-.11,1.42-.91,8.86-1,9.75l-.09.57H53C45.58,42.74,39.46,42.69,39.4,42.62Z" style="fill:#f4f4f4"/><path d="M68.8,42.3c0-.34.12-.46.5-.55,2.1-.52,3-1.67,5.55-7.54.8-1.81,1.6-3.61,1.78-4s.68-1.51,1.1-2.49c7-15.69,7.2-16.18,7.49-16.24.12,0,.34.18.46.44s1.39,3.15,2.81,6.37l3.52,8c1,2.26,2.29,5.21,3.91,8.95,1.53,3.47,2,4.32,2.67,5.16a4.12,4.12,0,0,0,2.4,1.46c.28,0,.37.09.32.41l-.05.39H93.88c-7.36,0-7.38,0-7.43-.37s.05-.39,1.24-.48c2.69-.23,2.85-1,1.1-5L87.6,34l-5.42,0-5.42.05-.85,2c-1,2.47-1.17,3.25-.8,4.16s1.24,1.26,2.83,1.44c.91.12,1,.18,1,.55v.43H68.8Zm18-10.1c0-.07-.68-1.65-2.58-6l-1.46-3.34c-.12-.32-.34-.57-.46-.52a16.58,16.58,0,0,0-1.4,2.72c-1.9,4.25-2.77,6.21-3,6.79l-.16.39h4.54C84.72,32.25,86.76,32.23,86.76,32.2Z" style="fill:#f4f4f4"/><path d="M103.43,42.62a.62.62,0,0,1-.12-.41c0-.25.23-.32,1.14-.39,1.48-.12,2.42-.59,2.81-1.39.3-.57.32-1.58.32-13,0-12,0-12.43-.36-13.09s-1.24-1.21-2.86-1.39c-1-.09-1.07-.14-1-.48l.05-.37h9.43c10.44,0,11.47.11,14.09,1.19,1.35.55,3,1.81,2.83,2.19a1.7,1.7,0,0,0,.21.2c.46,0,1.35,2,1.6,3.56.64,4-1.46,7.29-5.57,8.68l-1.12.37.73,1.08c2.33,3.4,7.61,10.62,8.34,11.42a3.26,3.26,0,0,0,2.1,1.1c.28,0,.37.09.32.41l-.05.39-4.54.05c-4.52.05-5.34,0-5.34-.32a7.89,7.89,0,0,0-.91-1.37c-.5-.66-1.35-1.89-1.9-2.69-1.17-1.73-1.42-2.06-2.6-3.7-.78-1.07-1.14-1.58-3-4.25l-1.12-1.6-1-.05-1-.05v5.66c0,5.3,0,5.69.36,6.22.46.76,1.16,1.08,2.65,1.23,1.17.11,1.26.16,1.26.53v.43h-7.79C107.06,42.74,103.48,42.69,103.43,42.62Zm17.22-16.06a5.42,5.42,0,0,0,3-3,12.13,12.13,0,0,0,.2-5.37c-.82-3.22-2.58-4.36-6.78-4.37l-2.13,0-.05,6.65,0,6.63,2.35-.07A9.3,9.3,0,0,0,120.64,26.56Z" style="fill:#f4f4f4"/><path d="M138.46,42.62a.7.7,0,0,1-.12-.44c0-.27.14-.32.85-.32a4,4,0,0,0,2.72-.85,2.24,2.24,0,0,0,.71-1.64c.11-.71.16-5.64.12-12.8-.05-10.76-.07-11.68-.37-12.22-.46-.85-1-1.16-2.63-1.37-1.28-.16-1.42-.21-1.37-.55s.18-.36,7.67-.41l7.59,0v.43c0,.37-.11.43-.92.53a2.57,2.57,0,0,0-2.22,1.23c-.28.5-.32,1.23-.37,6.6l-.05,6,.59-.41c.32-.21,1.07-.82,1.65-1.32,1.3-1.1,4.27-3.5,5.46-4.41.48-.37,1.87-1.58,3-2.44,2.92-2.33,3.68-3.65,2.67-4.57a5.06,5.06,0,0,0-2.54-.76c-.39,0-.46-.07-.41-.41l.05-.39L166,12c3,0,5.69,0,5.92.05a.49.49,0,0,1,.39.41c0,.23-.28.39-1.16.6-1.49.41-1.9.68-6.53,4.37l-4.84,3.86c-2.76,2.13-3.11,2.47-3,2.65.89,1.17,3.82,4.86,5.51,6.94.82,1,2.33,2.92,3.38,4.29,2.72,3.54,4.61,5.48,6,6.14a5.21,5.21,0,0,0,1.69.53c.48,0,.55.05.5.41l-.05.39-7.95.05-8,0V42.3c0-.36.09-.44.44-.44a2.53,2.53,0,0,0,1.87-.89c.18-.32.14-.55-.09-1.17A98.48,98.48,0,0,0,153,30.47c-.52-.64-1.08-1.37-1.24-1.64-.37-.6-.64-.62-1.26-.12l-.48.37.05,5.46c.05,4.86.09,5.51.37,6a3.11,3.11,0,0,0,2.58,1.28c.68,0,.75,0,.75.44v.44H146.2C142,42.74,138.52,42.69,138.46,42.62Z" style="fill:#f4f4f4"/></svg>