<svg xmlns="http://www.w3.org/2000/svg" viewBox="0 0 130.04 33.32"><title>Asset 40</title><path d="M91.42,33.32c0-5.55,0-11.1,0-16.65a9.39,9.39,0,0,1,7.21-9.38,9.27,9.27,0,0,1,9.81,3.47,9,9,0,0,1,.76,10.11,9.24,9.24,0,0,1-9.19,4.85,13.08,13.08,0,0,1-2.16-.39c-2.37-.68-2.47-.87-2.21-3.47,1.3.41,2.57.9,3.88,1.2a6.81,6.81,0,0,0,8.3-5.87c.56-3.76-2.55-7.42-6.57-7.73a6.87,6.87,0,0,0-7.2,6.62c-.06,5.74,0,11.49,0,17.23Z" style="fill:#a9a5a6"/><path d="M2.68,0c0,1.86-.11,3.72-.12,5.58,0,3.63-.06,7.27,0,10.9a6.77,6.77,0,0,0,6.7,6.8,6.87,6.87,0,0,0,7.06-6.61,6.68,6.68,0,0,0-6.5-7.11c-1.86,0-3.72.89-5.56,1.38C3.82,8.65,4,8.27,6.54,7.49A9.38,9.38,0,0,1,16,23.2a9.49,9.49,0,0,1-11.8,1A8.79,8.79,0,0,1,0,16.8C0,11.2,0,5.6,0,0Z" style="fill:#a9a5a6"/><path d="M115.6,0V8.17a47.23,47.23,0,0,1,6.73-1,7.48,7.48,0,0,1,7.53,5.43,3.46,3.46,0,0,1,.17.86c0,4.07,0,8.14,0,12.32h-2.66c0-3.53,0-7,0-10.48,0-3.09-.77-4.32-3.26-5.25-2.66-1-6-.46-7.46,1.42a5.42,5.42,0,0,0-1,3c-.12,3.73,0,7.46,0,11.33h-2.65V0Z" style="fill:#a9a5a6"/><path d="M23.91,0c.87.57,1.57,1.24,1,2.38a1.73,1.73,0,0,1-2.24.84C21.25,2.8,21.17,1.44,22.43,0Z" style="fill:#a9a5a6"/><path d="M43.39,25.77H40.86c0-.56-.08-1.08-.08-1.59,0-3.29,0-6.58,0-9.87a4.7,4.7,0,0,0-4.53-4.85,4.75,4.75,0,0,0-5.3,4,71,71,0,0,0-.19,7.2c0,1.66,0,3.31,0,5H28.06c0-.9,0-1.76,0-2.62,0-2.75,0-5.5,0-8.25,0-3.59,1.75-6.16,4.86-7.31a7.88,7.88,0,0,1,9,2.14,1.74,1.74,0,0,0,.27.19,7.8,7.8,0,0,1,8.61-2.52,7.07,7.07,0,0,1,5.38,7c0,3.73,0,7.45,0,11.3H53.49c0-2.7,0-5.34,0-8,0-1.18,0-2.36,0-3.53a4.87,4.87,0,0,0-5-4.75,4.79,4.79,0,0,0-5,4.89c-.06,3.39,0,6.78,0,10.16C43.48,24.88,43.43,25.27,43.39,25.77Z" style="fill:#a9a5a6"/><path d="M68.19,7.05a9.3,9.3,0,0,1,9.45,9.36,9.49,9.49,0,0,1-19-.1A9.25,9.25,0,0,1,68.19,7.05ZM75,16.44A6.81,6.81,0,1,0,68,23.28,6.76,6.76,0,0,0,75,16.44Z" style="fill:#a9a5a6"/><path d="M89.64,7.18V9.34c-.75.18-1.47.29-2.16.52a6.62,6.62,0,0,0-4.65,6.46c0,3.09,0,6.17,0,9.38H80.28c0-3.8-.36-7.61.09-11.31C80.91,10,85.48,6.76,89.64,7.18Z" style="fill:#a9a5a6"/><path d="M21.88,25.61c0-6,0-11.92,0-17.85A5.29,5.29,0,0,1,22,7.13h2.65c0,.52.07,1,.07,1.56q0,7.5,0,15C24.69,26.09,24.6,26.16,21.88,25.61Z" style="fill:#a9a5a6"/></svg>