<svg xmlns="http://www.w3.org/2000/svg" viewBox="0 0 175.22 65.51"><title>Asset 6</title><path d="M63.72,26l-7-26-26,7-3.89,6.77-7.81,0-19,19,18.93,19h7.83l3.87,6.84,26,6.94,7.14-26.16-4-6.64ZM27.41,14.82l20-5.1L36.05,29.51l-23,.07Zm0,35.94L13,36H36L47.41,55.75Zm25.56,2-11.52-20L53,12.89l5.53,20Z" style="fill:#a7a3a4"/><path d="M71,27.21h6.67V46s-.32,4.53,9.13,0V27.21h6.59V53.82h-5l-.71-2.06S80,55.41,75.43,54.37A5.32,5.32,0,0,1,71,48.82Z" style="fill:#a7a3a4"/><path d="M119.33,53.92h-6.67V35.18s.32-4.53-9.13,0V53.92H96.94V27.32h5l.71,2.06s7.63-3.65,12.23-2.62a5.32,5.32,0,0,1,4.45,5.56Z" style="fill:#a7a3a4"/><rect x="121.89" y="15.54" width="6.59" height="7.78" style="fill:#a7a3a4"/><rect x="121.89" y="27.21" width="6.59" height="26.71" style="fill:#a7a3a4"/><path d="M134.28,27.21V20.54l6.7-1,.06,7.66h6.82l-.45,5.25-6.43,0L141,47.06s0,3.06,5.7,1.22l.76,5.24s-11.85,4.23-13.23-4.84V32.46l-4,0V27.21Z" style="fill:#a7a3a4"/><polygon points="149.2 27.21 156.03 27.21 162.18 47.33 168.19 27.21 175.22 27.21 163.06 64.67 156.67 64.67 160.09 53.92 157.62 53.92 149.2 27.21" style="fill:#a7a3a4"/></svg>