<svg xmlns="http://www.w3.org/2000/svg" viewBox="0 0 111.13 55.2"><title>Asset 44</title><path d="M111.12,13.85c0,4.21,0,8.42,0,12.63,0,.77-.16,1.09-1.11,1.09q-12,0-24,0c-.74,0-1.07-.13-1.07-.93q.05-12.78,0-25.56c0-.91.31-1.07,1.22-1.07Q98,.05,109.85,0c1.07,0,1.29.29,1.28,1.22-.06,4.21,0,8.42,0,12.63ZM98,6H92.94c-2.33,0-2-.33-2.08,2,0,.64.23.89.93.88,1.18,0,2.37,0,3.55,0,.77,0,1,.24,1,.91,0,2.7,0,5.39,0,8.09,0,.59-.19.85-.85.82-.86,0-1.72,0-2.58,0-2.3,0-1.95-.23-2,1.84,0,.89.32,1.13,1.24,1.12,3.62,0,7.25,0,10.87,0,2.39,0,2.37,0,2.23-2.17,0-.58-.26-.82-.91-.8-1.22,0-2.44,0-3.66,0-.61,0-.91-.14-.9-.78,0-2.76,0-5.53,0-8.29,0-.56.23-.77.82-.75.86,0,1.72,0,2.58,0,2.21,0,2,.4,2.06-1.91,0-.74-.28-1-1.07-1C102.09,6,100,6,98,6Z" style="fill:#a9a5a6"/><path d="M82.82,13.8c0,4.24,0,8.48,0,12.72,0,.85-.28,1.05-1.16,1-7.82,0-15.64,0-23.46,0-1.54,0-1.54,0-1.54-1.37q0-12.63,0-25.25c0-.67.16-.92.95-.92Q69.78,0,81.94,0c.74,0,.89.24.89.87,0,4.31,0,8.61,0,12.92ZM69.8,6H64.63c-2.34,0-2.07-.29-2.11,2,0,.71.32.91,1,.89,1.18,0,2.37,0,3.55,0,.72,0,.94.22.93.85q0,4.09,0,8.19c0,.62-.27.81-.9.79-.9,0-1.79,0-2.69,0-2,0-1.88-.23-1.95,1.73,0,1,.38,1.23,1.38,1.22,3.62,0,7.25,0,10.87,0,2.32,0,2.15.31,2.15-2,0-.07,0-.13,0-.2,0-.55-.28-.74-.87-.72-1.22,0-2.44,0-3.66,0-.61,0-.91-.15-.91-.78,0-2.76,0-5.52,0-8.29,0-.55.21-.77.82-.75.86,0,1.72,0,2.58,0,2.18,0,2,.33,2-1.84,0-.76-.21-1.05-1.09-1C73.82,6.05,71.81,6,69.8,6Z" style="fill:#a9a5a6"/><path d="M28.47,0h1q12,0,23.91,0c.76,0,1.16.06,1.15.93q-.06,12.88,0,25.76c0,.66-.24.85-.93.85q-12.17,0-24.34,0c-.6,0-.91-.09-.91-.75q0-13.13,0-26.25A4.9,4.9,0,0,1,28.47,0ZM45.06,13.63C42.59,12,40.28,10.42,38,8.85a1.08,1.08,0,0,1-.28-.79C37.66,6,37.67,6,35.39,6c-.91,0-1.16.27-1.15,1.08,0,4.18,0,8.36,0,12.54,0,2.13-.51,2,2.27,2,.88,0,1.21-.25,1.19-1.08-.05-2.34,0-4.67,0-7a8,8,0,0,1,.1-.85c2,1.35,3.81,2.67,5.74,3.79a2.84,2.84,0,0,1,1.64,3c-.13,2.23,0,2.22,2.39,2.16.79,0,1.05-.27,1-1,0-4.11,0-8.23,0-12.34,0-2.62.54-2.21-2.51-2.28-.7,0-1,.2-.94.86,0,1.91,0,3.82,0,5.73C45.13,12.87,45.1,13.15,45.06,13.63Z" style="fill:#a9a5a6"/><path d="M26.18,13.83c0,4.24,0,8.49,0,12.73,0,.79-.24,1-1.09,1q-12,0-24,0c-.84,0-1.09-.21-1.09-1Q.05,13.82,0,1.09C0,.2.27,0,1.21,0Q13.1.06,25,0c1,0,1.2.24,1.2,1.1C26.15,5.35,26.17,9.59,26.18,13.83ZM13.1,19H15c1.78,0,1.75,0,1.84,1.66,0,.34.32.89.58.94a9.11,9.11,0,0,0,2.25,0c.2,0,.54-.3.55-.46,0-2,0-3.94,0-5.91,0-.18-.18-.35-.28-.52-1.34-2.25-2.78-4.45-4-6.77A3.05,3.05,0,0,0,12.45,6a1.79,1.79,0,0,0-1.59.91,31.82,31.82,0,0,1-2.1,3.55,13.31,13.31,0,0,0-2.85,9.92c.16,1.21.05,1.26,1.41,1.26,2.34,0,2.14.1,2.07-1.81,0-.73.29-.9,1-.87C11.3,19,12.2,19,13.1,19Z" style="fill:#a9a5a6"/><path d="M18.07,33.62c.76.66.75,4.38.25,5a11,11,0,0,0-1-1.66,16.18,16.18,0,0,0-1.78-1.49l-.21,3.18-.46,0v-5l2.78,2.85.28-.12Z" style="fill:#a9a5a6"/><path d="M12.85,55c-.09-1.69-1.59-2.24-2.6-3.17l-.34.09v3.18c-.75-.69-.84-4.38-.38-5.08l2.71,2.69.28-.09.15-3C13.41,50.41,13.5,54.06,12.85,55Z" style="fill:#a9a5a6"/><path d="M56.72,33.72l2.77,2.74.4-.11v-3c.77.82.83,4.51.43,5.13l-2.76-3.06-.4.16V38.7C56.36,38.22,56.22,34.46,56.72,33.72Z" style="fill:#a9a5a6"/><path d="M18,49.66c.73.79.79,4.48.29,5.24a12.28,12.28,0,0,0-1.11-1.71,15.64,15.64,0,0,0-1.77-1.46l-.18,3.43c-.77-.84-.8-4.56-.37-5.12l2.68,2.66.3-.13Z" style="fill:#a9a5a6"/><path d="M51.29,36.09c0-1.81.71-2.67,2.18-2.58s1.9,1,1.87,3c0,1.41-.7,2.2-1.94,2.25a2,2,0,0,1-2.1-1.59A7.3,7.3,0,0,1,51.29,36.09Zm3.3.09h0c0-.26,0-.53,0-.79a1.28,1.28,0,0,0-2.56,0c0,.46,0,.92,0,1.38a1.21,1.21,0,0,0,1.35,1.34,1.2,1.2,0,0,0,1.23-1.35C54.59,36.58,54.59,36.38,54.59,36.18Z" style="fill:#a9a5a6"/><path d="M61.5,44.29a7.16,7.16,0,0,1-.24,1.44,1.85,1.85,0,0,1-1.9,1.18,1.75,1.75,0,0,1-1.87-1.34,7.69,7.69,0,0,1-.12-2.14,2,2,0,0,1,4.05.06c0,.26,0,.52,0,.79Zm-.77-.19c0-.11,0-.44-.09-.76a1.14,1.14,0,0,0-1.21-1,1.16,1.16,0,0,0-1.3,1.06,5.38,5.38,0,0,0-.06,1c0,1.28.44,1.94,1.28,2S60.72,45.63,60.72,44.1Z" style="fill:#a9a5a6"/><path d="M34.85,35.36c0,.81,0,1.32,0,1.84s-.05.93-.08,1.49c-.78-.48-.89-4.28-.39-5l2.74,2.72.42-.15V33.63l.41,0v4.95l-.33.15C37.56,37.08,36.13,36.49,34.85,35.36Z" style="fill:#a9a5a6"/><path d="M.17,44.25a9.38,9.38,0,0,0,0-1.38c-.15-1,.34-1.22,1.34-1.18,2,.07,2.53.55,2.55,2.38a7.86,7.86,0,0,1,0,1.18C3.81,46.52,1.6,47.43.44,46.7A.94.94,0,0,1,.16,46c0-.59,0-1.18,0-1.77Zm.72,0h0a9.51,9.51,0,0,0,0,1.28.86.86,0,0,0,.37.62,1.4,1.4,0,0,0,2-1,7.59,7.59,0,0,0,0-1.67c-.1-.83-.66-1.12-1.72-1.06s-.58.66-.63,1.1A6.24,6.24,0,0,0,.88,44.23Z" style="fill:#a9a5a6"/><path d="M42.67,44.17a5.45,5.45,0,0,1,1.49,0c.2.05.37.58.37.89a1.93,1.93,0,0,1-2,1.9,1.9,1.9,0,0,1-2-1.81,4.48,4.48,0,0,1,.07-2A2.54,2.54,0,0,1,42,41.77a4.31,4.31,0,0,1,2,.49c.1,0,.08.37.12.56l-.57-.08c-.55-.11-1.29-.48-1.61-.28A2.38,2.38,0,0,0,41.25,44a2.28,2.28,0,0,0,.1,1.45,1.72,1.72,0,0,0,1.13.84,1.6,1.6,0,0,0,1.16-.67C44.32,44.57,43,44.8,42.67,44.17Z" style="fill:#a9a5a6"/><path d="M40.92,52.42c0-1.83.85-2.75,2.36-2.62A1.94,1.94,0,0,1,44,50c1.07.56,1.11,1.51,1.1,2.49s0,1.86-1.12,2.37a2,2,0,0,1-2.84-1.06A7.68,7.68,0,0,1,40.92,52.42Zm3.4,0h0c0-.26,0-.52,0-.79a1.17,1.17,0,0,0-1.23-1.23,1.14,1.14,0,0,0-1.3,1.15,3.94,3.94,0,0,0,.1,1.84,1.69,1.69,0,0,0,1.24.91c.43,0,.87-.6,1.19-1C44.44,53.13,44.32,52.75,44.32,52.46Z" style="fill:#a9a5a6"/><path d="M23.86,52.41c0,1.78-.71,2.7-2.07,2.66s-2-.91-2-2.75.94-2.8,2.51-2.49C23.44,50.06,23.86,50.75,23.86,52.41Zm-.69,0c0-1.4-.39-2-1.34-2s-1.26.5-1.28,1.89c0,0,0,.07,0,.1,0,1.37.41,2,1.31,2S23.17,53.76,23.17,52.4Z" style="fill:#a9a5a6"/><path d="M8.75,42.26c-.59,0-1.17.1-1.76.1s-1,0-1,.75S6.34,44,7,44c.43,0,.86,0,1.29.05l0,.4a13.54,13.54,0,0,1-1.52.13c-.58,0-.86.13-.84.72s.06.91.78.9a9.89,9.89,0,0,1,2,.16,5,5,0,0,1-3.24.35.94.94,0,0,1-.3-.67c0-1.18,0-2.37,0-3.55,0-.53.21-.8.82-.78.92,0,1.84,0,2.76,0Z" style="fill:#a9a5a6"/><path d="M7,36A5.82,5.82,0,0,1,8.6,36c.2.06.27.69.25,1a1.79,1.79,0,0,1-1.77,1.67A1.83,1.83,0,0,1,5,37.44a7.44,7.44,0,0,1,0-2.63,1.73,1.73,0,0,1,2-1.31,1.76,1.76,0,0,1,1.67,1l-.18.26c-.24-.12-.49-.22-.72-.35-1-.6-2.05-.18-2.16.94a6.15,6.15,0,0,0,0,1.77,1.25,1.25,0,0,0,2.11.67,1.54,1.54,0,0,0,.35-1c0-.08-.49-.2-.76-.3L7,36.38Z" style="fill:#a9a5a6"/><path d="M46.88,54.89c-.83-.65-.81-4.41-.39-4.87l2.65,2.65.28-.08.18-2.72c.77.66.79,4.36.11,5.28-.09-1.76-1.42-2.45-2.83-3.49Z" style="fill:#a9a5a6"/><path d="M63.23,43.6v3.12H62.7c-.17-1.63,0-3.27-.06-5l2.88,2.91.3-.11L66,41.72l.52,0a23.39,23.39,0,0,1-.13,5C65.9,45.31,64.73,44.54,63.23,43.6Z" style="fill:#a9a5a6"/><path d="M14.6,41.88l2.72,2.66.27-.08.19-3c.76.9.77,4.61.07,5.46,0-1.77-1.52-2.36-2.86-3.24V47C14.22,46.18,14.18,42.44,14.6,41.88Z" style="fill:#a9a5a6"/><path d="M48.86,46.73c-1-1.17-1-1.17-2.6-1L45.9,47c-.26-.43-.45-.62-.46-.81A6.5,6.5,0,0,1,46.92,42a.9.9,0,0,1,.76,0,5.79,5.79,0,0,1,1.41,4.6C49.07,46.62,48.94,46.67,48.86,46.73Zm-.36-1.8-1-2.22-.35,0-1,2.2Z" style="fill:#a9a5a6"/><path d="M13.68,34.24c-.74,0-1.34,0-1.94,0s-.91.15-.92.77.29.8.9.79.95,0,1.42.08l.05.4a11.51,11.51,0,0,1-1.26.16c-.6,0-1.11-.06-1.13.78s.5.87,1.16.86,1,0,1.57.06v.46c-1.05,0-2.11,0-3.16,0-.11,0-.29-.36-.3-.55,0-1.25,0-2.5,0-3.74,0-.21.23-.59.37-.6,1,0,2,0,3,0C13.47,33.7,13.51,33.86,13.68,34.24Z" style="fill:#a9a5a6"/><path d="M32.4,55.2l-.46-1.35h-2L29.64,55c-1.1-.79-.4-3.45,1.21-5.06C32.27,50.56,33.25,53.4,32.4,55.2Zm-.23-2.14-1.1-2.23-.33.07-1,2.17Z" style="fill:#a9a5a6"/><path d="M30.37,38.63l-.3-1c-1.57-.3-1.69-.25-2.57,1.07a2.09,2.09,0,0,1-.31-.59A6.48,6.48,0,0,1,28.51,34c.27-.42.65-.5,1,0a6.7,6.7,0,0,1,1.39,4.16c0,.2-.19.39-.29.59Zm-1.19-4.09-.34,0-1,2.2h2.34Z" style="fill:#a9a5a6"/><path d="M3.23,38.65l-.4-1.12h-1l-1,0a2,2,0,0,1-.13.4c-.13.22-.28.42-.43.63C.22,38.39,0,38.17,0,38a6.46,6.46,0,0,1,1.74-4.4A4.23,4.23,0,0,1,3.23,38.65ZM2.05,34.51H1.73l-1,2.32H3.06Z" style="fill:#a9a5a6"/><path d="M27.77,46.71c-1.06,0-2.12,0-3.17,0-.1,0-.25-.37-.25-.58,0-1.22,0-2.43,0-3.65,0-.55.22-.78.82-.76.88,0,1.77,0,2.65.07v.49c-.58,0-1.17.11-1.75.1s-1,.07-1,.78.34.85,1,.84c.44,0,.89,0,1.33,0l.07.44-2.18.26c-.43,1.34-.3,1.51,1.2,1.53.44,0,.87.05,1.31.08Z" style="fill:#a9a5a6"/><path d="M32.48,42.46c-.49,0-.73,0-1,0a3.63,3.63,0,0,0-1.15-.11,1.2,1.2,0,0,0-.75.69c-.05.19.29.55.55.71a2.75,2.75,0,0,0,.92.21c.8.14,1.43.47,1.51,1.29a1.33,1.33,0,0,1-1.3,1.54,8.24,8.24,0,0,1-2.25-.29c-.12,0-.19-.29-.28-.45a1.72,1.72,0,0,1,.63-.12c.34.07.7.4,1,.34.52-.13,1.25-.36,1.4-.73.26-.62-.39-.87-1-.95a4.75,4.75,0,0,1-.74-.12c-.75-.22-1.26-.65-1.21-1.42a1.44,1.44,0,0,1,1.34-1.34A2.3,2.3,0,0,1,32.48,42.46Z" style="fill:#a9a5a6"/><path d="M42.73,38.64c-1.07-1.55-1.63-1.55-3.24.19a9.8,9.8,0,0,1,0-2.43A9.84,9.84,0,0,1,40.73,34a1.08,1.08,0,0,1,.85-.19A5.41,5.41,0,0,1,43,38.49S42.86,38.56,42.73,38.64ZM40,36.78h2.39l-1.08-2.27-.32,0Z" style="fill:#a9a5a6"/><path d="M65.17,38.92c-.4-.91-.58-1.47-1.62-1.46s-1.14.58-1.32,1.29l-.36-.14a3.4,3.4,0,0,1-.08-1.24A32.8,32.8,0,0,1,63.13,34a1.1,1.1,0,0,1,.87-.14,5.87,5.87,0,0,1,1.44,4.51A3,3,0,0,1,65.17,38.92Zm-.38-2.11-1-2.27h-.36l-1,2.26Z" style="fill:#a9a5a6"/><path d="M3.19,52.58a12.09,12.09,0,0,1-1.4.1c-.59,0-.94.06-.93.73s.15,1,.95,1c.59,0,1.18,0,1.76,0l.07.28c-.17.11-.33.28-.51.31-2.71.39-3,.18-3-2.34,0-.63,0-1.25,0-1.87s.27-.93,1-.89,1.62,0,2.44,0l0,.53c-.58,0-1.16.09-1.74.08s-1,0-1,.75.42.87,1.08.86c.42,0,.85,0,1.27,0Z" style="fill:#a9a5a6"/><path d="M47.67,37.38c-.12,1.1-.81,1.27-1.46,1.36a1.71,1.71,0,0,1-1.88-.87,3.67,3.67,0,0,1,0-3.52A2,2,0,0,1,47.32,34a4,4,0,0,1,.47.95c-1.1-.45-2.1-1.44-2.65-.32a5.71,5.71,0,0,0-.05,3c0,.2.81.45,1.23.43S47.07,37.69,47.67,37.38Z" style="fill:#a9a5a6"/><path d="M23.31,37.48c0,1-.64,1.21-1.36,1.27s-1.71-.25-1.86-1a7.12,7.12,0,0,1,0-3.09c.33-1.25,2.18-1.51,3.14-.55.14.14.15.38.23.58a1.78,1.78,0,0,1-.63-.08c-1.31-.75-2.11-.41-2.22,1a7.45,7.45,0,0,0,0,1.38c.13,1.14,1,1.5,2,.89C22.85,37.69,23.08,37.59,23.31,37.48Z" style="fill:#a9a5a6"/><path d="M21,45.85c1.57-1.2,1.37-2.74,1.65-4.14h.28a1.91,1.91,0,0,1,.25.55,6,6,0,0,1-1.27,4.1c-.26.37-.63.65-1,.13a6.24,6.24,0,0,1-1.41-4.45c0-.11.14-.21.34-.52Z" style="fill:#a9a5a6"/><path d="M53.8,45.92a1.85,1.85,0,0,1-2,1,1.66,1.66,0,0,1-1.62-1.37A6.09,6.09,0,0,1,50.28,43a2.18,2.18,0,0,1,1.41-1.25c.57-.12,1.28.32,1.91.56.09,0,.08.32.11.49a1.53,1.53,0,0,1-.56,0c-1.55-.79-2.22-.47-2.31,1.13a6.91,6.91,0,0,0,0,1.08c.13,1.26,1,1.63,2.13.93a4.84,4.84,0,0,1,.67-.28Z" style="fill:#a9a5a6"/><path d="M28,49.76c1,1.24.15,4.18-1.36,5.16-1.39-1-2.26-3.8-1.31-5a16.73,16.73,0,0,0,.32,2.06,21.52,21.52,0,0,0,.86,2.16C27.84,52.82,27.63,51.27,28,49.76Z" style="fill:#a9a5a6"/><path d="M37.38,51.15c-.38-.19-.59-.28-.78-.4-1-.63-1.94-.29-2.08.82a7.32,7.32,0,0,0,0,1.48c.11,1.33,1,1.69,2.17.94a3.44,3.44,0,0,1,.57-.22A1.44,1.44,0,0,1,35.35,55a1.82,1.82,0,0,1-1.56-2c0-1.18-.37-2.53,1.26-3.15A1.67,1.67,0,0,1,37.38,51.15Z" style="fill:#a9a5a6"/><path d="M6.18,54.83a4.24,4.24,0,0,0,0-4.82H8.25a4.92,4.92,0,0,0,.08,4.82Z" style="fill:#a9a5a6"/><path d="M38.14,50h2.15c-1,.88-1,3.75-.06,4.85h-1.9C39,53.32,39,51,38.14,50Z" style="fill:#a9a5a6"/><path d="M54.69,41.81h1.77a5.61,5.61,0,0,0,0,4.87H54.65A5.42,5.42,0,0,0,54.69,41.81Z" style="fill:#a9a5a6"/><path d="M33.22,41.73c1.22,0,2.44,0,3.66,0,.08,0,.25.24.22.27s-.29.35-.41.33c-1.29-.2-1.17.58-1.14,1.33s0,1.64,0,2.46c0,.2-.24.4-.36.6-.14-.19-.39-.38-.39-.58,0-.92,0-1.84,0-2.76,0-.69-.07-1.19-1-1-.18,0-.4-.14-.61-.22Z" style="fill:#a9a5a6"/><path d="M67.26,33.45a6.35,6.35,0,0,1,.2,1,20.84,20.84,0,0,1,0,2.56c-.09.91.33,1.16,1.24,1.09a11.37,11.37,0,0,1,1.5.06l0,.46c-1,0-2.06,0-3.09,0-.12,0-.32-.29-.32-.44,0-1.47.06-2.94.1-4.41C66.86,33.7,67,33.66,67.26,33.45Z" style="fill:#a9a5a6"/><path d="M13.28,46.72H11.46a4.93,4.93,0,0,0,0-4.88h1.89A5.36,5.36,0,0,0,13.28,46.72Z" style="fill:#a9a5a6"/><path d="M48.42,38.55a4.68,4.68,0,0,0,0-4.85h2a5,5,0,0,0,0,4.85Z" style="fill:#a9a5a6"/><path d="M24.33,33.7h1.93a5.61,5.61,0,0,0-.16,4.82H24.44A5.11,5.11,0,0,0,24.33,33.7Z" style="fill:#a9a5a6"/><path d="M39.59,41.83a6.12,6.12,0,0,0-.15,4.83H37.76a5,5,0,0,0,0-4.83Z" style="fill:#a9a5a6"/><path d="M13.12,9.77,16.79,16H9.44Z" style="fill:#a9a5a6"/></svg>