<svg xmlns="http://www.w3.org/2000/svg" viewBox="0 0 183.15 61.54"><title>Asset 37</title><path d="M13.1,30.66c0-4.73.06-9.46,0-14.18,0-1.79.57-2.34,2.35-2.28,3.85.13,7.71-.13,11.54.08,7.13.39,12.88,3.08,15.86,10.13,4,9.46-1.39,20.75-11.81,22.18-5.37.74-10.88.49-16.33.67-1.59.05-1.61-1.05-1.6-2.21,0-4.79,0-9.59,0-14.38Zm5.68-11.78c0,7.81,0,15,.06,22.09,0,.41.86,1.12,1.35,1.15,2,.15,4,.1,6.07.1,6.85,0,13-4.62,12-12.87-.53-4.22-3.43-8.34-7.53-9.15C26.9,19.46,23,19.32,18.78,18.88Z" style="fill:#a9a5a6"/><path d="M69.95.36l-4,9.44Q55.73,33.94,45.53,58.09c-1.53,3.63-2.35,4-6.77,2.86.65-1.48,1.3-2.92,1.91-4.37Q51.44,31.13,62.19,5.69c.24-.56.43-1.13.65-1.7C64.48-.28,64.71-.4,69.95.36Z" style="fill:#a9a5a6"/><path d="M60.26,39.59a5.51,5.51,0,0,1,0-.83c.77-2.87,2.44-4.1,5.57-3.68a63,63,0,0,0,8,.07c-2-4.7-3.78-8.95-5.5-13.22a3,3,0,0,1,0-1.95c.63-1.73,1.4-3.4,2.12-5.09h.61c1.25,2.85,2.53,5.68,3.75,8.54,3.13,7.34,6.22,14.7,9.38,22,.47,1.1.44,1.69-.86,1.76a10.83,10.83,0,0,1-3,0,3.27,3.27,0,0,1-1.89-1.41c-1.07-1.92-1.46-4.66-3-5.75s-4.12-.4-6.25-.42C66.24,39.56,63.29,39.59,60.26,39.59Z" style="fill:#a9a5a6"/><path d="M0,30.55c0-4.66,0-9.32,0-14,0-1.64.32-2.48,2.23-2.4,3.26.15,3.36.08,3.37,2.32,0,9.52,0,19,0,28.57,0,2.1-1.13,2.27-2.72,2.2s-3,.28-2.94-2.13C.13,40.28,0,35.41,0,30.55Z" style="fill:#a9a5a6"/><path d="M67.58,51.75c4.54,0,6.52,2.19,5.6,6.13a4.61,4.61,0,0,1-4,3.45c-.13,0-.27,0-.4,0-4.44.17-4.44.17-4.44-4.23q0-1,0-2C64.31,51.73,64.31,51.73,67.58,51.75ZM66.1,56.43c0,3.28,0,3.28,1.89,3.27,2.39,0,3.49-1,3.5-3.16,0-2.45-.75-3-3.57-3.17C64.92,53.21,66.54,55.43,66.1,56.43Z" style="fill:#a9a5a6"/><path d="M104.84,56.27a26.67,26.67,0,0,1,0-3.24c.06-.46.57-.86.87-1.29.37.44,1.13,1,1.05,1.32-.45,2.24.88,2.21,2.45,2.25s1.88-.52,1.79-1.92c0-.54.57-1.11.88-1.67.35.54,1,1.06,1,1.61a64.53,64.53,0,0,1,0,6.48c0,.51-.58,1-.89,1.5a9.57,9.57,0,0,1-1-1.5,2.58,2.58,0,0,1,0-1.2c.13-1.36-.48-1.8-1.8-1.65s-2.52-.28-2.42,1.75c0,.84-.55,2.47-.79,2.46-1.66-.09-1.05-1.5-1.13-2.48-.06-.81,0-1.62,0-2.43Z" style="fill:#a9a5a6"/><path d="M128.49,56.41c0-4.59,0-4.63,4.57-4.63a8.93,8.93,0,0,1,2.38.68c-.82.34-1.62.73-2.46,1a22,22,0,0,0-2.64.83c.24,1.69,1.68.59,2.56.95a9.31,9.31,0,0,1,1.5,1,13.63,13.63,0,0,1-1.57.78c-.3.11-.74-.12-1,0-.57.34-1.35.72-1.53,1.26-.35,1,.42,1.4,1.39,1.36a17.55,17.55,0,0,1,2.62,0c.42,0,.79.47,1.19.72-.39.35-.75,1-1.16,1-1.41.12-2.83,0-4.24,0-1.22,0-1.71-.49-1.64-1.7S128.49,57.49,128.49,56.41Z" style="fill:#a9a5a6"/><path d="M167.08,56.49a9.29,9.29,0,0,1,0-1.41c.17-1.11,0-2.7.7-3.2,1.23-.93,5.11,0,5.67,1.19.42.93.59,2.61,0,3.21-1.18,1.31-.92,2.13,0,3.28.31.39.21,1.12.29,1.69a5,5,0,0,1-1.63-.73c-.6-.61-.92-1.49-1.5-2.13-.3-.33-.88-.4-1.34-.59a10.61,10.61,0,0,0-.46,1.22c-.06.25.11.57,0,.8a17.2,17.2,0,0,1-.82,1.55,5.36,5.36,0,0,1-.9-1.65,23.7,23.7,0,0,1,0-3.23Zm3.19.38,2.11-2.2a10.21,10.21,0,0,0-2-1.16c-1-.29-1.67.2-1.45,1.26C169,55.36,169.57,55.85,170.28,56.88Z" style="fill:#a9a5a6"/><path d="M85.34,51.77c2.57.17,5.14-.94,6.69,1.65,1,1.7,0,3.07-1.48,4.2a15.77,15.77,0,0,1,1.35,2.08A4.93,4.93,0,0,1,92,61.29c-.53-.2-1.19-.26-1.54-.62-.59-.61-.89-1.49-1.46-2.12a4.72,4.72,0,0,0-1.45-.76,14.09,14.09,0,0,0-.42,1.44c-.06.32.12.72,0,1a6.39,6.39,0,0,1-.83,1.14c-.33-.4-.94-.79-1-1.2C85.3,57.48,85.34,54.79,85.34,51.77Zm3.13,5.09,2.14-2.18a9.82,9.82,0,0,0-2-1.2c-1-.3-1.61.26-1.41,1.27C87.28,55.34,87.81,55.84,88.47,56.87Z" style="fill:#a9a5a6"/><path d="M176.35,56.32c0-4.54,0-4.54,4.53-4.57a3.44,3.44,0,0,1,1.2,0,3.82,3.82,0,0,1,1,.81c-.3.31-.57.85-.9.9-.86.11-1.76-.1-2.62,0-.47.07-.87.58-1.31.89a5.6,5.6,0,0,0,1.15.85c.83.34,2.48.63,2.46.82-.17,1.8-1.69.52-2.49,1a2.11,2.11,0,0,0-1,1.37,1.52,1.52,0,0,0,.92,1.18c.91.18,1.88,0,2.82.08.38,0,.72.44,1.07.68-.34.33-.67.93-1,1a27.05,27.05,0,0,1-4.65,0c-.42,0-1-.82-1.08-1.32A27.78,27.78,0,0,1,176.35,56.32Z" style="fill:#a9a5a6"/><path d="M74.2,60.9c1.21-2.86,2.37-5.75,3.67-8.57.47-1,1.81-.81,2.29.27,1.09,2.43,2.19,4.86,3.21,7.32.15.37-.1.91-.17,1.37-.46-.18-1.21-.24-1.33-.55-.68-1.69-2-1.61-3.47-1.63a1.73,1.73,0,0,0-2,1.19c-.25.54-1.13.79-1.72,1.17Zm4.95-6.64-.65.16-.81,3.1,2.26-.28Z" style="fill:#a9a5a6"/><path d="M102.58,54.51a7.21,7.21,0,0,0-2.4-.89c-1.32,0-3.15,0-3.83.76a4.33,4.33,0,0,0-.24,3.88c.38.81,2.07,1.2,3.24,1.35.59.08,1.27-.86,2-1.2a4.34,4.34,0,0,1,1.39-.18c0,.49.11,1.09-.12,1.44-1.27,1.92-4.9,2.32-6.94.83a5,5,0,0,1-1.12-6.8c2.31-3,6.59-2.92,8.29.22Z" style="fill:#a9a5a6"/><path d="M145.59,54.45c-.71-.23-1.42-.44-2.12-.71-1.53-.59-3.07-.85-4.23.6a3.27,3.27,0,0,0,.47,4.68c1.53,1.26,3,.74,4.37-.34a4.67,4.67,0,0,1,1.63-.45A5.26,5.26,0,0,1,145.1,60c-1.48,1.73-3.46,1.65-5.38,1.06a5.78,5.78,0,0,1-3.34-4.67A5.75,5.75,0,0,1,140,51.76C142.89,51.06,144.46,51.66,145.59,54.45Z" style="fill:#a9a5a6"/><path d="M156.59,55.29a10.12,10.12,0,0,1,0-2,6.68,6.68,0,0,1,.77-1.56c.32.55.85,1.08.92,1.66.14,1.2,0,2.43,0,3.64,0,1.37.37,2.51,2.07,2.69s2.43-.84,2.49-2.38-.07-2.84,0-4.25c0-.46.55-.88.85-1.31.38.43,1.1.87,1.09,1.29a30.69,30.69,0,0,1-.43,5.61c-.43,2.2-2,3-4.66,2.67a3.89,3.89,0,0,1-3.23-3.62c0-.81,0-1.62,0-2.43Z" style="fill:#a9a5a6"/><path d="M147.14,51.75c2.38,0,4.77,0,7.15,0,.25,0,.73.68.68.75-.26.39-.73,1-1,1-2.12-.43-1.94.91-1.89,2.25a33.45,33.45,0,0,1,0,4,4.82,4.82,0,0,1-.79,1.57,4.69,4.69,0,0,1-.75-1.53c-.12-1.61-.09-3.22-.1-4.84,0-1-.26-1.61-1.52-1.55-.64,0-1.32-.55-2-.86Z" style="fill:#a9a5a6"/><path d="M119,51.71c2.27,0,4.54,0,6.81,0,.32,0,.62.64.93,1-.38.27-.82.83-1.14.77-1.69-.32-1.75.63-1.7,1.87a41.73,41.73,0,0,1,0,4.65c0,.45-.59.86-.9,1.29-.27-.45-.74-.9-.77-1.36-.1-1.61-.06-3.23,0-4.85,0-1.08-.39-1.56-1.52-1.66a6.79,6.79,0,0,1-2-.84Z" style="fill:#a9a5a6"/><path d="M115.4,56.47a31,31,0,0,1,0-3.44c.05-.46.57-.86.87-1.29.37.38,1,.74,1.06,1.13.1,2.43.1,4.86,0,7.29,0,.39-.56.76-.86,1.15-.38-.4-1-.76-1.07-1.19a29.45,29.45,0,0,1-.05-3.64Z" style="fill:#a9a5a6"/><path d="M61.8,56.55c0,1.28.05,2.56,0,3.83,0,.34-.49.65-.75,1-.33-.33-.94-.66-.95-1-.08-2.55-.07-5.11,0-7.66,0-.33.49-.66.76-1,.32.33.89.65.92,1,.11,1.27,0,2.55,0,3.83Z" style="fill:#a9a5a6"/></svg>