<svg xmlns="http://www.w3.org/2000/svg" viewBox="0 0 141.24 33.69"><title>Asset 8</title><path d="M8.27,8c3,0,5,1.05,5,3.91s-1.8,3.91-5,3.91V8M0,32.64H8.27V19.55h.15L14,32.64h9.33L17.15,19a9.21,9.21,0,0,0,4.36-7.82C21.51,4.36,17.15.9,10.83.9H0V32.64Z" style="fill:#a7a3a4"/><path d="M42.57,21.36H36.7l2.86-8.87h.15l2.86,8.87M24.07,32.64h9L34.14,29h11l1.2,3.61h9L44.52.9H35.2Z" style="fill:#a7a3a4"/><path d="M66.93,9.33c4.81.45,5.87,4.21,5.87,7.22,0,2.41-.6,6.47-5.87,7.22V9.33M58.81,32.64h6.62A15.58,15.58,0,0,0,81.52,17.75v-1.2C81.52,9,76.56.9,66.48.9H59l-.15,31.74Z" style="fill:#a7a3a4"/><path d="M104.69,32.94a20.42,20.42,0,0,1-4.36.45c-9.78,0-15.64-7.67-15.64-17,0-9,6.47-16.4,15.64-16.4a36.88,36.88,0,0,1,4.06.3l.6,9.63a7.81,7.81,0,0,0-4.06-1.05,7.33,7.33,0,0,0-7.52,6.92v.45c0,5.72,3.76,8.12,7.52,8.12a7.67,7.67,0,0,0,4.36-1.2l-.6,9.78" style="fill:#a7a3a4"/><path d="M132.82,16.85A7.9,7.9,0,0,1,117,17.3v-.45a7.9,7.9,0,0,1,15.79-.45v.45m8.42,0A16.25,16.25,0,1,0,125,33.69,16.79,16.79,0,0,0,141.24,16.85Z" style="fill:#a7a3a4"/></svg>