<svg xmlns="http://www.w3.org/2000/svg" viewBox="0 0 138.15 58.21"><title>Asset 5</title><path d="M85.57,52.81H95.91l1.68-7h14.2l1.75,7h20.31L115.47.23,85.58.37l0,52.44Zm15.17-19.45h7.83L107,27.42q-1.19-4.51-1.61-6.95a35.91,35.91,0,0,1-.54-4.57h-.32a38,38,0,0,1-.54,4.57q-.44,2.44-1.61,6.95l-1.61,5.93ZM64.38.3H43.61L39.7,13q-1.43,4.69-2.28,8.44c-.57,2.5-1,4.87-1.29,7.08h-.32a79.4,79.4,0,0,0-2.89-13.48c-.24-.8-.43-1.42-.54-1.82L28.66.31H9.23l-9,52.56,18.39-.07L21,31.93c.18-1.6.28-3.19.41-4.76s.26-3.17.38-4.79c.21,1.5.51,3.09.89,4.77s.89,3.46,1.46,5.38l6.07,20.34L41,52.8,47.4,32.53c.6-1.91,1.06-3.71,1.45-5.38s.7-3.27.9-4.77c.1,1.59.23,3.18.37,4.77s.25,3.18.43,4.77L52.83,52.8h11.5L64.38.3ZM65.77,52.8H84.1L84.13.3H81.22L65.77.32V52.8Z" style="fill:#a7a3a4;fill-rule:evenodd"/><path d="M0,58.21v-3.8H.71l1.79,2.3,1.75-2.3H5v3.8H4.14V55.87s0-.1,0-.17,0-.15,0-.23L4,55.7l-.1.16-1.43,1.9H2.35L.92,55.85l-.13-.2a1.42,1.42,0,0,1-.09-.18c0,.08,0,.15,0,.22s0,.13,0,.19v2.35Zm6.82-3.8H7.7v3.8H6.82v-3.8Zm3.8,2.28h1.66l-.82-1.55-.84,1.55Zm-1.7,1.52,2.15-3.8h.85l2.18,3.8h-1l-.46-.83H10.24l-.44.83Zm6.39,0v-3.8H16l1.79,2.3,1.75-2.3h.71v3.8h-.82V55.87s0-.1,0-.17,0-.15,0-.23l-.13.24-.1.16-1.43,1.9h-.18l-1.43-1.9-.14-.2a1.6,1.6,0,0,1-.09-.18c0,.08,0,.15,0,.22s0,.13,0,.19v2.35Zm6.82-3.8H23v3.8h-.88v-3.8Zm5.67,0h.88v3.8h-.88v-3.8Zm2.82,3.8v-3.8h.6l2.68,2.24.24.21.19.2c0-.21,0-.36,0-.45s0-.16,0-.21v-2h.79v3.8h-.6L31.7,55.87l-.18-.16-.14-.15c0,.12,0,.23,0,.33s0,.19,0,.27v2.05Zm8.17-3.12v3.12h-.88V55.09H36.17v-.68h4.38v.68Zm2.83,3.12v-3.8h3.89v.65h-3v.85h1.75v.65H42.51v.94h3v.71ZM50,55.07h-2v1.06h2a.53.53,0,0,0,.31-.07.29.29,0,0,0,.08-.24v-.46a.28.28,0,0,0-.08-.23.53.53,0,0,0-.31-.07Zm-2.86,3.14v-3.8h3.25a1,1,0,0,1,.66.18.7.7,0,0,1,.2.56V56a.7.7,0,0,1-.2.56,1,1,0,0,1-.66.18h-.5l1.75,1.43H50.42l-1.53-1.43h-.84v1.43Zm5.89,0v-3.8h.6l2.67,2.24.24.21.19.2c0-.21,0-.36,0-.45s0-.16,0-.21v-2h.79v3.8h-.6l-2.79-2.35L54,55.71l-.14-.15c0,.12,0,.23,0,.33s0,.19,0,.27v2.05Zm7.38-1.52h1.66l-.82-1.55-.84,1.55Zm-1.7,1.52,2.15-3.8h.85l2.18,3.8h-1l-.46-.83H60.08l-.44.83Zm7.67-3.12v3.12h-.88V55.09H63.8v-.68h4.38v.68Zm2.83-.68h.88v3.8h-.88v-3.8Zm2.75.9a1,1,0,0,1,.19-.71,1.09,1.09,0,0,1,.75-.19h2.79a1.08,1.08,0,0,1,.75.19,1,1,0,0,1,.19.71v2a1,1,0,0,1-.19.71,1.09,1.09,0,0,1-.75.19H72.94a1.1,1.1,0,0,1-.75-.19,1,1,0,0,1-.19-.71v-2Zm.88,2.19H75.8V55.1H72.88v2.4Zm5.65.71v-3.8h.6l2.68,2.24.24.21.19.2c0-.21,0-.36,0-.45s0-.16,0-.21v-2H83v3.8h-.6l-2.79-2.35-.18-.16-.14-.15c0,.12,0,.23,0,.33s0,.19,0,.27v2.05Zm7.38-1.52h1.66l-.82-1.55-.84,1.55Zm-1.7,1.52,2.15-3.8h.85l2.18,3.8h-1l-.46-.83H85.53l-.44.83Zm6.4,0v-3.8h.88V57.5h2.85v.71Zm8.85-1.52h1.66l-.82-1.55-.84,1.55Zm-1.7,1.52,2.15-3.8h.85l2.18,3.8h-1l-.46-.83H99.09l-.44.83Zm6.4-3.8H105v3.8h-.88v-3.8Zm5.68.66h-2v1.06h2a.53.53,0,0,0,.31-.07.29.29,0,0,0,.08-.24v-.46a.28.28,0,0,0-.08-.23.54.54,0,0,0-.31-.07ZM107,58.21v-3.8h3.25a1,1,0,0,1,.66.18.7.7,0,0,1,.2.56V56a.7.7,0,0,1-.2.56,1,1,0,0,1-.66.18h-.49l1.75,1.43h-1.27l-1.53-1.43h-.84v1.43Zm8.76-3.14h-2v1h2a.53.53,0,0,0,.31-.07.28.28,0,0,0,.08-.24v-.41a.28.28,0,0,0-.08-.23.53.53,0,0,0-.31-.07Zm-2.86,3.14v-3.8h3.25a1,1,0,0,1,.66.18.7.7,0,0,1,.2.56V56a.7.7,0,0,1-.2.56,1,1,0,0,1-.66.17h-2.38v1.48Zm5.39-2.9a1,1,0,0,1,.19-.71,1.08,1.08,0,0,1,.75-.19H122a1.08,1.08,0,0,1,.75.19,1,1,0,0,1,.19.71v2a1,1,0,0,1-.19.71,1.09,1.09,0,0,1-.75.19h-2.79a1.09,1.09,0,0,1-.75-.19,1,1,0,0,1-.19-.71v-2Zm.88,2.19h2.91V55.1h-2.91v2.4Zm8.51-2.43h-2v1.06h2a.53.53,0,0,0,.31-.07.29.29,0,0,0,.08-.24v-.46a.28.28,0,0,0-.08-.23.54.54,0,0,0-.31-.07Zm-2.86,3.14v-3.8h3.25a1,1,0,0,1,.66.18.7.7,0,0,1,.2.56V56a.7.7,0,0,1-.2.56,1,1,0,0,1-.66.18h-.49l1.75,1.43h-1.27l-1.53-1.43h-.84v1.43Zm7.54-3.12v3.12h-.88V55.09h-1.74v-.68h4.38v.68Z" style="fill:#a7a3a4;fill-rule:evenodd"/><path d="M134.77,52.8v-2h-.7v-.27h1.71v.27h-.7v2Zm1.56-1.9v1.9h-.28V50.57h.43l.55,1.71,0,.11,0,.07,0-.1,0-.08.57-1.71h.43V52.8h-.29V50.9l0,.1,0,.1-.57,1.7h-.29l-.56-1.7,0-.09,0-.1Z" style="fill:#a7a3a4;fill-rule:evenodd"/><path d="M65.75,52.82l.54-3.76,6.12-5.53V32.93c0-11.48-10.8-1.76-15,0,0-1.74-.47-3.6.8-4.77,6.18-5.76,7-7.8,13.21-13.44,0-2.54.06-5.1.1-7.64,0-4.69.81-7,3.39-7.05s3.39,2.34,3.39,7c0,2.54.1,5.1.1,7.64,6.25,5.65,7,7.68,13.21,13.44,1.26,1.18.8,3,.8,4.77-4.16-1.74-15-11.46-15,0v10.6L83.62,49l.49,3.76Z" style="fill:#fff;fill-rule:evenodd"/></svg>