<svg xmlns="http://www.w3.org/2000/svg" viewBox="0 0 135.68 62.46"><title>Asset 3</title><path d="M69.86,26.77a8,8,0,0,1,15.9.07,8,8,0,0,1-15.9-.07Z" style="fill:#a7a3a4"/><path d="M19.08,45.63A8,8,0,0,1,35,45.58a8,8,0,0,1-15.9.05Z" style="fill:#a7a3a4"/><path d="M0,7.82a7.95,7.95,0,0,1,15.9.09A7.95,7.95,0,0,1,0,7.82Z" style="fill:#a7a3a4"/><path d="M54,7.86A7.93,7.93,0,1,1,46.07,0,7.88,7.88,0,0,1,54,7.86Z" style="fill:#a7a3a4"/><path d="M7.94,37.75A7.87,7.87,0,1,1,0,45.61,7.92,7.92,0,0,1,7.94,37.75Z" style="fill:#a7a3a4"/><path d="M7.94,34.57a7.87,7.87,0,1,1,8-7.86A7.92,7.92,0,0,1,7.94,34.57Z" style="fill:#a7a3a4"/><path d="M96.9,18.94A7.87,7.87,0,1,1,89,26.82,7.93,7.93,0,0,1,96.9,18.94Z" style="fill:#a7a3a4"/><path d="M54,45.64a7.93,7.93,0,1,1-7.89-7.89A7.9,7.9,0,0,1,54,45.64Z" style="fill:#a7a3a4"/><path d="M87.3,15.8a7.84,7.84,0,1,1,8-7.8A7.84,7.84,0,0,1,87.3,15.8Z" style="fill:#a7a3a4"/><path d="M54,26.74a7.93,7.93,0,1,1-7.92-7.91A7.86,7.86,0,0,1,54,26.74Z" style="fill:#a7a3a4"/><path d="M68.23,53.54a7.84,7.84,0,1,1,0-15.68,7.84,7.84,0,1,1,0,15.68Z" style="fill:#a7a3a4"/><path d="M114.33,45.74a7.93,7.93,0,1,1-7.91-7.88A7.83,7.83,0,0,1,114.33,45.74Z" style="fill:#a7a3a4"/><path d="M124.93,62.24c-2,0-4,0-6.07,0-.51,0-.72-.09-.72-.66,0-1.43,0-1.43,1.45-1.43h10.62a4.06,4.06,0,0,0,1.89-.37,2.64,2.64,0,0,0,1.41-2.51c0-1.49,0-3,0-4.48,0-.52.1-.71.67-.7,1.47,0,1.49,0,1.46,1.43a24.66,24.66,0,0,1-.2,5,4.5,4.5,0,0,1-4.38,3.72c-2,.07-4.09,0-6.14,0Z" style="fill:#a7a3a4"/><path d="M60.94,59a7.18,7.18,0,0,1,.68-.26,1.33,1.33,0,0,1,1.72,1.18c.05.67,0,1.35,0,2,0,.21,0,.38-.31.38s-.28-.2-.28-.4c0-.55,0-1.11,0-1.66s-.24-1-.89-1-.9.41-.93,1,0,1.11,0,1.66c0,.2,0,.39-.28.4s-.31-.16-.31-.37q0-2.17,0-4.34c0-.22.07-.37.33-.36s.27.17.27.35C60.95,58.06,60.94,58.51,60.94,59Z" style="fill:#a7a3a4"/><path d="M27.75,61c0-.26,0-.53,0-.79a1.39,1.39,0,0,1,1.32-1.44,1.43,1.43,0,0,1,1.63,1.19A12.47,12.47,0,0,1,30.77,62c0,.24-.1.35-.35.34s-.3-.18-.3-.39c0-.53,0-1.06,0-1.59,0-.74-.29-1.07-.87-1.07s-.89.34-.91,1c0,.51,0,1,0,1.52,0,.2.07.46-.27.48s-.3-.29-.31-.51S27.75,61.26,27.75,61Z" style="fill:#a7a3a4"/><path d="M87.78,61.28a1.7,1.7,0,0,1-2.07,1.09,1.81,1.81,0,0,1-1.38-1.87,1.84,1.84,0,0,1,1.52-1.76,1.63,1.63,0,0,1,1.87,1.09c-.34.17-.56,0-.82-.23a1.08,1.08,0,0,0-1.61.07,1.3,1.3,0,0,0,0,1.82,1.12,1.12,0,0,0,1.61.05A.77.77,0,0,1,87.78,61.28Z" style="fill:#a7a3a4"/><path d="M56.44,59.85a.67.67,0,0,1-.77-.19,1.12,1.12,0,0,0-1.66,0,1.33,1.33,0,0,0,0,1.83,1.1,1.1,0,0,0,1.67,0c.21-.18.46-.42.67-.19s-.1.47-.28.65a1.8,1.8,0,0,1-2.14.24,1.87,1.87,0,0,1,.78-3.46A1.61,1.61,0,0,1,56.44,59.85Z" style="fill:#a7a3a4"/><path d="M96.8,60.17q0-.5,0-1c0-.2.07-.32.3-.31s.28.13.28.32c0,.53,0,1.06,0,1.59,0,.71.39,1.17.94,1.11a1,1,0,0,0,.89-1.1c0-.5,0-1,0-1.51,0-.19,0-.4.27-.41s.32.2.32.43c0,.55,0,1.11,0,1.66a1.51,1.51,0,1,1-3,0c0-.24,0-.48,0-.72Z" style="fill:#a7a3a4"/><path d="M3.47,60.19c0,.27,0,.53,0,.8a1.48,1.48,0,0,1-1.41,1.47A1.48,1.48,0,0,1,.47,61.1c-.05-.62,0-1.25,0-1.88,0-.22,0-.39.31-.37s.27.22.27.41c0,.48,0,1,0,1.45,0,.72.36,1.16.91,1.17s.91-.42.92-1.14c0-.43,0-.87,0-1.3,0-.23-.14-.6.31-.58s.25.39.28.61a6.25,6.25,0,0,1,0,.72Z" style="fill:#a7a3a4"/><path d="M91.58,59.77c0-.43,0-.87,0-1.3,0-.19,0-.4.26-.42s.34.14.32.36c0,.38.21.43.5.42s.34,0,.33.27-.14.29-.34.26c-.46-.07-.52.19-.5.56s0,.63,0,.94.06.83.6.92c.22,0,.26.19.23.37s-.24.21-.4.19a1.09,1.09,0,0,1-1-1.13c0-.48,0-1,0-1.45Z" style="fill:#a7a3a4"/><path d="M72.17,59.83q0-.72,0-1.44c0-.19.05-.33.28-.34s.33.09.31.3c0,.38.13.52.5.49.19,0,.33.05.32.28s-.15.28-.34.25c-.4-.06-.5.15-.48.51s0,.72,0,1.08.09.73.53.82c.24,0,.35.17.29.4s-.31.19-.48.15a1.07,1.07,0,0,1-.92-1.06c0-.48,0-1,0-1.44Z" style="fill:#a7a3a4"/><path d="M103.77,61.11a5.15,5.15,0,0,1,.08-1.29,1.36,1.36,0,0,1,1.22-1.07c.16,0,.36-.06.41.18s0,.36-.28.39c-.63.09-.8.53-.78,1.1s0,1,0,1.45c0,.24,0,.51-.34.5s-.3-.3-.31-.52S103.77,61.35,103.77,61.11Z" style="fill:#a7a3a4"/><path d="M67.45,60.54q0-.65,0-1.29c0-.22,0-.44.31-.45s.36.15.36.4c0,.91,0,1.82,0,2.73,0,.24,0,.43-.35.42s-.32-.22-.32-.45Q67.45,61.23,67.45,60.54Z" style="fill:#a7a3a4"/><path d="M7.5,60.95a8.79,8.79,0,0,1,0-1,1.36,1.36,0,0,1,1.31-1.21c.17,0,.35,0,.39.22s0,.33-.25.35c-.77.07-.91.58-.88,1.22s0,1,0,1.51c0,.2-.08.31-.3.31s-.29-.13-.29-.32q0-.54,0-1.08Z" style="fill:#a7a3a4"/><path d="M47.86,61a9,9,0,0,1,0-1.08,1.34,1.34,0,0,1,1.27-1.17c.17,0,.35,0,.4.21s0,.33-.25.35c-.77.08-.88.61-.85,1.25,0,.48,0,1,0,1.44,0,.23-.08.37-.33.35s-.26-.17-.26-.35c0-.34,0-.67,0-1Z" style="fill:#a7a3a4"/><path d="M35.58,60.13c.31.18.93-.26.94.33s-.61.27-.92.27-.93.31-.93-.26S35.28,60.32,35.58,60.13Z" style="fill:#a7a3a4"/><path d="M68.12,58c0,.26-.14.32-.36.32s-.31-.1-.3-.3.08-.44.36-.42S68.11,57.78,68.12,58Z" style="fill:#a7a3a4"/><path d="M135.65,5.28a5.09,5.09,0,0,0-3.75-5,4.8,4.8,0,0,0-5.72,2.47,4.6,4.6,0,0,0-6.93-.36,5.51,5.51,0,0,0-1.13,6.05A5,5,0,0,0,123,11.81c4,.08,8.05,0,12.08,0,.49,0,.62-.17.61-.63C135.65,9.24,135.69,7.26,135.65,5.28ZM125,9.7c-.72,0-1.44,0-2.16,0a3.29,3.29,0,0,1-3-3.13,3,3,0,0,1,2.58-3.43,2.68,2.68,0,0,1,3.07,2.68c0,.55,0,1.11,0,1.66h0c0,.58,0,1.15,0,1.73C125.45,9.54,125.35,9.71,125,9.7Zm8.58-.47c0,.41-.18.48-.53.47-.84,0-1.69,0-2.53,0H128c-.27,0-.48,0-.47-.38a42.1,42.1,0,0,1,.09-4.76,2.78,2.78,0,0,1,3.05-2.37,2.92,2.92,0,0,1,2.88,2.71C133.57,6.33,133.52,7.78,133.54,9.22Z" style="fill:#a7a3a4"/><path d="M135,36.54c-1.76,0-3.52,0-5.28,0-.54,0-.7-.16-.69-.7,0-2.22,0-4.43,0-6.65,0-.46.11-.63.61-.62,1.49,0,3,0,4.48,0s1.53,0,1.5-1.54c0-.47-.16-.61-.63-.61-3.81,0-7.61,0-11.42,0a5.82,5.82,0,0,0-3,.83,6.08,6.08,0,0,0-2.75,6.87,5.92,5.92,0,0,0,5.65,4.46c1.85,0,3.71,0,5.57,0h5.06c1.52,0,1.5,0,1.49-1.49C135.66,36.66,135.51,36.53,135,36.54Zm-8-3.92c0,1.13,0,2.26,0,3.39,0,.33,0,.55-.46.54-1.08,0-2.16.05-3.24-.07a3.94,3.94,0,0,1-3.57-4.09,3.88,3.88,0,0,1,3.8-3.77c1,0,1.92,0,2.89,0,.43,0,.59.12.58.57C127,30.31,127,31.47,127,32.62Z" style="fill:#a7a3a4"/><path d="M13.46,59.19c0-.57,0-1,0-1.52,0-.2,0-.4-.28-.4s-.29.19-.29.39c0,1,0,2.07,0,3.11a1.82,1.82,0,0,0,1.92,1.68,1.84,1.84,0,0,0,1.68-1.92C16.48,59,15.08,58.32,13.46,59.19Zm1.27,2.71a1.34,1.34,0,0,1-1.24-1.27,1.3,1.3,0,0,1,1.23-1.34,1.23,1.23,0,0,1,1.19,1.29A1.3,1.3,0,0,1,14.73,61.9Z" style="fill:#a7a3a4"/><path d="M111.78,61.48a1.16,1.16,0,0,1-1.57.19c-.32-.2-.34-.37.06-.52.63-.24,1.24-.53,1.87-.76.45-.16.46-.39.25-.76a1.78,1.78,0,0,0-2-.86A1.83,1.83,0,0,0,109,60.59a1.79,1.79,0,0,0,1.17,1.73,1.83,1.83,0,0,0,2-.43c.14-.17.44-.39.25-.59S112,61.27,111.78,61.48Zm-2.11-1.22a1.24,1.24,0,0,1,1.26-1,3,3,0,0,1,.47.17c.16.09.38.18.35.4s-.25.19-.4.26c-.42.18-.85.33-1.26.53S109.58,60.6,109.67,60.26Z" style="fill:#a7a3a4"/><path d="M79.86,61.51c-.62.54-1.19.5-1.91-.19.82-.34,1.54-.66,2.28-.93.44-.16.47-.38.25-.75a1.81,1.81,0,0,0-1.82-.91,1.88,1.88,0,0,0-1.54,1.61A1.86,1.86,0,0,0,80.24,62c.16-.17.5-.4.28-.64S80.07,61.33,79.86,61.51Zm-2.13-1a1.25,1.25,0,0,1,.72-1.08,1,1,0,0,1,1.2.15,2.1,2.1,0,0,1,.18.19c0,.23-.14.25-.26.3l-1.46.61C77.92,60.75,77.7,60.83,77.73,60.5Z" style="fill:#a7a3a4"/><path d="M23.74,61.78c0-.19,0-.38,0-.58s0-.43,0-.65a1.8,1.8,0,0,0-3.36-.92,1.93,1.93,0,0,0,.27,2.27,1.71,1.71,0,0,0,2.16.26c.1-.05.24-.29.32-.07s.29.32.49.21S23.73,62,23.74,61.78Zm-1.81.12a1.32,1.32,0,0,1-1.2-1.38,1.21,1.21,0,1,1,2.42.1A1.29,1.29,0,0,1,21.93,61.9Z" style="fill:#a7a3a4"/><path d="M43.84,61.2c0-.22,0-.43,0-.65a1.83,1.83,0,0,0-1.4-1.79,1.8,1.8,0,0,0-2,.87,1.91,1.91,0,0,0,.28,2.27,1.71,1.71,0,0,0,2.17.24c.1-.06.24-.34.34,0s.24.21.4.19.18-.25.18-.41S43.84,61.45,43.84,61.2ZM42,61.9a1.3,1.3,0,0,1-1.16-1.34A1.27,1.27,0,0,1,42,59.29,1.31,1.31,0,0,1,42,61.9Z" style="fill:#a7a3a4"/></svg>