<svg xmlns="http://www.w3.org/2000/svg" viewBox="0 0 144.04 55.28"><title>Asset 38</title><path d="M144,18.36a11.14,11.14,0,0,1-.84,1.81A4.34,4.34,0,0,1,139.57,22c-.75,0-1.5,0-2.25,0A4.37,4.37,0,0,0,133,25.83c-.06.95-.07,1.9-.08,2.85a4.32,4.32,0,0,1-4.24,4.14h-2.55a4.39,4.39,0,0,1-4.3-4.29,28.13,28.13,0,0,0-.09-2.93,4.12,4.12,0,0,0-3.35-3.49,25.49,25.49,0,0,0-3.06-.11,4.68,4.68,0,0,1-2.81-.92,4.21,4.21,0,0,1-1.76-3.48,21.65,21.65,0,0,1,.1-3,4.38,4.38,0,0,1,4.06-3.49c.92,0,1.85,0,2.77,0a4.33,4.33,0,0,1,4.05,3.33,13.33,13.33,0,0,1,.14,1.93,16.21,16.21,0,0,0,.15,2.27,4.29,4.29,0,0,0,4.12,3.29h2.42a4.22,4.22,0,0,0,4.26-3.72,20.08,20.08,0,0,0,.08-2.8,4.44,4.44,0,0,1,4.21-4.3q1.34,0,2.68,0A4.41,4.41,0,0,1,144,14.46a.88.88,0,0,0,.09.18Z" style="fill:#a9a5a6"/><path d="M0,38H11.63V41H3.06v4h7.25v2.9H3.07V52H12V55l-.43,0H.46A3.22,3.22,0,0,1,0,54.91Z" style="fill:#a9a5a6"/><path d="M107.09,0a15.67,15.67,0,0,1,2.26.26,4.34,4.34,0,0,1,3.24,4.25,21.06,21.06,0,0,1-.08,2.76,4.33,4.33,0,0,1-4.17,3.65c-1,0-2.06,0-3.07.08a4.32,4.32,0,0,0-3.76,4.29,25.48,25.48,0,0,0,0,2.6,4.32,4.32,0,0,0,4.29,3.91c.78,0,1.56,0,2.34,0a4.43,4.43,0,0,1,4.42,4.44,20.66,20.66,0,0,1-.08,2.76,4.3,4.3,0,0,1-4.13,3.63,19.78,19.78,0,0,1-3.24-.08,4.23,4.23,0,0,1-3.62-4.26c0-.75,0-1.5,0-2.25a4.42,4.42,0,0,0-4-4.23c-.82-.05-1.64,0-2.47,0a4.37,4.37,0,0,1-4.56-4.59c0-.74,0-1.48,0-2.21a4.38,4.38,0,0,1,4.38-4.07c.72,0,1.44,0,2.16,0a4.39,4.39,0,0,0,4.52-4.54,21.08,21.08,0,0,1,.07-2.59,4.33,4.33,0,0,1,4.2-3.72h1.3Z" style="fill:#a9a5a6"/><path d="M25.13,49.71V38.05H28V55c-.68,0-1.37,0-2,0a1,1,0,0,1-1-.55c-2.27-3.43-4.56-6.84-6.84-10.26-.25-.37-.46-.76-.75-1.25V55H14.45V38c.93,0,1.84,0,2.75,0a.54.54,0,0,1,.35.24Q21.27,43.9,25,49.54Z" style="fill:#a9a5a6"/><path d="M43.91,41.25l-2.69,1.63c-.08-.12-.16-.22-.22-.33-1.36-2.51-5-2.29-6.4-.28a6.24,6.24,0,0,0-1.11,3A8.36,8.36,0,0,0,34,49.78a4.15,4.15,0,0,0,5.36,2.31,2.84,2.84,0,0,0,2-2.86h-4V46.45h7c0,2,.17,3.92-.87,5.72a5.91,5.91,0,0,1-4.41,3,6.93,6.93,0,0,1-7-2.48,8.43,8.43,0,0,1-1.68-4.16,11,11,0,0,1,.94-6.79,7.15,7.15,0,0,1,7.47-3.89,6.15,6.15,0,0,1,4.4,2.45C43.49,40.55,43.68,40.89,43.91,41.25Z" style="fill:#a9a5a6"/><path d="M46,43.2v-.59h1.11c.94,0,1.88,0,2.81,0,.3,0,.41.08.49.38.71,2.85,1.44,5.7,2.17,8.55a.92.92,0,0,0,.1.17L53.61,49c.66-2,1.32-4,2-5.93.11-.33.23-.46.59-.44.87,0,.65-.14,1,.67,1,2.74,2,5.49,3.07,8.24,0,.07.07.14.14.29l1.52-7.15c.12-.57.23-1.15.36-1.72,0-.21.12-.36.4-.33s.69,0,1.09,0c-.14.64-.25,1.24-.39,1.83-.77,3.41-1.55,6.82-2.32,10.24-.06.26-.16.32-.4.32-.46,0-.92,0-1.38,0-.28,0-.39-.1-.48-.35q-1.37-3.91-2.76-7.8c0-.08-.07-.15-.13-.28L54,52c-.31.91-.64,1.81-.93,2.72a.39.39,0,0,1-.46.32,12.21,12.21,0,0,0-1.25,0c-.3,0-.41-.07-.49-.38-.82-3.17-1.66-6.32-2.5-9.49,0-.08-.05-.16-.08-.25-.37-1.24-.73-1.54-2-1.67Z" style="fill:#a9a5a6"/><path d="M94.88,47.45,100.67,55c-.16,0-.27,0-.37,0-.89,0-1.79,0-2.68,0a.76.76,0,0,1-.52-.27c-1.49-2-3-4-4.43-6.07l-.22-.26V55H89.73v-.49q0-7.23,0-14.46a6.39,6.39,0,0,0-.1-1.12,1.48,1.48,0,0,0-1.55-1.22h-.38v-.6l4.72-.66V47.8l.14.1a2.44,2.44,0,0,1,.25-.39c1.49-1.55,3-3.09,4.5-4.62a1,1,0,0,1,.62-.27c.51,0,1,0,1.7,0Z" style="fill:#a9a5a6"/><path d="M64.88,48.77a9.55,9.55,0,0,1,.68-3.62,4.51,4.51,0,0,1,3.76-2.71,7.62,7.62,0,0,1,3.12.12,4.84,4.84,0,0,1,3.49,3.33,9.53,9.53,0,0,1-.08,6.29,4.44,4.44,0,0,1-3.87,3,8.23,8.23,0,0,1-3.25-.12,4.74,4.74,0,0,1-3.6-4C65,50.3,65,49.53,64.88,48.77Zm2.9,0,.09,0c0,.73.05,1.47.13,2.2a5.47,5.47,0,0,0,.73,2.31,2.41,2.41,0,0,0,3.9.05,4.84,4.84,0,0,0,.72-2.4,38.1,38.1,0,0,0,0-4.14,6.79,6.79,0,0,0-.61-2.26A2.2,2.2,0,0,0,70,43.38a2.37,2.37,0,0,0-1.73,2C68,46.46,67.94,47.63,67.78,48.77Z" style="fill:#a9a5a6"/><path d="M108.92,44.8c-.47-.28-.87-.54-1.29-.75a3.65,3.65,0,0,0-2.62-.4,1.35,1.35,0,0,0-.82,2.18,4.73,4.73,0,0,0,1.16,1c1,.66,2.06,1.21,3,1.94a3.57,3.57,0,0,1,.75,4.84,4,4,0,0,1-2.75,1.54,11,11,0,0,1-4.83-.38V52.7l.61.38a5.39,5.39,0,0,0,3.24,1,1.81,1.81,0,0,0,1.88-1.54,1.43,1.43,0,0,0-.49-1.36A20.46,20.46,0,0,0,105,49.9c-.73-.49-1.5-.9-2.21-1.42a3.11,3.11,0,0,1-1.28-3.23,3.27,3.27,0,0,1,2.6-2.69,8.62,8.62,0,0,1,4.55.18.4.4,0,0,1,.23.29C108.93,43.6,108.92,44.16,108.92,44.8Z" style="fill:#a9a5a6"/><path d="M82.45,45.59c.23-.5.43-1,.69-1.51a2.83,2.83,0,0,1,2-1.66,10.2,10.2,0,0,1,1.88,0c.06,0,.15.14.15.21,0,.77,0,1.55,0,2.36-.34-.09-.62-.19-.91-.25a3.11,3.11,0,0,0-3.75,2.56A9.2,9.2,0,0,0,82.41,49c0,1.82,0,3.64,0,5.45,0,.17,0,.34,0,.57-.86,0-1.67,0-2.49,0-.08,0-.21-.26-.21-.41,0-1.62,0-3.23,0-4.85,0-1.39,0-2.77,0-4.16,0-1.19-.39-1.61-1.58-1.76l-.46-.09c-.08-.36-.06-.54.39-.61,1.4-.21,2.79-.5,4.18-.75h.17V45.6Z" style="fill:#a9a5a6"/></svg>