<svg xmlns="http://www.w3.org/2000/svg" viewBox="0 0 117.09 35.44"><title>Asset 42</title><path d="M15.45,27c0,2.34,0,4.69,0,7,0,.73-.18,1.05-1,1Q7.75,35,1,35c-.78,0-1-.28-1-1q0-7,0-14c0-.93.25-1.25,1.22-1.24,4.23,0,8.46,0,12.7,0,1.53,0,1.52,0,1.52,1.51q0,3.32,0,6.64Z" style="fill:#a9a5a6"/><path d="M.08,9.27c0-2.38,0-4.76,0-7.13,0-.77.29-1,1-1q6.6,0,13.19,0c.84,0,1.14.33,1.13,1.17q-.05,7,0,14.07c0,.7-.2,1-.95,1-4.5,0-9,0-13.49,0-.74,0-.93-.32-.92-1,0-2.34,0-4.69,0-7Z" style="fill:#a9a5a6"/><path d="M16.72,9.22c0-2.34,0-4.69,0-7,0-.84.3-1.16,1.14-1.15,4.33,0,8.66,0,13,0,1,0,1.24.32,1.24,1.24q0,7,0,14c0,.82-.25,1.15-1.13,1.15-4.4,0-8.79,0-13.19,0-.7,0-1-.26-1-1,0-2.41,0-4.82,0-7.23Z" style="fill:#a9a5a6"/><path d="M16.81,26.88c0-2.34,0-4.69,0-7,0-.76.26-1,1-1,4.3,0,8.59,0,12.89,0,1,0,1.33.29,1.33,1.27q0,7,0,14c0,.79-.29,1-1,1q-6.59,0-13.19,0c-.77,0-1-.26-1-1C16.83,31.63,16.81,29.25,16.81,26.88Z" style="fill:#a9a5a6"/><path d="M48.72,11.37c.39-.93.72-1.65,1-2.39.92-2.43,1.82-4.86,2.74-7.29.07-.19.25-.46.39-.47a21.22,21.22,0,0,1,2.72,0c.17,0,.43.48.43.73,0,4.27,0,8.53,0,12.8,0,1.15-.88.67-1.43.75s-1-.08-1-.81q0-4,.05-7.91c0-.44,0-.89-.06-1.33l-.26-.06c-.21.47-.45.94-.63,1.43-1,2.62-1.88,5.26-2.89,7.87a1.87,1.87,0,0,1-1.11.83c-.61.2-.9-.24-1.11-.8C46.47,11.8,45.37,8.92,44.27,6a1.21,1.21,0,0,0-.53-.64c0,.33-.08.66-.08,1,0,2.7,0,5.41.06,8.11,0,.79-.32,1-1.06,1s-1.31.13-1.29-.94q.07-6.11,0-12.21c0-.93.26-1.26,1.22-1.24,2.82.06,2.09-.29,3.08,2.25.93,2.36,1.72,4.77,2.58,7.16A8.55,8.55,0,0,0,48.72,11.37Z" style="fill:#a9a5a6"/><path d="M114.75,2.12c0,.82,0,1.49,0,2.16s.14.87.82.84S117,4.86,117,6s0,1.23-1.14,1.19c-.84,0-1.25.16-1.17,1.12.1,1.16,0,2.34.05,3.51,0,1.59.4,1.88,2,1.61.76,1.31.33,2.2-1.07,2.26-2.24.08-3.24-.83-3.3-3.1,0-1.5,0-3,0-4.49,0-.69-.21-.9-.89-.9-2.35,0-2.35,0-2.34,2.28,0,1.73,0,3.45,0,5.18,0,1.32-1,.73-1.54.82s-.9-.18-.88-.9c.06-2.15,0-4.3,0-6.44,0-.62-.16-1-.9-.95a.93.93,0,0,1-.7-.59c0-.52-.31-1.39.57-1.39s1-.51,1-1.23a3.62,3.62,0,0,1,3.91-4c1.21,0,1,.83,1.05,1.55s-.49.64-1,.7-1.12.31-1.26.66a5.64,5.64,0,0,0-.19,2c0,.07.3.19.48.22a5.53,5.53,0,0,0,.78,0c1.7,0,1.73,0,1.86-1.66.07-.8.66-.86,1.22-1Z" style="fill:#a9a5a6"/><path d="M53.41,35a19.66,19.66,0,0,1-2.22,0,1,1,0,0,1-.64-.59c-.29-.72-.45-1.5-.76-2.21a1.15,1.15,0,0,0-.76-.64,35.57,35.57,0,0,0-3.9,0,1.34,1.34,0,0,0-.9.67A7.46,7.46,0,0,0,43.62,34a1.1,1.1,0,0,1-1.38,1c-.47-.05-1,0-1.64,0l1.24-3.53c1.19-3.37,2.36-6.74,3.59-10.09a1.41,1.41,0,0,1,.86-.71,2.91,2.91,0,0,1,1.45,0,1.42,1.42,0,0,1,.89.71c1.52,4.18,3,8.38,4.47,12.57C53.21,34.22,53.27,34.5,53.41,35Zm-8.32-5.69c1.23,0,2.19,0,3.15,0,.15,0,.43-.46.38-.62-.42-1.49-.9-3-1.37-4.45,0-.12-.18-.2-.37-.41Z" style="fill:#a9a5a6"/><path d="M76.81,10.44c0-3,1.28-4.86,3.77-5.42,3.28-.73,5.84,1.07,6.12,4.4.15,1.84-.06,3.66-1.55,5a5,5,0,0,1-5.74.8C77.43,14.41,76.73,12.61,76.81,10.44Zm2.4-.08h.09c0,.26,0,.52,0,.78a2.53,2.53,0,0,0,2,2.35A2,2,0,0,0,83.92,12,7.16,7.16,0,0,0,84,9a2.07,2.07,0,0,0-2.08-1.92A2.28,2.28,0,0,0,79.5,8.76,9.61,9.61,0,0,0,79.21,10.37Z" style="fill:#a9a5a6"/><path d="M105,10.36c0,2.49-1.05,4.33-3,5-3.25,1.14-6.63-.42-6.91-4.23s1.63-6.47,5.58-6.22C103.31,5.09,105,7.1,105,10.36Zm-2.36.06-.1,0c0-.29,0-.59,0-.88a2.55,2.55,0,0,0-2.17-2.44A2.33,2.33,0,0,0,97.67,9.2a7.71,7.71,0,0,0-.05,2.32,2.39,2.39,0,0,0,2.18,2A2.08,2.08,0,0,0,102.24,12,11.33,11.33,0,0,0,102.59,10.42Z" style="fill:#a9a5a6"/><path d="M85,30.66c-.81,0-1.63,0-2.44,0-.65,0-.81.23-.62.83.43,1.43,2,2.14,3.77,1.67a4.93,4.93,0,0,0,1.08-.42c.67-.36.77,0,.82.55.08,1-.38,1.36-1.29,1.71a4.93,4.93,0,0,1-4.81-.38C79.68,33.38,79,31,79.61,28.41s2.43-4,4.91-3.88c2.12.14,3.47,1.51,3.78,3.87.29,2.17.22,2.26-1.92,2.25Zm.82-1.88c.16-1.3-.42-2.14-1.47-2.28A2.39,2.39,0,0,0,82,28.24c0,.17.25.51.39.51C83.55,28.79,84.71,28.77,85.84,28.77Z" style="fill:#a9a5a6"/><path d="M69.17,34.16a3.68,3.68,0,0,1-3.37.94,3,3,0,0,1-2.64-3c-.1-2.21-.08-4.42-.1-6.63,0-.5.22-.8.78-.76a5.71,5.71,0,0,0,.88,0c.59,0,.81.2.8.79q0,2.39,0,4.78a10.69,10.69,0,0,0,.18,1.54,1.54,1.54,0,0,0,1.71,1.39,1.7,1.7,0,0,0,1.8-1.46c.16-2,.21-4,.23-5.93,0-.7,0-1.18.94-1.13,1.47.07,1.48,0,1.47,1.11,0,2.6,0,5.2,0,7.81,0,.48-.13,1.23-.43,1.37A1.7,1.7,0,0,1,69.17,34.16Z" style="fill:#a9a5a6"/><path d="M59,26.73c-1.34,0-2.43,0-3.51,0-.77,0-1.06-.2-1-1s.17-1.13,1.05-1.1c1.85.07,3.71,0,5.56,0,.38,0,1.06.15,1.08.29a2.09,2.09,0,0,1-.28,1.33c-1.27,1.92-2.6,3.8-3.91,5.7-.16.23-.29.48-.58,1h3.77c1,0,1.52.7,1.12,1.65a.78.78,0,0,1-.6.34c-2.31,0-4.62,0-6.93,0-.7,0-.87-.81-.33-1.65s1-1.5,1.54-2.25Z" style="fill:#a9a5a6"/><path d="M93.55,7.51A7.44,7.44,0,0,0,91.63,7a1.86,1.86,0,0,0-1.41.65c-.39.7.28,1.09.84,1.39a21.71,21.71,0,0,1,2,1,2.86,2.86,0,0,1,1.06,3.3,2.82,2.82,0,0,1-2.5,2.16,12.6,12.6,0,0,1-3-.06c-.76-.08-1.31-1.77-.79-2.36.11-.12.45-.1.67,0a8.51,8.51,0,0,0,1.85.49c.45,0,.9-.41,1.35-.64a4.88,4.88,0,0,0-.79-1.29,8.35,8.35,0,0,0-1.55-.8A2.88,2.88,0,0,1,87.7,7.8,2.93,2.93,0,0,1,90,5.1a6.26,6.26,0,0,1,1.93-.18C93.76,5,94.09,5.57,93.55,7.51Z" style="fill:#a9a5a6"/><path d="M69.25,12.88c.69,1.58.37,2.3-1.09,2.67a4.77,4.77,0,0,1-6.23-4.85c0-2.27.63-4.18,2.75-5.31A5.47,5.47,0,0,1,69,5.24c.49.15.77,2,.36,2.27a.86.86,0,0,1-.69,0c-2.28-1.05-4.24.17-4.28,2.68,0,2.23.95,3.47,2.76,3.42a5.06,5.06,0,0,0,1.31-.33A6.7,6.7,0,0,0,69.25,12.88Z" style="fill:#a9a5a6"/><path d="M73.29,5.15l.21.74A10,10,0,0,1,75.92,5c1.38-.12.75,1.08.85,1.72s-.4.72-1,.62a2.17,2.17,0,0,0-2.34,2.35c0,1.59-.06,3.19,0,4.78.07,1.32-.84.93-1.51,1s-.93-.33-.91-1.08c.07-2.54.05-5.08,0-7.62,0-1.66,0-1.66,1.59-1.68Z" style="fill:#a9a5a6"/><path d="M76.34,25.65c.91-.87,2.53-1.44,2.8-.94a6.74,6.74,0,0,1,.4,2.17c-.29.13-.36.19-.41.18-2-.39-2.84.26-2.93,2.35-.07,1.59-.08,3.19,0,4.78,0,.95-.55.88-1.14.84s-1.28.25-1.26-.82c0-2.83,0-5.65,0-8.48,0-.35.4-1,.52-1,.63.11,1.58-.59,1.85.61A1.4,1.4,0,0,0,76.34,25.65Z" style="fill:#a9a5a6"/><path d="M58,10.29c0-1.4,0-2.8,0-4.2,0-.7.23-1,1-1s1.5-.18,1.49,1c0,2.83,0,5.67,0,8.5,0,1.2-.89.83-1.54.9s-.94-.19-.92-.9c0-1.43,0-2.87,0-4.3Z" style="fill:#a9a5a6"/><path d="M59.28.83a1.47,1.47,0,0,1,1.41,1.44,1.44,1.44,0,0,1-1.4,1.44,1.42,1.42,0,0,1-1.46-1.48A1.44,1.44,0,0,1,59.28.83Z" style="fill:#a9a5a6"/></svg>