<svg xmlns="http://www.w3.org/2000/svg" viewBox="0 0 81.06 72.46"><title>Asset 1</title><g style="isolation:isolate"><path d="M45.17,69.76q0,2.27-2.88,2.26L24,72a4.59,4.59,0,0,1-4.11-2.27L1.19,38.6a6.3,6.3,0,0,1-.82-2.47,6.32,6.32,0,0,1,.83-2.47L20,2.63A4.6,4.6,0,0,1,24.11.38l18.31,0q2.88,0,2.88,2.27a3.68,3.68,0,0,1-.62,1.85L25.89,35.36a1.25,1.25,0,0,0,0,1.65L44.55,67.9A3,3,0,0,1,45.17,69.76Zm35.39.07q0,2.27-2.88,2.26L59.36,72a4.59,4.59,0,0,1-4.11-2.27L36.58,38.67a6.29,6.29,0,0,1-.82-2.47,6.32,6.32,0,0,1,.83-2.47l18.78-31A4.6,4.6,0,0,1,59.5.44l18.31,0q2.88,0,2.88,2.27a3.69,3.69,0,0,1-.62,1.85L61.28,35.43a1.25,1.25,0,0,0,0,1.65L79.94,68A3,3,0,0,1,80.56,69.82Z" style="fill:none;stroke:#46d2be;stroke-miterlimit:10;stroke-width:0.75px"/></g></svg>