<svg xmlns="http://www.w3.org/2000/svg" width="1441" height="663" viewBox="0 0 1441 663" xmlns:xlink="http://www.w3.org/1999/xlink">
  <defs>
    <path id="a" d="M9.99442284,29.3974046 C9.47131613,29.3974046 9.2097667,29.1358552 9.2097667,28.6127485 L9.2097667,19.7337448 C9.2097667,19.6236171 9.18223518,19.4859595 9.12717132,19.3207679 L0.826335358,1.48016527 C0.771271494,1.31497368 0.743739975,1.19108184 0.743739975,1.10848605 C0.743739975,0.750570931 0.977757886,0.571616058 1.44580073,0.571616058 L8.17732442,0.571616058 C8.64536726,0.571616058 8.94821397,0.77810245 9.08587363,1.19108143 L12.8852612,10.7308481 C12.9403251,10.8409759 13.0091539,10.8960389 13.0917497,10.8960389 C13.1743455,10.8960389 13.2431743,10.8409759 13.2982381,10.7308481 L17.0976257,1.19108143 C17.2352854,0.77810245 17.5381321,0.571616058 18.006175,0.571616058 L24.7789963,0.571616058 C25.2470392,0.571616058 25.4810571,0.750570931 25.4810571,1.10848605 C25.4810571,1.19108184 25.4535256,1.31497368 25.3984617,1.48016527 L17.0150304,19.3207679 C16.9599665,19.4859595 16.932435,19.6236171 16.932435,19.7337448 L16.932435,28.6127485 C16.932435,29.1358552 16.6708856,29.3974046 16.1477788,29.3974046 L9.99442284,29.3974046 Z"/>
    <path id="b" d="M35.9322843,29.9755723 C33.647134,29.9755723 31.6304502,29.5144194 29.8821725,28.5920996 C28.1338949,27.6697799 26.7779676,26.3757985 25.8143499,24.7101166 C24.8507323,23.0444348 24.3689307,21.1103456 24.3689307,18.907791 L24.3689307,11.143825 C24.3689307,8.99633436 24.8507323,7.09665955 25.8143499,5.44474364 C26.7779676,3.79282772 28.1338949,2.51261209 29.8821725,1.60405834 C31.6304502,0.69550459 33.647134,0.241234528 35.9322843,0.241234528 C38.2449666,0.241234528 40.2754161,0.69550459 42.0236938,1.60405834 C43.7719715,2.51261209 45.1278988,3.79282772 46.0915164,5.44474364 C47.055134,7.09665955 47.5369356,8.99633436 47.5369356,11.143825 L47.5369356,18.907791 C47.5369356,21.1103456 47.055134,23.0444348 46.0915164,24.7101166 C45.1278988,26.3757985 43.7719715,27.6697799 42.0236938,28.5920996 C40.2754161,29.5144194 38.2449666,29.9755723 35.9322843,29.9755723 Z M35.9322843,23.326644 C37.0886255,23.326644 38.0178142,22.9480856 38.7198785,22.1909575 C39.4219427,21.4338294 39.7729696,20.422046 39.7729696,19.1555772 L39.7729696,11.0612297 C39.7729696,9.79476079 39.4219427,8.78297747 38.7198785,8.02584935 C38.0178142,7.26872122 37.0886255,6.89016283 35.9322843,6.89016283 C34.8034751,6.89016283 33.8880521,7.26872122 33.1859878,8.02584935 C32.4839236,8.78297747 32.1328967,9.79476079 32.1328967,11.0612297 L32.1328967,19.1555772 C32.1328967,20.422046 32.4839236,21.4338294 33.1859878,22.1909575 C33.8880521,22.9480856 34.8034751,23.326644 35.9322843,23.326644 Z M61.536853,29.8103815 C59.3067665,29.8103815 57.33138,29.383643 55.6106342,28.5301531 C53.8898885,27.6766632 52.5614927,26.4652764 51.625407,24.8959563 C50.6893213,23.3266361 50.2212855,21.5095559 50.2212855,19.444661 L50.2212855,1.35627219 C50.2212855,0.833165488 50.482835,0.571616058 51.0059417,0.571616058 L57.2005954,0.571616058 C57.7237021,0.571616058 57.9852515,0.833165488 57.9852515,1.35627219 L57.9852515,19.444661 C57.9852515,20.5734702 58.3087468,21.4751275 58.9557472,22.1496598 C59.6027476,22.8241921 60.4631076,23.1614532 61.536853,23.1614532 C62.5830664,23.1614532 63.4296606,22.8173092 64.076661,22.1290109 C64.7236614,21.4407126 65.0471567,20.5459383 65.0471567,19.444661 L65.0471567,1.35627219 C65.0471567,0.833165488 65.3087061,0.571616058 65.8318129,0.571616058 L72.0264666,0.571616058 C72.5495733,0.571616058 72.8111227,0.833165488 72.8111227,1.35627219 L72.8111227,19.444661 C72.8111227,21.5095559 72.3430869,23.3266361 71.4070012,24.8959563 C70.4709155,26.4652764 69.1494026,27.6766632 67.4424228,28.5301531 C65.735443,29.383643 63.7669394,29.8103815 61.536853,29.8103815 Z M91.229893,29.48 C90.7893821,29.48 90.4865354,29.2872794 90.3213438,28.9018323 L85.8611932,18.6187072 C85.8061293,18.4535156 85.6684717,18.370921 85.4482162,18.370921 L83.9614994,18.370921 C83.7412439,18.370921 83.6311178,18.4810471 83.6311178,18.7013026 L83.6311178,28.6953439 C83.6311178,29.2184506 83.3695684,29.48 82.8464617,29.48 L76.651808,29.48 C76.1287013,29.48 75.8671518,29.2184506 75.8671518,28.6953439 L75.8671518,1.35627219 C75.8671518,0.833165488 76.1287013,0.571616058 76.651808,0.571616058 L88.9998177,0.571616058 C90.8719891,0.571616058 92.5169973,0.957057323 93.9348918,1.72795142 C95.3527863,2.49884551 96.4540471,3.57945763 97.2387071,4.96982019 C98.0233672,6.36018275 98.4156913,7.96389372 98.4156913,9.78100123 C98.4156913,11.5705768 97.9820699,13.1398734 97.114814,14.488938 C96.2475582,15.8380027 95.0430542,16.8429031 93.5012661,17.5036695 C93.3085425,17.5862653 93.2534795,17.7239229 93.3360753,17.9166464 L98.3743936,28.5714508 C98.4294575,28.6815785 98.456989,28.8192361 98.456989,28.9844277 C98.456989,29.3148109 98.2367369,29.48 97.796226,29.48 L91.229893,29.48 Z M83.9614994,7.22054436 C83.7412439,7.22054436 83.6311178,7.33067044 83.6311178,7.5509259 L83.6311178,12.1349696 C83.6311178,12.3552251 83.7412439,12.4653512 83.9614994,12.4653512 L87.7195893,12.4653512 C88.6006111,12.4653512 89.3164306,12.2244504 89.8670692,11.7426416 C90.4177079,11.2608328 90.693023,10.6344907 90.693023,9.86359661 C90.693023,9.06517059 90.4177079,8.42506277 89.8670692,7.94325396 C89.3164306,7.46144516 88.6006111,7.22054436 87.7195893,7.22054436 L83.9614994,7.22054436 Z M122.120566,0.571616058 C124.075333,0.571616058 125.796053,0.963940203 127.282778,1.74860026 C128.769502,2.53326032 129.918943,3.64828684 130.731135,5.09371326 C131.543327,6.53913968 131.949417,8.1979137 131.949417,10.0700851 C131.949417,11.9147245 131.522678,13.5390841 130.669188,14.9432126 C129.815698,16.3473412 128.618077,17.4348362 127.076289,18.2057303 C125.534501,18.9766244 123.758718,19.3620656 121.748887,19.3620656 L117.495225,19.3620656 C117.274969,19.3620656 117.164843,19.4721917 117.164843,19.6924472 L117.164843,28.6953439 C117.164843,29.2184506 116.903294,29.48 116.380187,29.48 L110.185533,29.48 C109.662427,29.48 109.400877,29.2184506 109.400877,28.6953439 L109.400877,1.35627219 C109.400877,0.833165488 109.662427,0.571616058 110.185533,0.571616058 L122.120566,0.571616058 Z M120.840338,13.1674119 C121.859019,13.1674119 122.678082,12.8989796 123.29755,12.3621069 C123.917019,11.8252343 124.226748,11.1162977 124.226748,10.2352758 C124.226748,9.32672208 123.917019,8.59713683 123.29755,8.04649819 C122.678082,7.49585955 121.859019,7.22054436 120.840338,7.22054436 L117.495225,7.22054436 C117.274969,7.22054436 117.164843,7.33067044 117.164843,7.5509259 L117.164843,12.8370304 C117.164843,13.0572858 117.274969,13.1674119 117.495225,13.1674119 L120.840338,13.1674119 Z M149.666126,29.48 C149.225615,29.48 148.922769,29.2872794 148.757577,28.9018323 L144.297426,18.6187072 C144.242363,18.4535156 144.104705,18.370921 143.884449,18.370921 L142.397733,18.370921 C142.177477,18.370921 142.067351,18.4810471 142.067351,18.7013026 L142.067351,28.6953439 C142.067351,29.2184506 141.805802,29.48 141.282695,29.48 L135.088041,29.48 C134.564935,29.48 134.303385,29.2184506 134.303385,28.6953439 L134.303385,1.35627219 C134.303385,0.833165488 134.564935,0.571616058 135.088041,0.571616058 L147.436051,0.571616058 C149.308222,0.571616058 150.953231,0.957057323 152.371125,1.72795142 C153.78902,2.49884551 154.89028,3.57945763 155.67494,4.96982019 C156.4596,6.36018275 156.851925,7.96389372 156.851925,9.78100123 C156.851925,11.5705768 156.418303,13.1398734 155.551047,14.488938 C154.683791,15.8380027 153.479287,16.8429031 151.937499,17.5036695 C151.744776,17.5862653 151.689713,17.7239229 151.772309,17.9166464 L156.810627,28.5714508 C156.865691,28.6815785 156.893222,28.8192361 156.893222,28.9844277 C156.893222,29.3148109 156.67297,29.48 156.232459,29.48 L149.666126,29.48 Z M142.397733,7.22054436 C142.177477,7.22054436 142.067351,7.33067044 142.067351,7.5509259 L142.067351,12.1349696 C142.067351,12.3552251 142.177477,12.4653512 142.397733,12.4653512 L146.155823,12.4653512 C147.036844,12.4653512 147.752664,12.2244504 148.303302,11.7426416 C148.853941,11.2608328 149.129256,10.6344907 149.129256,9.86359661 C149.129256,9.06517059 148.853941,8.42506277 148.303302,7.94325396 C147.752664,7.46144516 147.036844,7.22054436 146.155823,7.22054436 L142.397733,7.22054436 Z M170.89314,29.9755723 C168.607989,29.9755723 166.591306,29.5144194 164.843028,28.5920996 C163.09475,27.6697799 161.738823,26.3757985 160.775205,24.7101166 C159.811588,23.0444348 159.329786,21.1103456 159.329786,18.907791 L159.329786,11.143825 C159.329786,8.99633436 159.811588,7.09665955 160.775205,5.44474364 C161.738823,3.79282772 163.09475,2.51261209 164.843028,1.60405834 C166.591306,0.69550459 168.607989,0.241234528 170.89314,0.241234528 C173.205822,0.241234528 175.236271,0.69550459 176.984549,1.60405834 C178.732827,2.51261209 180.088754,3.79282772 181.052372,5.44474364 C182.015989,7.09665955 182.497791,8.99633436 182.497791,11.143825 L182.497791,18.907791 C182.497791,21.1103456 182.015989,23.0444348 181.052372,24.7101166 C180.088754,26.3757985 178.732827,27.6697799 176.984549,28.5920996 C175.236271,29.5144194 173.205822,29.9755723 170.89314,29.9755723 Z M170.89314,23.326644 C172.049481,23.326644 172.97867,22.9480856 173.680734,22.1909575 C174.382798,21.4338294 174.733825,20.422046 174.733825,19.1555772 L174.733825,11.0612297 C174.733825,9.79476079 174.382798,8.78297747 173.680734,8.02584935 C172.97867,7.26872122 172.049481,6.89016283 170.89314,6.89016283 C169.76433,6.89016283 168.848907,7.26872122 168.146843,8.02584935 C167.444779,8.78297747 167.093752,9.79476079 167.093752,11.0612297 L167.093752,19.1555772 C167.093752,20.422046 167.444779,21.4338294 168.146843,22.1909575 C168.848907,22.9480856 169.76433,23.326644 170.89314,23.326644 Z M195.465266,29.8103815 C193.23518,29.8103815 191.273559,29.3974087 189.580345,28.5714508 C187.887131,27.7454928 186.572501,26.5822862 185.636415,25.0817959 C184.70033,23.5813056 184.232294,21.8537028 184.232294,19.8989356 L184.232294,18.7013026 C184.232294,18.1781959 184.493843,17.9166464 185.01695,17.9166464 L191.211604,17.9166464 C191.73471,17.9166464 191.99626,18.1781959 191.99626,18.7013026 L191.99626,19.8576379 C191.99626,20.8487875 192.312872,21.6472015 192.946107,22.252904 C193.579341,22.8586065 194.419053,23.1614532 195.465266,23.1614532 C196.539011,23.1614532 197.406254,22.8586065 198.067021,22.252904 C198.727787,21.6472015 199.058165,20.8487875 199.058165,19.8576379 L199.058165,1.35627219 C199.058165,0.833165488 199.319715,0.571616058 199.842821,0.571616058 L205.996177,0.571616058 C206.519284,0.571616058 206.780833,0.833165488 206.780833,1.35627219 L206.780833,19.8989356 C206.780833,21.8537028 206.312798,23.5813056 205.376712,25.0817959 C204.440626,26.5822862 203.11223,27.7454928 201.391485,28.5714508 C199.670739,29.3974087 197.695352,29.8103815 195.465266,29.8103815 Z M230.939983,6.43588823 C230.939983,6.95899494 230.678433,7.22054436 230.155327,7.22054436 L218.096401,7.22054436 C217.876145,7.22054436 217.766019,7.33067044 217.766019,7.5509259 L217.766019,11.1851227 C217.766019,11.4053782 217.876145,11.5155043 218.096401,11.5155043 L225.44739,11.5155043 C225.970497,11.5155043 226.232046,11.7770537 226.232046,12.3001604 L226.232046,17.3384787 C226.232046,17.8615855 225.970497,18.1231349 225.44739,18.1231349 L218.096401,18.1231349 C217.876145,18.1231349 217.766019,18.233261 217.766019,18.4535164 L217.766019,22.5006902 C217.766019,22.7209456 217.876145,22.8310717 218.096401,22.8310717 L230.155327,22.8310717 C230.678433,22.8310717 230.939983,23.0926211 230.939983,23.6157278 L230.939983,28.6953439 C230.939983,29.2184506 230.678433,29.48 230.155327,29.48 L210.786709,29.48 C210.263603,29.48 210.002053,29.2184506 210.002053,28.6953439 L210.002053,1.35627219 C210.002053,0.833165488 210.263603,0.571616058 210.786709,0.571616058 L230.155327,0.571616058 C230.678433,0.571616058 230.939983,0.833165488 230.939983,1.35627219 L230.939983,6.43588823 Z"/>
    <path id="c" d="M245.467094,29.8103815 C243.209475,29.8103815 241.220323,29.3698772 239.499577,28.4888554 C237.778831,27.6078336 236.443553,26.3620324 235.493701,24.7514143 C234.543849,23.1407963 234.068931,21.2755359 234.068931,19.1555772 L234.068931,10.8134435 C234.068931,8.72101669 234.543849,6.87640492 235.493701,5.27955287 C236.443553,3.68270082 237.778831,2.44378247 239.499577,1.56276065 C241.220323,0.68173883 243.209475,0.241234528 245.467094,0.241234528 C247.724712,0.241234528 249.713864,0.654207311 251.43461,1.48016527 C253.155356,2.30612322 254.490634,3.4693299 255.440486,4.96982019 C256.390338,6.47031047 256.865256,8.21167905 256.865256,10.1939781 C256.865256,10.4417655 256.617473,10.5931889 256.121898,10.6482527 L249.927244,11.0612297 L249.720756,11.0612297 C249.307777,11.0612297 249.10129,10.9924009 249.10129,10.8547412 L249.10129,10.6069551 C249.10129,9.47814585 248.770912,8.5764886 248.110146,7.90195627 C247.449379,7.22742394 246.568371,6.89016283 245.467094,6.89016283 C244.365816,6.89016283 243.484808,7.22742394 242.824041,7.90195627 C242.163275,8.5764886 241.832897,9.47814585 241.832897,10.6069551 L241.832897,19.4859587 C241.832897,20.587236 242.163275,21.4751275 242.824041,22.1496598 C243.484808,22.8241921 244.365816,23.1614532 245.467094,23.1614532 C246.568371,23.1614532 247.449379,22.8241921 248.110146,22.1496598 C248.770912,21.4751275 249.10129,20.587236 249.10129,19.4859587 C249.10129,19.348299 249.177002,19.2312901 249.328428,19.1349283 C249.479853,19.0385666 249.679457,19.0041522 249.927244,19.0316841 L256.121898,19.3620656 C256.617473,19.3895976 256.865256,19.4584263 256.865256,19.5685541 L256.865256,19.7750425 C256.865256,21.7573416 256.390338,23.5055931 255.440486,25.0198493 C254.490634,26.5341056 253.155356,27.711078 251.43461,28.5508019 C249.713864,29.3905259 247.724712,29.8103815 245.467094,29.8103815 Z"/>
    <path id="d" d="M280.654112,0.571616058 C281.177218,0.571616058 281.438768,0.833165488 281.438768,1.35627219 L281.438768,6.47718592 C281.438768,7.00029263 281.177218,7.26184206 280.654112,7.26184206 L274.005183,7.26184206 C273.784928,7.26184206 273.674802,7.37196813 273.674802,7.59222359 L273.674802,28.6953439 C273.674802,29.2184506 273.413253,29.48 272.890146,29.48 L266.695492,29.48 C266.172385,29.48 265.910836,29.2184506 265.910836,28.6953439 L265.910836,7.59222359 C265.910836,7.37196813 265.80071,7.26184206 265.580454,7.26184206 L259.138015,7.26184206 C258.614908,7.26184206 258.353358,7.00029263 258.353358,6.47718592 L258.353358,1.35627219 C258.353358,0.833165488 258.614908,0.571616058 259.138015,0.571616058 L280.654112,0.571616058 Z"/>
    <path id="e" d="M293.66801,29.8103815 C291.437923,29.8103815 289.46942,29.4318231 287.76244,28.674695 C286.05546,27.9175669 284.733947,26.8369548 283.797861,25.4328262 C282.861776,24.0286977 282.39374,22.4043381 282.39374,20.5596987 L282.39374,20.1467218 C282.39374,19.6236151 282.655289,19.3620656 283.178396,19.3620656 L289.249157,19.3620656 C289.772263,19.3620656 290.033813,19.4997232 290.033813,19.7750425 L290.033813,20.2293171 C290.033813,20.9726793 290.43302,21.6472015 291.231446,22.252904 C292.029872,22.8586065 293.034772,23.1614532 294.246177,23.1614532 C295.264859,23.1614532 295.994444,22.948084 296.434955,22.521339 C296.875466,22.0945941 297.095718,21.6196754 297.095718,21.0965687 C297.095718,20.4908662 296.820403,20.0365961 296.269764,19.7337448 C295.719126,19.4308936 294.714225,19.0592181 293.255033,18.6187072 L292.0574,18.2883256 C289.331738,17.4623677 287.046622,16.3611069 285.201983,14.9845103 C283.357344,13.6079137 282.435038,11.6118786 282.435038,8.99634509 C282.435038,7.26183338 282.903073,5.7269512 283.839159,4.39165251 C284.775245,3.05635381 286.062343,2.03080473 287.700493,1.3149745 C289.338643,0.599144273 291.176372,0.241234528 293.213735,0.241234528 C295.361226,0.241234528 297.309081,0.640441552 299.057358,1.43886758 C300.805636,2.2372936 302.182212,3.36608588 303.187128,4.82527827 C304.192043,6.28447066 304.694493,7.95012755 304.694493,9.82229892 L304.694493,10.0287874 C304.694493,10.5518941 304.432944,10.8134435 303.909837,10.8134435 L297.839077,10.8134435 C297.31597,10.8134435 297.05442,10.7033174 297.05442,10.483062 L297.05442,10.1526805 C297.05442,9.32672249 296.682745,8.5764886 295.939383,7.90195627 C295.196021,7.22742394 294.19112,6.89016283 292.924651,6.89016283 C292.043629,6.89016283 291.348459,7.06911771 290.839118,7.42703282 C290.329777,7.78494794 290.075111,8.28051528 290.075111,8.91374971 C290.075111,9.40932448 290.260948,9.82918015 290.632629,10.1733293 C291.00431,10.5174784 291.575589,10.8478567 292.346484,11.1644739 C293.117378,11.4810911 294.301233,11.887181 295.898085,12.3827558 C296.11834,12.4653516 297.088827,12.7613154 298.809572,13.2706561 C300.530318,13.7799969 301.96884,14.7023028 303.125181,16.0376015 C304.281522,17.3729002 304.859684,18.9903769 304.859684,20.8900802 C304.859684,22.6796558 304.391648,24.2489524 303.455563,25.598017 C302.519477,26.9470817 301.204847,27.9863965 299.511633,28.7159927 C297.818419,29.4455889 295.870564,29.8103815 293.66801,29.8103815 Z M316.629526,29.48 C316.106419,29.48 315.84487,29.2184506 315.84487,28.6953439 L315.84487,1.35627219 C315.84487,0.833165488 316.106419,0.571616058 316.629526,0.571616058 L327.077842,0.571616058 C329.307928,0.571616058 331.283315,0.957057323 333.004061,1.72795142 C334.724806,2.49884551 336.053202,3.58634051 336.989288,4.99046903 C337.925374,6.39459756 338.393409,8.01895717 338.393409,9.86359661 L338.393409,20.1880194 C338.393409,22.0326589 337.925374,23.6570185 336.989288,25.061147 C336.053202,26.4652756 334.724806,27.5527705 333.004061,28.3236646 C331.283315,29.0945587 329.307928,29.48 327.077842,29.48 L316.629526,29.48 Z M323.608836,22.5006902 C323.608836,22.7209456 323.718962,22.8310717 323.939217,22.8310717 L327.366926,22.8310717 C328.303012,22.8310717 329.073894,22.4662791 329.679597,21.7366829 C330.285299,21.0070867 330.601912,20.0503664 330.629443,18.8664933 L330.629443,11.1851227 C330.629443,10.0012497 330.326597,9.04452938 329.720894,8.31493319 C329.115192,7.58533699 328.316778,7.22054436 327.325628,7.22054436 L323.939217,7.22054436 C323.718962,7.22054436 323.608836,7.33067044 323.608836,7.5509259 L323.608836,22.5006902 Z"/>
    <path id="f" d="M362.008539,6.43588823 C362.008539,6.95899494 361.74699,7.22054436 361.223883,7.22054436 L349.164957,7.22054436 C348.944702,7.22054436 348.834576,7.33067044 348.834576,7.5509259 L348.834576,11.1851227 C348.834576,11.4053782 348.944702,11.5155043 349.164957,11.5155043 L356.515947,11.5155043 C357.039053,11.5155043 357.300603,11.7770537 357.300603,12.3001604 L357.300603,17.3384787 C357.300603,17.8615855 357.039053,18.1231349 356.515947,18.1231349 L349.164957,18.1231349 C348.944702,18.1231349 348.834576,18.233261 348.834576,18.4535164 L348.834576,22.5006902 C348.834576,22.7209456 348.944702,22.8310717 349.164957,22.8310717 L361.223883,22.8310717 C361.74699,22.8310717 362.008539,23.0926211 362.008539,23.6157278 L362.008539,28.6953439 C362.008539,29.2184506 361.74699,29.48 361.223883,29.48 L341.855266,29.48 C341.332159,29.48 341.07061,29.2184506 341.07061,28.6953439 L341.07061,1.35627219 C341.07061,0.833165488 341.332159,0.571616058 341.855266,0.571616058 L361.223883,0.571616058 C361.74699,0.571616058 362.008539,0.833165488 362.008539,1.35627219 L362.008539,6.43588823 Z"/>
    <path id="g" d="M374.232744,29.48 C373.764701,29.48 373.461854,29.2597478 373.324194,28.8192369 L365.271145,1.43886758 C365.243613,1.35627178 365.229847,1.25991146 365.229847,1.14978374 C365.229847,0.764336691 365.463865,0.571616058 365.931908,0.571616058 L372.663431,0.571616058 C373.131474,0.571616058 373.420555,0.805633969 373.530683,1.27367681 L377.536559,18.2057303 C377.591623,18.3433899 377.667334,18.4122187 377.763696,18.4122187 C377.860058,18.4122187 377.922004,18.3433899 377.949536,18.2057303 L381.831519,1.27367681 C381.914115,0.805633969 382.203196,0.571616058 382.69877,0.571616058 L389.265103,0.571616058 C389.540423,0.571616058 389.740026,0.647327735 389.86392,0.798753361 C389.987813,0.950178986 390.008462,1.16354826 389.925866,1.43886758 L381.790221,28.8192369 C381.652561,29.2597478 381.349715,29.48 380.881672,29.48 L374.232744,29.48 Z"/>
    <path id="h" d="M411.648539,6.43588823 C411.648539,6.95899494 411.38699,7.22054436 410.863883,7.22054436 L398.804957,7.22054436 C398.584702,7.22054436 398.474576,7.33067044 398.474576,7.5509259 L398.474576,11.1851227 C398.474576,11.4053782 398.584702,11.5155043 398.804957,11.5155043 L406.155947,11.5155043 C406.679053,11.5155043 406.940603,11.7770537 406.940603,12.3001604 L406.940603,17.3384787 C406.940603,17.8615855 406.679053,18.1231349 406.155947,18.1231349 L398.804957,18.1231349 C398.584702,18.1231349 398.474576,18.233261 398.474576,18.4535164 L398.474576,22.5006902 C398.474576,22.7209456 398.584702,22.8310717 398.804957,22.8310717 L410.863883,22.8310717 C411.38699,22.8310717 411.648539,23.0926211 411.648539,23.6157278 L411.648539,28.6953439 C411.648539,29.2184506 411.38699,29.48 410.863883,29.48 L391.495266,29.48 C390.972159,29.48 390.71061,29.2184506 390.71061,28.6953439 L390.71061,1.35627219 C390.71061,0.833165488 390.972159,0.571616058 391.495266,0.571616058 L410.863883,0.571616058 C411.38699,0.571616058 411.648539,0.833165488 411.648539,1.35627219 L411.648539,6.43588823 Z"/>
    <path id="i" d="M415.945266,29.48 C415.422159,29.48 415.16061,29.2184506 415.16061,28.6953439 L415.16061,1.35627219 C415.16061,0.833165488 415.422159,0.571616058 415.945266,0.571616058 L422.13992,0.571616058 C422.663027,0.571616058 422.924576,0.833165488 422.924576,1.35627219 L422.924576,22.5006902 C422.924576,22.7209456 423.034702,22.8310717 423.254957,22.8310717 L435.72686,22.8310717 C436.249967,22.8310717 436.511516,23.0926211 436.511516,23.6157278 L436.511516,28.6953439 C436.511516,29.2184506 436.249967,29.48 435.72686,29.48 L415.945266,29.48 Z"/>
    <path id="j" d="M449.682284,29.9755723 C447.397134,29.9755723 445.38045,29.5144194 443.632173,28.5920996 C441.883895,27.6697799 440.527968,26.3757985 439.56435,24.7101166 C438.600732,23.0444348 438.118931,21.1103456 438.118931,18.907791 L438.118931,11.143825 C438.118931,8.99633436 438.600732,7.09665955 439.56435,5.44474364 C440.527968,3.79282772 441.883895,2.51261209 443.632173,1.60405834 C445.38045,0.69550459 447.397134,0.241234528 449.682284,0.241234528 C451.994967,0.241234528 454.025416,0.69550459 455.773694,1.60405834 C457.521971,2.51261209 458.877899,3.79282772 459.841516,5.44474364 C460.805134,7.09665955 461.286936,8.99633436 461.286936,11.143825 L461.286936,18.907791 C461.286936,21.1103456 460.805134,23.0444348 459.841516,24.7101166 C458.877899,26.3757985 457.521971,27.6697799 455.773694,28.5920996 C454.025416,29.5144194 451.994967,29.9755723 449.682284,29.9755723 Z M449.682284,23.326644 C450.838625,23.326644 451.767814,22.9480856 452.469878,22.1909575 C453.171943,21.4338294 453.52297,20.422046 453.52297,19.1555772 L453.52297,11.0612297 C453.52297,9.79476079 453.171943,8.78297747 452.469878,8.02584935 C451.767814,7.26872122 450.838625,6.89016283 449.682284,6.89016283 C448.553475,6.89016283 447.638052,7.26872122 446.935988,8.02584935 C446.233924,8.78297747 445.882897,9.79476079 445.882897,11.0612297 L445.882897,19.1555772 C445.882897,20.422046 446.233924,21.4338294 446.935988,22.1909575 C447.638052,22.9480856 448.553475,23.326644 449.682284,23.326644 Z M476.732272,0.571616058 C478.687039,0.571616058 480.407759,0.963940203 481.894484,1.74860026 C483.381208,2.53326032 484.530649,3.64828684 485.342841,5.09371326 C486.155033,6.53913968 486.561123,8.1979137 486.561123,10.0700851 C486.561123,11.9147245 486.134384,13.5390841 485.280894,14.9432126 C484.427404,16.3473412 483.229783,17.4348362 481.687995,18.2057303 C480.146207,18.9766244 478.370424,19.3620656 476.360593,19.3620656 L472.106931,19.3620656 C471.886675,19.3620656 471.776549,19.4721917 471.776549,19.6924472 L471.776549,28.6953439 C471.776549,29.2184506 471.515,29.48 470.991893,29.48 L464.797239,29.48 C464.274133,29.48 464.012583,29.2184506 464.012583,28.6953439 L464.012583,1.35627219 C464.012583,0.833165488 464.274133,0.571616058 464.797239,0.571616058 L476.732272,0.571616058 Z M475.452044,13.1674119 C476.470725,13.1674119 477.289788,12.8989796 477.909256,12.3621069 C478.528725,11.8252343 478.838454,11.1162977 478.838454,10.2352758 C478.838454,9.32672208 478.528725,8.59713683 477.909256,8.04649819 C477.289788,7.49585955 476.470725,7.22054436 475.452044,7.22054436 L472.106931,7.22054436 C471.886675,7.22054436 471.776549,7.33067044 471.776549,7.5509259 L471.776549,12.8370304 C471.776549,13.0572858 471.886675,13.1674119 472.106931,13.1674119 L475.452044,13.1674119 Z M509.853021,6.43588823 C509.853021,6.95899494 509.591471,7.22054436 509.068364,7.22054436 L497.009439,7.22054436 C496.789183,7.22054436 496.679057,7.33067044 496.679057,7.5509259 L496.679057,11.1851227 C496.679057,11.4053782 496.789183,11.5155043 497.009439,11.5155043 L504.360428,11.5155043 C504.883534,11.5155043 505.145084,11.7770537 505.145084,12.3001604 L505.145084,17.3384787 C505.145084,17.8615855 504.883534,18.1231349 504.360428,18.1231349 L497.009439,18.1231349 C496.789183,18.1231349 496.679057,18.233261 496.679057,18.4535164 L496.679057,22.5006902 C496.679057,22.7209456 496.789183,22.8310717 497.009439,22.8310717 L509.068364,22.8310717 C509.591471,22.8310717 509.853021,23.0926211 509.853021,23.6157278 L509.853021,28.6953439 C509.853021,29.2184506 509.591471,29.48 509.068364,29.48 L489.699747,29.48 C489.176641,29.48 488.915091,29.2184506 488.915091,28.6953439 L488.915091,1.35627219 C488.915091,0.833165488 489.176641,0.571616058 489.699747,0.571616058 L509.068364,0.571616058 C509.591471,0.571616058 509.853021,0.833165488 509.853021,1.35627219 L509.853021,6.43588823 Z"/>
    <path id="k" d="M513.945266,29.48 C513.422159,29.48 513.16061,29.2184506 513.16061,28.6953439 L513.16061,1.35627219 C513.16061,0.833165488 513.422159,0.571616058 513.945266,0.571616058 L524.393582,0.571616058 C526.623668,0.571616058 528.599055,0.957057323 530.319801,1.72795142 C532.040546,2.49884551 533.368942,3.58634051 534.305028,4.99046903 C535.241114,6.39459756 535.709149,8.01895717 535.709149,9.86359661 L535.709149,20.1880194 C535.709149,22.0326589 535.241114,23.6570185 534.305028,25.061147 C533.368942,26.4652756 532.040546,27.5527705 530.319801,28.3236646 C528.599055,29.0945587 526.623668,29.48 524.393582,29.48 L513.945266,29.48 Z M520.924576,22.5006902 C520.924576,22.7209456 521.034702,22.8310717 521.254957,22.8310717 L524.682666,22.8310717 C525.618752,22.8310717 526.389634,22.4662791 526.995337,21.7366829 C527.601039,21.0070867 527.917652,20.0503664 527.945183,18.8664933 L527.945183,11.1851227 C527.945183,10.0012497 527.642337,9.04452938 527.036634,8.31493319 C526.430932,7.58533699 525.632518,7.22054436 524.641368,7.22054436 L521.254957,7.22054436 C521.034702,7.22054436 520.924576,7.33067044 520.924576,7.5509259 L520.924576,22.5006902 Z"/>
    <path id="l" d="M542.109998,29.8103815 C540.788465,29.8103815 539.694087,29.3905259 538.826831,28.5508019 C537.959575,27.711078 537.525954,26.6855289 537.525954,25.4741239 C537.525954,24.7032298 537.746206,23.9874104 538.186717,23.326644 C538.627228,22.6658776 539.198507,22.1427788 539.900571,21.7573317 C540.602635,21.3718847 541.339103,21.179164 542.109998,21.179164 C542.880892,21.179164 543.624243,21.3718847 544.340073,21.7573317 C545.055903,22.1427788 545.634065,22.6658776 546.074576,23.326644 C546.515087,23.9874104 546.735339,24.7032298 546.735339,25.4741239 C546.735339,26.6855289 546.294835,27.711078 545.413813,28.5508019 C544.532791,29.3905259 543.43153,29.8103815 542.109998,29.8103815 Z"/>
    <path id="m" d="M311.174423,76.4274046 C310.651316,76.4274046 310.389767,76.1658552 310.389767,75.6427485 L310.389767,66.7637448 C310.389767,66.6536171 310.362235,66.5159595 310.307171,66.3507679 L302.006335,48.5101653 C301.951271,48.3449737 301.92374,48.2210818 301.92374,48.138486 C301.92374,47.7805709 302.157758,47.6016161 302.625801,47.6016161 L309.357324,47.6016161 C309.825367,47.6016161 310.128214,47.8081025 310.265874,48.2210814 L314.065261,57.7608481 C314.120325,57.8709759 314.189154,57.9260389 314.27175,57.9260389 C314.354345,57.9260389 314.423174,57.8709759 314.478238,57.7608481 L318.277626,48.2210814 C318.415285,47.8081025 318.718132,47.6016161 319.186175,47.6016161 L325.958996,47.6016161 C326.427039,47.6016161 326.661057,47.7805709 326.661057,48.138486 C326.661057,48.2210818 326.633526,48.3449737 326.578462,48.5101653 L318.19503,66.3507679 C318.139967,66.5159595 318.112435,66.6536171 318.112435,66.7637448 L318.112435,75.6427485 C318.112435,76.1658552 317.850886,76.4274046 317.327779,76.4274046 L311.174423,76.4274046 Z"/>
    <path id="n" d="M337.112284,77.0055723 C334.827134,77.0055723 332.81045,76.5444194 331.062173,75.6220996 C329.313895,74.6997799 327.957968,73.4057985 326.99435,71.7401166 C326.030732,70.0744348 325.548931,68.1403456 325.548931,65.937791 L325.548931,58.173825 C325.548931,56.0263344 326.030732,54.1266596 326.99435,52.4747436 C327.957968,50.8228277 329.313895,49.5426121 331.062173,48.6340583 C332.81045,47.7255046 334.827134,47.2712345 337.112284,47.2712345 C339.424967,47.2712345 341.455416,47.7255046 343.203694,48.6340583 C344.951971,49.5426121 346.307899,50.8228277 347.271516,52.4747436 C348.235134,54.1266596 348.716936,56.0263344 348.716936,58.173825 L348.716936,65.937791 C348.716936,68.1403456 348.235134,70.0744348 347.271516,71.7401166 C346.307899,73.4057985 344.951971,74.6997799 343.203694,75.6220996 C341.455416,76.5444194 339.424967,77.0055723 337.112284,77.0055723 Z M337.112284,70.356644 C338.268625,70.356644 339.197814,69.9780856 339.899878,69.2209575 C340.601943,68.4638294 340.95297,67.452046 340.95297,66.1855772 L340.95297,58.0912297 C340.95297,56.8247608 340.601943,55.8129775 339.899878,55.0558493 C339.197814,54.2987212 338.268625,53.9201628 337.112284,53.9201628 C335.983475,53.9201628 335.068052,54.2987212 334.365988,55.0558493 C333.663924,55.8129775 333.312897,56.8247608 333.312897,58.0912297 L333.312897,66.1855772 C333.312897,67.452046 333.663924,68.4638294 334.365988,69.2209575 C335.068052,69.9780856 335.983475,70.356644 337.112284,70.356644 Z M362.716853,76.8403815 C360.486766,76.8403815 358.51138,76.413643 356.790634,75.5601531 C355.069888,74.7066632 353.741493,73.4952764 352.805407,71.9259563 C351.869321,70.3566361 351.401286,68.5395559 351.401286,66.474661 L351.401286,48.3862722 C351.401286,47.8631655 351.662835,47.6016161 352.185942,47.6016161 L358.380595,47.6016161 C358.903702,47.6016161 359.165251,47.8631655 359.165251,48.3862722 L359.165251,66.474661 C359.165251,67.6034702 359.488747,68.5051275 360.135747,69.1796598 C360.782748,69.8541921 361.643108,70.1914532 362.716853,70.1914532 C363.763066,70.1914532 364.609661,69.8473092 365.256661,69.1590109 C365.903661,68.4707126 366.227157,67.5759383 366.227157,66.474661 L366.227157,48.3862722 C366.227157,47.8631655 366.488706,47.6016161 367.011813,47.6016161 L373.206467,47.6016161 C373.729573,47.6016161 373.991123,47.8631655 373.991123,48.3862722 L373.991123,66.474661 C373.991123,68.5395559 373.523087,70.3566361 372.587001,71.9259563 C371.650915,73.4952764 370.329403,74.7066632 368.622423,75.5601531 C366.915443,76.413643 364.946939,76.8403815 362.716853,76.8403815 Z M396.457067,76.8403815 C394.22698,76.8403815 392.251594,76.413643 390.530848,75.5601531 C388.810102,74.7066632 387.481707,73.4952764 386.545621,71.9259563 C385.609535,70.3566361 385.141499,68.5395559 385.141499,66.474661 L385.141499,48.3862722 C385.141499,47.8631655 385.403049,47.6016161 385.926155,47.6016161 L392.120809,47.6016161 C392.643916,47.6016161 392.905465,47.8631655 392.905465,48.3862722 L392.905465,66.474661 C392.905465,67.6034702 393.228961,68.5051275 393.875961,69.1796598 C394.522961,69.8541921 395.383321,70.1914532 396.457067,70.1914532 C397.50328,70.1914532 398.349874,69.8473092 398.996875,69.1590109 C399.643875,68.4707126 399.967371,67.5759383 399.967371,66.474661 L399.967371,48.3862722 C399.967371,47.8631655 400.22892,47.6016161 400.752027,47.6016161 L406.94668,47.6016161 C407.469787,47.6016161 407.731337,47.8631655 407.731337,48.3862722 L407.731337,66.474661 C407.731337,68.5395559 407.263301,70.3566361 406.327215,71.9259563 C405.391129,73.4952764 404.069616,74.7066632 402.362637,75.5601531 C400.655657,76.413643 398.687153,76.8403815 396.457067,76.8403815 Z"/>
    <path id="o" d="M413.135266,76.51 C412.612159,76.51 412.35061,76.2484506 412.35061,75.7253439 L412.35061,48.3862722 C412.35061,47.8631655 412.612159,47.6016161 413.135266,47.6016161 L419.082134,47.6016161 C419.522645,47.6016161 419.839257,47.7805709 420.031981,48.138486 L428.167626,61.8080219 C428.250222,61.9181496 428.332816,61.9732126 428.415412,61.9732126 C428.52554,61.9732126 428.580603,61.8768523 428.580603,61.6841288 L428.539305,48.3862722 C428.539305,47.8631655 428.800854,47.6016161 429.323961,47.6016161 L435.518615,47.6016161 C436.041722,47.6016161 436.303271,47.8631655 436.303271,48.3862722 L436.303271,75.7253439 C436.303271,76.2484506 436.041722,76.51 435.518615,76.51 L429.571747,76.51 C429.131236,76.51 428.814624,76.3310451 428.6219,75.97313 L420.444957,62.055808 C420.362362,61.9181484 420.272884,61.8562025 420.176522,61.8699684 C420.080161,61.8837344 420.031981,61.9732118 420.031981,62.1384034 L420.114576,75.7253439 C420.114576,76.2484506 419.853027,76.51 419.32992,76.51 L413.135266,76.51 Z"/>
    <path id="p" d="M451.996406,47.6016161 C453.951173,47.6016161 455.671893,47.9939402 457.158617,48.7786003 C458.645342,49.5632603 459.794782,50.6782868 460.606974,52.1237133 C461.419166,53.5691397 461.825256,55.2279137 461.825256,57.1000851 C461.825256,58.9447245 461.398518,60.5690841 460.545028,61.9732126 C459.691538,63.3773412 458.493917,64.4648362 456.952129,65.2357303 C455.410341,66.0066244 453.634558,66.3920656 451.624727,66.3920656 L447.371064,66.3920656 C447.150809,66.3920656 447.040683,66.5021917 447.040683,66.7224472 L447.040683,75.7253439 C447.040683,76.2484506 446.779133,76.51 446.256027,76.51 L440.061373,76.51 C439.538266,76.51 439.276717,76.2484506 439.276717,75.7253439 L439.276717,48.3862722 C439.276717,47.8631655 439.538266,47.6016161 440.061373,47.6016161 L451.996406,47.6016161 Z M450.716177,60.1974119 C451.734859,60.1974119 452.553922,59.9289796 453.17339,59.3921069 C453.792858,58.8552343 454.102588,58.1462977 454.102588,57.2652758 C454.102588,56.3567221 453.792858,55.6271368 453.17339,55.0764982 C452.553922,54.5258596 451.734859,54.2505444 450.716177,54.2505444 L447.371064,54.2505444 C447.150809,54.2505444 447.040683,54.3606704 447.040683,54.5809259 L447.040683,59.8670304 C447.040683,60.0872858 447.150809,60.1974119 447.371064,60.1974119 L450.716177,60.1974119 Z M464.963881,76.51 C464.440774,76.51 464.179225,76.2484506 464.179225,75.7253439 L464.179225,48.3862722 C464.179225,47.8631655 464.440774,47.6016161 464.963881,47.6016161 L471.158535,47.6016161 C471.681641,47.6016161 471.943191,47.8631655 471.943191,48.3862722 L471.943191,69.5306902 C471.943191,69.7509456 472.053317,69.8610717 472.273572,69.8610717 L484.745475,69.8610717 C485.268582,69.8610717 485.530131,70.1226211 485.530131,70.6457278 L485.530131,75.7253439 C485.530131,76.2484506 485.268582,76.51 484.745475,76.51 L464.963881,76.51 Z"/>
    <path id="q" d="M498.710987,76.8403815 C496.4809,76.8403815 494.505514,76.413643 492.784768,75.5601531 C491.064022,74.7066632 489.735626,73.4952764 488.799541,71.9259563 C487.863455,70.3566361 487.395419,68.5395559 487.395419,66.474661 L487.395419,48.3862722 C487.395419,47.8631655 487.656969,47.6016161 488.180075,47.6016161 L494.374729,47.6016161 C494.897836,47.6016161 495.159385,47.8631655 495.159385,48.3862722 L495.159385,66.474661 C495.159385,67.6034702 495.482881,68.5051275 496.129881,69.1796598 C496.776881,69.8541921 497.637241,70.1914532 498.710987,70.1914532 C499.7572,70.1914532 500.603794,69.8473092 501.250795,69.1590109 C501.897795,68.4707126 502.22129,67.5759383 502.22129,66.474661 L502.22129,48.3862722 C502.22129,47.8631655 502.48284,47.6016161 503.005947,47.6016161 L509.2006,47.6016161 C509.723707,47.6016161 509.985256,47.8631655 509.985256,48.3862722 L509.985256,66.474661 C509.985256,68.5395559 509.517221,70.3566361 508.581135,71.9259563 C507.645049,73.4952764 506.323536,74.7066632 504.616556,75.5601531 C502.909577,76.413643 500.941073,76.8403815 498.710987,76.8403815 Z"/>
    <path id="r" d="M524.477094,76.8403815 C522.219475,76.8403815 520.230323,76.3861115 518.509577,75.4775577 C516.788831,74.569004 515.453553,73.2887883 514.503701,71.6368724 C513.553849,69.9849565 513.078931,68.0852817 513.078931,65.937791 L513.078931,58.1325274 C513.078931,55.9850367 513.553849,54.0922447 514.503701,52.4540948 C515.453553,50.8159448 516.788831,49.5426121 518.509577,48.6340583 C520.230323,47.7255046 522.219475,47.2712345 524.477094,47.2712345 C526.679648,47.2712345 528.648152,47.704856 530.382663,48.5721118 C532.117175,49.4393677 533.459337,50.6163401 534.409188,52.1030644 C535.35904,53.5897887 535.833959,55.2141484 535.833959,56.976192 C535.833959,57.4167029 535.572409,57.6369551 535.049303,57.6369551 L528.895947,57.6369551 C528.37284,57.6369551 528.11129,57.5681263 528.11129,57.4304666 L528.11129,57.2652758 C528.11129,56.3567221 527.787795,55.5720738 527.140795,54.9113074 C526.493794,54.2505411 525.605903,53.9201628 524.477094,53.9201628 C523.375816,53.9201628 522.494808,54.2849555 521.834041,55.0145517 C521.173275,55.7441478 520.842897,56.7146339 520.842897,57.9260389 L520.842897,66.1855772 C520.842897,67.3694502 521.221455,68.3330534 521.978583,69.0764156 C522.735711,69.8197777 523.678666,70.1914532 524.807475,70.1914532 C525.826157,70.1914532 526.658985,69.9092552 527.305985,69.3448506 C527.952986,68.7804459 528.276481,68.0026805 528.276481,67.011531 L528.276481,66.5985541 C528.276481,66.3782986 528.166355,66.2681725 527.9461,66.2681725 L524.600987,66.2681725 C524.07788,66.2681725 523.81633,66.0066231 523.81633,65.4835164 L523.81633,60.858175 C523.81633,60.3350683 524.07788,60.0735188 524.600987,60.0735188 L535.049303,60.0735188 C535.572409,60.0735188 535.833959,60.3350683 535.833959,60.858175 L535.833959,66.3507679 C535.833959,68.3881309 535.35904,70.2052111 534.409188,71.8020632 C533.459337,73.3989152 532.124058,74.6378336 530.403312,75.5188554 C528.682567,76.3998772 526.70718,76.8403815 524.477094,76.8403815 Z"/>
    <path id="s" d="M542.109998,76.8403815 C540.788465,76.8403815 539.694087,76.4205259 538.826831,75.5808019 C537.959575,74.741078 537.525954,73.7155289 537.525954,72.5041239 C537.525954,71.7332298 537.746206,71.0174104 538.186717,70.356644 C538.627228,69.6958776 539.198507,69.1727788 539.900571,68.7873317 C540.602635,68.4018847 541.339103,68.209164 542.109998,68.209164 C542.880892,68.209164 543.624243,68.4018847 544.340073,68.7873317 C545.055903,69.1727788 545.634065,69.6958776 546.074576,70.356644 C546.515087,71.0174104 546.735339,71.7332298 546.735339,72.5041239 C546.735339,73.7155289 546.294835,74.741078 545.413813,75.5808019 C544.532791,76.4205259 543.43153,76.8403815 542.109998,76.8403815 Z"/>
  </defs>
  <g fill="none" fill-rule="evenodd" transform="translate(0 -44)">
    <rect width="1440" height="663.08" y="43.54" fill="#000000"/>
    <g transform="translate(14)">
      <path fill="#AE7490" d="M376.45,118 L404.87,134.71 C404.87,134.71 405.65,131.59 408.48,133.26 L430.79,122.75 L430.79,85.92 C430.79,85.92 419.19,79.25 407.26,84.87 L385.55,95.1 C385.55,95.1 376.45,99.51 376.45,110.2 L376.45,118 Z"/>
      <polygon fill="#F4F4F4" stroke="#3D3C3D" stroke-width=".5" points="675.73 248.29 675.73 215.49 653.11 226.16 653.11 259.01"/>
      <polygon fill="#F4F4F4" stroke="#3D3C3D" stroke-width=".5" points="623.57 237.09 623.57 199.27 601.28 209.79 601.28 247.65"/>
      <polygon fill="#B0B0B0" stroke="#3D3C3D" stroke-width=".5" points="346.74 693.62 766 496.02 766 495.99 420.72 292.99 1.46 490.58 1.46 490.62"/>
      <path fill="#EBEBEB" fill-rule="nonzero" d="M236.5 570.52L232.59 572.35 232.59 617.19 263 635.08 266.91 633.25 266.91 588.4 236.5 570.52zM237.17 604.43L237.17 580.58 249.66 587.89 249.66 611.74 237.17 604.43zM308.5 605.11L304.59 606.94 304.59 659.82 335 677.71 338.91 675.88 338.91 623 308.5 605.11zM309.17 647.05L309.17 615.18 321.66 622.49 321.66 654.37 309.17 647.05z"/>
      <polygon fill="#4FCFBB" points="497.02 86.97 497.05 69.54 532.75 52.3 719.21 161.93 719.21 179.17 683.51 195.78"/>
      <polygon fill="#EF9200" points="526.99 282.1 526.99 244.82 747.39 140.87 765.77 151.66 765.77 188.93 545.37 292.89"/>
      <polygon fill="#EBEBEB" stroke="#3D3C3D" stroke-width=".5" points="346.74 546.4 766 348.8 766 348.77 420.72 145.76 1.46 343.36 1.46 343.4"/>
      <polygon fill="#FFC900" points="423.73 245.07 460.8 266.7 625.09 189.22 625.09 174.89 592.64 155.78 423.73 230.52"/>
      <polygon fill="#EF9200" points="1.46 224.95 182.28 139.73 338.61 231.65 338.61 331.11 157.79 416.33 1.46 324.42"/>
      <path fill="#AE7490" d="M36.67,346.77 L36.67,307.34 L47.31,297.34 L58.68,306 L58.68,346.72 C55.7425497,350.049605 51.4998206,351.93364 47.06,351.88 C39.41,351.93 36.67,349.53 36.67,346.77 Z"/>
      <path stroke="#3D3C3D" stroke-width=".5" d="M657.5 297.04L657.5 371.15M320.57 220.64L320.57 531.24"/>
      <polygon fill="#F4F4F4" stroke="#3D3C3D" stroke-width=".5" points="396.61 357.06 389.87 353.38 389.87 325.61 419.87 313.03 419.87 347.28 413.13 343.59 396.61 351.42"/>
      <path fill="#A7A3A4" stroke="#3D3C3D" stroke-width=".5" d="M288.44,235.8 L355.09,204.39 L355.09,174.22 L296.28,139.63 C275.92,149 264.49,163.84 264.49,179.52 L264.49,206.38 C264.49,216.76 274.62,227.97 288.49,235.8"/>
      <path stroke="#3D3C3D" stroke-width=".5" d="M1.46 224.95L182.28 139.73M1.46 324.42L182.28 239.2M288.44 212.45L355.08 181.04M408.48 133.25L430.79 122.73M408.48 96.44L430.79 85.92M384.63 95.53L406.94 85.02M355.07 199.68L404.87 176.21M157.79 416.33L338.61 331.11M346.74 698.89L766 501.3M157.79 316.87L338.61 231.65M157.79 316.87L1.46 224.95M602.21 247.15L408.48 133.25M404.87 134.7L376.45 117.99M264.51 188.08L182.28 139.73M463.43 315.34L288.44 212.45M545.33 292.88L355.09 181.03M508.18 294.41L355.07 204.39M601.27 209.79L408.48 96.44M601.28 222.8L430.79 122.73M623.57 199.27L430.79 85.92M675.75 215.49L469.58 94.28M683.51 179.17L497.05 69.54M719.21 161.93L532.74 52.3M719.21 179.17L532.74 69.54M683.51 196.17L498.24 87.24M458.33 335.69L288.44 235.8M157.79 416.33L1.46 324.42M338.61 331.11L182.28 239.2M402.17 522.47L111.62 351.64M407.45 517.79L111.9 344.02M432.16 505.87L136.99 332.33M346.74 553.87L1.46 350.86M1.46 224.95L1.46 324.42M322.23 127.68C328.72 124.6 335.52 125.1 340.23 128.6M1.46 343.4L1.46 350.86M346.74 546.4L346.74 553.87M346.74 553.87L766 356.27M492.01 522.75L757.45 397.62M492.01 514.94L757.45 389.82M469.26 501.63L734.71 376.51M346.74 698.89L1.46 495.89M1.46 490.72L1.46 495.89M346.74 693.72L346.74 698.89M766 496.09L766 501.26"/>
      <polygon fill="#EF9200" stroke="#3D3C3D" stroke-width=".5" points="402.86 599.28 455.42 630.23 455.42 630.23 441.09 636.84 388.53 605.9 402.86 599.29"/>
      <polygon fill="#EF9200" stroke="#3D3C3D" stroke-width=".5" points="402.86 590.77 455.42 621.72 455.42 621.72 441.09 628.33 388.53 597.39 402.86 590.77"/>
      <polygon fill="#EF9200" stroke="#3D3C3D" stroke-width=".5" points="402.86 582.26 455.42 613.2 455.42 613.21 441.09 619.82 388.53 588.88 402.86 582.26"/>
      <polygon fill="#EF9200" stroke="#3D3C3D" stroke-width=".5" points="402.86 573.75 455.42 604.69 455.42 604.7 441.09 611.31 388.53 580.36 402.86 573.75"/>
      <polygon fill="#EF9200" stroke="#3D3C3D" stroke-width=".5" points="402.86 565.24 455.42 596.18 455.42 596.18 441.09 602.8 388.53 571.85 402.86 565.24"/>
      <polygon fill="#EF9200" stroke="#3D3C3D" stroke-width=".5" points="402.86 556.72 455.42 587.67 455.42 587.67 441.09 594.28 388.53 563.34 402.86 556.73"/>
      <path stroke="#3D3C3D" stroke-width=".5" d="M441.09 594.29L441.09 645.12M415.63 579.3L415.63 630.13M388.53 563.34L388.53 614.18M455.42 587.67L455.42 638.51"/>
      <polygon fill="#EF9200" stroke="#3D3C3D" stroke-width=".5" points="460.32 572.11 512.88 603.05 512.88 603.06 498.55 609.67 445.99 578.72 460.32 572.11"/>
      <polygon fill="#EF9200" stroke="#3D3C3D" stroke-width=".5" points="460.32 563.59 512.88 594.54 512.88 594.54 498.55 601.16 445.99 570.21 460.32 563.6"/>
      <polygon fill="#EF9200" stroke="#3D3C3D" stroke-width=".5" points="460.32 555.08 512.88 586.03 512.88 586.03 498.55 592.64 445.99 561.7 460.32 555.09"/>
      <polygon fill="#EF9200" stroke="#3D3C3D" stroke-width=".5" points="460.32 546.57 512.88 577.51 512.88 577.52 498.55 584.13 445.99 553.19 460.32 546.58"/>
      <polygon fill="#EF9200" stroke="#3D3C3D" stroke-width=".5" points="460.32 538.06 512.88 569 512.88 569.01 498.55 575.62 445.99 544.68 460.32 538.06"/>
      <polygon fill="#EF9200" stroke="#3D3C3D" stroke-width=".5" points="460.32 529.55 512.88 560.49 512.88 560.5 498.55 567.11 445.99 536.16 460.32 529.55"/>
      <path stroke="#3D3C3D" stroke-width=".5" d="M498.55 567.11L498.55 617.95M473.09 552.12L473.09 602.96M445.99 536.16L445.99 587M512.88 560.5L512.88 611.33"/>
      <polygon fill="#EF9200" stroke="#3D3C3D" stroke-width=".5" points="384.32 607.91 436.88 638.86 436.88 638.86 422.55 645.47 369.99 614.53 384.32 607.91"/>
      <polygon fill="#EF9200" stroke="#3D3C3D" stroke-width=".5" points="384.32 599.4 436.88 630.34 436.88 630.35 422.55 636.96 369.99 606.02 384.32 599.4"/>
      <polygon fill="#EF9200" stroke="#3D3C3D" stroke-width=".5" points="384.32 590.89 436.88 621.83 436.88 621.84 422.55 628.45 369.99 597.5 384.32 590.89"/>
      <polygon fill="#EF9200" stroke="#3D3C3D" stroke-width=".5" points="384.32 582.38 436.88 613.32 436.88 613.33 422.55 619.94 369.99 588.99 384.32 582.38"/>
      <polygon fill="#EF9200" stroke="#3D3C3D" stroke-width=".5" points="384.32 573.86 436.88 604.81 436.88 604.81 422.55 611.42 369.99 580.48 384.32 573.87"/>
      <polygon fill="#EF9200" stroke="#3D3C3D" stroke-width=".5" points="384.32 565.35 436.88 596.3 436.88 596.3 422.55 602.91 369.99 571.97 384.32 565.36"/>
      <path stroke="#3D3C3D" stroke-width=".5" d="M422.55 602.91L422.55 653.75M397.09 587.93L397.09 638.76M369.99 571.97L369.99 622.81M436.88 596.3L436.88 647.14"/>
      <path fill="#7D7778" stroke="#3D3C3D" stroke-width=".5" d="M404.87,176.21 C404.87,162.53 392.46,156.84 381.02,162.27 L358.72,172.53 L383.04,186.53 L404.87,176.21 Z"/>
      <polygon fill="#7D7778" stroke="#3D3C3D" stroke-width=".5" points="322.23 127.68 296.26 139.63 355.06 174.22 381.03 162.27"/>
      <path stroke="#3D3C3D" stroke-width=".5" d="M545.29,255.61 L545.29,292.89"/>
      <polygon stroke="#3D3C3D" stroke-width=".5" points="545.37 255.61 526.99 244.82 747.39 140.87 747.39 140.86 765.77 151.66"/>
      <path stroke="#3D3C3D" stroke-width=".5" d="M526.99 244.82L526.99 282.1M765.77 151.66L765.77 188.93M765.77 188.93L545.37 292.89"/>
      <polygon stroke="#3D3C3D" stroke-width=".5" points="592.84 155.73 625.29 174.85 461 252.03 423.93 230.48"/>
      <path stroke="#3D3C3D" stroke-width=".5" d="M625.29 174.85L625.29 189.17M625.29 189.17L461 266.66"/>
      <polygon stroke="#3D3C3D" stroke-width=".5" points="479.79 330.53 458.33 317.89 744.27 183.22 749.97 186.56 765.77 195.84"/>
      <path stroke="#3D3C3D" stroke-width=".5" d="M765.77 195.84L765.77 229.14M765.77 229.14L479.79 364.02"/>
      <polygon stroke="#3D3C3D" stroke-width=".5" points="347.18 443 303.3 417.25 721.82 220.53 749.94 236.98 765.74 246.26"/>
      <path stroke="#3D3C3D" stroke-width=".5" d="M765.74 246.26L765.74 320.17M765.74 320.17L347.18 517.1"/>
      <polygon stroke="#3D3C3D" stroke-width=".5" points="47.54 332.37 71.97 346.71 45.24 359.15 20.81 344.81"/>
      <polyline stroke="#3D3C3D" stroke-width=".5" points="20.81 344.81 20.81 348.51 45.24 362.85 71.97 350.41 71.97 346.71"/>
      <path stroke="#3D3C3D" stroke-width=".5" d="M58.52 346.77C57.52 349.64 51.81 351.96 45.82 351.96 39.83 351.96 35.82 349.63 36.82 346.77M58.68 306C58.6969846 306.339991 58.64599 306.679955 58.53 307 57.53 309.87 51.82 312.19 45.83 312.19 39.84 312.19 35.83 309.86 36.83 307L47.32 297.24 58.68 306zM36.67 307.82L36.67 346.77M58.68 306.05L58.68 346.77"/>
      <polygon stroke="#3D3C3D" stroke-width=".5" points="262.97 590.24 266.88 588.41 266.88 588.4 236.5 570.52 236.5 570.52 232.59 572.35"/>
      <polyline stroke="#3D3C3D" stroke-width=".5" points="232.59 617.19 262.97 635.08 266.88 633.25 266.88 633.25"/>
      <path stroke="#3D3C3D" stroke-width=".5" d="M232.59,572.35 L232.59,617.19"/>
      <polygon stroke="#3D3C3D" stroke-width=".5" points="249.68 611.74 237.17 604.43 237.17 580.58 249.66 587.89"/>
      <path stroke="#3D3C3D" stroke-width=".5" d="M262.97 590.24L262.97 635.08M266.88 588.4L266.88 633.25M252.11 583.84L252.11 628.68M252.11 616.79C249.18 616.79 246.8 615.72 246.8 614.41"/>
      <polygon stroke="#3D3C3D" stroke-width=".5" points="335 624.88 338.9 623.05 338.9 623.04 308.52 605.16 308.52 605.16 304.61 606.99"/>
      <polyline stroke="#3D3C3D" stroke-width=".5" points="304.61 659.87 335 677.75 338.9 675.92 338.9 675.92"/>
      <path stroke="#3D3C3D" stroke-width=".5" d="M304.61,606.99 L304.61,659.87"/>
      <polygon stroke="#3D3C3D" stroke-width=".5" points="321.7 654.42 309.2 647.1 309.2 615.22 321.69 622.53"/>
      <path stroke="#3D3C3D" stroke-width=".5" d="M335 624.88L335 677.75M338.9 623.04L338.9 675.92M324.14 618.48L324.14 671.36M324.14 659.47C321.21 659.47 318.83 658.4 318.83 657.09M458.33 317.89L458.33 350.83M479.79 330.53L479.79 364.02M766 348.8L766 356.27M747.67 178.54L527.26 282.49M747.39 140.86L747.39 178.54M744.23 183.22L744.23 215.98M765.77 188.93L747.67 178.54M744.23 215.98L458.33 350.83M458.33 350.83L479.79 364.02"/>
      <path fill="#7D7778" stroke="#3D3C3D" stroke-width=".5" d="M469.26,501.63 C462.185377,504.488858 454.630372,505.972029 447,506 C439.91,506 432.24,505.7 427.18,503 L402.18,514.74 L402.18,522.52 L407.46,525.64 C417.63,531.53 432.61,531.28 446.87,531.28 C464.02,531.28 479.75,528.09 492.02,522.79 L492.02,515 L469.28,501.69"/>
      <path stroke="#3D3C3D" stroke-width=".5" d="M492 514.94C479.73 520.24 464 523.43 446.85 523.43 432.59 523.43 417.61 523.68 407.44 517.79M461 252.03L461 266.66M404.87 134.7L404.87 288.05M383.04 161.43L383.04 565.35M288.44 212.45L288.44 235.8M320.61 220.64L338.61 231.65M338.61 231.65L338.61 331.11M376.45 117.99L376.45 149.16M398.7 162.95L339.91 128.36M408.48 96.44L408.48 133.25M430.79 85.92L430.79 122.73M408.48 96.44C392.75 88.05 376.48 95.38 376.48 110.2L376.48 117.76M497 69.54C489.71 65.65 482.16 69.05 482.16 75.91L482.16 79.41M498.24 87.24C497.02 86.52 495.8 86.51 495.8 87.24M532.74 52.3C528.59 50.09 524.35 50.24 521.48 52.04M430.79 85.92C423.448008 81.799611 414.571642 81.4646537 406.94 85.02M453.91 93.8C449.819914 91.5329316 445.078924 90.7286565 440.47 91.52M408.48 133.25C406.71 132.3 404.87 133.03 404.87 134.7M601.27 209.79L601.27 247.58M623.57 199.27L623.57 236.96M622.78 240.91L653.1 259.01M347.18 517.1L303.3 491.36M303.3 417.26L303.3 491.36"/>
      <path fill="#7D7778" stroke="#3D3C3D" stroke-width=".5" d="M538.55,347.18 C537.49,347.65 536.98,349.18 537.39,351 C537.88,353.19 539.53,355 541.07,355 C541.266671,354.990289 541.461432,354.95671 541.65,354.9 L681.49,289.32 C682.32,288.91 682.71,287.32 682.35,285.63 C681.86,283.44 680.21,281.63 678.67,281.63 C678.316137,281.663617 677.974369,281.776401 677.67,281.96 L538.55,347.18 Z"/>
      <path fill="#EF9200" stroke="#3D3C3D" stroke-width=".5" d="M543,351 C543.49,353.19 542.64,355 541.1,355 C539.56,355 537.92,353.22 537.42,351 C536.92,348.78 537.78,347 539.32,347 C540.86,347 542.47,348.8 543,351 Z"/>
      <path fill="#7D7778" stroke="#3D3C3D" stroke-width=".5" d="M693.65,297.41 L295.35,484.86 C293.354013,485.863775 291.163077,486.42004 288.93,486.49 C286.966887,486.494547 285.025957,486.074979 283.24,485.26 L174.47,421.26 C173.78991,420.706265 173.393625,419.877001 173.39,419 C173.27,417.26 174.96,414.73 176.17,414.34 C176.572047,414.20612 177.012081,414.249759 177.38,414.46 L283.3,476.75 C284.556066,477.663137 286.034105,478.222582 287.58,478.37 C288.902414,478.415096 290.216206,478.140675 291.41,477.57 L689.81,290.07 C690.116498,289.891079 690.457211,289.778644 690.81,289.74 C692.35,289.74 693.96,291.52 694.45,293.74 C694.88,295.36 694.48,297 693.65,297.41 Z"/>
      <path stroke="#3D3C3D" stroke-width=".5" d="M291.51 477.51C291.803889 477.307042 292.152843 477.198867 292.51 477.2 294.05 477.2 295.69 478.98 296.19 481.2 296.56 482.85 296.19 484.48 295.33 484.89M283.23 485.26C281.846836 484.46808 280.876098 483.114156 280.57 481.55 280.08 479.36 281.75 476.76 283.29 476.76"/>
      <path fill="#7D7778" stroke="#3D3C3D" stroke-width=".5" d="M283.51,490.5 C284.74,491.22 286.12,492.27 287.76,492.27 C289.078479,492.278872 290.379285,491.966541 291.55,491.36 L703.55,297.36 C703.853016,297.173476 704.195483,297.060462 704.55,297.03 C706.09,297.03 707.73,298.81 708.23,301.03 C708.6,302.68 708.23,304.31 707.37,304.72 L295.37,498.72 C293.431391,499.693661 291.299013,500.219921 289.13,500.26 C287.056043,500.202807 285.015098,499.726587 283.13,498.86 L162.32,427.86 C161.63991,427.306265 161.243625,426.477001 161.24,425.6 C161.12,423.86 162.81,421.33 164.02,420.94 C164.422047,420.80612 164.862081,420.849759 165.23,421.06 L283.51,490.5 Z"/>
      <path stroke="#3D3C3D" stroke-width=".5" d="M291.54 491.34C291.833889 491.137042 292.182843 491.028867 292.54 491.03 294.08 491.03 295.72 492.81 296.22 495.03 296.59 496.68 296.22 498.31 295.36 498.72M283.6 499.07C282.066782 498.332824 280.980628 496.904457 280.68 495.23 280.19 493.04 281.97 490.5 283.51 490.5"/>
      <path fill="#7D7778" stroke="#3D3C3D" stroke-width=".5" d="M525.57,339.7 C524.51,340.17 524,341.7 524.41,343.52 C524.9,345.71 526.55,347.52 528.09,347.52 C528.286671,347.510289 528.481432,347.47671 528.67,347.42 L668.5,281.81 C669.33,281.4 669.72,279.81 669.36,278.12 C668.87,275.93 667.22,274.12 665.68,274.12 C665.326137,274.153617 664.984369,274.266401 664.68,274.45 L525.57,339.7 Z"/>
      <path fill="#EF9200" stroke="#3D3C3D" stroke-width=".5" d="M530,343.52 C530.49,345.71 529.64,347.52 528.1,347.52 C526.56,347.52 524.92,345.74 524.42,343.52 C523.92,341.3 524.78,339.52 526.32,339.52 C527.86,339.52 529.48,341.33 530,343.52 Z"/>
      <path stroke="#3D3C3D" stroke-width=".5" d="M347.18 443L347.18 517.1M721.13 220.53L721.13 294.64M765.74 320.17L657.53 256.88M744.23 215.98L765.77 229.14M423.93 245.03L423.93 126.34M482.21 79.42L482.21 139.78M469.58 94.28L452.3 93.73M447.47 104.7L430.79 104.17M430.79 104.17L452.3 93.73M495.79 198.67L495.79 87.24M482.21 79.42L495.79 87.24M497.05 69.54L497.05 86.97M497.05 69.54L532.74 52.3M497.05 86.7L532.74 69.45M487.12 68.6L522.82 51.36M683.51 179.17L719.21 161.93M683.51 195.78L719.21 178.54M719.21 161.93L719.21 178.54M683.51 179.17L683.51 195.78M396.94 299.29L419.18 289.32M396.94 350.96L413.04 343.59M389.48 295.17L411.72 285.21M419.79 289.68L419.79 347.28M396.53 299.47L396.53 357.07M389.78 295.78L389.78 353.38M389.78 353.38L396.53 357.07M413.04 343.59L419.79 347.28M413.04 343.59L413.04 292.42M111.89 344.01L136.99 332.33M111.9 344.02L111.9 351.64M157.79 316.87L157.79 416.33M533.39 52.68L533.39 69.93M531.97 69.86L531.97 242.48M453.23 142.23L466.68 150.12M453.22 142.21L471.6 133.55M447.47 104.7L469.58 94.28M466.68 150.12L485.06 141.46M453.23 142.23L453.23 217.21M466.68 150.12L466.68 211.71M447.47 104.7L447.47 220.53M734.71 376.51L757.45 389.82M757.45 397.62L757.45 389.82M264.59 181.87C265.74 194.01 274.59 204.61 288.43 212.45M182.28 139.73L182.28 239.2"/>
      <path fill="#B0B0B0" stroke="#3D3C3D" stroke-width=".5" d="M170.12,534.14 C170.12,534.14 166.34,532.53 166.12,529.73 C165.942438,526.862746 165.942438,523.987254 166.12,521.12 C166.26,519.72 171.35,517.4 172.42,517.12 C173.32,516.89 174.73,518.59 175.22,522.12 C175.71,525.65 174.94,527.93 179.63,530.03"/>
      <path stroke="#3D3C3D" stroke-width=".5" d="M167.67,532.54 L165.99,542.22"/>
      <path fill="#B0B0B0" stroke="#3D3C3D" stroke-width=".5" d="M184.68,527 C184.68,527 180.9,525.39 180.68,522.59 C180.502438,519.722746 180.502438,516.847254 180.68,513.98 C180.82,512.58 185.91,510.26 186.98,509.98 C187.88,509.75 189.29,511.45 189.78,514.98 C190.27,518.51 189.5,520.79 194.19,522.89"/>
      <path stroke="#3D3C3D" stroke-width=".5" d="M182.23,525.35 L180.55,535.03"/>
      <path fill="#B0B0B0" stroke="#3D3C3D" stroke-width=".5" d="M199.24,519.77 C199.24,519.77 195.46,518.16 195.24,515.36 C195.062438,512.492746 195.062438,509.617254 195.24,506.75 C195.38,505.35 200.47,503.03 201.54,502.75 C202.44,502.52 203.85,504.22 204.34,507.75 C204.83,511.28 204.06,513.56 208.75,515.66"/>
      <path stroke="#3D3C3D" stroke-width=".5" d="M196.79,518.16 L195.12,527.85"/>
      <path fill="#B0B0B0" stroke="#3D3C3D" stroke-width=".5" d="M213.8,512.59 C213.8,512.59 210.02,510.98 209.8,508.18 C209.622438,505.312746 209.622438,502.437254 209.8,499.57 C209.94,498.17 215.03,495.85 216.1,495.57 C217,495.34 218.41,497.04 218.9,500.57 C219.39,504.1 218.62,506.38 223.31,508.48"/>
      <path stroke="#3D3C3D" stroke-width=".5" d="M211.36,510.98 L209.68,520.66"/>
      <path fill="#B0B0B0" stroke="#3D3C3D" stroke-width=".5" d="M228.37,505.4 C228.37,505.4 224.59,503.79 224.37,500.99 C224.192438,498.122746 224.192438,495.247254 224.37,492.38 C224.51,490.98 229.6,488.66 230.67,488.38 C231.57,488.15 232.98,489.85 233.47,493.38 C233.96,496.91 233.19,499.19 237.88,501.29"/>
      <path stroke="#3D3C3D" stroke-width=".5" d="M225.92,503.79 L224.24,513.47"/>
      <polygon fill="#4FCFBB" points="164.86 534.9 191.8 550.74 267.28 515.33 267.28 512.58 191.8 548 164.86 532.16"/>
      <polygon fill="#4FCFBB" stroke="#3D3C3D" stroke-width=".5" points="240.34 496.74 267.28 512.58 267.28 512.59 191.8 547.99 164.86 532.15 240.34 496.75"/>
      <path stroke="#3D3C3D" stroke-width=".5" d="M164.86 534.9L164.86 532.16M191.8 547.99L191.8 550.74M267.28 515.34L267.28 512.59M191.8 550.74L267.28 515.34M191.8 550.74L164.86 534.9M261 528.21L254.47 524.55C254.211281 524.277999 254.107571 523.893662 254.194338 523.528434 254.281104 523.163206 254.546591 522.866579 254.9 522.74 256.29 522.15 261.74 519.48 261.74 519.48 261.74 519.48 262.67 519 263.15 519.41 263.63 519.82 264.21 520.24 264.21 520.24"/>
      <path fill="#B0B0B0" stroke="#3D3C3D" stroke-width=".5" d="M262,527.72 C262,527.72 268.82,524.26 270,523.72 C271.18,523.18 272.42,514.27 272.47,513.72 C272.52,513.17 272.33,512.61 270.74,513.29 C269.15,513.97 266.29,515.46 266.29,515.46 C266.29,515.46 264.93,516.15 264.51,518.67 C264.228399,521.179505 263.784131,523.668074 263.18,526.12 C262.946098,526.754304 262.536896,527.309154 262,527.72 Z"/>
      <path stroke="#3D3C3D" stroke-width=".5" d="M261.01 528.21L261.97 527.72M268.81 524.29L270.36 535.03M261.01 528.21L262.56 538.95M255.1 524.9L253.02 533.49M246.44 535L239.91 531.34C239.651281 531.067999 239.547571 530.683662 239.634338 530.318434 239.721104 529.953206 239.986591 529.656579 240.34 529.53 241.73 528.94 247.18 526.27 247.18 526.27 247.18 526.27 248.11 525.79 248.59 526.2 249.07 526.61 249.65 527.03 249.65 527.03"/>
      <path fill="#B0B0B0" stroke="#3D3C3D" stroke-width=".5" d="M247.4,534.56 C247.4,534.56 254.22,531.1 255.4,530.56 C256.58,530.02 257.82,521.11 257.87,520.56 C257.92,520.01 257.73,519.45 256.14,520.13 C254.55,520.81 251.69,522.3 251.69,522.3 C251.69,522.3 250.33,522.99 249.91,525.51 C249.628399,528.019505 249.184131,530.508074 248.58,532.96 C248.346098,533.594304 247.936896,534.149154 247.4,534.56 Z"/>
      <path stroke="#3D3C3D" stroke-width=".5" d="M246.44 535.04L247.4 534.56M254.25 531.13L255.8 541.87M246.44 535.04L247.99 545.78M240.53 531.73L238.46 540.33M231.88 541.88L225.35 538.22C225.091281 537.947999 224.987571 537.563662 225.074338 537.198434 225.161104 536.833206 225.426591 536.536579 225.78 536.41 227.17 535.82 232.62 533.15 232.62 533.15 232.62 533.15 233.55 532.67 234.03 533.08 234.51 533.49 235.09 533.91 235.09 533.91"/>
      <path fill="#B0B0B0" stroke="#3D3C3D" stroke-width=".5" d="M232.84,541.4 C232.84,541.4 239.66,537.94 240.84,537.4 C242.02,536.86 243.26,527.95 243.31,527.4 C243.36,526.85 243.17,526.29 241.58,526.97 C239.99,527.65 237.13,529.14 237.13,529.14 C237.13,529.14 235.77,529.83 235.35,532.35 C235.061815,534.859949 234.610866,537.348523 234,539.8 C233.771598,540.431864 233.369524,540.986449 232.84,541.4 Z"/>
      <path stroke="#3D3C3D" stroke-width=".5" d="M231.88 541.88L232.84 541.4M239.68 537.97L241.23 548.71M231.88 541.88L233.43 552.62M225.97 538.57L223.9 547.17M217.32 548.72L210.79 545.06C210.531281 544.787999 210.427571 544.403662 210.514338 544.038434 210.601104 543.673206 210.866591 543.376579 211.22 543.25 212.61 542.66 218.06 539.99 218.06 539.99 218.06 539.99 218.99 539.51 219.47 539.92 219.95 540.33 220.53 540.75 220.53 540.75"/>
      <path fill="#B0B0B0" stroke="#3D3C3D" stroke-width=".5" d="M218.28,548.23 C218.28,548.23 225.1,544.77 226.28,544.23 C227.46,543.69 228.7,534.78 228.75,534.23 C228.8,533.68 228.61,533.12 227.02,533.8 C225.43,534.48 222.57,535.97 222.57,535.97 C222.57,535.97 221.21,536.66 220.79,539.18 C220.508399,541.689505 220.064131,544.178074 219.46,546.63 C219.226098,547.264304 218.816896,547.819154 218.28,548.23 Z"/>
      <path stroke="#3D3C3D" stroke-width=".5" d="M217.32 548.72L218.28 548.23M225.12 544.8L226.67 555.54M217.32 548.72L218.87 559.46M211.41 545.41L209.34 554.01M202.76 555.56L196.23 551.9C195.971281 551.627999 195.867571 551.243662 195.954338 550.878434 196.041104 550.513206 196.306591 550.216579 196.66 550.09 198.05 549.5 203.5 546.83 203.5 546.83 203.5 546.83 204.43 546.35 204.91 546.76 205.39 547.17 205.97 547.59 205.97 547.59"/>
      <path fill="#B0B0B0" stroke="#3D3C3D" stroke-width=".5" d="M203.72,555.07 C203.72,555.07 210.54,551.61 211.72,551.07 C212.9,550.53 214.14,541.62 214.19,541.07 C214.24,540.52 214.05,539.96 212.46,540.64 C210.87,541.32 208.01,542.81 208.01,542.81 C208.01,542.81 206.65,543.5 206.23,546.02 C205.948399,548.529505 205.504131,551.018074 204.9,553.47 C204.666098,554.104304 204.256896,554.659154 203.72,555.07 Z"/>
      <path stroke="#3D3C3D" stroke-width=".5" d="M202.76 555.56L203.72 555.07M210.56 551.64L212.11 562.38M202.76 555.56L204.31 566.3M196.85 552.25L194.77 560.85M173.43 550.87L180.15 547.58C180.422851 547.322585 180.547234 546.944777 180.480664 546.575618 180.414094 546.206459 180.165579 545.895894 179.82 545.75 178.47 545.08 173.17 542.11 173.17 542.11 173.17 542.11 172.27 541.58 171.76 541.96 171.25 542.34 170.66 542.73 170.66 542.73"/>
      <path fill="#B0B0B0" stroke="#3D3C3D" stroke-width=".5" d="M172.5,550.33 C172.5,550.33 165.89,546.49 164.75,545.92 C163.61,545.35 162.87,536.35 162.86,535.75 C162.85,535.15 163.46,534.39 164.86,535.22 C166.26,536.05 168.92,537.83 168.92,537.83 C168.92,537.83 170.24,538.59 170.52,541.13 C170.660512,543.650387 170.964484,546.158995 171.43,548.64 C171.618339,549.293785 171.98958,549.880136 172.5,550.33 Z"/>
      <path stroke="#3D3C3D" stroke-width=".5" d="M173.43 550.87L172.5 550.33M165.86 546.52L162.86 556.6M173.43 550.87L171.27 561.5M179.52 547.9L181.1 556.6"/>
      <polygon fill="#EBEBEB" stroke="#3D3C3D" stroke-width=".5" points="106.94 489.11 109.43 487.44 157.84 515.74 158 569 155.6 571.4 107.1 542.67"/>
      <polygon fill="#EBEBEB" stroke="#3D3C3D" stroke-width=".5" points="155.6 571.4 107.1 542.67 106.94 489.11 155.44 517.85"/>
      <polygon fill="#EBEBEB" stroke="#3D3C3D" stroke-width=".5" points="128.16 553.18 108.62 541.63 108.47 494.36 128.01 505.92"/>
      <polygon fill="#EBEBEB" stroke="#3D3C3D" stroke-width=".5" points="126.17 549.4 110.17 539.57 110.05 498.47 126.04 508.31"/>
      <polygon fill="#EBEBEB" stroke="#3D3C3D" stroke-width=".5" points="128.16 553.18 129.45 552.18 129.31 504.92 128.01 505.92"/>
      <polyline fill="#EBEBEB" stroke="#3D3C3D" stroke-width=".5" points="108.47 494.36 110.03 493.32 129.31 504.92"/>
      <polyline fill="#EBEBEB" stroke="#3D3C3D" stroke-width=".5" points="110.37 539.42 112.76 537.01 112.65 500.04"/>
      <path stroke="#3D3C3D" stroke-width=".5" d="M126.16,545.28 L112.76,537.01"/>
      <polygon fill="#EBEBEB" stroke="#3D3C3D" stroke-width=".5" points="155.6 571.4 158 569 157.84 515.74 155.44 517.85"/>
      <polygon fill="#EBEBEB" stroke="#3D3C3D" stroke-width=".5" points="152.18 567.58 132.64 556.02 132.49 508.76 152.03 520.32"/>
      <polygon fill="#EBEBEB" stroke="#3D3C3D" stroke-width=".5" points="150.19 563.8 134.19 553.96 134.07 512.87 150.06 522.71"/>
      <polygon fill="#EBEBEB" stroke="#3D3C3D" stroke-width=".5" points="152.18 567.58 153.47 566.58 153.33 519.31 152.03 520.32"/>
      <polyline fill="#EBEBEB" stroke="#3D3C3D" stroke-width=".5" points="132.49 508.76 134.05 507.72 153.33 519.31"/>
      <polyline fill="#EBEBEB" stroke="#3D3C3D" stroke-width=".5" points="134.39 553.82 136.78 551.41 136.67 514.43"/>
      <path stroke="#3D3C3D" stroke-width=".5" d="M150.18,559.68 L136.78,551.41"/>
      <polygon fill="#EBEBEB" stroke="#3D3C3D" stroke-width=".5" points="127.13 532.41 128.09 531.45 128.07 525.7 127.11 526.66"/>
      <polygon fill="#EBEBEB" stroke="#3D3C3D" stroke-width=".5" points="125.05 531.22 127.1 532.42 127.09 526.67 125.04 525.47"/>
      <polygon fill="#EBEBEB" stroke="#3D3C3D" stroke-width=".5" points="125.04 525.49 127.09 526.68 128.07 525.7 126.02 524.5"/>
      <polyline fill="#EBEBEB" stroke="#3D3C3D" stroke-width=".5" points="125.47 528.85 124.5 529.82 124.52 535.57 125.48 534.6 125.47 530.24 126.45 529.27 126.45 527.92"/>
      <polygon fill="#EBEBEB" stroke="#3D3C3D" stroke-width=".5" points="123.66 535.06 124.5 535.58 124.48 529.83 123.65 529.31"/>
      <polygon fill="#EBEBEB" stroke="#3D3C3D" stroke-width=".5" points="123.65 529.33 124.48 529.84 126.45 527.92 125.61 527.4"/>
      <polygon fill="#EBEBEB" stroke="#3D3C3D" stroke-width=".5" points="223.56 558.25 226.05 556.58 274.45 584.88 274.62 638.14 272.22 640.54 223.72 611.81"/>
      <polygon fill="#EBEBEB" stroke="#3D3C3D" stroke-width=".5" points="272.22 640.54 223.72 611.81 223.56 558.25 272.06 586.99"/>
      <polygon fill="#EBEBEB" stroke="#3D3C3D" stroke-width=".5" points="244.77 622.32 225.24 610.76 225.09 563.5 244.63 575.06"/>
      <polygon fill="#EBEBEB" stroke="#3D3C3D" stroke-width=".5" points="242.79 618.54 226.79 608.71 226.67 567.61 242.66 577.45"/>
      <polygon fill="#EBEBEB" stroke="#3D3C3D" stroke-width=".5" points="244.77 622.32 246.07 621.32 245.92 574.05 244.63 575.06"/>
      <polyline fill="#EBEBEB" stroke="#3D3C3D" stroke-width=".5" points="225.09 563.5 226.65 562.46 245.92 574.05"/>
      <polyline fill="#EBEBEB" stroke="#3D3C3D" stroke-width=".5" points="226.99 608.56 229.38 606.15 229.27 569.17"/>
      <path stroke="#3D3C3D" stroke-width=".5" d="M242.77,614.42 L229.38,606.15"/>
      <polygon fill="#EBEBEB" stroke="#3D3C3D" stroke-width=".5" points="272.22 640.54 274.62 638.14 274.45 584.88 272.06 586.99"/>
      <polygon fill="#EBEBEB" stroke="#3D3C3D" stroke-width=".5" points="268.79 636.72 249.25 625.16 249.11 577.89 268.65 589.45"/>
      <polygon fill="#EBEBEB" stroke="#3D3C3D" stroke-width=".5" points="266.81 632.94 250.81 623.1 250.69 582.01 266.68 591.85"/>
      <polygon fill="#EBEBEB" stroke="#3D3C3D" stroke-width=".5" points="268.79 636.72 270.09 635.72 269.94 588.45 268.65 589.45"/>
      <polyline fill="#EBEBEB" stroke="#3D3C3D" stroke-width=".5" points="249.11 577.89 250.67 576.86 269.94 588.45"/>
      <polyline fill="#EBEBEB" stroke="#3D3C3D" stroke-width=".5" points="251 622.96 253.4 620.55 253.29 583.57"/>
      <path stroke="#3D3C3D" stroke-width=".5" d="M266.79,628.82 L253.4,620.55"/>
      <polygon fill="#EBEBEB" stroke="#3D3C3D" stroke-width=".5" points="243.74 601.55 244.7 600.58 244.69 594.83 243.73 595.8"/>
      <polygon fill="#EBEBEB" stroke="#3D3C3D" stroke-width=".5" points="241.67 600.36 243.72 601.56 243.71 595.8 241.66 594.61"/>
      <polygon fill="#EBEBEB" stroke="#3D3C3D" stroke-width=".5" points="241.66 594.63 243.71 595.82 244.69 594.83 242.64 593.64"/>
      <polyline fill="#EBEBEB" stroke="#3D3C3D" stroke-width=".5" points="242.08 597.99 241.12 598.96 241.14 604.71 242.1 603.74 242.09 599.38 243.07 598.41 243.06 597.05"/>
      <polygon fill="#EBEBEB" stroke="#3D3C3D" stroke-width=".5" points="240.28 604.2 241.12 604.72 241.1 598.96 240.26 598.45"/>
      <polygon fill="#EBEBEB" stroke="#3D3C3D" stroke-width=".5" points="240.26 598.47 241.1 598.98 243.06 597.05 242.23 596.54"/>
      <path fill="#B0B0B0" stroke="#3D3C3D" stroke-width=".5" d="M539.91,534.15 C539.91,534.15 536.13,532.54 535.91,529.74 C535.732438,526.872746 535.732438,523.997254 535.91,521.13 C536.05,519.73 541.14,517.41 542.21,517.13 C543.11,516.9 544.52,518.6 545.01,522.13 C545.5,525.66 544.73,527.94 549.42,530.04"/>
      <path stroke="#3D3C3D" stroke-width=".5" d="M537.46,532.54 L535.78,542.22"/>
      <path fill="#B0B0B0" stroke="#3D3C3D" stroke-width=".5" d="M554.47,527 C554.47,527 550.69,525.39 550.47,522.59 C550.292438,519.722746 550.292438,516.847254 550.47,513.98 C550.61,512.58 555.7,510.26 556.77,509.98 C557.67,509.75 559.08,511.45 559.57,514.98 C560.06,518.51 559.29,520.79 563.98,522.89"/>
      <path stroke="#3D3C3D" stroke-width=".5" d="M552.02,525.35 L550.35,535.04"/>
      <path fill="#B0B0B0" stroke="#3D3C3D" stroke-width=".5" d="M569,519.78 C569,519.78 565.22,518.17 565,515.37 C564.822438,512.502746 564.822438,509.627254 565,506.76 C565.14,505.36 570.23,503.04 571.3,502.76 C572.2,502.53 573.61,504.23 574.1,507.76 C574.59,511.29 573.82,513.57 578.51,515.67"/>
      <path stroke="#3D3C3D" stroke-width=".5" d="M566.59,518.17 L564.91,527.85"/>
      <path fill="#B0B0B0" stroke="#3D3C3D" stroke-width=".5" d="M583.6,512.59 C583.6,512.59 579.82,510.98 579.6,508.18 C579.422438,505.312746 579.422438,502.437254 579.6,499.57 C579.74,498.17 584.83,495.85 585.9,495.57 C586.8,495.34 588.21,497.04 588.7,500.57 C589.19,504.1 588.42,506.38 593.11,508.48"/>
      <path stroke="#3D3C3D" stroke-width=".5" d="M581.15,510.98 L579.47,520.66"/>
      <path fill="#B0B0B0" stroke="#3D3C3D" stroke-width=".5" d="M598.16,505.4 C598.16,505.4 594.38,503.79 594.16,500.99 C593.982438,498.122746 593.982438,495.247254 594.16,492.38 C594.3,490.98 599.39,488.66 600.46,488.38 C601.36,488.15 602.77,489.85 603.26,493.38 C603.75,496.91 602.98,499.19 607.67,501.29"/>
      <path stroke="#3D3C3D" stroke-width=".5" d="M595.71,503.8 L594.04,513.48"/>
      <polygon fill="#4FCFBB" points="534.65 534.91 561.59 550.75 637.07 515.34 637.07 512.59 561.59 548 534.65 532.16"/>
      <polygon fill="#4FCFBB" stroke="#3D3C3D" stroke-width=".5" points="610.13 496.75 637.07 512.59 637.07 512.59 561.59 548 534.65 532.16 610.13 496.75"/>
      <path stroke="#3D3C3D" stroke-width=".5" d="M534.65 534.91L534.65 532.16M561.59 548L561.59 550.75M637.07 515.34L637.07 512.59M561.59 550.75L637.07 515.34M561.59 550.75L534.65 534.91M630.8 528.21L624.27 524.55C624.011281 524.277999 623.907571 523.893662 623.994338 523.528434 624.081104 523.163206 624.346591 522.866579 624.7 522.74 626.09 522.15 631.54 519.48 631.54 519.48 631.54 519.48 632.47 519 632.95 519.41 633.43 519.82 634.01 520.24 634.01 520.24"/>
      <path fill="#B0B0B0" stroke="#3D3C3D" stroke-width=".5" d="M631.76,527.72 C631.76,527.72 638.58,524.26 639.76,523.72 C640.94,523.18 642.18,514.27 642.23,513.72 C642.28,513.17 642.09,512.61 640.5,513.29 C638.91,513.97 636.05,515.46 636.05,515.46 C636.05,515.46 634.69,516.15 634.27,518.67 C633.988399,521.179505 633.544131,523.668074 632.94,526.12 C632.706098,526.754304 632.296896,527.309154 631.76,527.72 Z"/>
      <path stroke="#3D3C3D" stroke-width=".5" d="M630.8 528.21L631.76 527.72M638.6 524.29L640.15 535.03M630.8 528.21L632.35 538.95M624.89 524.9L622.82 533.5M616.24 535L609.71 531.34C609.451281 531.067999 609.347571 530.683662 609.434338 530.318434 609.521104 529.953206 609.786591 529.656579 610.14 529.53 611.53 528.94 616.98 526.27 616.98 526.27 616.98 526.27 617.91 525.79 618.39 526.2 618.87 526.61 619.45 527.03 619.45 527.03"/>
      <path fill="#B0B0B0" stroke="#3D3C3D" stroke-width=".5" d="M617.2,534.56 C617.2,534.56 624.02,531.1 625.2,530.56 C626.38,530.02 627.62,521.11 627.67,520.56 C627.72,520.01 627.53,519.45 625.94,520.13 C624.35,520.81 621.49,522.3 621.49,522.3 C621.49,522.3 620.13,522.99 619.71,525.51 C619.428399,528.019505 618.984131,530.508074 618.38,532.96 C618.146098,533.594304 617.736896,534.149154 617.2,534.56 Z"/>
      <path stroke="#3D3C3D" stroke-width=".5" d="M616.24 535.05L617.2 534.56M624.04 531.13L625.59 541.87M616.24 535.05L617.79 545.79M610.33 531.74L608.25 540.34M601.67 541.89L595.14 538.23C594.881281 537.957999 594.777571 537.573662 594.864338 537.208434 594.951104 536.843206 595.216591 536.546579 595.57 536.42 596.96 535.83 602.41 533.16 602.41 533.16 602.41 533.16 603.34 532.68 603.82 533.09 604.3 533.5 604.88 533.92 604.88 533.92"/>
      <path fill="#B0B0B0" stroke="#3D3C3D" stroke-width=".5" d="M602.63,541.4 C602.63,541.4 609.45,537.94 610.63,537.4 C611.81,536.86 613.05,527.95 613.1,527.4 C613.15,526.85 612.96,526.29 611.37,526.97 C609.78,527.65 606.92,529.14 606.92,529.14 C606.92,529.14 605.56,529.83 605.14,532.35 C604.858399,534.859505 604.414131,537.348074 603.81,539.8 C603.576098,540.434304 603.166896,540.989154 602.63,541.4 Z"/>
      <path stroke="#3D3C3D" stroke-width=".5" d="M601.67 541.89L602.63 541.4M609.48 537.97L611.03 548.71M601.67 541.89L603.22 552.63M595.76 538.58L593.69 547.18M587.11 548.73L580.58 545.07C580.321281 544.797999 580.217571 544.413662 580.304338 544.048434 580.391104 543.683206 580.656591 543.386579 581.01 543.26 582.4 542.67 587.85 540 587.85 540 587.85 540 588.78 539.52 589.26 539.93 589.74 540.34 590.32 540.76 590.32 540.76"/>
      <path fill="#B0B0B0" stroke="#3D3C3D" stroke-width=".5" d="M588.07,548.24 C588.07,548.24 594.89,544.78 596.07,544.24 C597.25,543.7 598.49,534.79 598.54,534.24 C598.59,533.69 598.4,533.13 596.81,533.81 C595.22,534.49 592.36,535.98 592.36,535.98 C592.36,535.98 591,536.67 590.58,539.19 C590.298399,541.699505 589.854131,544.188074 589.25,546.64 C589.016098,547.274304 588.606896,547.829154 588.07,548.24 Z"/>
      <path stroke="#3D3C3D" stroke-width=".5" d="M587.11 548.73L588.07 548.24M594.91 544.81L596.46 555.55M587.11 548.73L588.66 559.47M581.2 545.42L579.13 554.01M572.55 555.56L566 551.9C565.741281 551.627999 565.637571 551.243662 565.724338 550.878434 565.811104 550.513206 566.076591 550.216579 566.43 550.09 567.82 549.5 573.27 546.83 573.27 546.83 573.27 546.83 574.2 546.35 574.68 546.76 575.16 547.17 575.74 547.59 575.74 547.59"/>
      <path fill="#B0B0B0" stroke="#3D3C3D" stroke-width=".5" d="M573.51,555.08 C573.51,555.08 580.33,551.62 581.51,551.08 C582.69,550.54 583.93,541.63 583.98,541.08 C584.03,540.53 583.84,539.97 582.25,540.65 C580.66,541.33 577.8,542.82 577.8,542.82 C577.8,542.82 576.44,543.51 576.02,546.03 C575.738399,548.539505 575.294131,551.028074 574.69,553.48 C574.456098,554.114304 574.046896,554.669154 573.51,555.08 Z"/>
      <path stroke="#3D3C3D" stroke-width=".5" d="M572.55 555.56L573.51 555.08M580.35 551.65L581.9 562.39M572.55 555.56L574.1 566.3M566.64 552.25L564.56 560.85M543.22 550.87L549.94 547.58C550.212851 547.322585 550.337234 546.944777 550.270664 546.575618 550.204094 546.206459 549.955579 545.895894 549.61 545.75 548.26 545.08 542.96 542.11 542.96 542.11 542.96 542.11 542.06 541.58 541.55 541.96 541.04 542.34 540.45 542.73 540.45 542.73"/>
      <path fill="#B0B0B0" stroke="#3D3C3D" stroke-width=".5" d="M542.29,550.33 C542.29,550.33 535.68,546.49 534.54,545.92 C533.4,545.35 532.66,536.35 532.65,535.75 C532.64,535.15 533.25,534.39 534.65,535.22 C536.05,536.05 538.71,537.83 538.71,537.83 C538.71,537.83 540.03,538.59 540.31,541.13 C540.450512,543.650387 540.754484,546.158995 541.22,548.64 C541.408339,549.293785 541.77958,549.880136 542.29,550.33 Z"/>
      <path stroke="#3D3C3D" stroke-width=".5" d="M543.22 550.87L542.29 550.33M535.65 546.52L532.65 556.6M543.22 550.87L541.07 561.51M549.31 547.9L550.89 556.6"/>
      <path stroke="#AE7490" stroke-width=".5" d="M556.37,0 L556.37,314.83" stroke-dasharray="4.917"/>
      <polygon fill="#F4F4F4" stroke="#3D3C3D" stroke-width=".5" points="466.35 316.33 531.97 285.03 534.52 286.53 534.52 310.75 468.69 341.95 466.35 340.62"/>
      <polyline stroke="#3D3C3D" stroke-width=".5" points="466.35 316.33 469.06 317.89 534.52 286.53"/>
      <path stroke="#3D3C3D" stroke-width=".5" d="M469.06,317.89 L469.06,341.77"/>
      <polygon stroke="#FFFFFF" stroke-width=".5" points="195.28 598.2 145.76 621.44 127.09 610.56 176.62 587.31"/>
      <polyline stroke="#FFFFFF" stroke-width=".5" points="195.28 626.36 145.76 649.6 127.09 638.72"/>
      <path stroke="#FFFFFF" stroke-width=".5" d="M152.04 618.52L133.38 607.63M158.93 615.26L140.27 604.38M181.15 604.99L162.49 594.1M173.73 608.31L155.07 597.43M166.59 611.64L147.92 600.76M188.2 601.48L169.54 590.59M195.28 598.2L195.28 626.36M145.76 621.44L145.76 649.6M127.1 610.56L127.1 638.72M136.25 615.89L136.25 644.09M185.95 592.76L136.43 616M152.04 618.52L152.04 646.65M158.93 615.26L158.93 643.42M166.64 611.64L166.64 639.55M173.73 608.31L173.73 636.45M181.15 604.99L181.15 633.19M188.2 601.48L188.2 629.68"/>
      <polygon stroke="#FFFFFF" stroke-width=".5" points="149.6 571.69 100.07 594.92 81.41 584.04 130.93 560.8"/>
      <path stroke="#FFFFFF" stroke-width=".5" d="M128.41 581.64L109.75 570.75M121.26 584.97L102.6 574.08"/>
      <polyline stroke="#FFFFFF" stroke-width=".5" points="149.6 599.85 100.07 623.08 81.41 612.2"/>
      <path stroke="#FFFFFF" stroke-width=".5" d="M106.35 592L87.69 581.11M113.24 588.74L94.58 577.86M135.46 578.47L116.8 567.59M142.52 574.96L123.86 564.07M149.6 571.69L149.6 599.85M100.07 594.92L100.07 623.08M81.41 584.04L81.41 612.2M90.56 589.38L90.56 617.57M140.27 566.24L90.74 589.48M106.35 592L106.35 620.13M113.24 588.74L113.24 616.9M120.95 585.13L120.95 613.03M128.05 581.8L128.05 609.94M135.46 578.47L135.46 606.67M142.52 574.96L142.52 603.17"/>
    </g>
    <polyline stroke="#4FCFBB" stroke-width=".5" points="108.88 233.69 200.92 287.5 255.28 262.22 255.28 436.77 295.55 417.25 696.22 652.84 1090.01 464.42 1440 464.42"/>
    <polyline stroke="#4FCFBB" stroke-width=".5" points="102.86 235.8 200.38 293.24 260.3 264.52 260.3 439.98 294.75 423.48 696.03 658.11 1090.01 469.1 1440 469.1"/>
    <polyline stroke="#4FCFBB" stroke-width=".5" points="96.6 238.79 200.38 299.92 265.79 268.4 265.79 443 294.11 430.37 695.21 665.13 1090.01 475.62 1440 475.62"/>
    <polyline stroke="#4FCFBB" stroke-width=".5" points="90.88 242.1 200.38 306.6 271.94 272.42 271.94 446.88 293.33 436.76 695.02 671.99 1090.01 482.59 1440 482.59"/>
    <polyline stroke="#4FCFBB" stroke-width=".5" points="85.33 245.51 200.38 313.28 277.02 276.63 277.02 450.1 293.46 442.54 695.43 678.46 1090.01 489.24 1440 489.24"/>
    <path fill="#7D7778" stroke="#3D3C3D" stroke-width=".5" d="M856.44,345.86 C854.890746,345.713849 853.409158,345.154368 852.15,344.24 L708.25,259.73 C707.882081,259.519759 707.442047,259.47612 707.04,259.61 C705.83,259.99 704.13,262.53 704.26,264.27 C704.263625,265.147001 704.65991,265.976265 705.34,266.53 L852.09,352.76 C853.464947,353.385411 854.935613,353.774208 856.44,353.91 L1440,353.91 L1440,345.91 L856.44,345.86 Z"/>
    <path fill="#7D7778" stroke="#3D3C3D" stroke-width=".5" d="M856.44,359.93 L856.44,360 L856,360 C854.36,360 853,359 851.75,358.23 L695.45,266.49 C695.082081,266.279759 694.642047,266.23612 694.24,266.37 C693.03,266.75 691.33,269.29 691.46,271.03 C691.463625,271.907001 691.85991,272.736265 692.54,273.29 L851.33,366.57 C852.942102,367.305017 854.665969,367.764715 856.43,367.93 L1440,367.93 L1440,359.93 L856.44,359.93 Z"/>
    <path stroke="#3D3C3D" stroke-width=".5" d="M862.09 345.61C862.430831 345.560509 862.778689 345.612688 863.09 345.76 864.48 346.41 865.22 348.76 864.73 350.92 864.37 352.57 863.31 353.92 862.39 353.92M852.09 352.74C850.706836 351.94808 849.736098 350.594156 849.43 349.03 848.94 346.84 850.61 344.24 852.15 344.24"/>
    <path stroke="#3D3C3D" stroke-width=".486" d="M862.32,360 C862.663682,359.963289 863.01069,360.025751 863.32,360.18 C864.7,360.85 865.45,363.09 864.98,365.18 C864.63,366.74 863.59,367.96 862.68,367.95"/>
    <path stroke="#3D3C3D" stroke-width=".5" d="M851.85,366.85 C850.316782,366.112824 849.230628,364.684457 848.93,363.01 C848.44,360.82 850.22,358.28 851.76,358.28"/>
    <g transform="translate(763 237)">
      <use fill="#000000" xlink:href="#a"/>
      <use fill="#FFFFFF" xlink:href="#a"/>
      <use fill="#000000" xlink:href="#b"/>
      <use fill="#FFFFFF" xlink:href="#b"/>
      <use fill="#000000" xlink:href="#c"/>
      <use fill="#FFFFFF" xlink:href="#c"/>
      <use fill="#000000" xlink:href="#d"/>
      <use fill="#FFFFFF" xlink:href="#d"/>
      <use fill="#000000" xlink:href="#e"/>
      <use fill="#FFFFFF" xlink:href="#e"/>
      <use fill="#000000" xlink:href="#f"/>
      <use fill="#FFFFFF" xlink:href="#f"/>
      <use fill="#000000" xlink:href="#g"/>
      <use fill="#FFFFFF" xlink:href="#g"/>
      <use fill="#000000" xlink:href="#h"/>
      <use fill="#FFFFFF" xlink:href="#h"/>
      <use fill="#000000" xlink:href="#i"/>
      <use fill="#FFFFFF" xlink:href="#i"/>
      <use fill="#000000" xlink:href="#j"/>
      <use fill="#FFFFFF" xlink:href="#j"/>
      <g>
        <use fill="#000000" xlink:href="#k"/>
        <use fill="#FFFFFF" xlink:href="#k"/>
      </g>
      <g>
        <use fill="#000000" xlink:href="#l"/>
        <use fill="#FFFFFF" xlink:href="#l"/>
      </g>
      <g>
        <use fill="#000000" xlink:href="#m"/>
        <use fill="#FFFFFF" xlink:href="#m"/>
      </g>
      <g>
        <use fill="#000000" xlink:href="#n"/>
        <use fill="#FFFFFF" xlink:href="#n"/>
      </g>
      <g>
        <use fill="#000000" xlink:href="#o"/>
        <use fill="#FFFFFF" xlink:href="#o"/>
      </g>
      <g>
        <use fill="#000000" xlink:href="#p"/>
        <use fill="#FFFFFF" xlink:href="#p"/>
      </g>
      <g>
        <use fill="#000000" xlink:href="#q"/>
        <use fill="#FFFFFF" xlink:href="#q"/>
      </g>
      <g>
        <use fill="#000000" xlink:href="#r"/>
        <use fill="#FFFFFF" xlink:href="#r"/>
      </g>
      <g>
        <use fill="#000000" xlink:href="#s"/>
        <use fill="#FFFFFF" xlink:href="#s"/>
      </g>
    </g>
    <polygon fill="#EBEBEB" stroke="#3D3C3D" stroke-width=".5" points="447.83 334.5 445.34 332.51 396.93 354.71 396.77 407.94 399.16 410.65 447.67 388.04"/>
    <polygon fill="#EBEBEB" stroke="#3D3C3D" stroke-width=".5" points="399.16 410.65 447.67 388.04 447.83 334.5 399.32 357.12"/>
    <polygon fill="#EBEBEB" stroke="#3D3C3D" stroke-width=".5" points="426.61 395.89 446.15 386.8 446.29 339.55 426.75 348.65"/>
    <polygon fill="#EBEBEB" stroke="#3D3C3D" stroke-width=".5" points="428.6 392.36 444.59 384.55 444.72 343.47 428.72 351.29"/>
    <polygon fill="#EBEBEB" stroke="#3D3C3D" stroke-width=".5" points="426.61 395.89 425.32 394.73 425.46 347.48 426.75 348.65"/>
    <polyline fill="#EBEBEB" stroke="#3D3C3D" stroke-width=".5" points="446.29 339.55 444.73 338.32 425.46 347.48"/>
    <polyline fill="#EBEBEB" stroke="#3D3C3D" stroke-width=".5" points="444.4 384.37 442.01 381.66 442.12 344.7"/>
    <path stroke="#3D3C3D" stroke-width=".5" d="M428.61,388.24 L442.01,381.66"/>
    <polygon fill="#EBEBEB" stroke="#3D3C3D" stroke-width=".5" points="399.16 410.65 396.77 407.94 396.93 354.71 399.32 357.12"/>
    <polygon fill="#EBEBEB" stroke="#3D3C3D" stroke-width=".5" points="402.59 407.26 422.13 398.17 422.27 350.92 402.73 360.01"/>
    <polygon fill="#EBEBEB" stroke="#3D3C3D" stroke-width=".5" points="404.58 403.73 420.57 395.91 420.7 354.83 404.7 362.65"/>
    <polygon fill="#EBEBEB" stroke="#3D3C3D" stroke-width=".5" points="402.59 407.26 401.3 406.1 401.44 358.85 402.73 360.01"/>
    <polyline fill="#EBEBEB" stroke="#3D3C3D" stroke-width=".5" points="422.27 350.92 420.71 349.69 401.44 358.85"/>
    <polyline fill="#EBEBEB" stroke="#3D3C3D" stroke-width=".5" points="420.38 395.74 417.99 393.03 418.1 356.07"/>
    <path stroke="#3D3C3D" stroke-width=".5" d="M404.59,399.61 L417.99,393.03"/>
    <polygon fill="#EBEBEB" stroke="#3D3C3D" stroke-width=".5" points="427.64 375.25 426.68 374.16 426.7 368.42 427.66 369.5"/>
    <polygon fill="#EBEBEB" stroke="#3D3C3D" stroke-width=".5" points="429.71 374.32 427.66 375.26 427.68 369.51 429.73 368.58"/>
    <polygon fill="#EBEBEB" stroke="#3D3C3D" stroke-width=".5" points="429.73 368.59 427.68 369.53 426.7 368.42 428.75 367.48"/>
    <polyline fill="#EBEBEB" stroke="#3D3C3D" stroke-width=".5" points="429.3 371.9 430.26 372.99 430.25 378.74 429.29 377.65 429.3 373.29 428.32 372.2 428.32 370.84"/>
    <polygon fill="#EBEBEB" stroke="#3D3C3D" stroke-width=".5" points="431.1 378.34 430.27 378.75 430.28 373 431.12 372.59"/>
    <polygon fill="#EBEBEB" stroke="#3D3C3D" stroke-width=".5" points="431.12 372.61 430.28 373.01 428.32 370.84 429.16 370.43"/>
    <polygon fill="#EBEBEB" stroke="#3D3C3D" stroke-width=".5" points="120.94 223.07 123.43 221.4 171.84 249.69 172 302.95 169.6 305.36 121.1 276.62"/>
    <polygon fill="#EBEBEB" stroke="#3D3C3D" stroke-width=".5" points="169.6 305.36 121.1 276.62 120.94 223.07 169.44 251.8"/>
    <polygon fill="#EBEBEB" stroke="#3D3C3D" stroke-width=".5" points="142.16 287.14 122.62 275.58 122.47 228.31 142.01 239.87"/>
    <polygon fill="#EBEBEB" stroke="#3D3C3D" stroke-width=".5" points="140.17 283.36 124.17 273.52 124.05 232.43 140.04 242.26"/>
    <polygon fill="#EBEBEB" stroke="#3D3C3D" stroke-width=".5" points="142.16 287.14 143.45 286.13 143.31 238.87 142.01 239.87"/>
    <polyline fill="#EBEBEB" stroke="#3D3C3D" stroke-width=".5" points="122.47 228.31 124.03 227.28 143.31 238.87"/>
    <polyline fill="#EBEBEB" stroke="#3D3C3D" stroke-width=".5" points="124.37 273.37 126.76 270.96 126.65 233.99"/>
    <path stroke="#3D3C3D" stroke-width=".5" d="M140.16,279.23 L126.76,270.96"/>
    <polygon fill="#EBEBEB" stroke="#3D3C3D" stroke-width=".5" points="169.6 305.36 172 302.95 171.84 249.69 169.44 251.8"/>
    <polygon fill="#EBEBEB" stroke="#3D3C3D" stroke-width=".5" points="166.18 301.54 146.64 289.98 146.49 242.71 166.03 254.27"/>
    <polygon fill="#EBEBEB" stroke="#3D3C3D" stroke-width=".5" points="164.19 297.75 148.19 287.92 148.07 246.82 164.06 256.66"/>
    <polygon fill="#EBEBEB" stroke="#3D3C3D" stroke-width=".5" points="166.18 301.54 167.47 300.53 167.33 253.26 166.03 254.27"/>
    <polyline fill="#EBEBEB" stroke="#3D3C3D" stroke-width=".5" points="146.49 242.71 148.05 241.67 167.33 253.26"/>
    <polyline fill="#EBEBEB" stroke="#3D3C3D" stroke-width=".5" points="148.39 287.77 150.78 285.36 150.67 248.38"/>
    <path stroke="#3D3C3D" stroke-width=".5" d="M164.18,293.63 L150.78,285.36"/>
    <polygon fill="#EBEBEB" stroke="#3D3C3D" stroke-width=".5" points="141.13 266.37 142.09 265.4 142.07 259.65 141.11 260.62"/>
    <polygon fill="#EBEBEB" stroke="#3D3C3D" stroke-width=".5" points="139.05 265.18 141.1 266.37 141.09 260.62 139.04 259.43"/>
    <polygon fill="#EBEBEB" stroke="#3D3C3D" stroke-width=".5" points="139.04 259.44 141.09 260.64 142.07 259.65 140.02 258.45"/>
    <polyline fill="#EBEBEB" stroke="#3D3C3D" stroke-width=".5" points="139.47 262.81 138.5 263.77 138.52 269.52 139.48 268.56 139.47 264.2 140.45 263.23 140.45 261.87"/>
    <polygon fill="#EBEBEB" stroke="#3D3C3D" stroke-width=".5" points="137.66 269.02 138.5 269.53 138.48 263.78 137.65 263.26"/>
    <polygon fill="#EBEBEB" stroke="#3D3C3D" stroke-width=".5" points="137.65 263.28 138.48 263.8 140.45 261.87 139.61 261.36"/>
    <polygon fill="#EBEBEB" stroke="#3D3C3D" stroke-width=".5" points="237.56 292.21 240.05 290.54 288.45 318.83 288.62 372.09 286.22 374.5 237.72 345.76"/>
    <polygon fill="#EBEBEB" stroke="#3D3C3D" stroke-width=".5" points="286.22 374.5 237.72 345.76 237.56 292.21 286.06 320.94"/>
    <polygon fill="#EBEBEB" stroke="#3D3C3D" stroke-width=".5" points="258.77 356.28 239.24 344.72 239.09 297.45 258.63 309.01"/>
    <polygon fill="#EBEBEB" stroke="#3D3C3D" stroke-width=".5" points="256.79 352.49 240.79 342.66 240.67 301.56 256.66 311.4"/>
    <polygon fill="#EBEBEB" stroke="#3D3C3D" stroke-width=".5" points="258.77 356.28 260.07 355.27 259.92 308.01 258.63 309.01"/>
    <polyline fill="#EBEBEB" stroke="#3D3C3D" stroke-width=".5" points="239.09 297.45 240.65 296.41 259.92 308.01"/>
    <polyline fill="#EBEBEB" stroke="#3D3C3D" stroke-width=".5" points="240.99 342.51 243.38 340.1 243.27 303.13"/>
    <path stroke="#3D3C3D" stroke-width=".5" d="M256.77,348.37 L243.38,340.1"/>
    <polygon fill="#EBEBEB" stroke="#3D3C3D" stroke-width=".5" points="286.22 374.5 288.62 372.09 288.45 318.83 286.06 320.94"/>
    <polygon fill="#EBEBEB" stroke="#3D3C3D" stroke-width=".5" points="282.79 370.67 263.25 359.11 263.11 311.85 282.65 323.41"/>
    <polygon fill="#EBEBEB" stroke="#3D3C3D" stroke-width=".5" points="280.81 366.89 264.81 357.06 264.69 315.96 280.68 325.8"/>
    <polygon fill="#EBEBEB" stroke="#3D3C3D" stroke-width=".5" points="282.79 370.67 284.09 369.67 283.94 322.4 282.65 323.41"/>
    <polyline fill="#EBEBEB" stroke="#3D3C3D" stroke-width=".5" points="263.11 311.85 264.67 310.81 283.94 322.4"/>
    <polyline fill="#EBEBEB" stroke="#3D3C3D" stroke-width=".5" points="265 356.91 267.4 354.5 267.29 317.52"/>
    <path stroke="#3D3C3D" stroke-width=".5" d="M280.79,362.77 L267.4,354.5"/>
    <polygon fill="#EBEBEB" stroke="#3D3C3D" stroke-width=".5" points="257.74 335.5 258.7 334.54 258.69 328.79 257.73 329.75"/>
    <polygon fill="#EBEBEB" stroke="#3D3C3D" stroke-width=".5" points="255.67 334.31 257.72 335.51 257.71 329.76 255.66 328.56"/>
    <polygon fill="#EBEBEB" stroke="#3D3C3D" stroke-width=".5" points="255.66 328.58 257.71 329.77 258.69 328.79 256.64 327.59"/>
    <polyline fill="#EBEBEB" stroke="#3D3C3D" stroke-width=".5" points="256.08 331.94 255.12 332.91 255.14 338.66 256.1 337.69 256.09 333.33 257.07 332.36 257.06 331.01"/>
    <polygon fill="#EBEBEB" stroke="#3D3C3D" stroke-width=".5" points="254.28 338.15 255.12 338.67 255.1 332.92 254.26 332.4"/>
    <polygon fill="#EBEBEB" stroke="#3D3C3D" stroke-width=".5" points="254.26 332.42 255.1 332.93 257.06 331.01 256.23 330.49"/>
  </g>
</svg>
