<svg xmlns="http://www.w3.org/2000/svg" viewBox="0 0 31.45 31.25"><title>Asset 20</title><rect x="0.31" y="0.31" width="30.82" height="30.63" style="fill:none;stroke:#9d9d9c;stroke-miterlimit:10;stroke-width:0.620495773651729px"/><path d="M12.07,24.5A12.37,12.37,0,0,0,24.53,12c0-.19,0-.38,0-.57A8.88,8.88,0,0,0,26.7,9.22a8.77,8.77,0,0,1-2.51.69,4.4,4.4,0,0,0,1.92-2.42,8.81,8.81,0,0,1-2.78,1.06,4.38,4.38,0,0,0-7.57,3,4.48,4.48,0,0,0,.11,1A12.44,12.44,0,0,1,6.85,8a4.38,4.38,0,0,0,1.36,5.84,4.34,4.34,0,0,1-2-.55s0,0,0,.06a4.38,4.38,0,0,0,3.51,4.29,4.39,4.39,0,0,1-1.15.15,4.33,4.33,0,0,1-.82-.08,4.38,4.38,0,0,0,4.09,3A8.78,8.78,0,0,1,6.41,22.6a8.87,8.87,0,0,1-1-.06,12.38,12.38,0,0,0,6.71,2" style="fill:#ededed"/></svg>