<svg xmlns="http://www.w3.org/2000/svg" viewBox="0 0 136.33 30.7"><title>Asset 11</title><polygon points="23.19 5.19 25.92 5.19 26.23 5.19 26.37 5.19 26.37 5.33 26.37 5.64 26.37 24.99 26.37 25.3 26.37 25.44 26.23 25.44 25.92 25.44 23.19 25.44 22.88 25.44 22.74 25.44 22.74 25.3 22.74 24.99 22.74 5.64 22.74 5.33 22.74 5.19 22.88 5.19 23.19 5.19" style="fill:#a7a3a4"/><path d="M71.22,5.19a13.18,13.18,0,0,1,2,.17h0a12,12,0,0,1,1.9.55,9.35,9.35,0,0,1,1.73.93,9.23,9.23,0,0,1,1.56,1.32l.1.1h0a9.64,9.64,0,0,1,1.21,1.45,9.08,9.08,0,0,1,.93,1.7,8.34,8.34,0,0,1,.55,1.87,9.63,9.63,0,0,1,.17,2,9.68,9.68,0,0,1-.76,3.88,9.35,9.35,0,0,1-.93,1.73,9.23,9.23,0,0,1-1.32,1.56,9,9,0,0,1-1.56,1.28,8.36,8.36,0,0,1-1.73.93,8.63,8.63,0,0,1-1.9.55,10,10,0,0,1-2,.17,13.18,13.18,0,0,1-2-.17,12,12,0,0,1-1.9-.55,8.36,8.36,0,0,1-1.73-.93A10.94,10.94,0,0,1,64,22.46l0,0h0a10,10,0,0,1-1.25-1.52,8.36,8.36,0,0,1-.93-1.73,8.34,8.34,0,0,1-.55-1.87,9.63,9.63,0,0,1-.17-2,10.3,10.3,0,0,1,.73-3.88,8.11,8.11,0,0,1,.93-1.7,12,12,0,0,1,1.21-1.49h0L64,8.17a11.19,11.19,0,0,1,1.56-1.32,9.35,9.35,0,0,1,1.73-.93,9.21,9.21,0,0,1,1.9-.55,14,14,0,0,1,2.08-.17m0,16.82a8.1,8.1,0,0,0,1.32-.1,7,7,0,0,0,1.21-.35A6.79,6.79,0,0,0,74.86,21a7.52,7.52,0,0,0,1-.83,11.45,11.45,0,0,0,.87-1A6,6,0,0,0,77.35,18a6.56,6.56,0,0,0,.38-1.25,8.09,8.09,0,0,0,.14-1.35,8.53,8.53,0,0,0-.1-1.35,8.37,8.37,0,0,0-.35-1.25,6.79,6.79,0,0,0-.59-1.11,7.64,7.64,0,0,0-.87-1l0,0h0a5.15,5.15,0,0,0-1-.8,4.65,4.65,0,0,0-1.07-.59h0a4.86,4.86,0,0,0-1.21-.35,7.2,7.2,0,0,0-2.63,0,7,7,0,0,0-1.21.35,6.79,6.79,0,0,0-1.11.59,7.52,7.52,0,0,0-1,.83,11.45,11.45,0,0,0-.87,1,7.31,7.31,0,0,0-.62,1.14A6.56,6.56,0,0,0,64.82,14a8.09,8.09,0,0,0-.14,1.35,6,6,0,0,0,.14,1.35,7,7,0,0,0,.35,1.21,9.29,9.29,0,0,0,.62,1.14,7.64,7.64,0,0,0,.87,1,8.1,8.1,0,0,0,1,.87A6.12,6.12,0,0,0,70,22C70.32,21.94,70.77,22,71.22,22Z" style="fill:#a7a3a4"/><path d="M7.82,10.73h0m0,0h0M3.6.14V6l2.91.8c.17,0,.35.1.55.14h0l.62.17,1,.24h0c1.32.31,2.63.66,4,1.07.45.14.87.28,1.28.45a12.75,12.75,0,0,1,1.21.52,13.5,13.5,0,0,1,1.21.66,7.82,7.82,0,0,1,1.07.8l.1.1h0a8.2,8.2,0,0,1,1.18,1.28,7.38,7.38,0,0,1,.93,1.59,7.49,7.49,0,0,1,.55,1.76,8.66,8.66,0,0,1,.17,1.9,12.71,12.71,0,0,1-.24,2.66,6.58,6.58,0,0,1-.87,2.21,6,6,0,0,1-1.73,1.76,7.73,7.73,0,0,1-2.7,1.11,14.51,14.51,0,0,1-2.25.38,21.36,21.36,0,0,1-2.6.14q-1.35,0-2.6-.1a16.63,16.63,0,0,1-2.21-.35A7.5,7.5,0,0,1,3,24.43,5.8,5.8,0,0,1,1.35,23a5.29,5.29,0,0,1-1-1.9A8,8,0,0,1,0,18.79V10.11l3.6.9v7.75a3.68,3.68,0,0,0,.14,1.14,2.33,2.33,0,0,0,.42.83,1.77,1.77,0,0,0,.73.59,4.6,4.6,0,0,0,1,.38H6a11.63,11.63,0,0,0,1.8.28A15.3,15.3,0,0,0,10,22a15.37,15.37,0,0,0,2.18-.14,15,15,0,0,0,1.87-.31,3.21,3.21,0,0,0,2.73-3c0-.42.07-.87.07-1.35a6.09,6.09,0,0,0-.1-1.14h0a3.34,3.34,0,0,0-.35-1,4.67,4.67,0,0,0-.52-.9h0a3.45,3.45,0,0,0-.69-.73h0l0,0c-.21-.17-.45-.35-.69-.52h0a8.26,8.26,0,0,0-.76-.42l-.93-.42c-.35-.14-.69-.24-1-.35-1.25-.38-2.49-.69-3.77-1H8L0,8.79V0H3.6Z" style="fill:#a7a3a4"/><path d="M37.41,5.23c-3.46,0-7.27,1.11-8.13,5.47A14.13,14.13,0,0,0,29,13.36V25.47h3.74V12.91c.07-3.11,2-4.26,4.64-4.26,2.46,0,4.6,1.32,4.6,3.63l0,13.19h3.81l0-13.19c0-2.32,2.11-3.63,4.6-3.63,2.66,0,4.53,1.14,4.64,4.26V25.47h3.74V13.36a11.41,11.41,0,0,0-.24-2.66c-.87-4.36-4.67-5.47-8.13-5.47-2.35,0-4.81.48-6.47,2.15-1.63-1.66-4.12-2.15-6.47-2.15" style="fill:#a7a3a4"/><path d="M94.13,4.78h0ZM83.72,13.12A12.71,12.71,0,0,1,84,10.45a6.58,6.58,0,0,1,.87-2.21,6,6,0,0,1,1.73-1.76,7.73,7.73,0,0,1,2.7-1.11A14.51,14.51,0,0,1,91.5,5a21.74,21.74,0,0,1,2.6-.14h0v3.6A15.37,15.37,0,0,0,92,8.58a15,15,0,0,0-1.87.31,3.21,3.21,0,0,0-2.73,3c0,.42-.07.87-.07,1.35V25.54h-3.6l0-12.42Z" style="fill:#a7a3a4"/><path d="M133.07,25.44h3.25V13.32a11.41,11.41,0,0,0-.24-2.66c-.93-4.88-5.26-5.61-9.17-5.68a13.57,13.57,0,0,0-5.4.8V0h-3.63V25.44h3.63V11.87c0-1.52.45-2.56,1.76-2.91a14.94,14.94,0,0,1,6.89.07c2,.55,2.46,1.94,2.53,3.84V25.44Z" style="fill:#a7a3a4"/><path d="M103.2,19.9h0m0,0h0M99,30.52V24.71l2.91-.8c.17,0,.35-.1.55-.14h0l.62-.17,1-.24h0c1.32-.31,2.63-.66,4-1.07.45-.14.87-.28,1.28-.45a12.75,12.75,0,0,0,1.21-.52,13.5,13.5,0,0,0,1.21-.66,7.82,7.82,0,0,0,1.07-.8l.1-.1h0a8.2,8.2,0,0,0,1.18-1.28,7.38,7.38,0,0,0,.93-1.59,7.49,7.49,0,0,0,.55-1.76,8.66,8.66,0,0,0,.17-1.9,12.71,12.71,0,0,0-.24-2.66,6.58,6.58,0,0,0-.87-2.21,6,6,0,0,0-1.73-1.76,7.73,7.73,0,0,0-2.7-1.11,14.51,14.51,0,0,0-2.25-.38,21.36,21.36,0,0,0-2.6-.14q-1.35,0-2.6.1a16.63,16.63,0,0,0-2.21.35,7.5,7.5,0,0,0-2.18.83,5.8,5.8,0,0,0-1.63,1.42,5.29,5.29,0,0,0-1,1.9,8,8,0,0,0-.35,2.32v8.69l3.6-.9V11.91a3.68,3.68,0,0,1,.14-1.14,2.33,2.33,0,0,1,.42-.83,1.77,1.77,0,0,1,.73-.59,4.6,4.6,0,0,1,1-.38h.07a11.63,11.63,0,0,1,1.8-.28,23.26,23.26,0,0,1,4.4.07,15,15,0,0,1,1.87.31,3.21,3.21,0,0,1,2.73,3c0,.42.07.87.07,1.35a6.09,6.09,0,0,1-.1,1.14h0a3.34,3.34,0,0,1-.35,1,4.67,4.67,0,0,1-.52.9h0a3.45,3.45,0,0,1-.69.73h0l0,0c-.21.17-.45.35-.69.52h0a8.26,8.26,0,0,1-.76.42l-.93.42c-.35.14-.69.24-1,.35-1.25.38-2.49.69-3.77,1h0l-7.82,1.94V30.7h3.6v-.17Z" style="fill:#a7a3a4"/></svg>