<svg xmlns="http://www.w3.org/2000/svg" viewBox="0 0 78.6 31.73"><title>Asset 13</title><polygon points="78.6 2.26 65.51 2.26 66.32 0 78.6 0 78.6 2.26" style="fill:#a7a3a4"/><path d="M43.72,0H55.87l.8,2.26H43.72Z" style="fill:#a7a3a4"/><path d="M34.07,0A8.73,8.73,0,0,1,39.3,2.26h-22V0Z" style="fill:#a7a3a4"/><rect width="15.3" height="2.26" style="fill:#a7a3a4"/><path d="M7.65,1.13" style="fill:#a7a3a4"/><path d="M78.6,6.49H64s.8-2.24.79-2.24H78.6Z" style="fill:#a7a3a4"/><polygon points="58.17 6.49 43.72 6.49 43.72 4.24 57.38 4.24 58.17 6.49" style="fill:#a7a3a4"/><path d="M41,4.24a5.83,5.83,0,0,1,.63,2.24H17.28V4.24Z" style="fill:#a7a3a4"/><rect y="4.24" width="15.3" height="2.24" style="fill:#a7a3a4"/><path d="M7.65,5.37" style="fill:#a7a3a4"/><polygon points="62.52 10.73 63.33 8.48 74.27 8.48 74.27 10.73 62.52 10.73" style="fill:#a7a3a4"/><polygon points="58.87 8.48 59.67 10.73 48.03 10.73 48.03 8.48 58.87 8.48" style="fill:#a7a3a4"/><path d="M41.84,8.48a7.36,7.36,0,0,1-.32,2.26H34.85V8.48Z" style="fill:#a7a3a4"/><rect x="4.27" y="8.49" width="6.57" height="2.24" style="fill:#a7a3a4"/><path d="M7.55,9.61" style="fill:#a7a3a4"/><rect x="21.71" y="8.48" width="6.56" height="2.26" style="fill:#a7a3a4"/><path d="M25,9.6" style="fill:#a7a3a4"/><path d="M54.49,13.17v1.71H48V12.63H60.35l.76,2.09s.74-2.1.74-2.09H74.27v2.25H67.84V13.17l-.59,1.71H55.09Z" style="fill:#a7a3a4"/><path d="M21.71,12.63H40.55a8.46,8.46,0,0,1-1.87,2.25h-17Z" style="fill:#a7a3a4"/><rect x="4.27" y="12.63" width="6.57" height="2.25" style="fill:#a7a3a4"/><path d="M7.55,13.76" style="fill:#a7a3a4"/><rect x="67.84" y="16.87" width="6.43" height="2.24" style="fill:#a7a3a4"/><path d="M71.05,18" style="fill:#a7a3a4"/><path d="M54.49,16.87H48v2.24h6.47S54.5,16.87,54.49,16.87Z" style="fill:#a7a3a4"/><path d="M66.54,16.87s-.75,2.24-.78,2.24H56.59s-.81-2.25-.81-2.25Z" style="fill:#a7a3a4"/><path d="M21.71,16.87H38.65a11.08,11.08,0,0,1,2,2.25h-19Z" style="fill:#a7a3a4"/><polygon points="10.84 19.11 10.84 16.87 4.28 16.87 4.28 19.11 10.84 19.11" style="fill:#a7a3a4"/><rect x="67.84" y="21.1" width="6.43" height="2.25" style="fill:#a7a3a4"/><path d="M71.05,22.22" style="fill:#a7a3a4"/><rect x="48.03" y="21.1" width="6.46" height="2.24" style="fill:#a7a3a4"/><path d="M51.26,22.22" style="fill:#a7a3a4"/><path d="M64.25,23.35s.79-2.26.81-2.26H57.26s.8,2.25.8,2.25Z" style="fill:#a7a3a4"/><path d="M21.71,23.34s0-2.24,0-2.25h6.66s0,2.25,0,2.25Z" style="fill:#a7a3a4"/><path d="M41.6,21.1A6.51,6.51,0,0,1,42,23.35H35V21.1Z" style="fill:#a7a3a4"/><rect x="4.28" y="21.1" width="6.56" height="2.24" style="fill:#a7a3a4"/><path d="M7.56,22.22" style="fill:#a7a3a4"/><rect x="67.84" y="25.24" width="10.76" height="2.25" style="fill:#a7a3a4"/><path d="M73.22,26.37" style="fill:#a7a3a4"/><rect x="43.72" y="25.24" width="10.77" height="2.25" style="fill:#a7a3a4"/><path d="M49.11,26.37" style="fill:#a7a3a4"/><polygon points="62.8 27.49 59.51 27.49 58.73 25.24 63.56 25.24 62.8 27.49" style="fill:#a7a3a4"/><path d="M0,25.24v2.25H15.29s0-2.24,0-2.24Z" style="fill:#a7a3a4"/><path d="M41.74,25.24a4.83,4.83,0,0,1-.85,2.25H17.28V25.24Z" style="fill:#a7a3a4"/><polygon points="61.31 31.73 61.01 31.73 60.24 29.48 62.1 29.48 61.31 31.73" style="fill:#a7a3a4"/><rect x="67.84" y="29.48" width="10.76" height="2.26" style="fill:#a7a3a4"/><path d="M73.22,30.6" style="fill:#a7a3a4"/><path d="M17.28,31.73V29.48H39.43a8.38,8.38,0,0,1-5.71,2.25H17.28" style="fill:#a7a3a4"/><rect x="43.72" y="29.48" width="10.77" height="2.26" style="fill:#a7a3a4"/><path d="M49.11,30.6" style="fill:#a7a3a4"/><path d="M15.29,29.49s0,2.24,0,2.24H0s0-2.25,0-2.25Z" style="fill:#a7a3a4"/></svg>