<svg xmlns="http://www.w3.org/2000/svg" viewBox="0 0 138.79 34.7"><title>Asset 14</title><path d="M32.95,34.7a8.28,8.28,0,0,0-2.1-.37c-3.2-.46-6.4-.89-9.6-1.33l-5.33-.72c-.67-.09-.67-.08-.67-.72,0-4,0-8,0-12.06,0-.46.08-.62.59-.61q8.55,0,17.11,0c.45,0,.59.1.59.57,0,4.9,0,9.8,0,14.7,0,.18,0,.35,0,.53Z" style="fill:#a7a3a4"/><path d="M24.34,17.2c-2.88,0-5.76,0-8.65,0-.36,0-.45-.1-.45-.45q0-6.29,0-12.58c0-.32.08-.43.41-.47,2.44-.32,4.88-.67,7.32-1l7.41-1,2.85-.4c.22,0,.3,0,.28.25s0,.19,0,.29c0,4.95,0,9.89,0,14.84,0,.48-.14.56-.59.56C30.07,17.19,27.21,17.2,24.34,17.2Z" style="fill:#a7a3a4"/><path d="M6.85,17.2c-2.13,0-4.26,0-6.39,0-.34,0-.47-.07-.46-.44Q0,11.51,0,6.25c0-.3.09-.42.38-.46Q6.85,4.91,13.31,4c.41-.06.43.08.43.41q0,6.17,0,12.34c0,.37-.1.45-.45.45C11.14,17.19,9,17.2,6.85,17.2Z" style="fill:#a7a3a4"/><path d="M6.91,18.91c2.13,0,4.26,0,6.39,0,.32,0,.44.07.44.42q0,6.13,0,12.25c0,.29,0,.41-.38.36C9.92,31.44,6.48,31,3,30.51c-.84-.11-1.68-.24-2.52-.33C.16,30.14,0,30,0,29.63q0-5.12,0-10.24c0-.42.13-.5.52-.5C2.65,18.91,4.78,18.91,6.91,18.91Z" style="fill:#a7a3a4"/><path d="M63.6,1.77A1.79,1.79,0,0,1,65.42,0a1.84,1.84,0,0,1,1.92,1.74A1.83,1.83,0,0,1,65.45,3.5,1.76,1.76,0,0,1,63.6,1.77Z" style="fill:#a7a3a4"/><path d="M43.93,12.13l.1.57c-.2.54,0,1.1-.1,1.65-.13-.67,0-1.36-.1-2C43.8,12.21,43.75,12.11,43.93,12.13Z" style="fill:#a7a3a4"/><path d="M44,12.13l-.1.18c-.08-.12-.14-.26,0-.34S44,12.05,44,12.13Z" style="fill:#a7a3a4"/><path d="M46.22,6.8q0,5.21,0,10.42c0,.66.09.56-.55.56s-1,0-1.52,0c-.28,0-.34-.08-.34-.35,0-1.91,0-3.82,0-5.73,0-3,0-5.93,0-8.89,0-.31.06-.42.4-.41,1,0,2,0,3,0a.36.36,0,0,1,.41.25q2.15,5.41,4.31,10.81c.11.29.2.59.3.88.1,0,.11-.11.13-.18C53.76,10.28,55.43,6.49,57,2.65a.34.34,0,0,1,.37-.25c1,0,2,0,3,0,.25,0,.3.09.3.32q0,7.37,0,14.75c0,.25-.06.34-.32.33-.62,0-1.25,0-1.87,0-.3,0-.39-.07-.39-.38Q58,13.7,58,10c0-1.46,0-2.91.08-4.37.09-.22,0-.43,0-.6,0,.08,0,.18-.1.28-.57,1.84-1.39,3.58-2.1,5.36-.9,2.27-1.83,4.52-2.74,6.79a.44.44,0,0,1-.51.34c-.39,0-.78,0-1.17,0a.31.31,0,0,1-.34-.23L46.56,6.31c-.11-.28-.18-.57-.26-.86a.4.4,0,0,1-.1-.31s0,.09,0,.13A12.34,12.34,0,0,0,46.22,6.8Z" style="fill:#a7a3a4"/><path d="M131.47,3.52a2.7,2.7,0,0,0-1.68-.22,1.57,1.57,0,0,0-1.3,1.59c0,.54,0,1.09,0,1.64,0,.21.06.27.27.27.68,0,1.35,0,2,0,.25,0,.31.07.3.31,0,.44,0,.88,0,1.33,0,.25-.06.34-.32.33-.64,0-1.27,0-1.91,0-.3,0-.36.09-.36.37,0,2.73,0,5.46,0,8.19,0,.43-.13.52-.52.5a16.31,16.31,0,0,0-1.68,0c-.3,0-.37-.09-.37-.38,0-2.73,0-5.46,0-8.19,0-.39-.08-.53-.49-.49s-.75,0-1.13,0c-.2,0-.31,0-.3-.27,0-.48,0-1,0-1.44,0-.19.06-.25.25-.24.42,0,.83,0,1.25,0s.43-.11.42-.44A10,10,0,0,1,126,4.18a3.63,3.63,0,0,1,3.24-2.87,5.84,5.84,0,0,1,1.94.08c.13,0,.26,0,.26.23C131.47,2.24,131.47,2.86,131.47,3.52Z" style="fill:#a7a3a4"/><path d="M101.48,15.14a5.15,5.15,0,0,0,3,1A4.23,4.23,0,0,0,106,16a1.16,1.16,0,0,0,.85-.92,1.18,1.18,0,0,0-.58-1.23,5.31,5.31,0,0,0-1.27-.58,12.1,12.1,0,0,1-2-.85A2.86,2.86,0,0,1,103,7.33a6.35,6.35,0,0,1,4-.75,7.2,7.2,0,0,1,1.6.33.29.29,0,0,1,.24.33c0,.61,0,1.22,0,1.83-.18.06-.27-.08-.39-.14a4.71,4.71,0,0,0-3.25-.44,1.91,1.91,0,0,0-.47.18,1.13,1.13,0,0,0-.05,2.07,8.4,8.4,0,0,0,1.37.56,10.37,10.37,0,0,1,2.13,1,2.89,2.89,0,0,1,0,4.76,5.48,5.48,0,0,1-2.55.87,8.49,8.49,0,0,1-3.8-.41.39.39,0,0,1-.32-.44C101.49,16.49,101.48,15.85,101.48,15.14Z" style="fill:#a7a3a4"/><path d="M138.79,15.71c0,.61,0,1.16,0,1.7a.3.3,0,0,1-.24.34,4.89,4.89,0,0,1-3.54-.1,2.59,2.59,0,0,1-1.43-2.61c0-2,0-3.93,0-5.89,0-.33-.05-.47-.42-.43s-.81,0-1.21,0c-.18,0-.26-.05-.25-.24,0-.48,0-1,0-1.44,0-.24.1-.28.3-.27.43,0,.86,0,1.29,0,.22,0,.29-.06.29-.28,0-.65,0-1.3,0-1.95a.34.34,0,0,1,.31-.4c.64-.16,1.28-.34,1.91-.53.27-.08.34,0,.34.25,0,.86,0,1.72,0,2.57,0,.28.09.35.35.34.66,0,1.33,0,2,0,.28,0,.35.09.34.35,0,.44,0,.88,0,1.33,0,.23-.07.29-.29.28-.69,0-1.38,0-2.07,0-.26,0-.33.08-.32.33,0,1.74,0,3.48,0,5.23,0,0,0,.05,0,.08a1.55,1.55,0,0,0,2.45,1.45Z" style="fill:#a7a3a4"/><path d="M78,9.36a4.73,4.73,0,0,0-2-.81,3.55,3.55,0,0,0-4.06,3.23,4.51,4.51,0,0,0,.37,2.51,3.58,3.58,0,0,0,4.55,1.51A6.65,6.65,0,0,0,78,15.13c0,.71,0,1.36,0,2,0,.13-.09.18-.18.22-1.91,1-5.62,1.18-7.52-1.46a5.46,5.46,0,0,1-1-3.14A6,6,0,0,1,71,8.14a5.65,5.65,0,0,1,3.68-1.59,7.09,7.09,0,0,1,3.07.37.37.37,0,0,1,.3.42C78,8,78,8.64,78,9.36Z" style="fill:#a7a3a4"/><path d="M83.06,9a6,6,0,0,1,.82-1.35,2.72,2.72,0,0,1,2.8-.92c.17,0,.32.08.32.31,0,.69,0,1.38,0,2.1a3.73,3.73,0,0,0-1-.28,2.45,2.45,0,0,0-2.54,1.55,4.45,4.45,0,0,0-.41,1.89c0,1.72,0,3.43,0,5.15,0,.31-.08.4-.39.39-.61,0-1.22,0-1.83,0-.25,0-.34-.05-.34-.32q0-5.19,0-10.37c0-.23.06-.32.3-.31q1,0,1.95,0c.25,0,.31.08.3.31C83,7.71,83.06,8.33,83.06,9Z" style="fill:#a7a3a4"/><path d="M64.17,12.28c0-1.72,0-3.43,0-5.15,0-.26.05-.37.34-.36.62,0,1.25,0,1.87,0,.22,0,.32,0,.32.29q0,5.21,0,10.41c0,.26-.09.3-.32.29-.62,0-1.25,0-1.87,0-.29,0-.34-.09-.34-.36C64.17,15.71,64.17,14,64.17,12.28Z" style="fill:#a7a3a4"/><path d="M99.45,10.75a4.79,4.79,0,0,0-3.66-4,7.18,7.18,0,0,0-3-.1,5.11,5.11,0,0,0-4.36,3.57,7.1,7.1,0,0,0-.24,3.28,5,5,0,0,0,1.71,3.23,6.52,6.52,0,0,0,7.17.48,5.54,5.54,0,0,0,2.53-5.06A11.68,11.68,0,0,0,99.45,10.75ZM96.8,13.82A2.71,2.71,0,0,1,94.57,16a3,3,0,0,1-3.3-1.3,5,5,0,0,1,.08-4.9A3.11,3.11,0,0,1,94.7,8.6a2.9,2.9,0,0,1,2.18,2.51,7.46,7.46,0,0,1,.09,1.2A5.17,5.17,0,0,1,96.8,13.82Z" style="fill:#a7a3a4"/><path d="M122.55,11.5a4.87,4.87,0,0,0-.07-.58,4.81,4.81,0,0,0-3.37-4.1,7.27,7.27,0,0,0-3-.24,6,6,0,0,0-1.48.33,4.89,4.89,0,0,0-3.25,3.46,6.35,6.35,0,0,0,.76,5.52c1.91,2.73,6.24,2.57,8.2,1.12a5.48,5.48,0,0,0,2.22-4.77C122.55,12,122.56,11.75,122.55,11.5Zm-2.72,2.22a2.8,2.8,0,0,1-2.66,2.33A3,3,0,0,1,114,14.22a5,5,0,0,1,0-3.94,3,3,0,0,1,3.44-1.71,2.9,2.9,0,0,1,2.38,2.68,4.85,4.85,0,0,1,.08,1A5.85,5.85,0,0,1,119.83,13.72Z" style="fill:#a7a3a4"/><path d="M77.86,32.79a4.15,4.15,0,0,1-5,1.66,3.35,3.35,0,0,1-2.28-2.86A8,8,0,0,1,70.43,30c0-2.07,0-4.13,0-6.2,0-.29.07-.38.37-.37.61,0,1.22,0,1.83,0,.31,0,.36.1.36.38,0,1.91,0,3.82,0,5.73a6.47,6.47,0,0,0,.08,1.24,2.06,2.06,0,0,0,1.55,1.84,2.43,2.43,0,0,0,2.67-.91,3.13,3.13,0,0,0,.58-2c0-1.94,0-3.87,0-5.81,0-.39.09-.52.49-.49.58,0,1.17,0,1.75,0,.23,0,.32,0,.31.3q0,5.21,0,10.41c0,.22-.06.29-.28.29q-1,0-2,0c-.24,0-.28-.09-.28-.3C77.87,33.69,77.86,33.24,77.86,32.79Z" style="fill:#a7a3a4"/><path d="M62.5,32.49c1.9,0,3.72,0,5.54,0,.39,0,.49.11.46.48a9.62,9.62,0,0,0,0,1.17c0,.23-.05.32-.3.31h-9c-.23,0-.27-.08-.28-.29A1.58,1.58,0,0,1,59.3,33c1.85-2.4,3.67-4.82,5.5-7.23.08-.11.21-.2.22-.36a.72.72,0,0,0-.38,0c-1.6,0-3.2,0-4.8,0-.26,0-.34-.07-.33-.33,0-.44,0-.88,0-1.33,0-.2,0-.3.28-.3h8.47c.21,0,.26.07.27.27A1.82,1.82,0,0,1,68.15,25c-1.81,2.36-3.59,4.75-5.39,7.12Z" style="fill:#a7a3a4"/><path d="M86.3,25.57c.13-.26.24-.53.39-.78a2.81,2.81,0,0,1,2.93-1.5c.51.06.56.11.56.62s0,1.22,0,1.86a3,3,0,0,0-1-.29A2.54,2.54,0,0,0,86.5,27.4a5.8,5.8,0,0,0-.26,1.92c0,1.59,0,3.17,0,4.76,0,.3-.08.38-.37.37-.6,0-1.2,0-1.79,0-.3,0-.39-.06-.39-.38,0-2.41,0-4.81,0-7.22,0-1,0-2,0-3,0-.3.09-.37.37-.36.62,0,1.25,0,1.87,0,.24,0,.32.06.31.31,0,.6,0,1.21,0,1.82Z" style="fill:#a7a3a4"/><path d="M58.3,34.17l-.37-1q-2.61-6.9-5.21-13.8a.41.41,0,0,0-.47-.33c-.73,0-1.46,0-2.18,0a.49.49,0,0,0-.56.39q-2.05,5.45-4.13,10.88L43.8,34.44c.87,0,1.68,0,2.49,0a.41.41,0,0,0,.47-.33c.36-1.1.75-2.18,1.12-3.28a.39.39,0,0,1,.44-.32q2.75,0,5.5,0a.41.41,0,0,1,.46.34c.38,1.1.78,2.2,1.18,3.3.06.17.12.29.34.28q1.17,0,2.34,0C58.39,34.45,58.37,34.34,58.3,34.17Zm-5.13-5.73c-1.39,0-2.78,0-4.17,0-.28,0-.32-.05-.22-.32.65-1.83,1.29-3.67,1.93-5.51A8,8,0,0,0,51,21.37c.69,2.36,1.57,4.56,2.34,6.8C53.44,28.41,53.37,28.44,53.17,28.44Z" style="fill:#a7a3a4"/><path d="M101.42,28.35h0V29.6h.08V28.35h-.07Z" style="fill:#a7a3a4"/><path d="M101.42,27.88v.47h.07v-.47Z" style="fill:#a7a3a4"/><path d="M101.36,28.39a.1.1,0,0,1,.05,0,.31.31,0,0,1,0-.47c0-.26,0-.52-.1-.77a4.29,4.29,0,0,0-2.86-3.63,5.27,5.27,0,0,0-6.87,3.43,7.07,7.07,0,0,0,.13,4.71,4.46,4.46,0,0,0,3.34,2.92,7.68,7.68,0,0,0,2.33.13,7,7,0,0,0,2.92-.76c.12-.06.27-.1.27-.29,0-.59,0-1.19,0-1.83l-.21.1a5.51,5.51,0,0,1-2.59.89c-1.94.16-3.63-.61-3.91-2.71,0-.37,0-.46.4-.46,2.38,0,4.76,0,7.14,0h0A1.75,1.75,0,0,1,101.36,28.39ZM99,27.66c0,.23-.15.2-.29.2H96.37c-.73,0-1.46,0-2.18,0-.33,0-.35-.09-.29-.38a2.92,2.92,0,0,1,2.39-2.44A2.38,2.38,0,0,1,99,27.66Z" style="fill:#a7a3a4"/><polygon points="101.42 28.35 101.42 28.35 101.42 28.35 101.42 28.35" style="fill:#a7a3a4"/></svg>