<svg xmlns="http://www.w3.org/2000/svg" viewBox="0 0 144.74 38.23"><title>Asset 9</title><path d="M72,29.49H60l-2.68,8.74H48.18L61.34,0h9.94L84.44,38.23H74.72ZM66,10.1,60.9,26.71H71.17Z" style="fill:#a7a3a4"/><polygon points="86.46 38.23 86.46 35.99 91.76 35.99 91.76 2.24 86.46 2.24 86.46 0 106.45 0 106.45 2.24 101.21 2.24 101.21 35.99 106.45 35.99 106.45 38.23 86.46 38.23" style="fill:#a7a3a4"/><path d="M132.34,29.49h-12l-2.67,8.74h-9.18L121.64,0h9.94l13.16,38.23H135Zm-6-19.39-5.13,16.6h10.27Z" style="fill:#a7a3a4"/><path d="M16.68,20.18a2.18,2.18,0,0,1,.88-.75,2.19,2.19,0,0,1,.88.75,2.27,2.27,0,0,1,.76-.78,3.81,3.81,0,0,1,1,.48,11.85,11.85,0,0,1-1.33-3.26c0-.15.09-.24.27-.29l.26,0s-.46-1-.64-1.32c-.48-.78-.8-1-1.34-1-.17,0-.27,0-.28.11s.73.69.71.9-1.22-.07-1.13-.82c0-.17,0-.18-.06-.21a2.71,2.71,0,0,0-1.41-.63c-.59,0-1,.68-1.24,1.25a1.57,1.57,0,0,1,.48-.15c.3,0,.5.12.85.53a2.8,2.8,0,0,1,.77,1.94,6.15,6.15,0,0,1-1.2,3.07,3.44,3.44,0,0,1,1-.53,2.25,2.25,0,0,1,.76.78" style="fill:#a7a3a4"/><path d="M10.83,4.78H24.3a1.55,1.55,0,0,0,1.64-1.67H9.19a1.55,1.55,0,0,0,1.64,1.67" style="fill:#a7a3a4"/><path d="M14.4,15.12a.5.5,0,0,0-.19,0v.78a6.76,6.76,0,0,1,.58,2.69,4.34,4.34,0,0,0,.53-1.78,2.27,2.27,0,0,0-.45-1.42c-.19-.27-.3-.32-.47-.32" style="fill:#a7a3a4"/><path d="M17.57,35.46s2-.69,2-1.1a2.79,2.79,0,0,0-.31-.86l-.36-.81-1.28-.26-1.28.26-.36.81a2.84,2.84,0,0,0-.31.86c0,.41,2,1.1,2,1.1" style="fill:#a7a3a4"/><path d="M19.3,20.26a2.65,2.65,0,0,0-.77.81,2.54,2.54,0,0,0-1-.79,2.55,2.55,0,0,0-1,.79,2.64,2.64,0,0,0-.77-.81c-1.3.45-1.67,1.7-1.67,3a19.11,19.11,0,0,0,1.77,6.66l.6-.09a6.59,6.59,0,0,1,2.08,0l.52.08A17.76,17.76,0,0,0,21,23.22c0-1.26-.38-2.51-1.67-3" style="fill:#a7a3a4"/><path d="M18.78,30.92c0-.36-.18-.67-.56-.67a.34.34,0,0,0-.37.37c0,.16.07.29.07.56a3.9,3.9,0,0,1-.07.7s.92-.41.92-1" style="fill:#a7a3a4"/><path d="M20.07,31.15c0-.34-.16-.65-.52-.65a.32.32,0,0,0-.34.37c0,.1,0,.32,0,.39a4.15,4.15,0,0,1,0,.73s.87-.35.87-.84" style="fill:#a7a3a4"/><path d="M21.29,31.4a.46.46,0,0,0-.45-.47.32.32,0,0,0-.33.32,2.18,2.18,0,0,0,0,.26.93.93,0,0,1-.24.64s1-.25,1-.74" style="fill:#a7a3a4"/><rect x="7.57" width="19.99" height="2.24" style="fill:#a7a3a4"/><rect x="7.57" y="35.99" width="19.99" height="2.24" style="fill:#a7a3a4"/><path d="M24.22,34.06a7.2,7.2,0,0,0,3.4,1,8.89,8.89,0,0,0-2-2.83,2.87,2.87,0,0,0-1.7-.72c-.35,0-.65.05-.77.24a.72.72,0,0,0-.09.37,2.52,2.52,0,0,0,1.15,1.9" style="fill:#a7a3a4"/><path d="M29.94,33.27a10.23,10.23,0,0,0,1.12-.06c-.84-1.23-2-2.8-3.7-2.8a1.74,1.74,0,0,0-1,.28.37.37,0,0,0-.16.32c0,1,1.22,2.26,3.71,2.26" style="fill:#a7a3a4"/><path d="M31.22,30.69a7.06,7.06,0,0,0,2.26-.45c-.61-.56-1.91-1.82-3.44-1.82a2,2,0,0,0-.88.18c-.17.08-.57.29-.57.58a1.28,1.28,0,0,0,.36.68,3.08,3.08,0,0,0,2.28.83" style="fill:#a7a3a4"/><path d="M32.38,27.77a5.71,5.71,0,0,0,2.76-.93,6.17,6.17,0,0,0-2.93-1.12,2.4,2.4,0,0,0-1.44.4c-.14.11-.44.38-.44.57a.53.53,0,0,0,.15.33,2.3,2.3,0,0,0,1.9.75" style="fill:#a7a3a4"/><path d="M12.06,32.16a.71.71,0,0,0-.09-.38c-.12-.19-.42-.24-.77-.24a2.87,2.87,0,0,0-1.7.72,9,9,0,0,0-2,2.83,7.24,7.24,0,0,0,3.4-1,2.51,2.51,0,0,0,1.15-1.9" style="fill:#a7a3a4"/><path d="M8.91,31a.37.37,0,0,0-.16-.32,1.73,1.73,0,0,0-1-.28c-1.7,0-2.86,1.57-3.7,2.8a10.2,10.2,0,0,0,1.12.06c2.49,0,3.71-1.3,3.71-2.26" style="fill:#a7a3a4"/><path d="M6.19,29.86a1.29,1.29,0,0,0,.36-.68c0-.29-.4-.5-.57-.58a2.07,2.07,0,0,0-.88-.18c-1.53,0-2.83,1.26-3.44,1.82a7,7,0,0,0,2.26.46,3.09,3.09,0,0,0,2.28-.83" style="fill:#a7a3a4"/><path d="M4.66,27a.53.53,0,0,0,.15-.33c0-.2-.29-.46-.43-.57a2.4,2.4,0,0,0-1.44-.4A6.17,6.17,0,0,0,0,26.85a5.7,5.7,0,0,0,2.76.93A2.29,2.29,0,0,0,4.66,27" style="fill:#a7a3a4"/><path d="M22.22,34.71a4.38,4.38,0,0,0,.87-.16L21.7,32.38a2.9,2.9,0,0,1-1.79.58l.39.78a2,2,0,0,0,1.93,1" style="fill:#a7a3a4"/><path d="M14.84,33.74l.38-.78a2.91,2.91,0,0,1-1.79-.58L12,34.55a4.46,4.46,0,0,0,.87.16,2.05,2.05,0,0,0,1.93-1" style="fill:#a7a3a4"/><path d="M9.52,12.48l2.76,4.75a13.36,13.36,0,0,1,1.4,4.11,4.58,4.58,0,0,0,.3-1.88,11.63,11.63,0,0,0-1.18-4.67L10.72,10.1A10.72,10.72,0,0,1,9.54,6,2.58,2.58,0,0,0,8.19,8.36a7.56,7.56,0,0,0,1.33,4.12" style="fill:#a7a3a4"/><path d="M10.47,19.45a2.11,2.11,0,0,0-1.14.27,2.33,2.33,0,0,0,1,1.26,2,2,0,0,0-1.09.42,2.32,2.32,0,0,0,1.33,1.44,1.49,1.49,0,0,0-.56.85,3.67,3.67,0,0,0,2.08.82,2,2,0,0,0-.51.94,3.45,3.45,0,0,0,1.95.38,14.5,14.5,0,0,1-.31-2.42,8.35,8.35,0,0,0-1-3.79A2.7,2.7,0,0,0,10.7,18a2.29,2.29,0,0,0-.23,1.48" style="fill:#a7a3a4"/><path d="M11.56,30.62a2.13,2.13,0,0,0,2-1.15l.75-1.09a9.93,9.93,0,0,1-.58-1.62l-2.18,1.75a7,7,0,0,1-2,1.21,3.17,3.17,0,0,0,2,.89" style="fill:#a7a3a4"/><path d="M9,28.51a2.65,2.65,0,0,0,2-.76l1.44-1.16A2.34,2.34,0,0,1,10.88,26a17.88,17.88,0,0,1-2,.81,13.9,13.9,0,0,1-2,.5A2.25,2.25,0,0,0,9,28.51" style="fill:#a7a3a4"/><path d="M7.37,26.11a8.5,8.5,0,0,0,3.31-1,2.24,2.24,0,0,1-1.47-.73,11.88,11.88,0,0,1-1.65.16,11.63,11.63,0,0,1-2.66-.36,2.31,2.31,0,0,0,2.48,2" style="fill:#a7a3a4"/><path d="M3.58,20.29c0,1.75,1.07,3.24,4,3.25.63,0,1.54,0,1.54,0a2.4,2.4,0,0,1,.31-.66,30.6,30.6,0,0,1-3.67-1.36,10.16,10.16,0,0,1-2.18-1.42,2,2,0,0,0,0,.23" style="fill:#a7a3a4"/><path d="M6.11,18.42a9.4,9.4,0,0,1-2.63-2.54,2,2,0,0,0-.18,1c0,1.36.53,2.46,3.09,3.78.69.35,2.07,1,2.07,1a.8.8,0,0,1,0-.41,1.85,1.85,0,0,1,.67-.45s-2.34-1.84-3-2.31" style="fill:#a7a3a4"/><path d="M6.14,14.28a12.12,12.12,0,0,1-2-3,2.77,2.77,0,0,0-.4,1.63c0,2,1.11,3.3,2.56,4.46,1.17.93,2.24,1.83,2.24,1.83a2.42,2.42,0,0,1,1.31-.4S7,15.36,6.14,14.28" style="fill:#a7a3a4"/><path d="M6.11,6.18A3,3,0,0,0,4.69,8.67c0,1.18.29,2.65,2,4.84l3.25,4a1.34,1.34,0,0,1,.3-.54,2.06,2.06,0,0,1,.88.2L7.29,10.54A8.06,8.06,0,0,1,6.11,6.18" style="fill:#a7a3a4"/><path d="M26.95,8.36A2.59,2.59,0,0,0,25.6,6a10.73,10.73,0,0,1-1.18,4.11l-2.08,4.69a11.64,11.64,0,0,0-1.18,4.67,4.61,4.61,0,0,0,.3,1.88,13.41,13.41,0,0,1,1.41-4.11l2.76-4.75a7.58,7.58,0,0,0,1.33-4.12" style="fill:#a7a3a4"/><path d="M28.28,27.34a13.94,13.94,0,0,1-2-.5,18.07,18.07,0,0,1-2-.81,2.34,2.34,0,0,1-1.54.55l1.44,1.16a2.64,2.64,0,0,0,2,.76,2.25,2.25,0,0,0,2.13-1.16" style="fill:#a7a3a4"/><path d="M30.24,24.15a11.52,11.52,0,0,1-2.66.36,11.48,11.48,0,0,1-1.65-.16,2.25,2.25,0,0,1-1.47.73,8.55,8.55,0,0,0,3.31,1,2.31,2.31,0,0,0,2.48-2" style="fill:#a7a3a4"/><path d="M26,20.74a1.82,1.82,0,0,1,.67.45.8.8,0,0,1,0,.41s1.38-.62,2.07-1c2.56-1.32,3.09-2.42,3.09-3.78a2,2,0,0,0-.18-1A9.38,9.38,0,0,1,29,18.42c-.65.48-3,2.31-3,2.31" style="fill:#a7a3a4"/><path d="M27.85,10.54,24,17.2a2,2,0,0,1,.88-.2,1.34,1.34,0,0,1,.3.54l3.25-4c1.76-2.18,2-3.66,2-4.84A3,3,0,0,0,29,6.18a8.06,8.06,0,0,1-1.18,4.35" style="fill:#a7a3a4"/><path d="M11.88,5.64v4.81l1.47,3.36V7.38a.41.41,0,0,1,.41-.45h.08a.41.41,0,0,1,.41.45V13a1.61,1.61,0,0,1,1.14-.53,1.28,1.28,0,0,1,.46.09V7.38a.41.41,0,0,1,.41-.45h.08a.41.41,0,0,1,.41.45v5.7l.13.09a.31.31,0,0,0,.23.09,3.92,3.92,0,0,1,.39,0,1.68,1.68,0,0,1,.87.23V7.38a.41.41,0,0,1,.41-.45h.07a.41.41,0,0,1,.41.45v7l1,2.31a2.65,2.65,0,0,0-.36.07c-.14,0-.19.12-.19.16a1.11,1.11,0,0,0,.07.28c0,.07.31.76.52,1.18a7.65,7.65,0,0,1,.52-2.49V7.38a.41.41,0,0,1,.41-.45h.08a.41.41,0,0,1,.41.45v.07h0v6.26l1.48-3.37V5.64Z" style="fill:#a7a3a4"/><path d="M16.76,7.38v0Z" style="fill:#a7a3a4"/><path d="M25.55,29.72a7,7,0,0,1-2-1.21l-2.18-1.75a16.37,16.37,0,0,1-.58,1.62l.75,1.09a2.13,2.13,0,0,0,2,1.15,3.17,3.17,0,0,0,2-.89" style="fill:#a7a3a4"/><path d="M31.56,20.06a10.17,10.17,0,0,1-2.18,1.42,30.17,30.17,0,0,1-3.67,1.36,2.44,2.44,0,0,1,.31.66s.91,0,1.54,0c2.94,0,4-1.5,4-3.25a2,2,0,0,0,0-.23" style="fill:#a7a3a4"/><path d="M25.32,18.79a2.44,2.44,0,0,1,1.31.4s1.07-.9,2.24-1.83c1.45-1.16,2.56-2.42,2.56-4.46a2.77,2.77,0,0,0-.4-1.63,12.14,12.14,0,0,1-2,3c-.87,1.08-3.68,4.51-3.68,4.51" style="fill:#a7a3a4"/><path d="M24.43,18a2.7,2.7,0,0,0-1.56,1.65,8.31,8.31,0,0,0-1,3.79,14.63,14.63,0,0,1-.31,2.42,3.46,3.46,0,0,0,1.95-.38,2,2,0,0,0-.51-.94,3.66,3.66,0,0,0,2.07-.82,1.48,1.48,0,0,0-.56-.85,2.32,2.32,0,0,0,1.33-1.44A1.94,1.94,0,0,0,24.79,21a2.33,2.33,0,0,0,1-1.26,2.1,2.1,0,0,0-1.14-.27A2.33,2.33,0,0,0,24.43,18" style="fill:#a7a3a4"/><path d="M17.27,31.88a3.89,3.89,0,0,1-.07-.7c0-.27.07-.41.07-.56a.34.34,0,0,0-.37-.37c-.38,0-.56.31-.56.67,0,.55.92,1,.92,1" style="fill:#a7a3a4"/><path d="M15.93,32a4,4,0,0,1,0-.73c0-.07,0-.29,0-.39a.32.32,0,0,0-.34-.37c-.36,0-.52.3-.52.65s.87.84.87.84" style="fill:#a7a3a4"/><path d="M14.87,32.14a.93.93,0,0,1-.23-.63,2.15,2.15,0,0,0,0-.26.32.32,0,0,0-.33-.32.46.46,0,0,0-.45.47c0,.49,1,.74,1,.74" style="fill:#a7a3a4"/></svg>