<svg xmlns="http://www.w3.org/2000/svg" viewBox="0 0 104.95 56.81"><title>Asset 16</title><path d="M53.5,0V28.42H78.2V0ZM72.63,8.93l-.23.23H67.48v10.1H72.4l.23.23V22l-.23.23H59.3L59.07,22V19.49l.23-.23h4.92V9.16H59.3l-.23-.23V6.39l.23-.23H72.4l.23.23Z" style="fill:#a7a3a5"/><path d="M80.25,0V28.42h24.7V0ZM99.38,8.93l-.23.23H94.23v10.1h4.92l.23.23V22l-.23.23H86.05L85.82,22V19.49l.23-.23H91V9.16H86.05l-.23-.23V6.39l.23-.23h13.1l.23.23Z" style="fill:#a7a3a5"/><path d="M26.75,0V28.42H51.45V0ZM45.86,22l-.23.23H42.82L42.6,22V18.12l-7-5.1v9l-.23.23H32.57L32.34,22V6.4l.23-.23h2.81l.23.23V9l7,5.1V6.4l.23-.23h2.81l.23.23Z" style="fill:#a7a3a5"/><polygon points="15.86 16.55 12.46 10.24 12.23 10.24 8.83 16.55 8.83 16.56 15.86 16.56 15.86 16.55" style="fill:#a7a3a5"/><path d="M0,0V28.42H24.69V0ZM19.13,22l-.23.23h-2.8L15.86,22V19.55h-7V22l-.23.23H5.8L5.57,22v-6.3l5.06-9.33.3-.23h2.84l.3.23,5.06,9.33Z" style="fill:#a7a3a5"/><rect x="8.22" y="16.56" width="0.61" height="2.99" style="fill:#a7a3a5"/><rect x="15.86" y="16.56" width="0.61" height="2.99" style="fill:#a7a3a5"/><path d="M2.12,34.87q.21.34.44.76a9.43,9.43,0,0,1,.44.91,7.22,7.22,0,0,1,.34,1,4.3,4.3,0,0,1,.14,1.07v1.09a.2.2,0,0,1-.2.2H3a.2.2,0,0,1-.2-.2v-1H.64v1a.2.2,0,0,1-.2.2H.2a.19.19,0,0,1-.14-.06A.19.19,0,0,1,0,39.71V38.63a4.3,4.3,0,0,1,.13-1.07,7.26,7.26,0,0,1,.34-1,9.38,9.38,0,0,1,.44-.91q.24-.42.44-.76a.86.86,0,0,1,.11-.14.19.19,0,0,1,.14-.06h.25a.19.19,0,0,1,.14.06A.86.86,0,0,1,2.12,34.87Zm.67,3.2a5,5,0,0,0-.21-.85,7.89,7.89,0,0,0-.3-.76q-.16-.35-.31-.61l-.22-.39h0l-.22.39q-.15.26-.31.61a7.83,7.83,0,0,0-.3.76,4.94,4.94,0,0,0-.21.85Z" style="fill:#a7a3a5"/><path d="M8.38,37.6a5.86,5.86,0,0,1,0,.66,2.66,2.66,0,0,1-.1.5,1.71,1.71,0,0,1-.66.92A1.94,1.94,0,0,1,6.46,40a2,2,0,0,1-1.14-.31,1.7,1.7,0,0,1-.67-.92,1.79,1.79,0,0,1-.06-.24q0-.12,0-.29t0-.4q0-.23,0-.56t0-.56q0-.23,0-.4t0-.29a1.79,1.79,0,0,1,.06-.24,1.7,1.7,0,0,1,.66-.92,2,2,0,0,1,1.13-.31,1.9,1.9,0,0,1,1.06.27,1.87,1.87,0,0,1,.63.66.2.2,0,0,1,0,.15.19.19,0,0,1-.1.12l-.24.12a.18.18,0,0,1-.27-.08,1.25,1.25,0,0,0-.44-.45,1.31,1.31,0,0,0-.65-.15,1.23,1.23,0,0,0-.73.2,1.11,1.11,0,0,0-.41.58l0,.17a1.73,1.73,0,0,0,0,.25c0,.1,0,.22,0,.36s0,.31,0,.51,0,.37,0,.51,0,.26,0,.36a1.72,1.72,0,0,0,0,.25l0,.17a1.11,1.11,0,0,0,.41.58,1.23,1.23,0,0,0,.73.2,1.27,1.27,0,0,0,.7-.19,1,1,0,0,0,.42-.56,2.57,2.57,0,0,0,.07-.33,3.31,3.31,0,0,0,0-.49,0,0,0,0,0,0,0h-.9a.2.2,0,0,1-.2-.2v-.2a.2.2,0,0,1,.2-.2H8.18a.2.2,0,0,1,.14.06.19.19,0,0,1,.06.14Z" style="fill:#a7a3a5"/><path d="M9.69,39.92a.2.2,0,0,1-.14-.06.19.19,0,0,1-.06-.14V34.87a.19.19,0,0,1,.06-.14.2.2,0,0,1,.14-.06H12.6a.2.2,0,0,1,.2.2v.24a.2.2,0,0,1-.2.2H10.23a0,0,0,0,0,0,0V36.9a0,0,0,0,0,0,0h2a.2.2,0,0,1,.2.2v.24a.2.2,0,0,1-.2.2h-2a0,0,0,0,0,0,0v1.6a0,0,0,0,0,0,0H12.6a.2.2,0,0,1,.2.2v.24a.2.2,0,0,1-.2.2Z" style="fill:#a7a3a5"/><path d="M16.94,34.87a.19.19,0,0,1,.06-.14.2.2,0,0,1,.14-.06h.24a.2.2,0,0,1,.14.06.19.19,0,0,1,.06.14v4.85a.19.19,0,0,1-.06.14.2.2,0,0,1-.14.06h-.24a.2.2,0,0,1-.14-.06.19.19,0,0,1-.06-.14v-1L14.5,36.47h0v3.24a.19.19,0,0,1-.06.14.2.2,0,0,1-.14.06H14a.2.2,0,0,1-.14-.06.19.19,0,0,1-.06-.14V34.87a.19.19,0,0,1,.06-.14.2.2,0,0,1,.14-.06h.24a.2.2,0,0,1,.14.06.19.19,0,0,1,.06.14v.66l2.43,2.23h0Z" style="fill:#a7a3a5"/><path d="M22.2,39.06a1.71,1.71,0,0,1-.65.7,1.87,1.87,0,0,1-1,.24,1.9,1.9,0,0,1-1.1-.3,1.71,1.71,0,0,1-.65-.93,2.3,2.3,0,0,1-.07-.24,2.23,2.23,0,0,1,0-.29q0-.17,0-.4t0-.56q0-.32,0-.56t0-.4a2.23,2.23,0,0,1,0-.29,2.33,2.33,0,0,1,.07-.24,1.71,1.71,0,0,1,.65-.93,1.9,1.9,0,0,1,1.1-.3,1.87,1.87,0,0,1,1,.24,1.71,1.71,0,0,1,.65.7.2.2,0,0,1,0,.15.18.18,0,0,1-.1.12l-.24.12a.22.22,0,0,1-.15,0,.17.17,0,0,1-.12-.1,1.21,1.21,0,0,0-.4-.44,1.29,1.29,0,0,0-1.32,0,1.2,1.2,0,0,0-.39.57c0,.06,0,.12,0,.18a2.07,2.07,0,0,0,0,.24q0,.14,0,.35t0,.52q0,.31,0,.52t0,.35a2.22,2.22,0,0,0,0,.24,1.68,1.68,0,0,0,0,.18,1.2,1.2,0,0,0,.39.57,1.11,1.11,0,0,0,.69.2,1.1,1.1,0,0,0,.63-.17,1.28,1.28,0,0,0,.4-.44.19.19,0,0,1,.12-.1.21.21,0,0,1,.15,0l.24.12a.19.19,0,0,1,.1.12A.2.2,0,0,1,22.2,39.06Z" style="fill:#a7a3a5"/><path d="M24.58,34.67a.2.2,0,0,1,.2.2v.24a.2.2,0,0,1-.2.2h-.39v4h.39a.2.2,0,0,1,.2.2v.24a.2.2,0,0,1-.2.2H23.11a.2.2,0,0,1-.2-.2v-.24a.2.2,0,0,1,.2-.2h.39v-4h-.39a.2.2,0,0,1-.2-.2v-.24a.2.2,0,0,1,.2-.2Z" style="fill:#a7a3a5"/><path d="M27.77,34.87q.21.34.44.76a9.38,9.38,0,0,1,.44.91,7.25,7.25,0,0,1,.34,1,4.31,4.31,0,0,1,.13,1.07v1.09a.2.2,0,0,1-.2.2h-.24a.2.2,0,0,1-.2-.2v-1h-2.2v1a.2.2,0,0,1-.2.2h-.24a.2.2,0,0,1-.2-.2V38.63a4.3,4.3,0,0,1,.13-1.07,7.23,7.23,0,0,1,.34-1,9.33,9.33,0,0,1,.44-.91q.24-.42.44-.76a.85.85,0,0,1,.11-.14.19.19,0,0,1,.14-.06h.25a.19.19,0,0,1,.14.06A.85.85,0,0,1,27.77,34.87Zm.67,3.2a5,5,0,0,0-.21-.85,8,8,0,0,0-.3-.76q-.16-.35-.31-.61l-.22-.39h0l-.22.39q-.15.26-.31.61a7.83,7.83,0,0,0-.3.76,5,5,0,0,0-.21.85Z" style="fill:#a7a3a5"/><path d="M35.32,34.87a.19.19,0,0,1,.06-.14.2.2,0,0,1,.14-.06h.24a.2.2,0,0,1,.14.06.19.19,0,0,1,.06.14v4.85a.19.19,0,0,1-.06.14.2.2,0,0,1-.14.06h-.24a.2.2,0,0,1-.14-.06.19.19,0,0,1-.06-.14v-1l-2.44-2.22h0v3.24a.19.19,0,0,1-.06.14.2.2,0,0,1-.14.06h-.24a.2.2,0,0,1-.14-.06.19.19,0,0,1-.06-.14V34.87a.19.19,0,0,1,.06-.14.2.2,0,0,1,.14-.06h.24a.2.2,0,0,1,.14.06.19.19,0,0,1,.06.14v.66l2.43,2.23h0Z" style="fill:#a7a3a5"/><path d="M39.3,34.87q.21.34.44.76a9.37,9.37,0,0,1,.44.91,7.29,7.29,0,0,1,.34,1,4.31,4.31,0,0,1,.13,1.07v1.09a.2.2,0,0,1-.2.2h-.24a.2.2,0,0,1-.2-.2v-1h-2.2v1a.2.2,0,0,1-.2.2h-.24a.2.2,0,0,1-.2-.2V38.63a4.31,4.31,0,0,1,.13-1.07,7.25,7.25,0,0,1,.34-1,9.43,9.43,0,0,1,.44-.91q.24-.42.44-.76a.85.85,0,0,1,.11-.14.19.19,0,0,1,.14-.06H39a.2.2,0,0,1,.14.06A.86.86,0,0,1,39.3,34.87Zm.67,3.2a5,5,0,0,0-.21-.85,8,8,0,0,0-.3-.76q-.16-.35-.31-.61l-.22-.39h0l-.22.39q-.15.26-.31.61a7.84,7.84,0,0,0-.3.76,5,5,0,0,0-.21.85Z" style="fill:#a7a3a5"/><path d="M45.05,39.06a1.71,1.71,0,0,1-.65.7,1.87,1.87,0,0,1-1,.24,1.9,1.9,0,0,1-1.1-.3,1.71,1.71,0,0,1-.65-.93,2.3,2.3,0,0,1-.07-.24,2.27,2.27,0,0,1,0-.29q0-.17,0-.4t0-.56q0-.32,0-.56t0-.4a2.28,2.28,0,0,1,0-.29,2.34,2.34,0,0,1,.07-.24,1.71,1.71,0,0,1,.65-.93,1.9,1.9,0,0,1,1.1-.3,1.87,1.87,0,0,1,1,.24,1.71,1.71,0,0,1,.65.7.2.2,0,0,1,0,.15.19.19,0,0,1-.1.12l-.24.12a.22.22,0,0,1-.15,0,.17.17,0,0,1-.12-.1,1.21,1.21,0,0,0-.4-.44,1.29,1.29,0,0,0-1.32,0,1.2,1.2,0,0,0-.39.57c0,.06,0,.12,0,.18a2.11,2.11,0,0,0,0,.24c0,.1,0,.21,0,.35s0,.32,0,.52,0,.38,0,.52,0,.26,0,.35a2.26,2.26,0,0,0,0,.24,1.69,1.69,0,0,0,0,.18,1.2,1.2,0,0,0,.39.57,1.11,1.11,0,0,0,.69.2,1.1,1.1,0,0,0,.63-.17,1.28,1.28,0,0,0,.4-.44.19.19,0,0,1,.12-.1.21.21,0,0,1,.15,0l.24.12a.19.19,0,0,1,.1.12A.2.2,0,0,1,45.05,39.06Z" style="fill:#a7a3a5"/><path d="M47.43,34.67a.2.2,0,0,1,.2.2v.24a.2.2,0,0,1-.2.2H47v4h.39a.2.2,0,0,1,.2.2v.24a.2.2,0,0,1-.2.2H46a.2.2,0,0,1-.2-.2v-.24a.2.2,0,0,1,.2-.2h.39v-4H46a.2.2,0,0,1-.2-.2v-.24a.2.2,0,0,1,.2-.2Z" style="fill:#a7a3a5"/><path d="M50.32,40a2,2,0,0,1-1.12-.31,1.7,1.7,0,0,1-.66-.92,2.33,2.33,0,0,1-.07-.24,2.42,2.42,0,0,1,0-.29q0-.17,0-.4t0-.56q0-.32,0-.56t0-.4a2.42,2.42,0,0,1,0-.29,2.33,2.33,0,0,1,.07-.24,1.7,1.7,0,0,1,.66-.92,2.21,2.21,0,0,1,2.25,0,1.7,1.7,0,0,1,.66.92,2.28,2.28,0,0,1,.07.24,2.48,2.48,0,0,1,0,.29q0,.17,0,.4t0,.56q0,.32,0,.56t0,.4a2.47,2.47,0,0,1,0,.29,2.28,2.28,0,0,1-.07.24,1.7,1.7,0,0,1-.66.92A2,2,0,0,1,50.32,40Zm0-.64a1.2,1.2,0,0,0,.72-.2,1.11,1.11,0,0,0,.4-.58,1.34,1.34,0,0,0,0-.17q0-.1,0-.26t0-.36q0-.21,0-.49t0-.49q0-.21,0-.36t0-.26a1.32,1.32,0,0,0,0-.17,1.12,1.12,0,0,0-.4-.58,1.2,1.2,0,0,0-.72-.2,1.18,1.18,0,0,0-.71.2,1.13,1.13,0,0,0-.4.58,1.26,1.26,0,0,0,0,.17q0,.1,0,.26t0,.36q0,.21,0,.49t0,.49q0,.21,0,.36t0,.26a1.28,1.28,0,0,0,0,.17,1.13,1.13,0,0,0,.4.58A1.18,1.18,0,0,0,50.32,39.36Z" style="fill:#a7a3a5"/><path d="M56.47,34.87a.19.19,0,0,1,.06-.14.2.2,0,0,1,.14-.06h.24a.2.2,0,0,1,.14.06.19.19,0,0,1,.06.14v4.85a.19.19,0,0,1-.06.14.2.2,0,0,1-.14.06h-.24a.2.2,0,0,1-.14-.06.19.19,0,0,1-.06-.14v-1L54,36.47h0v3.24a.19.19,0,0,1-.06.14.2.2,0,0,1-.14.06h-.24a.2.2,0,0,1-.14-.06.19.19,0,0,1-.06-.14V34.87a.19.19,0,0,1,.06-.14.2.2,0,0,1,.14-.06h.24a.2.2,0,0,1,.14.06.19.19,0,0,1,.06.14v.66l2.43,2.23h0Z" style="fill:#a7a3a5"/><path d="M60.45,34.87q.21.34.44.76a9.43,9.43,0,0,1,.44.91,7.26,7.26,0,0,1,.34,1,4.3,4.3,0,0,1,.13,1.07v1.09a.2.2,0,0,1-.2.2h-.24a.2.2,0,0,1-.2-.2v-1H59v1a.2.2,0,0,1-.2.2h-.24a.2.2,0,0,1-.2-.2V38.63a4.3,4.3,0,0,1,.13-1.07,7.26,7.26,0,0,1,.34-1,9.43,9.43,0,0,1,.44-.91q.24-.42.44-.76a.84.84,0,0,1,.11-.14.19.19,0,0,1,.14-.06h.25a.2.2,0,0,1,.14.06A.88.88,0,0,1,60.45,34.87Zm.67,3.2a5,5,0,0,0-.21-.85,8,8,0,0,0-.3-.76q-.16-.35-.31-.61l-.22-.39h0l-.22.39q-.15.26-.31.61a8,8,0,0,0-.3.76,5,5,0,0,0-.21.85Z" style="fill:#a7a3a5"/><path d="M63,34.87a.19.19,0,0,1,.06-.14.2.2,0,0,1,.14-.06h.29a.2.2,0,0,1,.14.06.19.19,0,0,1,.06.14v4.36a0,0,0,0,0,0,0h2.38a.2.2,0,0,1,.2.2v.24a.2.2,0,0,1-.2.2H63.24a.2.2,0,0,1-.14-.06.19.19,0,0,1-.06-.14Z" style="fill:#a7a3a5"/><path d="M.28,48.32a.2.2,0,0,1-.2-.2V43.27a.2.2,0,0,1,.2-.2H1.92a1.6,1.6,0,0,1,1.71,1.12l.06.22a2.54,2.54,0,0,1,0,.29q0,.17,0,.41t0,.59q0,.35,0,.59t0,.41a2.53,2.53,0,0,1,0,.29l-.06.22a1.6,1.6,0,0,1-1.71,1.12Zm.49-.69a0,0,0,0,0,0,0h1a1.55,1.55,0,0,0,.77-.17A1,1,0,0,0,3,47l0-.16a1.53,1.53,0,0,0,0-.24c0-.1,0-.21,0-.35s0-.31,0-.52,0-.38,0-.52,0-.26,0-.35a1.52,1.52,0,0,0,0-.24l0-.16a1,1,0,0,0-.42-.55,1.55,1.55,0,0,0-.77-.17h-1a0,0,0,0,0,0,0Z" style="fill:#a7a3a5"/><path d="M5.09,48.32a.2.2,0,0,1-.14-.06.19.19,0,0,1-.06-.14V43.27a.19.19,0,0,1,.06-.14.2.2,0,0,1,.14-.06H8a.2.2,0,0,1,.2.2v.24a.2.2,0,0,1-.2.2H5.63a0,0,0,0,0,0,0V45.3a0,0,0,0,0,0,0h2a.2.2,0,0,1,.2.2v.24a.2.2,0,0,1-.2.2h-2a0,0,0,0,0,0,0v1.6a0,0,0,0,0,0,0H8a.2.2,0,0,1,.2.2v.24a.2.2,0,0,1-.2.2Z" style="fill:#a7a3a5"/><path d="M12.41,43.07a.2.2,0,0,1,.2.2v.24a.2.2,0,0,1-.2.2H12v4h.39a.2.2,0,0,1,.2.2v.24a.2.2,0,0,1-.2.2H10.94a.2.2,0,0,1-.2-.2v-.24a.2.2,0,0,1,.2-.2h.39v-4h-.39a.2.2,0,0,1-.2-.2v-.24a.2.2,0,0,1,.2-.2Z" style="fill:#a7a3a5"/><path d="M16.67,43.27a.19.19,0,0,1,.06-.14.2.2,0,0,1,.14-.06h.24a.2.2,0,0,1,.14.06.19.19,0,0,1,.06.14v4.85a.19.19,0,0,1-.06.14.2.2,0,0,1-.14.06h-.24a.2.2,0,0,1-.14-.06.19.19,0,0,1-.06-.14v-1l-2.44-2.22h0v3.24a.19.19,0,0,1-.06.14.2.2,0,0,1-.14.06h-.24a.2.2,0,0,1-.14-.06.19.19,0,0,1-.06-.14V43.27a.19.19,0,0,1,.06-.14.2.2,0,0,1,.14-.06H14a.2.2,0,0,1,.14.06.19.19,0,0,1,.06.14v.66l2.43,2.23h0Z" style="fill:#a7a3a5"/><path d="M19,44.35a4.15,4.15,0,0,0,.15,1.06,7.17,7.17,0,0,0,.33.95,7.73,7.73,0,0,0,.36.74l.25.44h0l.25-.44a7.62,7.62,0,0,0,.36-.74,7.26,7.26,0,0,0,.33-.95,4.19,4.19,0,0,0,.15-1.06V43.27a.2.2,0,0,1,.2-.2h.24a.2.2,0,0,1,.2.2v1.09a4.3,4.3,0,0,1-.14,1.07,7.25,7.25,0,0,1-.34,1,9.86,9.86,0,0,1-.44.91q-.24.43-.44.76a.83.83,0,0,1-.11.14.19.19,0,0,1-.14.06H20a.19.19,0,0,1-.14-.06.81.81,0,0,1-.11-.14q-.21-.33-.44-.76a9.64,9.64,0,0,1-.44-.91,7.16,7.16,0,0,1-.34-1,4.3,4.3,0,0,1-.13-1.07V43.27a.2.2,0,0,1,.2-.2h.24a.2.2,0,0,1,.2.2Z" style="fill:#a7a3a5"/><path d="M23.15,48.32a.2.2,0,0,1-.14-.06.19.19,0,0,1-.06-.14V43.27a.19.19,0,0,1,.06-.14.2.2,0,0,1,.14-.06h2.92a.2.2,0,0,1,.2.2v.24a.2.2,0,0,1-.2.2H23.69a0,0,0,0,0,0,0V45.3a0,0,0,0,0,0,0h2a.2.2,0,0,1,.2.2v.24a.2.2,0,0,1-.2.2h-2a0,0,0,0,0,0,0v1.6a0,0,0,0,0,0,0h2.38a.2.2,0,0,1,.2.2v.24a.2.2,0,0,1-.2.2Z" style="fill:#a7a3a5"/><path d="M27.58,47.3a3.1,3.1,0,0,0,.61.32,2,2,0,0,0,.76.14,1.32,1.32,0,0,0,.85-.25.79.79,0,0,0,.3-.65.84.84,0,0,0-.05-.31.61.61,0,0,0-.18-.25,1.11,1.11,0,0,0-.34-.19A2.37,2.37,0,0,0,29,46l-.26,0q-1.54-.21-1.54-1.45a1.62,1.62,0,0,1,.12-.63,1.34,1.34,0,0,1,.34-.49,1.55,1.55,0,0,1,.54-.31,2.19,2.19,0,0,1,.71-.11,2.91,2.91,0,0,1,1.47.4.2.2,0,0,1,.1.12.22.22,0,0,1,0,.15l-.13.22a.17.17,0,0,1-.12.1.23.23,0,0,1-.16,0,3,3,0,0,0-.57-.25,2,2,0,0,0-.59-.08,1.05,1.05,0,0,0-.74.24.8.8,0,0,0-.25.61.69.69,0,0,0,.25.54,1.7,1.7,0,0,0,.86.3l.25,0a2.11,2.11,0,0,1,1.16.46,1.29,1.29,0,0,1,.39,1,1.65,1.65,0,0,1-.12.64,1.3,1.3,0,0,1-.36.5,1.78,1.78,0,0,1-.6.33,2.63,2.63,0,0,1-.83.12,2.87,2.87,0,0,1-1-.17,2.71,2.71,0,0,1-.77-.41.24.24,0,0,1-.07-.14.17.17,0,0,1,.05-.15l.19-.22a.2.2,0,0,1,.14-.07A.19.19,0,0,1,27.58,47.3Z" style="fill:#a7a3a5"/><path d="M31.48,43.71a.2.2,0,0,1-.2-.2v-.24a.2.2,0,0,1,.2-.2H34.9a.2.2,0,0,1,.2.2v.24a.2.2,0,0,1-.2.2H33.58a0,0,0,0,0,0,0v4.36a.19.19,0,0,1-.06.14.2.2,0,0,1-.14.06H33a.2.2,0,0,1-.14-.06.19.19,0,0,1-.06-.14V43.76a0,0,0,0,0,0,0Z" style="fill:#a7a3a5"/><path d="M37.23,43.07a.2.2,0,0,1,.2.2v.24a.2.2,0,0,1-.2.2h-.39v4h.39a.2.2,0,0,1,.2.2v.24a.2.2,0,0,1-.2.2H35.77a.2.2,0,0,1-.2-.2v-.24a.2.2,0,0,1,.2-.2h.39v-4h-.39a.2.2,0,0,1-.2-.2v-.24a.2.2,0,0,1,.2-.2Z" style="fill:#a7a3a5"/><path d="M42.06,46a5.86,5.86,0,0,1,0,.66,2.69,2.69,0,0,1-.1.5,1.71,1.71,0,0,1-.66.92,1.94,1.94,0,0,1-1.13.32A2,2,0,0,1,39,48.1a1.7,1.7,0,0,1-.67-.92,1.83,1.83,0,0,1-.06-.24c0-.08,0-.18,0-.29s0-.24,0-.4,0-.34,0-.56,0-.4,0-.56,0-.29,0-.4,0-.21,0-.29a1.83,1.83,0,0,1,.06-.24A1.7,1.7,0,0,1,39,43.3,2,2,0,0,1,40.14,43a1.91,1.91,0,0,1,1.06.27,1.86,1.86,0,0,1,.63.66.2.2,0,0,1,0,.15.19.19,0,0,1-.1.12l-.24.12a.18.18,0,0,1-.27-.08,1.25,1.25,0,0,0-.44-.45,1.31,1.31,0,0,0-.65-.15,1.23,1.23,0,0,0-.73.2,1.11,1.11,0,0,0-.4.58s0,.1,0,.17a1.72,1.72,0,0,0,0,.25q0,.15,0,.36t0,.51q0,.3,0,.51t0,.36a1.73,1.73,0,0,0,0,.25q0,.1,0,.17a1.11,1.11,0,0,0,.4.58,1.23,1.23,0,0,0,.73.2,1.27,1.27,0,0,0,.7-.19,1,1,0,0,0,.42-.56,2.64,2.64,0,0,0,.07-.33,3.32,3.32,0,0,0,0-.49,0,0,0,0,0,0,0h-.9a.2.2,0,0,1-.2-.2v-.2a.2.2,0,0,1,.2-.2h1.43a.2.2,0,0,1,.14.06.19.19,0,0,1,.06.14Z" style="fill:#a7a3a5"/><path d="M45.05,43.27q.21.34.44.76a9.44,9.44,0,0,1,.44.91,7.24,7.24,0,0,1,.34,1A4.3,4.3,0,0,1,46.41,47v1.09a.2.2,0,0,1-.2.2H46a.2.2,0,0,1-.2-.2v-1h-2.2v1a.2.2,0,0,1-.2.2h-.24a.2.2,0,0,1-.2-.2V47A4.3,4.3,0,0,1,43.07,46a7.19,7.19,0,0,1,.34-1,9.27,9.27,0,0,1,.44-.91q.24-.42.44-.76a.81.81,0,0,1,.11-.14.19.19,0,0,1,.14-.06h.25a.19.19,0,0,1,.14.06A.83.83,0,0,1,45.05,43.27Zm.67,3.2a5,5,0,0,0-.21-.85,8,8,0,0,0-.3-.76q-.16-.35-.31-.61l-.22-.39h0l-.22.39q-.15.26-.31.61a8,8,0,0,0-.3.76,4.94,4.94,0,0,0-.21.85Z" style="fill:#a7a3a5"/><path d="M50.8,47.46a1.71,1.71,0,0,1-.65.7,1.87,1.87,0,0,1-1,.24,1.9,1.9,0,0,1-1.1-.3,1.71,1.71,0,0,1-.65-.93,2.38,2.38,0,0,1-.07-.24,2.15,2.15,0,0,1,0-.29q0-.17,0-.4t0-.56q0-.32,0-.56c0-.15,0-.29,0-.4a2.16,2.16,0,0,1,0-.29,2.38,2.38,0,0,1,.07-.24,1.71,1.71,0,0,1,.65-.93,1.9,1.9,0,0,1,1.1-.3,1.87,1.87,0,0,1,1,.24,1.72,1.72,0,0,1,.65.7.21.21,0,0,1,0,.15.19.19,0,0,1-.1.12l-.24.12a.22.22,0,0,1-.15,0,.17.17,0,0,1-.12-.1,1.2,1.2,0,0,0-.4-.44,1.29,1.29,0,0,0-1.32,0,1.2,1.2,0,0,0-.39.57l0,.18a2.11,2.11,0,0,0,0,.24q0,.14,0,.35c0,.14,0,.32,0,.52s0,.38,0,.52,0,.26,0,.36a2.28,2.28,0,0,0,0,.24,1.82,1.82,0,0,0,0,.18,1.2,1.2,0,0,0,.39.57,1.11,1.11,0,0,0,.69.2,1.1,1.1,0,0,0,.63-.17,1.29,1.29,0,0,0,.4-.44.19.19,0,0,1,.12-.1.21.21,0,0,1,.15,0l.24.12a.19.19,0,0,1,.1.12A.21.21,0,0,1,50.8,47.46Z" style="fill:#a7a3a5"/><path d="M53.18,43.07a.2.2,0,0,1,.2.2v.24a.2.2,0,0,1-.2.2h-.39v4h.39a.2.2,0,0,1,.2.2v.24a.2.2,0,0,1-.2.2H51.71a.2.2,0,0,1-.2-.2v-.24a.2.2,0,0,1,.2-.2h.39v-4h-.39a.2.2,0,0,1-.2-.2v-.24a.2.2,0,0,1,.2-.2Z" style="fill:#a7a3a5"/><path d="M56.07,48.4a2,2,0,0,1-1.12-.31,1.7,1.7,0,0,1-.66-.92,2.35,2.35,0,0,1-.07-.24,2.43,2.43,0,0,1,0-.29q0-.17,0-.4t0-.56q0-.32,0-.56c0-.15,0-.29,0-.4a2.43,2.43,0,0,1,0-.29,2.34,2.34,0,0,1,.07-.24,1.7,1.7,0,0,1,.66-.92,2.21,2.21,0,0,1,2.25,0,1.7,1.7,0,0,1,.66.92,2.33,2.33,0,0,1,.07.24,2.53,2.53,0,0,1,0,.29c0,.11,0,.24,0,.4s0,.34,0,.56,0,.4,0,.56,0,.29,0,.4a2.52,2.52,0,0,1,0,.29,2.35,2.35,0,0,1-.07.24,1.7,1.7,0,0,1-.66.92A2,2,0,0,1,56.07,48.4Zm0-.64a1.2,1.2,0,0,0,.72-.2,1.12,1.12,0,0,0,.4-.58,1.37,1.37,0,0,0,0-.17c0-.07,0-.16,0-.26s0-.22,0-.36,0-.3,0-.49,0-.36,0-.49,0-.26,0-.36,0-.19,0-.26a1.39,1.39,0,0,0,0-.17,1.12,1.12,0,0,0-.4-.58,1.2,1.2,0,0,0-.72-.2,1.18,1.18,0,0,0-.71.2,1.13,1.13,0,0,0-.4.58,1.32,1.32,0,0,0,0,.17q0,.1,0,.26c0,.1,0,.22,0,.36s0,.3,0,.49,0,.35,0,.49,0,.26,0,.36,0,.19,0,.26A1.3,1.3,0,0,0,55,47a1.13,1.13,0,0,0,.4.58A1.18,1.18,0,0,0,56.07,47.76Zm-.17-5.33q-.08,0-.1-.05a.12.12,0,0,1,0-.1l.49-.79a.29.29,0,0,1,.26-.15H57a.12.12,0,0,1,.1.05s0,.08,0,.13l-.57.76a.49.49,0,0,1-.12.11.3.3,0,0,1-.17,0Z" style="fill:#a7a3a5"/><path d="M62.22,43.27a.19.19,0,0,1,.06-.14.2.2,0,0,1,.14-.06h.24a.2.2,0,0,1,.14.06.19.19,0,0,1,.06.14v4.85a.19.19,0,0,1-.06.14.2.2,0,0,1-.14.06h-.24a.2.2,0,0,1-.14-.06.19.19,0,0,1-.06-.14v-1l-2.44-2.22h0v3.24a.19.19,0,0,1-.06.14.2.2,0,0,1-.14.06h-.24a.2.2,0,0,1-.14-.06.19.19,0,0,1-.06-.14V43.27a.19.19,0,0,1,.06-.14.2.2,0,0,1,.14-.06h.24a.2.2,0,0,1,.14.06.19.19,0,0,1,.06.14v.66l2.43,2.23h0Z" style="fill:#a7a3a5"/><path d="M.28,56.72a.2.2,0,0,1-.14-.06.19.19,0,0,1-.06-.14V51.68a.19.19,0,0,1,.06-.14.2.2,0,0,1,.14-.06H3.2a.2.2,0,0,1,.2.2v.24a.2.2,0,0,1-.2.2H.82a0,0,0,0,0,0,0v1.54a0,0,0,0,0,0,0h2A.2.2,0,0,1,3,54v.24a.2.2,0,0,1-.2.2h-2a0,0,0,0,0,0,0V56a0,0,0,0,0,0,0H3.2a.2.2,0,0,1,.2.2v.24a.2.2,0,0,1-.2.2Z" style="fill:#a7a3a5"/><path d="M7.6,51.48a.2.2,0,0,1,.2.2v.24a.2.2,0,0,1-.2.2H7.22v4H7.6a.2.2,0,0,1,.2.2v.24a.2.2,0,0,1-.2.2H6.14a.2.2,0,0,1-.2-.2v-.24a.2.2,0,0,1,.2-.2h.39v-4H6.14a.2.2,0,0,1-.2-.2v-.24a.2.2,0,0,1,.2-.2Z" style="fill:#a7a3a5"/><path d="M11.86,51.68a.19.19,0,0,1,.06-.14.2.2,0,0,1,.14-.06h.24a.2.2,0,0,1,.14.06.19.19,0,0,1,.06.14v4.85a.19.19,0,0,1-.06.14.2.2,0,0,1-.14.06h-.24a.2.2,0,0,1-.14-.06.19.19,0,0,1-.06-.14v-1L9.42,53.28h0v3.24a.19.19,0,0,1-.06.14.2.2,0,0,1-.14.06H9a.2.2,0,0,1-.14-.06.19.19,0,0,1-.06-.14V51.68a.19.19,0,0,1,.06-.14A.2.2,0,0,1,9,51.48H9.2a.2.2,0,0,1,.14.06.19.19,0,0,1,.06.14v.66l2.43,2.23h0Z" style="fill:#a7a3a5"/><path d="M16.91,51.68a.19.19,0,0,1,.06-.14.2.2,0,0,1,.14-.06h.24a.2.2,0,0,1,.14.06.19.19,0,0,1,.06.14v4.85a.19.19,0,0,1-.06.14.2.2,0,0,1-.14.06h-.24a.2.2,0,0,1-.14-.06.19.19,0,0,1-.06-.14v-1l-2.44-2.22h0v3.24a.19.19,0,0,1-.06.14.2.2,0,0,1-.14.06H14a.2.2,0,0,1-.14-.06.19.19,0,0,1-.06-.14V51.68a.19.19,0,0,1,.06-.14.2.2,0,0,1,.14-.06h.24a.2.2,0,0,1,.14.06.19.19,0,0,1,.06.14v.66l2.43,2.23h0Z" style="fill:#a7a3a5"/><path d="M20.59,56.81a2,2,0,0,1-1.12-.31,1.7,1.7,0,0,1-.66-.92,2.28,2.28,0,0,1-.07-.24,2.51,2.51,0,0,1,0-.29q0-.17,0-.4t0-.56q0-.32,0-.56t0-.4a2.53,2.53,0,0,1,0-.29,2.29,2.29,0,0,1,.07-.24,1.7,1.7,0,0,1,.66-.92,2.21,2.21,0,0,1,2.25,0,1.71,1.71,0,0,1,.66.92,2.35,2.35,0,0,1,.07.24,2.48,2.48,0,0,1,0,.29c0,.11,0,.24,0,.4s0,.34,0,.56,0,.4,0,.56,0,.29,0,.4a2.47,2.47,0,0,1,0,.29,2.33,2.33,0,0,1-.07.24,1.7,1.7,0,0,1-.66.92A2,2,0,0,1,20.59,56.81Zm0-.64a1.2,1.2,0,0,0,.72-.2,1.11,1.11,0,0,0,.4-.58,1.35,1.35,0,0,0,0-.17c0-.07,0-.16,0-.26s0-.22,0-.36,0-.3,0-.49,0-.36,0-.49,0-.26,0-.36,0-.19,0-.26a1.35,1.35,0,0,0,0-.17,1.11,1.11,0,0,0-.4-.58,1.2,1.2,0,0,0-.72-.2,1.18,1.18,0,0,0-.71.2,1.13,1.13,0,0,0-.4.58,1.34,1.34,0,0,0,0,.17q0,.1,0,.26t0,.36q0,.21,0,.49t0,.49q0,.21,0,.36t0,.26a1.34,1.34,0,0,0,0,.17,1.13,1.13,0,0,0,.4.58A1.18,1.18,0,0,0,20.59,56.17Z" style="fill:#a7a3a5"/><path d="M24,52.76a4.18,4.18,0,0,0,.15,1.06,7.26,7.26,0,0,0,.33.95,7.72,7.72,0,0,0,.36.74l.25.44h0l.25-.44a7.72,7.72,0,0,0,.36-.74,7.25,7.25,0,0,0,.33-.95,4.18,4.18,0,0,0,.15-1.06V51.68a.2.2,0,0,1,.2-.2h.24a.2.2,0,0,1,.2.2v1.09a4.31,4.31,0,0,1-.13,1.07,7.25,7.25,0,0,1-.34,1,9.8,9.8,0,0,1-.44.91q-.24.43-.44.76a.83.83,0,0,1-.11.14.19.19,0,0,1-.14.06H25a.19.19,0,0,1-.14-.06.82.82,0,0,1-.11-.14q-.21-.33-.44-.76a9.74,9.74,0,0,1-.44-.91,7.25,7.25,0,0,1-.34-1,4.31,4.31,0,0,1-.13-1.07V51.68a.2.2,0,0,1,.2-.2h.24a.2.2,0,0,1,.2.2Z" style="fill:#a7a3a5"/><path d="M29.6,51.68q.21.34.44.76a9.38,9.38,0,0,1,.44.91,7.18,7.18,0,0,1,.34,1A4.3,4.3,0,0,1,31,55.44v1.09a.2.2,0,0,1-.2.2h-.24a.19.19,0,0,1-.14-.06.19.19,0,0,1-.06-.14v-1h-2.2v1a.2.2,0,0,1-.2.2h-.24a.2.2,0,0,1-.2-.2V55.44a4.3,4.3,0,0,1,.13-1.07,7.24,7.24,0,0,1,.34-1,9.28,9.28,0,0,1,.44-.91q.24-.42.44-.76a.86.86,0,0,1,.11-.14.19.19,0,0,1,.14-.06h.25a.2.2,0,0,1,.14.06A.86.86,0,0,1,29.6,51.68Zm.67,3.2a5,5,0,0,0-.21-.85,7.92,7.92,0,0,0-.3-.76q-.16-.35-.31-.61l-.22-.39h0l-.22.39q-.15.26-.31.61a7.92,7.92,0,0,0-.3.76,5,5,0,0,0-.21.85Z" style="fill:#a7a3a5"/><path d="M35.35,55.87a1.71,1.71,0,0,1-.65.7,1.87,1.87,0,0,1-1,.24,1.9,1.9,0,0,1-1.1-.3,1.71,1.71,0,0,1-.65-.93,2.39,2.39,0,0,1-.07-.24,2.27,2.27,0,0,1,0-.29q0-.17,0-.4t0-.56q0-.32,0-.56t0-.4a2.28,2.28,0,0,1,0-.29,2.4,2.4,0,0,1,.07-.24,1.71,1.71,0,0,1,.65-.93,1.9,1.9,0,0,1,1.1-.31,1.88,1.88,0,0,1,1,.24,1.71,1.71,0,0,1,.65.7.2.2,0,0,1,0,.15.19.19,0,0,1-.1.12l-.24.12a.22.22,0,0,1-.15,0,.17.17,0,0,1-.12-.1,1.2,1.2,0,0,0-.4-.44,1.29,1.29,0,0,0-1.32,0,1.2,1.2,0,0,0-.39.57c0,.06,0,.12,0,.18a2.06,2.06,0,0,0,0,.24c0,.1,0,.21,0,.35s0,.32,0,.52,0,.38,0,.52,0,.26,0,.36a2.21,2.21,0,0,0,0,.24,1.78,1.78,0,0,0,0,.18A1.2,1.2,0,0,0,33,56a1.11,1.11,0,0,0,.69.2,1.1,1.1,0,0,0,.63-.17,1.28,1.28,0,0,0,.4-.44.19.19,0,0,1,.12-.1.21.21,0,0,1,.15,0l.24.12a.19.19,0,0,1,.1.12A.2.2,0,0,1,35.35,55.87Z" style="fill:#a7a3a5"/><path d="M37.73,51.48a.2.2,0,0,1,.2.2v.24a.2.2,0,0,1-.2.2h-.39v4h.39a.2.2,0,0,1,.2.2v.24a.2.2,0,0,1-.2.2H36.26a.2.2,0,0,1-.2-.2v-.24a.2.2,0,0,1,.2-.2h.39v-4h-.39a.2.2,0,0,1-.2-.2v-.24a.2.2,0,0,1,.2-.2Z" style="fill:#a7a3a5"/><path d="M40.61,56.81a2,2,0,0,1-1.12-.31,1.7,1.7,0,0,1-.66-.92,2.27,2.27,0,0,1-.07-.24,2.37,2.37,0,0,1,0-.29q0-.17,0-.4t0-.56q0-.32,0-.56t0-.4a2.38,2.38,0,0,1,0-.29,2.29,2.29,0,0,1,.07-.24,1.71,1.71,0,0,1,.66-.92,2.21,2.21,0,0,1,2.25,0,1.7,1.7,0,0,1,.66.92,2.3,2.3,0,0,1,.07.24,2.43,2.43,0,0,1,0,.29c0,.11,0,.24,0,.4s0,.34,0,.56,0,.4,0,.56,0,.29,0,.4a2.42,2.42,0,0,1,0,.29,2.28,2.28,0,0,1-.07.24,1.7,1.7,0,0,1-.66.92A2,2,0,0,1,40.61,56.81Zm0-.64a1.2,1.2,0,0,0,.72-.2,1.12,1.12,0,0,0,.4-.58,1.31,1.31,0,0,0,0-.17q0-.1,0-.26t0-.36c0-.14,0-.3,0-.49s0-.36,0-.49,0-.26,0-.36,0-.19,0-.26a1.31,1.31,0,0,0,0-.17,1.12,1.12,0,0,0-.4-.58,1.2,1.2,0,0,0-.72-.2,1.18,1.18,0,0,0-.71.2,1.13,1.13,0,0,0-.4.58,1.27,1.27,0,0,0,0,.17c0,.07,0,.16,0,.26s0,.22,0,.36,0,.3,0,.49,0,.36,0,.49,0,.26,0,.36,0,.19,0,.26a1.27,1.27,0,0,0,0,.17,1.12,1.12,0,0,0,.4.58A1.18,1.18,0,0,0,40.61,56.17Zm-.17-5.33c-.06,0-.09,0-.1-.05a.11.11,0,0,1,0-.1l.49-.8a.29.29,0,0,1,.26-.15h.39a.12.12,0,0,1,.1.05s0,.08,0,.14l-.57.76a.49.49,0,0,1-.12.11.3.3,0,0,1-.17,0Z" style="fill:#a7a3a5"/><path d="M46.77,51.68a.19.19,0,0,1,.06-.14.2.2,0,0,1,.14-.06h.24a.2.2,0,0,1,.14.06.19.19,0,0,1,.06.14v4.85a.19.19,0,0,1-.06.14.2.2,0,0,1-.14.06H47a.2.2,0,0,1-.14-.06.19.19,0,0,1-.06-.14v-1l-2.44-2.22h0v3.24a.19.19,0,0,1-.06.14.2.2,0,0,1-.14.06h-.24a.2.2,0,0,1-.14-.06.19.19,0,0,1-.06-.14V51.68a.19.19,0,0,1,.06-.14.2.2,0,0,1,.14-.06h.24a.2.2,0,0,1,.14.06.19.19,0,0,1,.06.14v.66l2.43,2.23h0Z" style="fill:#a7a3a5"/></svg>