<svg xmlns="http://www.w3.org/2000/svg" viewBox="0 0 76.62 32.44"><title>Asset 10</title><path d="M52.85,23l-1,2.9H50.52V0h2.86V9.68l.13,0L54,9c2.55-3.79,7.28-3.3,9.85-.87a9.72,9.72,0,0,1,2.84,6.66,12.6,12.6,0,0,1-2,8.6,6.84,6.84,0,0,1-9.51,2A20,20,0,0,1,52.85,23Zm.47-6a24.06,24.06,0,0,0,.53,3.6A4.68,4.68,0,0,0,58.08,24a4.27,4.27,0,0,0,4.5-2.46,9,9,0,0,0,1.06-4.13,12.09,12.09,0,0,0-1-5.9C61.53,9.08,59.17,8.07,56.93,9a5.52,5.52,0,0,0-3.33,4.17A32.17,32.17,0,0,0,53.33,17ZM44.78,25.9H41.91l-.33-3.17a19.15,19.15,0,0,1-1.68,2,7.48,7.48,0,0,1-6.28,1.71,5.8,5.8,0,0,1-4.8-3.09,5.91,5.91,0,0,1,3.29-8.22,14.27,14.27,0,0,1,4.79-1c1.22-.05,2.45,0,3.67,0h1.11c-.13-1.06-.18-2.08-.41-3.05a2.73,2.73,0,0,0-1.93-1.92,7.93,7.93,0,0,0-5.55.1,3.81,3.81,0,0,0-2.35,2.81l-2.7-.46a5.57,5.57,0,0,1,3-4.23,12.38,12.38,0,0,1,6.83-1.06,10.52,10.52,0,0,1,2.11.4c2.26.68,3.23,2.4,3.57,4.58a18.28,18.28,0,0,1,.2,2.56c0,3,0,6,.06,9C44.52,23.84,44.68,24.84,44.78,25.9Zm-3.26-9.65c-1.22,0-2.42-.05-3.61,0a9.57,9.57,0,0,0-4.83,1.27,3.62,3.62,0,0,0-1.67,3.7,3,3,0,0,0,2.64,2.6,8.36,8.36,0,0,0,3.2-.09C40.25,23,42.06,19.81,41.52,16.25ZM0,0H6.61V1.89h-4V30.52h4v1.91H0ZM70,32.44V30.56h4V1.93H70V0h6.64V32.44ZM23.9,25.94H21V0H23.9ZM15.21,21.7v4.23H11.1V21.7Z" style="fill:#a7a3a4"/></svg>