<?xml version="1.0" encoding="utf-8"?>
<!-- Generator: Adobe Illustrator 21.0.0, SVG Export Plug-In . SVG Version: 6.00 Build 0)  -->
<svg version="1.1" id="Layer_1" xmlns="http://www.w3.org/2000/svg" xmlns:xlink="http://www.w3.org/1999/xlink" x="0px" y="0px"
	 viewBox="0 0 119.4 34.6" style="enable-background:new 0 0 119.4 34.6;" xml:space="preserve">
<style type="text/css">
	.st0{fill:#A7A4A5;}
	.st1{fill:#FFFFFF;}
	.st2{fill:#C84034;}
</style>
<path class="st0" d="M61,25.6h-9.6l-2.1,7h-7.4L52.4,2h8L71,32.7h-7.8L61,25.6z M56.2,10.1l-4.1,13.3h8.2L56.2,10.1z"/>
<polygon class="st0" points="72.6,32.7 72.6,30.9 76.9,30.9 76.9,3.8 72.6,3.8 72.6,2 88.6,2 88.6,3.8 84.4,3.8 84.4,30.9 
	88.6,30.9 88.6,32.7 "/>
<path class="st0" d="M109.4,25.6h-9.6l-2.1,7h-7.4L100.8,2h8l10.6,30.7h-7.8L109.4,25.6z M104.6,10.1l-4.1,13.3h8.2L104.6,10.1z"/>
<rect y="0" class="st0" width="34.6" height="34.6"/>
<path class="st1" d="M16.6,18.2c0.1-0.2,0.5-0.5,0.7-0.6c0.3,0.1,0.6,0.4,0.7,0.6c0.1-0.2,0.4-0.5,0.6-0.6c0.2,0.1,0.6,0.3,0.8,0.4
	c-0.5-0.8-1.1-2.2-1.1-2.6c0-0.1,0.1-0.2,0.2-0.2c0.1,0,0.2,0,0.2,0s-0.4-0.8-0.5-1.1c-0.4-0.6-0.6-0.8-1.1-0.8
	c-0.1,0-0.2,0-0.2,0.1c0,0.1,0.6,0.6,0.6,0.7c0,0.1-1-0.1-0.9-0.7c0-0.1,0-0.1,0-0.2c-0.2-0.2-0.7-0.5-1.1-0.5c-0.5,0-0.8,0.5-1,1
	c0,0,0.2-0.1,0.4-0.1c0.2,0,0.4,0.1,0.7,0.4c0.4,0.4,0.6,0.9,0.6,1.6c0,0.9-0.5,1.6-1,2.5c0.2-0.1,0.6-0.4,0.8-0.4
	C16.3,17.7,16.5,18,16.6,18.2"/>
<path class="st1" d="M11.9,5.8h10.8c0.9,0,1.3-0.7,1.3-1.3H10.6C10.6,5.1,11,5.8,11.9,5.8"/>
<path class="st1" d="M14.8,14.1c-0.1,0-0.1,0-0.2,0v0.6c0.3,0.8,0.5,1.5,0.5,2.2c0.2-0.5,0.4-1,0.4-1.4c0-0.6-0.2-0.9-0.4-1.1
	C15,14.1,14.9,14.1,14.8,14.1"/>
<path class="st1" d="M17.3,30.4c0,0,1.6-0.6,1.6-0.9c0-0.2-0.1-0.4-0.2-0.7c-0.1-0.3-0.3-0.6-0.3-0.6l-1-0.2l-1,0.2
	c0,0-0.2,0.3-0.3,0.6c-0.1,0.3-0.2,0.5-0.2,0.7C15.8,29.9,17.3,30.4,17.3,30.4"/>
<path class="st1" d="M18.7,18.2c-0.2,0.1-0.5,0.4-0.6,0.6c-0.2-0.2-0.5-0.5-0.8-0.6c-0.3,0.1-0.6,0.4-0.8,0.6
	c-0.1-0.2-0.4-0.5-0.6-0.6c-1,0.4-1.3,1.4-1.3,2.4c0,1.9,0.9,4,1.4,5.3l0.5-0.1c0.6-0.1,1.1-0.1,1.7,0l0.4,0.1
	c0.6-1.2,1.5-3.4,1.5-5.3C20.1,19.6,19.8,18.6,18.7,18.2"/>
<path class="st1" d="M18.3,26.8c0-0.3-0.1-0.5-0.4-0.5c-0.2,0-0.3,0.1-0.3,0.3c0,0.1,0.1,0.2,0.1,0.5c0,0.3-0.1,0.6-0.1,0.6
	S18.3,27.2,18.3,26.8"/>
<path class="st1" d="M19.3,27c0-0.3-0.1-0.5-0.4-0.5c-0.2,0-0.3,0.1-0.3,0.3c0,0.1,0,0.3,0,0.3c0,0.4,0,0.6,0,0.6S19.3,27.4,19.3,27
	"/>
<path class="st1" d="M20.3,27.2c0-0.2-0.1-0.4-0.4-0.4c-0.2,0-0.2,0.1-0.3,0.3c0,0.1,0,0.2,0,0.2c0,0.3-0.2,0.5-0.2,0.5
	S20.3,27.6,20.3,27.2"/>
<rect x="9.3" y="2" class="st1" width="16" height="1.8"/>
<rect x="9.3" y="30.9" class="st1" width="16" height="1.8"/>
<path class="st1" d="M22.7,29.3c0.7,0.6,2,0.8,2.7,0.8c-0.2-0.4-0.9-1.7-1.6-2.3c-0.4-0.3-0.8-0.6-1.4-0.6c-0.3,0-0.5,0-0.6,0.2
	c0,0.1-0.1,0.2-0.1,0.3C21.7,28.5,22.2,29,22.7,29.3"/>
<path class="st1" d="M27.2,28.7c0.3,0,0.6,0,0.9,0c-0.7-1-1.6-2.2-3-2.2c-0.4,0-0.6,0.1-0.8,0.2c-0.1,0.1-0.1,0.2-0.1,0.3
	C24.3,27.6,25.2,28.7,27.2,28.7"/>
<path class="st1" d="M28.3,26.6c0.6,0,1.3-0.2,1.8-0.4c-0.5-0.4-1.5-1.5-2.8-1.5c-0.2,0-0.5,0-0.7,0.1c-0.1,0.1-0.5,0.2-0.5,0.5
	c0,0.2,0.2,0.5,0.3,0.5C26.8,26.3,27.4,26.6,28.3,26.6"/>
<path class="st1" d="M29.2,24.3c0.8,0,1.6-0.4,2.2-0.7c-0.3-0.2-1.4-0.9-2.3-0.9c-0.4,0-0.8,0.1-1.2,0.3c-0.1,0.1-0.4,0.3-0.4,0.5
	c0,0.1,0.1,0.2,0.1,0.3C28.1,24.2,28.7,24.3,29.2,24.3"/>
<path class="st1" d="M12.9,27.8c0-0.1,0-0.2-0.1-0.3c-0.1-0.2-0.3-0.2-0.6-0.2c-0.5,0-1,0.3-1.4,0.6c-0.7,0.6-1.4,1.9-1.6,2.3
	c0.8-0.1,2-0.3,2.7-0.8C12.4,29,12.9,28.5,12.9,27.8"/>
<path class="st1" d="M10.4,26.9c0-0.1,0-0.2-0.1-0.3c-0.2-0.1-0.4-0.2-0.8-0.2c-1.4,0-2.3,1.3-3,2.2c0.3,0,0.6,0,0.9,0
	C9.4,28.7,10.4,27.6,10.4,26.9"/>
<path class="st1" d="M8.2,25.9c0.1-0.1,0.3-0.3,0.3-0.5c0-0.2-0.3-0.4-0.5-0.5c-0.2-0.1-0.5-0.1-0.7-0.1c-1.2,0-2.3,1-2.8,1.5
	c0.5,0.2,1.2,0.4,1.8,0.4C7.2,26.6,7.9,26.3,8.2,25.9"/>
<path class="st1" d="M7,23.7c0,0,0.1-0.1,0.1-0.3c0-0.2-0.2-0.4-0.3-0.5c-0.3-0.3-0.8-0.3-1.2-0.3c-1,0-2,0.7-2.3,0.9
	c0.6,0.4,1.4,0.7,2.2,0.7C5.9,24.3,6.6,24.2,7,23.7"/>
<path class="st1" d="M21.1,29.8c0.3,0,0.5-0.1,0.7-0.1L20.6,28c-0.4,0.4-1.1,0.5-1.4,0.5c0,0,0.1,0.3,0.3,0.6
	C19.8,29.6,20.4,29.8,21.1,29.8"/>
<path class="st1" d="M15.1,29.1c0.2-0.3,0.3-0.6,0.3-0.6c-0.4,0-1-0.1-1.4-0.5l-1.1,1.7c0.2,0,0.4,0.1,0.7,0.1
	C14.2,29.8,14.9,29.6,15.1,29.1"/>
<path class="st1" d="M10.9,12c0.5,0.8,1.6,2.7,2.2,3.8c0.6,1,1.1,2.7,1.1,3.3c0.1-0.2,0.2-0.8,0.2-1.5c0-0.7-0.2-2-0.9-3.7
	c-0.2-0.5-0.7-1.6-1.7-3.8c-0.7-1.6-0.9-2.5-0.9-3.3c-0.6,0.3-1.1,1.1-1.1,1.9C9.8,9.8,10,10.6,10.9,12"/>
<path class="st1" d="M11.6,17.6c-0.5,0-0.8,0.1-0.9,0.2c0.1,0.4,0.5,0.8,0.8,1c-0.3,0-0.6,0.1-0.9,0.3c0.1,0.5,0.5,0.9,1.1,1.2
	c-0.2,0.2-0.4,0.4-0.4,0.7c0.4,0.4,1.1,0.6,1.7,0.7c-0.2,0.2-0.3,0.4-0.4,0.8c0.4,0.3,1,0.3,1.6,0.3c-0.1-0.6-0.2-1.5-0.2-1.9
	c0-1.4-0.5-2.5-0.8-3c-0.3-0.5-0.6-1.1-1.3-1.3C11.6,16.8,11.6,17.3,11.6,17.6"/>
<path class="st1" d="M12.5,26.5c0.6,0,1.1-0.2,1.6-0.9c0.1-0.1,0.6-0.9,0.6-0.9s-0.4-0.9-0.5-1.3c0,0-1.2,0.9-1.7,1.4
	c-0.4,0.3-1.1,0.9-1.6,1C11.1,26.1,11.9,26.5,12.5,26.5"/>
<path class="st1" d="M10.4,24.9c0.9,0,1.2-0.3,1.6-0.6c0.4-0.3,1.2-0.9,1.2-0.9c-0.4,0-1-0.2-1.2-0.4c0,0-0.9,0.5-1.6,0.7
	c-1,0.3-1.4,0.4-1.6,0.4C8.9,24.5,9.7,24.9,10.4,24.9"/>
<path class="st1" d="M9.1,22.9c0.7,0,2-0.4,2.7-0.8c-0.4,0-0.9-0.2-1.2-0.6c-0.5,0.1-0.9,0.1-1.3,0.1c-1.1,0-1.9-0.3-2.1-0.3
	C7.4,22.4,8.1,23,9.1,22.9"/>
<path class="st1" d="M6.1,18.3c0,1.4,0.9,2.6,3.2,2.6c0.5,0,1.2,0,1.2,0c0-0.1,0.2-0.4,0.3-0.5c-0.3-0.1-2-0.6-2.9-1.1
	c-1-0.5-1.6-1-1.7-1.1C6.1,18.1,6.1,18.2,6.1,18.3"/>
<path class="st1" d="M8.1,16.8c-1.3-1-1.9-1.6-2.1-2c-0.1,0.1-0.1,0.3-0.1,0.8c0,1.1,0.4,2,2.5,3c0.6,0.3,1.7,0.8,1.7,0.8
	c0-0.1,0-0.2,0-0.3c0,0,0.2-0.2,0.5-0.4C10.5,18.6,8.6,17.1,8.1,16.8"/>
<path class="st1" d="M8.2,13.4c-0.9-1.2-1.4-1.9-1.6-2.4c-0.2,0.2-0.3,0.7-0.3,1.3c0,1.6,0.9,2.7,2.1,3.6c0.9,0.7,1.8,1.5,1.8,1.5
	c0,0,0.4-0.3,1.1-0.3C11.1,17.1,8.9,14.3,8.2,13.4"/>
<path class="st1" d="M8.1,6.9C7.5,7.2,7,8.2,7,8.9c0,0.9,0.2,2.1,1.6,3.9c1.1,1.4,2.6,3.2,2.6,3.2c0-0.1,0.1-0.3,0.2-0.4
	c0.3,0,0.6,0.1,0.7,0.2c0,0-2.5-4.3-3.1-5.3C8.3,9,8.1,7.9,8.1,6.9"/>
<path class="st1" d="M24.9,8.7c0-0.8-0.4-1.6-1.1-1.9c0,0.8-0.2,1.7-0.9,3.3c-0.9,2.1-1.4,3.2-1.7,3.8c-0.8,1.8-0.9,3-0.9,3.7
	c0,0.7,0.1,1.3,0.2,1.5c0.1-0.6,0.5-2.3,1.1-3.3c0.6-1.1,1.8-3,2.2-3.8C24.6,10.6,24.8,9.8,24.9,8.7"/>
<path class="st1" d="M25.9,23.9c-0.2,0-0.6-0.1-1.6-0.4c-0.7-0.2-1.6-0.7-1.6-0.7c-0.2,0.3-0.8,0.5-1.2,0.4c0,0,0.8,0.6,1.2,0.9
	c0.4,0.3,0.7,0.6,1.6,0.6C25,24.9,25.7,24.5,25.9,23.9"/>
<path class="st1" d="M27.5,21.4c-0.2,0-1,0.3-2.1,0.3c-0.4,0-0.8-0.1-1.3-0.1c-0.3,0.3-0.8,0.5-1.2,0.6c0.7,0.4,2,0.8,2.7,0.8
	C26.5,23,27.3,22.4,27.5,21.4"/>
<path class="st1" d="M24.1,18.6c0.4,0.1,0.5,0.4,0.5,0.4c0,0.1,0,0.2,0,0.3c0,0,1.1-0.5,1.7-0.8c2.1-1.1,2.5-1.9,2.5-3
	c0-0.4-0.1-0.7-0.1-0.8c-0.2,0.4-0.8,1.1-2.1,2C26,17.1,24.1,18.6,24.1,18.6"/>
<path class="st1" d="M25.6,10.4c-0.6,1.1-3.1,5.3-3.1,5.3c0.1-0.1,0.4-0.2,0.7-0.2c0.1,0.1,0.2,0.3,0.2,0.4c0,0,1.5-1.8,2.6-3.2
	c1.4-1.8,1.6-2.9,1.6-3.9c0-0.7-0.5-1.7-1.1-2C26.5,7.9,26.4,9,25.6,10.4"/>
<path class="st1" d="M12.8,6.5v3.9l1.2,2.7V7.9v0c0-0.2,0.2-0.4,0.3-0.4h0.1c0.2,0,0.3,0.1,0.3,0.4V8v4.5c0.1-0.1,0.4-0.4,0.9-0.4
	c0.2,0,0.3,0.1,0.4,0.1V7.9v0c0-0.2,0.2-0.4,0.3-0.4h0h0h0c0.2,0,0.3,0.1,0.3,0.4V8v4.5c0,0,0.1,0,0.1,0.1c0.1,0,0.1,0.1,0.2,0.1
	c0,0,0.1,0,0.3,0c0.4,0,0.6,0.1,0.7,0.2V7.9v0c0-0.2,0.2-0.4,0.3-0.4h0h0c0.2,0,0.3,0.1,0.3,0.4V8v5.5l0.8,1.9c0,0-0.2,0-0.3,0.1
	c-0.1,0-0.2,0.1-0.2,0.1c0,0.1,0,0.2,0.1,0.2c0,0.1,0.2,0.6,0.4,0.9c0-0.8,0.2-1.3,0.4-2V7.9v0c0-0.2,0.2-0.4,0.3-0.4h0h0
	c0.2,0,0.3,0.1,0.3,0.4V8v0v5l1.2-2.7l0-3.8H12.8z"/>
<path class="st2" d="M16.7,7.9L16.7,7.9L16.7,7.9z"/>
<path class="st1" d="M23.7,25.8c-0.5-0.1-1.2-0.7-1.6-1c-0.6-0.5-1.7-1.4-1.7-1.4c-0.1,0.4-0.5,1.3-0.5,1.3s0.5,0.8,0.6,0.9
	c0.5,0.8,1,0.9,1.6,0.9C22.8,26.5,23.5,26.1,23.7,25.8"/>
<path class="st1" d="M28.5,18.1c-0.2,0.1-0.7,0.6-1.7,1.1c-0.9,0.5-2.6,1-2.9,1.1c0.1,0.1,0.2,0.4,0.3,0.5c0,0,0.7,0,1.2,0
	c2.4,0,3.2-1.2,3.2-2.6C28.6,18.2,28.6,18.1,28.5,18.1"/>
<path class="st1" d="M23.5,17.1c0.6,0,1.1,0.4,1.1,0.3c0,0,0.9-0.7,1.8-1.5c1.2-0.9,2.1-1.9,2.1-3.6c0-0.6-0.1-1.1-0.3-1.3
	c-0.2,0.6-0.7,1.2-1.6,2.4C25.8,14.3,23.5,17.1,23.5,17.1"/>
<path class="st1" d="M22.8,16.4c-0.7,0.2-1,0.8-1.3,1.3c-0.3,0.6-0.8,1.6-0.8,3c0,0.5-0.1,1.3-0.2,1.9c0.5,0,1.2,0,1.6-0.3
	c-0.1-0.3-0.2-0.6-0.4-0.8c0.5-0.1,1.3-0.2,1.7-0.7c-0.1-0.3-0.2-0.5-0.5-0.7c0.5-0.2,0.9-0.6,1.1-1.2c-0.2-0.2-0.6-0.3-0.9-0.3
	c0.4-0.2,0.7-0.6,0.8-1c-0.2-0.1-0.4-0.2-0.9-0.2C23.1,17.3,23.1,16.8,22.8,16.4"/>
<path class="st1" d="M17.1,27.6c0,0-0.1-0.3-0.1-0.6c0-0.2,0.1-0.3,0.1-0.5c0-0.2-0.1-0.3-0.3-0.3c-0.3,0-0.4,0.2-0.4,0.5
	C16.3,27.2,17.1,27.6,17.1,27.6"/>
<path class="st1" d="M16,27.6c0,0,0-0.2,0-0.6c0-0.1,0-0.2,0-0.3c0-0.2-0.1-0.3-0.3-0.3c-0.3,0-0.4,0.2-0.4,0.5
	C15.3,27.4,16,27.6,16,27.6"/>
<path class="st1" d="M15.2,27.8c0,0-0.2-0.2-0.2-0.5c0,0,0-0.1,0-0.2c0-0.1-0.1-0.3-0.3-0.3c-0.2,0-0.4,0.2-0.4,0.4
	C14.3,27.6,15.2,27.8,15.2,27.8"/>
</svg>
