<svg xmlns="http://www.w3.org/2000/svg" viewBox="0 0 150.59 39.04"><title>Asset 15</title><path d="M24.88,9.77a3.8,3.8,0,0,0,2.34.9.37.37,0,0,1,.36.15.36.36,0,0,1-.06.45,5.72,5.72,0,0,1-3,1.5,3.75,3.75,0,0,0,1.58,1.94c.1.05.25.16.23.32a.34.34,0,0,1-.26.36,5.7,5.7,0,0,1-3.39-.23,3.73,3.73,0,0,0,.4,2.46.38.38,0,0,1,0,.4.37.37,0,0,1-.42.18,5.65,5.65,0,0,1-2.81-1.88A3.67,3.67,0,0,0,19,18.63a.35.35,0,0,1-.61.3,5.7,5.7,0,0,1-1.48-3,3.78,3.78,0,0,0-1.94,1.57.4.4,0,0,1-.33.23.38.38,0,0,1-.36-.26,5.7,5.7,0,0,1,.24-3.39,3.79,3.79,0,0,0-2.47.4.38.38,0,0,1-.4,0,.37.37,0,0,1-.18-.42,5.64,5.64,0,0,1,1.9-2.81A3.71,3.71,0,0,0,11,10.38a.37.37,0,0,1-.36-.15.36.36,0,0,1,.06-.46,5.68,5.68,0,0,1,3-1.48,3.69,3.69,0,0,0-1.58-1.94c-.09-.06-.24-.16-.23-.33a.36.36,0,0,1,.26-.37,5.8,5.8,0,0,1,3.39.23,3.73,3.73,0,0,0-.4-2.47.36.36,0,0,1,.38-.57,5.78,5.78,0,0,1,2.81,1.9,3.73,3.73,0,0,0,.89-2.34A.36.36,0,0,1,19.39,2a.37.37,0,0,1,.46.06,5.66,5.66,0,0,1,1.48,3,3.67,3.67,0,0,0,1.94-1.58.37.37,0,0,1,.33-.23.35.35,0,0,1,.36.26A5.66,5.66,0,0,1,23.72,7a3.62,3.62,0,0,0,2.47-.4.39.39,0,0,1,.39,0,.38.38,0,0,1,.18.42,5.71,5.71,0,0,1-1.89,2.81" style="fill:#a7a3a4;fill-rule:evenodd"/><path d="M2.48,1.63A30.59,30.59,0,0,0,.07,15.57C1.1,29.18,10.74,39.85,21.42,39c6-.34,11-4.31,14.29-10.16.69-1.38.34-2.07-.69-.86C20.9,42.78,3.51,27.28,2.82,9.72a42,42,0,0,1,.34-8.09C3.34.42,2.82.76,2.48,1.63Z" style="fill:#a7a3a4"/><path d="M16.6,29.35c-1.55-.69-1.89-1.72.52-1.72,13.43,0,19.11-15.15,18.94-26.69,0-1,.35-1.38.86-.17a27.25,27.25,0,0,1,1.21,6.72C39,19.71,32.44,30,23.31,30.73A12.77,12.77,0,0,1,16.6,29.35Z" style="fill:#a7a3a4"/><path d="M100.49,26.84a2.64,2.64,0,0,1,1,1,3.26,3.26,0,0,1,.31,1.46,3.87,3.87,0,0,1-.32,1.63,3.23,3.23,0,0,1-.89,1.17,3.75,3.75,0,0,1-1.34.69,5.92,5.92,0,0,1-1.69.23,10.32,10.32,0,0,1-3.33-.57.43.43,0,0,1-.32-.44,9.4,9.4,0,0,1,.35-1.18.47.47,0,0,1,.46-.33,1.41,1.41,0,0,1,.66.17,4.17,4.17,0,0,0,2,.4,2.89,2.89,0,0,0,1.73-.41,1.33,1.33,0,0,0,.54-1.12,1,1,0,0,0-.32-.8,15,15,0,0,0-3.38-1.1,4,4,0,0,1-.63-.26,2.92,2.92,0,0,1-1-.93,2.82,2.82,0,0,1-.39-1.58,3.67,3.67,0,0,1,.32-1.56,3.29,3.29,0,0,1,.85-1.14,3.69,3.69,0,0,1,1.25-.69,4.83,4.83,0,0,1,1.52-.24,10.06,10.06,0,0,1,2.95.49.48.48,0,0,1,.33.44,1.79,1.79,0,0,1-.11.58c-.07.21-.16.4-.24.58a.5.5,0,0,1-.44.3s-.73-.2-1.13-.29A5.37,5.37,0,0,0,98,23.24a2.43,2.43,0,0,0-1.44.36,1.17,1.17,0,0,0-.5,1,1,1,0,0,0,.38.87,3.68,3.68,0,0,0,1.18.47A15.18,15.18,0,0,1,100.49,26.84Z" style="fill:#a7a3a4"/><path d="M109.75,29a.51.51,0,0,1-.15.32.44.44,0,0,1-.32.13h-4.1v.3a1.69,1.69,0,0,0,.32,1.1,1.2,1.2,0,0,0,1,.39,8.94,8.94,0,0,0,2.27-.33.45.45,0,0,1,.29.09.5.5,0,0,1,.17.24s.15.49.2.65a.53.53,0,0,1,0,.16.41.41,0,0,1-.25.41,6.25,6.25,0,0,1-1.15.36,7.69,7.69,0,0,1-1.67.16,3.06,3.06,0,0,1-3.22-2.3,5.56,5.56,0,0,1-.17-1.29v-1.1c0-.74.18-3.71,3.41-3.71a3,3,0,0,1,3.22,2.51,8,8,0,0,1,.12.82q0,.43,0,.88Zm-2.13-1.34a1.66,1.66,0,0,0-.28-1,1.09,1.09,0,0,0-.92-.36,1.16,1.16,0,0,0-.94.36,1.57,1.57,0,0,0-.31,1v.2h2.45Z" style="fill:#a7a3a4"/><path d="M124.34,25.17a.48.48,0,0,1,0,.09s-2.53,6.87-2.72,7.33a.48.48,0,0,1-.44.32h-1.56a.5.5,0,0,1-.43-.3c-.17-.42-2.48-6.8-2.63-7.3a.57.57,0,0,1,0-.13.48.48,0,0,1,.47-.47h1.06a.55.55,0,0,1,.46.33l.95,2.85c.18.53.81,2.38.93,2.67L122.31,25a.49.49,0,0,1,.46-.33h1.1A.51.51,0,0,1,124.34,25.17Z" style="fill:#a7a3a4"/><path d="M126.43,23.64a1.17,1.17,0,0,1-.85-.34,1.2,1.2,0,0,1,0-1.69,1.17,1.17,0,0,1,.85-.34,1.15,1.15,0,0,1,.84.34,1.2,1.2,0,0,1,0,1.69A1.16,1.16,0,0,1,126.43,23.64Zm.58,1.07a.47.47,0,0,1,.49.47v7.24a.5.5,0,0,1-.47.47h-1.2a.5.5,0,0,1-.47-.47V25.18a.46.46,0,0,1,.47-.47Z" style="fill:#a7a3a4"/><path d="M143.13,29a.5.5,0,0,1-.15.32.44.44,0,0,1-.32.13h-4.1v.3a1.7,1.7,0,0,0,.32,1.1,1.2,1.2,0,0,0,1,.39,9,9,0,0,0,2.27-.33.45.45,0,0,1,.29.09.5.5,0,0,1,.17.24s.15.49.2.65a.54.54,0,0,1,0,.16.41.41,0,0,1-.25.41,6.24,6.24,0,0,1-1.15.36,7.68,7.68,0,0,1-1.67.16,3.06,3.06,0,0,1-3.22-2.3,5.62,5.62,0,0,1-.17-1.29v-1.1c0-.74.18-3.71,3.41-3.71A3,3,0,0,1,143,27.14a8.1,8.1,0,0,1,.12.82q0,.43,0,.88ZM141,27.69a1.66,1.66,0,0,0-.28-1,1.09,1.09,0,0,0-.91-.36,1.16,1.16,0,0,0-.94.36,1.57,1.57,0,0,0-.31,1v.2H141Z" style="fill:#a7a3a4"/><path d="M149.21,28.23a2.1,2.1,0,0,1,1.38,2.16,2.35,2.35,0,0,1-.28,1.2c-.19.33-.85,1.4-3,1.4a6.34,6.34,0,0,1-2.67-.47.49.49,0,0,1-.21-.24.43.43,0,0,1,0-.31.36.36,0,0,1,0-.1l.07-.22.14-.43a.45.45,0,0,1,.46-.35,2.26,2.26,0,0,1,.4.06,11.75,11.75,0,0,0,1.84.33,1.81,1.81,0,0,0,.94-.21.64.64,0,0,0,.34-.57.58.58,0,0,0-.2-.47,1.44,1.44,0,0,0-.5-.26,5.22,5.22,0,0,0-.71-.16,6.72,6.72,0,0,1-.8-.17,5.19,5.19,0,0,1-.7-.24,1.83,1.83,0,0,1-.6-.4,1.92,1.92,0,0,1-.42-.65,2.65,2.65,0,0,1-.16-1c0-2.41,2.55-2.56,2.95-2.56a6.71,6.71,0,0,1,2.6.46.46.46,0,0,1,.28.63c-.07.19-.31.74-.32.77a.42.42,0,0,1-.43.27,2,2,0,0,1-.44-.05,6.06,6.06,0,0,0-1.58-.32c-1,0-1.07.49-1.07.68a.55.55,0,0,0,.16.42,1.17,1.17,0,0,0,.43.25C147.26,27.75,148.75,28,149.21,28.23Z" style="fill:#a7a3a4"/><path d="M57.28,5h-.91a.33.33,0,0,0-.33.33.41.41,0,0,0,0,0v7.13a3.11,3.11,0,0,1-.41,1.87,2.18,2.18,0,0,1-1.83.74A2.26,2.26,0,0,1,52,14.45a4.12,4.12,0,0,1-.41-2.19V5.31A.33.33,0,0,0,51.28,5h-.92a.33.33,0,0,0-.33.33v0h0v7.5a3.36,3.36,0,0,0,.36,2c.57,1,1.7,1.57,3.4,1.57A3.85,3.85,0,0,0,57,15.1c.51-.62.59-1,.59-2.39V5.31A.33.33,0,0,0,57.28,5Z" style="fill:#a7a3a4"/><path d="M95.57,15.85h0a.33.33,0,0,0,0-.45h0c-.4-.36-.42-.84-.42-1.8,0-1.19.07-1.9.07-2.49A3.74,3.74,0,0,0,95,9.67a2.27,2.27,0,0,0-2.37-1.31,6.28,6.28,0,0,0-3.14.91.33.33,0,0,0-.11.46h0l.31.48a.33.33,0,0,0,.47.11h0a4.32,4.32,0,0,1,2.24-.74c1.15,0,1.28.71,1.28,1.91l-.57,0c-2.65,0-4.17.7-4.17,2.6,0,1.57,1,2.4,2.65,2.4a2.85,2.85,0,0,0,2.32-1.08,1.78,1.78,0,0,0,.82,1h0a.33.33,0,0,0,.43-.08h0Zm-2-1.53a2,2,0,0,1-1.72,1.08c-.83,0-1.29-.52-1.29-1.42,0-1.44,1.44-1.47,2.57-1.47l.49,0Z" style="fill:#a7a3a4"/><path d="M63.78,9h0a.33.33,0,0,0,0-.1.33.33,0,0,0-.32-.33h0a2.67,2.67,0,0,0-2.31,1.42V9.8a3.09,3.09,0,0,0-.18-1,.33.33,0,0,0-.32-.24h-.59a.33.33,0,0,0-.33.33h0v7a.33.33,0,0,0,.33.33h.84a.33.33,0,0,0,.33-.33h0V11.7A1.7,1.7,0,0,1,63.16,10a.33.33,0,0,0,.32-.24Z" style="fill:#a7a3a4"/><path d="M71.62,15.66a.33.33,0,0,0-.05-.18h0A2.83,2.83,0,0,1,71.25,14V8.88h0a.33.33,0,0,0-.33-.33H70.1a.33.33,0,0,0-.33.33h0V14a2.26,2.26,0,0,1-1.86,1.29c-.36,0-1.32-.06-1.32-1.8V8.87a.33.33,0,0,0-.33-.33h-.82a.33.33,0,0,0-.33.33h0v5a3.5,3.5,0,0,0,.2,1.37,2.3,2.3,0,0,0,2.21,1.23A3,3,0,0,0,70,15.35c.19.68.52,1.08.77,1.08a.33.33,0,0,0,.2-.07h0l.55-.43h0A.33.33,0,0,0,71.62,15.66Z" style="fill:#a7a3a4"/><path d="M87.91,15.66a.33.33,0,0,0-.05-.18h0A2.82,2.82,0,0,1,87.54,14V8.88h0a.33.33,0,0,0-.33-.33h-.82a.33.33,0,0,0-.33.33h0V14a2.26,2.26,0,0,1-1.86,1.29c-.36,0-1.32-.06-1.32-1.8V8.87a.33.33,0,0,0-.33-.33h-.82a.33.33,0,0,0-.33.33h0v5a3.49,3.49,0,0,0,.2,1.37,2.3,2.3,0,0,0,2.21,1.23,3,3,0,0,0,2.47-1.18c.19.68.52,1.08.77,1.08a.33.33,0,0,0,.2-.07h0l.55-.43h0A.33.33,0,0,0,87.91,15.66Z" style="fill:#a7a3a4"/><path d="M102.63,9a.3.3,0,0,0,0-.1.33.33,0,0,0-.33-.33h-1a.33.33,0,0,0-.32.24h0L99.38,14.3,98,8.8h0a.33.33,0,0,0-.32-.25h-.92a.34.34,0,0,0-.33.33c0,.15,2.31,7.4,2.31,7.4a4.14,4.14,0,0,1-.64,1.55,2.43,2.43,0,0,1-1.07.82h0a.33.33,0,0,0-.2.31.33.33,0,0,0,0,.14h0l.2.4h0a.33.33,0,0,0,.3.18h.08A3.31,3.31,0,0,0,98.65,19,5.63,5.63,0,0,0,100,16.51L102.63,9Z" style="fill:#a7a3a4"/><path d="M80.38,9,80,8.55a.33.33,0,0,0-.26-.12.33.33,0,0,0-.17,0h0a2.1,2.1,0,0,1-1.1.32,4.58,4.58,0,0,1-1.23-.26A4,4,0,0,0,76,8.35c-1.88,0-3.14,1.1-3.14,2.75a2.4,2.4,0,0,0,1.93,2.36c-.93.34-1.6.67-1.6,1.44,0,.6.43,1,1.14,1.1.31,0,1,.08,1.54.08,1.62,0,2.26.46,2.26,1.24s-.67,1.41-2,1.41-2-.46-2-1.31c0-.07,0-.25,0-.27a.33.33,0,0,0-.33-.33l-.8,0h0a.33.33,0,0,0-.29.25h0a2.47,2.47,0,0,0-.08.6c0,1.36,1.31,2.16,3.6,2.16,2,0,3.45-.88,3.45-2.65,0-1.28-.87-2.26-3-2.26H75.5c-.39,0-.59-.16-.59-.41s.78-.74,1.29-.9c2.14,0,2.94-1.36,2.94-2.54a2.29,2.29,0,0,0-.59-1.5,2,2,0,0,0,.7.13,1.93,1.93,0,0,0,1-.26h0a.33.33,0,0,0,.07-.5ZM76,12.62a1.51,1.51,0,0,1-1.63-1.55A1.58,1.58,0,0,1,76,9.53a1.61,1.61,0,0,1,1.68,1.54A1.56,1.56,0,0,1,76,12.62Z" style="fill:#a7a3a4"/><path d="M56.53,26.84a2.54,2.54,0,0,1,1,1,3.26,3.26,0,0,1,.31,1.46A3.86,3.86,0,0,1,57.48,31a3.22,3.22,0,0,1-.89,1.17,3.75,3.75,0,0,1-1.34.69,5.93,5.93,0,0,1-1.69.23,8.93,8.93,0,0,1-1.91-.18,13.12,13.12,0,0,1-1.42-.39.43.43,0,0,1-.32-.44,1.45,1.45,0,0,1,.13-.6,4.31,4.31,0,0,0,.21-.58.5.5,0,0,1,.17-.24.45.45,0,0,1,.29-.09,1.41,1.41,0,0,1,.66.17,2.73,2.73,0,0,0,.66.24,5.78,5.78,0,0,0,.58.11,5.26,5.26,0,0,0,.75,0,2.88,2.88,0,0,0,1.73-.41,1.33,1.33,0,0,0,.54-1.12,1,1,0,0,0-.32-.8,3.34,3.34,0,0,0-1.22-.54l-.67-.17-.75-.18-.74-.21a4,4,0,0,1-.63-.26,2.92,2.92,0,0,1-1-.93,2.82,2.82,0,0,1-.39-1.58,3.67,3.67,0,0,1,.32-1.56,3.3,3.3,0,0,1,.85-1.14,3.69,3.69,0,0,1,1.25-.69,4.83,4.83,0,0,1,1.52-.24,8.21,8.21,0,0,1,1.72.17,10.91,10.91,0,0,1,1.23.32.5.5,0,0,1,.24.17.43.43,0,0,1,.09.28,1.78,1.78,0,0,1-.11.58,6,6,0,0,1-.24.58.62.62,0,0,1-.17.21.42.42,0,0,1-.27.09l-.09,0-.07,0q-.38-.13-1-.26a5.38,5.38,0,0,0-1.19-.13,2.43,2.43,0,0,0-1.44.36,1.17,1.17,0,0,0-.5,1,1,1,0,0,0,.38.87,3.68,3.68,0,0,0,1.18.47l.76.18.77.19q.38.1.72.23A3.87,3.87,0,0,1,56.53,26.84Z" style="fill:#a7a3a4"/><path d="M67.93,24.6a3.21,3.21,0,0,1,1.25.21,2,2,0,0,1,.81.6,2.39,2.39,0,0,1,.44.94,5.17,5.17,0,0,1,.13,1.22v4.86a.44.44,0,0,1-.13.32.52.52,0,0,1-.34.15H68.9a.43.43,0,0,1-.32-.14.47.47,0,0,1-.13-.33V27.83a2.71,2.71,0,0,0,0-.46.94.94,0,0,0-.16-.39.84.84,0,0,0-.33-.27,1.3,1.3,0,0,0-.56-.1,1.54,1.54,0,0,0-.76.18,1.6,1.6,0,0,0-.53.47.84.84,0,0,0,0,.16.78.78,0,0,1,0,.16v4.87a.5.5,0,0,1-.15.32.44.44,0,0,1-.32.13H64.4a.5.5,0,0,1-.32-.15.48.48,0,0,1-.13-.35V27.83a2.34,2.34,0,0,0,0-.46,1,1,0,0,0-.16-.39.83.83,0,0,0-.33-.27,1.29,1.29,0,0,0-.56-.1,1.44,1.44,0,0,0-.67.18,2.59,2.59,0,0,0-.56.39v5.25a.44.44,0,0,1-.14.32.52.52,0,0,1-.34.15H59.94a.46.46,0,0,1-.34-.13.46.46,0,0,1-.13-.34V27.57a3.8,3.8,0,0,0-.06-.87,1.27,1.27,0,0,0-.37-.63h0a.55.55,0,0,1-.14-.35.53.53,0,0,1,.11-.3l.61-.68a.42.42,0,0,1,.35-.16.85.85,0,0,1,.58.27q.28.27.52.54a2.45,2.45,0,0,1,.51-.32,4.52,4.52,0,0,1,.64-.25,5.19,5.19,0,0,1,.65-.16,3.33,3.33,0,0,1,.57-.06,3,3,0,0,1,1.29.24,2.12,2.12,0,0,1,.82.66,2.82,2.82,0,0,1,1-.66A3.74,3.74,0,0,1,67.93,24.6Z" style="fill:#a7a3a4"/><path d="M79,32.19l-.28.33-.32.35A.49.49,0,0,1,78,33l-.14,0-.08,0-.22-.14a2.42,2.42,0,0,1-.25-.21l-.23-.24a1,1,0,0,1-.16-.22l-.24.2a2.48,2.48,0,0,1-.46.28,4,4,0,0,1-.67.25,3.22,3.22,0,0,1-.88.11,3,3,0,0,1-2.14-.67,2.36,2.36,0,0,1-.7-1.79v-.11a2.13,2.13,0,0,1,.8-1.76A3.65,3.65,0,0,1,75,28h1.4v-.3a2,2,0,0,0-.24-1.06,1.06,1.06,0,0,0-1-.37,4.09,4.09,0,0,0-1.14.13,2.28,2.28,0,0,0-.69.31.37.37,0,0,1-.24.06.42.42,0,0,1-.38-.21l0-.06,0-.05-.09-.13-.21-.3a.48.48,0,0,1-.11-.3.44.44,0,0,1,.22-.39,5.28,5.28,0,0,1,1.06-.49,5.5,5.5,0,0,1,1.82-.25,4.72,4.72,0,0,1,1.45.2,2.28,2.28,0,0,1,1,.61,2.46,2.46,0,0,1,.56,1A5.83,5.83,0,0,1,78.53,28l0,2.05a3.73,3.73,0,0,0,.05.87,1.32,1.32,0,0,0,.39.64.53.53,0,0,1,.13.33A.43.43,0,0,1,79,32.19Zm-3.82-.71a1.42,1.42,0,0,0,.87-.27.93.93,0,0,0,.36-.8v-.85H75.23a1.48,1.48,0,0,0-1,.25.84.84,0,0,0-.28.65v.11a.83.83,0,0,0,.28.68A1.4,1.4,0,0,0,75.15,31.48Z" style="fill:#a7a3a4"/><path d="M91.64,32.41a.46.46,0,0,1-.47.47h-.61a3.6,3.6,0,0,1-1.45-.26,2.36,2.36,0,0,1-1-.74,3.13,3.13,0,0,1-.53-1.16,6.24,6.24,0,0,1-.17-1.5V26.59H86.8a.45.45,0,0,1-.34-.14.47.47,0,0,1-.13-.33v-1a.46.46,0,0,1,.47-.47h.65V23.37a.43.43,0,0,1,.11-.3.48.48,0,0,1,.27-.16l.64-.16a2.38,2.38,0,0,1,.65-.09.49.49,0,0,1,.48.47v1.51h1.56a.46.46,0,0,1,.47.47v0c0,.21,0,.44,0,.55s0,.32,0,.38,0,.1,0,.11a.56.56,0,0,1-.16.3.43.43,0,0,1-.32.13h-1.5v2.6a2.85,2.85,0,0,0,.25,1.39,1.07,1.07,0,0,0,1,.43h.32a.46.46,0,0,1,.47.47Z" style="fill:#a7a3a4"/><path d="M135.27,32.14a.49.49,0,0,0,0-.21h0l-.27-.56h0a.5.5,0,0,0-.45-.3l-.16,0h0a4.28,4.28,0,0,1-1.38.18c-1.2,0-1.59-1.16-1.59-2.37h0s0-.05,0-.08,0-.05,0-.08h0c0-1.22.39-2.46,1.59-2.46a3.75,3.75,0,0,1,1.37.25h0l.16,0a.5.5,0,0,0,.44-.26h0l.27-.57h0a.5.5,0,0,0-.23-.67h0a4.1,4.1,0,0,0-2.1-.43c-2.64,0-3.66,2-3.73,4.11h0s0,.05,0,.08,0,.05,0,.08h0c.06,2.14,1.08,4.11,3.73,4.11a4.11,4.11,0,0,0,2.1-.43h0A.5.5,0,0,0,135.27,32.14Z" style="fill:#a7a3a4"/><path d="M85.39,24.78a.46.46,0,0,0-.34-.13h-.39a3.41,3.41,0,0,0-1,.2,2.66,2.66,0,0,0-1,.69,2.21,2.21,0,0,0-.43-.47,5.75,5.75,0,0,0-.67-.43l-.14,0a.45.45,0,0,0-.36.17l-.6.66a.48.48,0,0,0-.11.3.47.47,0,0,0,.14.35,1.35,1.35,0,0,1,.38.71,4.75,4.75,0,0,1,.06.79v4.84a.46.46,0,0,0,.47.47h1.17a.46.46,0,0,0,.47-.47V27.68c0-1.07,1.49-1.07,1.63-1.08h.2a.45.45,0,0,0,.34-.14.47.47,0,0,0,.13-.33l.2-1A.46.46,0,0,0,85.39,24.78Z" style="fill:#a7a3a4"/><path d="M116,24.78a.46.46,0,0,0-.34-.13h-.39a3.41,3.41,0,0,0-1,.2,2.65,2.65,0,0,0-1,.69,2.23,2.23,0,0,0-.43-.47,5.75,5.75,0,0,0-.67-.43l-.14,0a.45.45,0,0,0-.36.17l-.6.66a.48.48,0,0,0-.11.3.47.47,0,0,0,.14.35,1.35,1.35,0,0,1,.38.71,4.8,4.8,0,0,1,.06.79v4.84a.46.46,0,0,0,.47.47h1.17a.46.46,0,0,0,.47-.47V27.68c0-1.07,1.49-1.07,1.63-1.08h.2a.45.45,0,0,0,.34-.14.47.47,0,0,0,.13-.33l.2-1A.46.46,0,0,0,116,24.78Z" style="fill:#a7a3a4"/></svg>