<svg xmlns="http://www.w3.org/2000/svg" viewBox="0 0 137.47 52.87"><title>Asset 12</title><path d="M0,44.53V36.18H11.13v3.34H7.24c-3.78,0-3.9.06-3.9,1.39s.17,1.39,3.34,1.39H10v3.34H3.34v3.9h8.35v3.34H0Z" style="fill:#a7a3a4"/><path d="M13.36,44.53V36.18h1.89c1.73,0,2.06.33,5.29,5.18l3.4,5.12V36.18h3.34v16.7H25.6c-1.45,0-2.06-.56-5.29-5.4L16.7,42V52.87H13.36Z" style="fill:#a7a3a4"/><path d="M32.39,52.21c-4.29-2.11-5.06-11-1.22-14.64,2.89-2.78,8.91-2.34,10.57.78.45.83.28,1.22-.89,1.95-1.28.89-1.45.89-2.84-.22-1.84-1.45-2.73-1.39-4.34.28-1.06,1-1.39,1.95-1.39,3.9,0,4,2.73,6.23,5.62,4.73,1.56-.89,1.28-1.67-.61-1.67-1.5,0-1.67-.17-1.67-1.67V44h7.24v1.67c0,2.67-1.39,5.4-3.28,6.34A9.45,9.45,0,0,1,32.39,52.21Z" style="fill:#a7a3a4"/><path d="M47.64,50c-.45-1.61-1.11-4-1.45-5.29a5.21,5.21,0,0,0-1.67-2.95c-1.84-1-1.28-1.67,1.34-1.67h2.45l1,4,.95,4.06,1.39-4.06c.72-2.23,1.61-4,2.06-4s1.28,1.56,1.95,3.51a27.55,27.55,0,0,0,1.67,3.9c.22.22.67-1.34,1.06-3.51.61-3.28.89-3.9,1.84-3.9.78,0,1,.28.78,1-.11.5-.78,3.4-1.5,6.4-1.11,5-1.28,5.4-2.5,5.4-.72,0-1.34-.22-1.34-.56a28,28,0,0,0-1.22-3.73l-1.17-3.23L52,49c-.95,2.78-1.45,3.67-2.39,3.78S48.37,52.48,47.64,50Z" style="fill:#a7a3a4"/><path d="M63.39,51.26c-1.34-1.39-1.61-2.11-1.61-4.45,0-4.68,1.67-6.73,5.57-6.73s5.57,2,5.57,7c0,4.12-1.56,5.79-5.29,5.79C65.51,52.87,64.73,52.6,63.39,51.26Zm5.51-.72c.39-.39.67-2.17.67-4.06,0-3.51-.61-4.73-2.34-4.73-1.34,0-2.11,1.73-2.11,4.73a11.56,11.56,0,0,0,.56,3.67A2,2,0,0,0,68.9,50.54Z" style="fill:#a7a3a4"/><path d="M75.69,47.64c0-4.12-.17-5.29-.83-5.57-1.5-.56-.89-1.28,1.5-1.67,1.5-.22,2.45-.17,2.67.28s.5.45.78,0a2.9,2.9,0,0,1,2.06-.61c1.39,0,1.61.22,1.61,1.61s-.17,1.56-1.11,1.34C80.09,42.41,79,44.3,79,48.81v4.06H75.69Z" style="fill:#a7a3a4"/><path d="M85.16,44.8c0-7-.11-8.07-.95-8.57-1.34-.72-.72-1.22,2-1.56l2.28-.33V44.75l2.39-2.34c2.17-2.11,4.29-3.06,4.29-1.89a10,10,0,0,1-1.95,2.34,12.31,12.31,0,0,0-1.95,2.23,24,24,0,0,0,2.5,3.67,22.14,22.14,0,0,1,2.5,3.73c0,.22-.83.39-1.78.39-1.56-.06-2.17-.5-3.9-2.89l-2.11-2.89V50c0,2.84-.06,2.89-1.67,2.89H85.16Z" style="fill:#a7a3a4"/><path d="M97.23,52.48A2.25,2.25,0,0,1,96.84,51c0-.78.22-.95,1-.67a6.92,6.92,0,0,0,2.34.5c2.17.11,1.73-1.73-.83-3.51-1.84-1.22-2.28-1.84-2.39-3.51-.22-2.56,1.5-4,4.73-3.67,1.73.11,2.17.39,2.28,1.45.22,1.39.11,1.45-1.84.56-1.11-.5-1.56-.5-2.11.06s-.17,1.28,3.45,4c3.28,2.45,1.11,6.68-3.45,6.68A6.34,6.34,0,0,1,97.23,52.48Z" style="fill:#a7a3a4"/><path d="M118.83,31.22c-1.84-.78-2.5-2-2.89-5.06-.45-3.73-1.73-5-5.12-5a6.8,6.8,0,0,1-3.51-.78c-2.39-1.78-2.56-7.07-.33-9.07.78-.72,2-1,4.06-1,3.62,0,5.29,1.22,5.29,4,0,2.34.89,4.68,2.11,5.57a6,6,0,0,0,3.23.78c3.12,0,4.4-1.34,4.84-5.06.5-4.06,1.78-5.23,5.62-5.23,4.23,0,5.34,1.11,5.34,5.34s-1.22,5.51-5,5.51c-3.45,0-5.06,1.67-5.45,5.51a6.19,6.19,0,0,1-1.28,3.73C124.56,31.45,120.5,31.95,118.83,31.22Z" style="fill:#a7a3a4"/><path d="M98,30.05a4.43,4.43,0,0,1-1.11-2.73c0-2.28-1.06-5-2.23-5.62a8,8,0,0,0-3.23-.56A6.15,6.15,0,0,1,87.72,20c-1.28-1-1.45-1.56-1.45-4.4s.17-3.4,1.45-4.4A6.15,6.15,0,0,1,91.39,10a8,8,0,0,0,3.23-.56c1.17-.61,2.23-3.34,2.23-5.84C96.84.95,98.29,0,102.24,0c3.73,0,4.9.78,5.51,3.73.45,2.17-.67,5.57-2,6.29a8,8,0,0,1-3.23.56,6.15,6.15,0,0,0-3.67,1.17c-1.22.95-1.45,1.56-1.45,3.84,0,3.45,1.67,5,5.34,5,3.84,0,5.79,2.73,5,7-.5,2.56-2.17,3.62-5.73,3.62C99.79,31.17,98.79,30.89,98,30.05Z" style="fill:#a7a3a4"/></svg>