<svg width="64px" height="93px" viewBox="0 0 64 93" version="1.1" xmlns="http://www.w3.org/2000/svg" xmlns:xlink="http://www.w3.org/1999/xlink">
    <g id="Page-1" stroke="none" stroke-width="1" fill="none" fill-rule="evenodd">
        <g id="pin" transform="translate(-795.000000, -10.000000)" fill="#F39200" fill-rule="nonzero">
            <path d="M824.724187,102.451975 C820.443502,102.112674 816.679585,101.094769 812.92338,99.2594555 C801.685618,93.7689387 794.643698,82.1170132 795.013919,69.6476793 C795.160465,64.9822823 796.186287,60.7410123 798.145375,56.6925273 C798.986087,54.9574623 799.556845,53.9704031 800.698361,52.2584722 C801.199702,51.5181778 807.300642,41.7015656 814.273146,30.4583443 C821.237936,19.2074117 826.968655,10 826.999506,10 C827.030358,10 832.761077,19.2074117 839.725867,30.4506329 C846.698371,41.7015656 852.799311,51.5181778 853.300652,52.2584722 C854.442168,53.9704031 855.012926,54.9574623 855.853638,56.6925273 C859.100788,63.3937339 859.864369,71.105134 858.005549,78.4463868 C856.123591,85.833908 851.665508,92.2883499 845.356318,96.7301163 C839.988108,100.516414 833.393539,102.583069 826.814396,102.529089 C826.089379,102.521378 825.148399,102.490532 824.724187,102.451975 Z M829.621908,88.8490655 C833.015604,88.2321534 835.892533,86.759276 838.260408,84.4150104 C844.191663,78.546635 844.623588,69.1464383 839.263091,62.7305535 C836.679254,59.6305707 832.961614,57.6178953 828.896891,57.1166543 C828.017615,57.0086947 825.981398,57.0086947 825.102122,57.1166543 C818.522979,57.9263513 813.147055,62.6303053 811.496485,69.0230559 C810.40896,73.225769 811.095412,77.7832064 813.370731,81.4615442 C815.916003,85.5562976 820.01929,88.2167306 824.917011,88.9261795 C825.919694,89.0726961 828.626938,89.0264277 829.621908,88.8490655 Z" id="Shape" transform="translate(827.000000, 56.265060) scale(-1, 1) rotate(-180.000000) translate(-827.000000, -56.265060) "></path>
        </g>
    </g>
</svg>