<svg xmlns="http://www.w3.org/2000/svg" viewBox="0 0 197.87 201.29"><title>Asset 8</title><polygon points="92.45 55.28 0.63 122.98 105.93 200.82 197.24 133.08 92.45 55.28" style="fill:#3d3c3d"/><polygon points="92.45 55.28 0.63 122.98 105.93 200.82 197.24 133.08 92.45 55.28" style="fill:none;stroke:#46d2be;stroke-miterlimit:10;stroke-width:0.75px"/><path d="M159,123.91v1.62c0,.3.58.54,1.31.54s1.31-.24,1.31-.54v-10c0-.3-.58-.54-1.31-.54s-1.31.24-1.31.54Z" style="fill:#3d3c3d"/><path d="M159,123.91v1.62c0,.3.58.54,1.31.54s1.31-.24,1.31-.54v-10c0-.3-.58-.54-1.31-.54s-1.31.24-1.31.54Z" style="fill:none;stroke:#46d2be;stroke-miterlimit:10;stroke-width:0.75px"/><ellipse cx="160.34" cy="115.51" rx="1.31" ry="0.52" style="fill:#3d3c3d"/><ellipse cx="160.34" cy="115.51" rx="1.31" ry="0.52" style="fill:none;stroke:#46d2be;stroke-miterlimit:10;stroke-width:0.75px"/><path d="M79.84,141.31v12c0,.3.58.54,1.31.54s1.31-.24,1.31-.54V139.9c0-.3-.58-.54-1.31-.54s-1.31.24-1.31.54Z" style="fill:#3d3c3d"/><path d="M79.84,141.31v12c0,.3.58.54,1.31.54s1.31-.24,1.31-.54V139.9c0-.3-.58-.54-1.31-.54s-1.31.24-1.31.54Z" style="fill:none;stroke:#46d2be;stroke-miterlimit:10;stroke-width:0.75px"/><path d="M122.12,141.31v12c0,.3.58.54,1.31.54s1.31-.24,1.31-.54V139.9c0-.3-.58-.54-1.31-.54s-1.31.24-1.31.54Z" style="fill:#3d3c3d"/><path d="M122.12,141.31v12c0,.3.58.54,1.31.54s1.31-.24,1.31-.54V139.9c0-.3-.58-.54-1.31-.54s-1.31.24-1.31.54Z" style="fill:none;stroke:#46d2be;stroke-miterlimit:10;stroke-width:0.75px"/><path d="M140.53,127.44v12c0,.3.58.54,1.31.54s1.31-.24,1.31-.54V126c0-.3-.58-.54-1.31-.54s-1.31.24-1.31.54Z" style="fill:#3d3c3d"/><path d="M140.53,127.44v12c0,.3.58.54,1.31.54s1.31-.24,1.31-.54V126c0-.3-.58-.54-1.31-.54s-1.31.24-1.31.54Z" style="fill:none;stroke:#46d2be;stroke-miterlimit:10;stroke-width:0.75px"/><path d="M62,128.07v12c0,.3.58.54,1.31.54s1.31-.24,1.31-.54V126.66c0-.3-.58-.54-1.31-.54s-1.31.24-1.31.54Z" style="fill:#3d3c3d"/><path d="M62,128.07v12c0,.3.58.54,1.31.54s1.31-.24,1.31-.54V126.66c0-.3-.58-.54-1.31-.54s-1.31.24-1.31.54Z" style="fill:none;stroke:#46d2be;stroke-miterlimit:10;stroke-width:0.75px"/><path d="M43.2,124.58v1.62c0,.3.58.54,1.31.54s1.31-.24,1.31-.54v-10c0-.3-.58-.54-1.31-.54s-1.31.24-1.31.54Z" style="fill:#3d3c3d"/><path d="M43.2,124.58v1.62c0,.3.58.54,1.31.54s1.31-.24,1.31-.54v-10c0-.3-.58-.54-1.31-.54s-1.31.24-1.31.54Z" style="fill:none;stroke:#46d2be;stroke-miterlimit:10;stroke-width:0.75px"/><path d="M101.1,167.29v1.62c0,.3.58.54,1.31.54s1.31-.24,1.31-.54v-10c0-.3-.58-.54-1.31-.54s-1.31.24-1.31.54Z" style="fill:#3d3c3d"/><path d="M101.1,167.29v1.62c0,.3.58.54,1.31.54s1.31-.24,1.31-.54v-10c0-.3-.58-.54-1.31-.54s-1.31.24-1.31.54Z" style="fill:none;stroke:#46d2be;stroke-miterlimit:10;stroke-width:0.75px"/><polyline points="161.56 113.09 161.56 115.63 102.06 159.96 42.87 116.2 42.87 113.71" style="fill:#3d3c3d"/><polyline points="161.56 113.09 161.56 115.63 102.06 159.96 42.87 116.2 42.87 113.71" style="fill:none;stroke:#46d2be;stroke-miterlimit:10;stroke-width:0.75px"/><polygon points="102.77 69.36 42.98 113.67 102.17 157.42 161.67 113.09 102.77 69.36" style="fill:#3d3c3d"/><polygon points="102.77 69.36 42.98 113.67 102.17 157.42 161.67 113.09 102.77 69.36" style="fill:none;stroke:#46d2be;stroke-miterlimit:10;stroke-width:0.75px"/><path d="M159,104.62v8.24c0,.3.58.54,1.31.54s1.31-.24,1.31-.54V103.2c0-.3-.58-.54-1.31-.54s-1.31.24-1.31.54Z" style="fill:#3d3c3d"/><path d="M159,104.62v8.24c0,.3.58.54,1.31.54s1.31-.24,1.31-.54V103.2c0-.3-.58-.54-1.31-.54s-1.31.24-1.31.54Z" style="fill:none;stroke:#46d2be;stroke-miterlimit:10;stroke-width:0.75px"/><ellipse cx="160.34" cy="103.15" rx="1.31" ry="0.52" style="fill:#3d3c3d"/><ellipse cx="160.34" cy="103.15" rx="1.31" ry="0.52" style="fill:none;stroke:#46d2be;stroke-miterlimit:10;stroke-width:0.75px"/><path d="M79.84,132.61v8.24c0,.3.58.54,1.31.54s1.31-.24,1.31-.54V131.2c0-.3-.58-.54-1.31-.54s-1.31.24-1.31.54Z" style="fill:#3d3c3d"/><path d="M79.84,132.61v8.24c0,.3.58.54,1.31.54s1.31-.24,1.31-.54V131.2c0-.3-.58-.54-1.31-.54s-1.31.24-1.31.54Z" style="fill:none;stroke:#46d2be;stroke-miterlimit:10;stroke-width:0.75px"/><ellipse cx="81.14" cy="131.15" rx="1.31" ry="0.52" style="fill:#3d3c3d"/><ellipse cx="81.14" cy="131.15" rx="1.31" ry="0.52" style="fill:none;stroke:#46d2be;stroke-miterlimit:10;stroke-width:0.75px"/><path d="M101.1,148v8.24c0,.3.58.54,1.31.54s1.31-.24,1.31-.54v-9.65c0-.3-.58-.54-1.31-.54s-1.31.24-1.31.54Z" style="fill:#3d3c3d"/><path d="M101.1,148v8.24c0,.3.58.54,1.31.54s1.31-.24,1.31-.54v-9.65c0-.3-.58-.54-1.31-.54s-1.31.24-1.31.54Z" style="fill:none;stroke:#46d2be;stroke-miterlimit:10;stroke-width:0.75px"/><path d="M122.12,132.61v8.24c0,.3.58.54,1.31.54s1.31-.24,1.31-.54V131.2c0-.3-.58-.54-1.31-.54s-1.31.24-1.31.54Z" style="fill:#3d3c3d"/><path d="M122.12,132.61v8.24c0,.3.58.54,1.31.54s1.31-.24,1.31-.54V131.2c0-.3-.58-.54-1.31-.54s-1.31.24-1.31.54Z" style="fill:none;stroke:#46d2be;stroke-miterlimit:10;stroke-width:0.75px"/><path d="M140.53,118.38v8.24c0,.3.58.54,1.31.54s1.31-.24,1.31-.54V117c0-.3-.58-.54-1.31-.54s-1.31.24-1.31.54Z" style="fill:#3d3c3d"/><path d="M140.53,118.38v8.24c0,.3.58.54,1.31.54s1.31-.24,1.31-.54V117c0-.3-.58-.54-1.31-.54s-1.31.24-1.31.54Z" style="fill:none;stroke:#46d2be;stroke-miterlimit:10;stroke-width:0.75px"/><path d="M62,118.38v8.24c0,.3.58.54,1.31.54s1.31-.24,1.31-.54V117c0-.3-.58-.54-1.31-.54S62,116.67,62,117Z" style="fill:#3d3c3d"/><path d="M62,118.38v8.24c0,.3.58.54,1.31.54s1.31-.24,1.31-.54V117c0-.3-.58-.54-1.31-.54S62,116.67,62,117Z" style="fill:none;stroke:#46d2be;stroke-miterlimit:10;stroke-width:0.75px"/><path d="M43.2,105.34v8.24c0,.3.58.54,1.31.54s1.31-.24,1.31-.54v-9.65c0-.3-.58-.54-1.31-.54s-1.31.24-1.31.54Z" style="fill:#3d3c3d"/><path d="M43.2,105.34v8.24c0,.3.58.54,1.31.54s1.31-.24,1.31-.54v-9.65c0-.3-.58-.54-1.31-.54s-1.31.24-1.31.54Z" style="fill:none;stroke:#46d2be;stroke-miterlimit:10;stroke-width:0.75px"/><polyline points="161.62 103.38 161.62 105.96 102.12 150.29 42.93 106.53 42.93 103.97" style="fill:#3d3c3d"/><polyline points="161.62 103.38 161.62 105.96 102.12 150.29 42.93 106.53 42.93 103.97" style="fill:none;stroke:#46d2be;stroke-miterlimit:10;stroke-width:0.75px"/><polygon points="102.82 59.69 43.04 104 102.22 147.76 161.73 103.42 102.82 59.69" style="fill:#3d3c3d"/><polygon points="102.82 59.69 43.04 104 102.22 147.76 161.73 103.42 102.82 59.69" style="fill:none;stroke:#46d2be;stroke-miterlimit:10;stroke-width:0.75px"/><path d="M159,94.94v8.24c0,.3.58.54,1.31.54s1.31-.24,1.31-.54V93.53c0-.3-.58-.54-1.31-.54s-1.31.24-1.31.54Z" style="fill:#3d3c3d"/><path d="M159,94.94v8.24c0,.3.58.54,1.31.54s1.31-.24,1.31-.54V93.53c0-.3-.58-.54-1.31-.54s-1.31.24-1.31.54Z" style="fill:none;stroke:#46d2be;stroke-miterlimit:10;stroke-width:0.75px"/><ellipse cx="160.34" cy="93.48" rx="1.31" ry="0.52" style="fill:#3d3c3d"/><ellipse cx="160.34" cy="93.48" rx="1.31" ry="0.52" style="fill:none;stroke:#46d2be;stroke-miterlimit:10;stroke-width:0.75px"/><path d="M79.84,122.9v8.24c0,.3.58.54,1.31.54s1.31-.24,1.31-.54v-9.65c0-.3-.58-.54-1.31-.54s-1.31.24-1.31.54Z" style="fill:#3d3c3d"/><path d="M79.84,122.9v8.24c0,.3.58.54,1.31.54s1.31-.24,1.31-.54v-9.65c0-.3-.58-.54-1.31-.54s-1.31.24-1.31.54Z" style="fill:none;stroke:#46d2be;stroke-miterlimit:10;stroke-width:0.75px"/><ellipse cx="81.14" cy="121.43" rx="1.31" ry="0.52" style="fill:#3d3c3d"/><ellipse cx="81.14" cy="121.43" rx="1.31" ry="0.52" style="fill:none;stroke:#46d2be;stroke-miterlimit:10;stroke-width:0.75px"/><path d="M101.1,138.48v8.24c0,.3.58.54,1.31.54s1.31-.24,1.31-.54v-9.65c0-.3-.58-.54-1.31-.54s-1.31.24-1.31.54Z" style="fill:#3d3c3d"/><path d="M101.1,138.48v8.24c0,.3.58.54,1.31.54s1.31-.24,1.31-.54v-9.65c0-.3-.58-.54-1.31-.54s-1.31.24-1.31.54Z" style="fill:none;stroke:#46d2be;stroke-miterlimit:10;stroke-width:0.75px"/><path d="M122.12,122.9v8.24c0,.3.58.54,1.31.54s1.31-.24,1.31-.54v-9.65c0-.3-.58-.54-1.31-.54s-1.31.24-1.31.54Z" style="fill:#3d3c3d"/><path d="M122.12,122.9v8.24c0,.3.58.54,1.31.54s1.31-.24,1.31-.54v-9.65c0-.3-.58-.54-1.31-.54s-1.31.24-1.31.54Z" style="fill:none;stroke:#46d2be;stroke-miterlimit:10;stroke-width:0.75px"/><path d="M140.53,108.67v8.24c0,.3.58.54,1.31.54s1.31-.24,1.31-.54v-9.65c0-.3-.58-.54-1.31-.54s-1.31.24-1.31.54Z" style="fill:#3d3c3d"/><path d="M140.53,108.67v8.24c0,.3.58.54,1.31.54s1.31-.24,1.31-.54v-9.65c0-.3-.58-.54-1.31-.54s-1.31.24-1.31.54Z" style="fill:none;stroke:#46d2be;stroke-miterlimit:10;stroke-width:0.75px"/><path d="M62,108.67v8.24c0,.3.58.54,1.31.54s1.31-.24,1.31-.54v-9.65c0-.3-.58-.54-1.31-.54S62,107,62,107.25Z" style="fill:#3d3c3d"/><path d="M62,108.67v8.24c0,.3.58.54,1.31.54s1.31-.24,1.31-.54v-9.65c0-.3-.58-.54-1.31-.54S62,107,62,107.25Z" style="fill:none;stroke:#46d2be;stroke-miterlimit:10;stroke-width:0.75px"/><path d="M43.2,95.65v8.24c0,.3.58.54,1.31.54s1.31-.24,1.31-.54V94.24c0-.3-.58-.54-1.31-.54s-1.31.24-1.31.54Z" style="fill:#3d3c3d"/><path d="M43.2,95.65v8.24c0,.3.58.54,1.31.54s1.31-.24,1.31-.54V94.24c0-.3-.58-.54-1.31-.54s-1.31.24-1.31.54Z" style="fill:none;stroke:#46d2be;stroke-miterlimit:10;stroke-width:0.75px"/><polyline points="161.67 93.8 161.67 96.29 102.17 140.62 42.98 96.87 42.98 94.33" style="fill:#3d3c3d"/><polyline points="161.67 93.8 161.67 96.29 102.17 140.62 42.98 96.87 42.98 94.33" style="fill:none;stroke:#46d2be;stroke-miterlimit:10;stroke-width:0.75px"/><polygon points="102.88 50.02 43.09 94.33 102.28 138.09 161.78 93.75 102.88 50.02" style="fill:#3d3c3d"/><polygon points="102.88 50.02 43.09 94.33 102.28 138.09 161.78 93.75 102.88 50.02" style="fill:none;stroke:#46d2be;stroke-miterlimit:10;stroke-width:0.75px"/><path d="M159,85.38v8.24c0,.3.58.54,1.31.54s1.31-.24,1.31-.54V84c0-.3-.58-.54-1.31-.54S159,83.67,159,84Z" style="fill:#3d3c3d"/><path d="M159,85.38v8.24c0,.3.58.54,1.31.54s1.31-.24,1.31-.54V84c0-.3-.58-.54-1.31-.54S159,83.67,159,84Z" style="fill:none;stroke:#46d2be;stroke-miterlimit:10;stroke-width:0.75px"/><ellipse cx="160.34" cy="83.92" rx="1.31" ry="0.52" style="fill:#3d3c3d"/><ellipse cx="160.34" cy="83.92" rx="1.31" ry="0.52" style="fill:none;stroke:#46d2be;stroke-miterlimit:10;stroke-width:0.75px"/><path d="M79.84,113.51v8.24c0,.3.58.54,1.31.54s1.31-.24,1.31-.54v-9.65c0-.3-.58-.54-1.31-.54s-1.31.24-1.31.54Z" style="fill:#3d3c3d"/><path d="M79.84,113.51v8.24c0,.3.58.54,1.31.54s1.31-.24,1.31-.54v-9.65c0-.3-.58-.54-1.31-.54s-1.31.24-1.31.54Z" style="fill:none;stroke:#46d2be;stroke-miterlimit:10;stroke-width:0.75px"/><ellipse cx="81.14" cy="112.04" rx="1.31" ry="0.52" style="fill:#3d3c3d"/><ellipse cx="81.14" cy="112.04" rx="1.31" ry="0.52" style="fill:none;stroke:#46d2be;stroke-miterlimit:10;stroke-width:0.75px"/><path d="M101.1,128.79V137c0,.3.58.54,1.31.54s1.31-.24,1.31-.54v-9.65c0-.3-.58-.54-1.31-.54s-1.31.24-1.31.54Z" style="fill:#3d3c3d"/><path d="M101.1,128.79V137c0,.3.58.54,1.31.54s1.31-.24,1.31-.54v-9.65c0-.3-.58-.54-1.31-.54s-1.31.24-1.31.54Z" style="fill:none;stroke:#46d2be;stroke-miterlimit:10;stroke-width:0.75px"/><path d="M122.12,113.51v8.24c0,.3.58.54,1.31.54s1.31-.24,1.31-.54v-9.65c0-.3-.58-.54-1.31-.54s-1.31.24-1.31.54Z" style="fill:#3d3c3d"/><path d="M122.12,113.51v8.24c0,.3.58.54,1.31.54s1.31-.24,1.31-.54v-9.65c0-.3-.58-.54-1.31-.54s-1.31.24-1.31.54Z" style="fill:none;stroke:#46d2be;stroke-miterlimit:10;stroke-width:0.75px"/><path d="M140.53,99.28v8.24c0,.3.58.54,1.31.54s1.31-.24,1.31-.54V97.86c0-.3-.58-.54-1.31-.54s-1.31.24-1.31.54Z" style="fill:#3d3c3d"/><path d="M140.53,99.28v8.24c0,.3.58.54,1.31.54s1.31-.24,1.31-.54V97.86c0-.3-.58-.54-1.31-.54s-1.31.24-1.31.54Z" style="fill:none;stroke:#46d2be;stroke-miterlimit:10;stroke-width:0.75px"/><path d="M62,99.28v8.24c0,.3.58.54,1.31.54s1.31-.24,1.31-.54V97.86c0-.3-.58-.54-1.31-.54s-1.31.24-1.31.54Z" style="fill:#3d3c3d"/><path d="M62,99.28v8.24c0,.3.58.54,1.31.54s1.31-.24,1.31-.54V97.86c0-.3-.58-.54-1.31-.54s-1.31.24-1.31.54Z" style="fill:none;stroke:#46d2be;stroke-miterlimit:10;stroke-width:0.75px"/><path d="M43.2,86v8.24c0,.3.58.54,1.31.54s1.31-.24,1.31-.54V84.59c0-.3-.58-.54-1.31-.54s-1.31.24-1.31.54Z" style="fill:#3d3c3d"/><path d="M43.2,86v8.24c0,.3.58.54,1.31.54s1.31-.24,1.31-.54V84.59c0-.3-.58-.54-1.31-.54s-1.31.24-1.31.54Z" style="fill:none;stroke:#46d2be;stroke-miterlimit:10;stroke-width:0.75px"/><polyline points="161.73 84.09 161.73 86.62 102.22 130.96 43.04 87.2 43.04 84.66" style="fill:#3d3c3d"/><polyline points="161.73 84.09 161.73 86.62 102.22 130.96 43.04 87.2 43.04 84.66" style="fill:none;stroke:#46d2be;stroke-miterlimit:10;stroke-width:0.75px"/><polygon points="102.93 40.36 43.15 84.66 102.33 128.42 161.84 84.09 102.93 40.36" style="fill:#3d3c3d"/><polygon points="102.93 40.36 43.15 84.66 102.33 128.42 161.84 84.09 102.93 40.36" style="fill:none;stroke:#46d2be;stroke-miterlimit:10;stroke-width:0.75px"/><path d="M159,75.67V83.9c0,.3.58.54,1.31.54s1.31-.24,1.31-.54V74.25c0-.3-.58-.54-1.31-.54S159,74,159,74.25Z" style="fill:#3d3c3d"/><path d="M159,75.67V83.9c0,.3.58.54,1.31.54s1.31-.24,1.31-.54V74.25c0-.3-.58-.54-1.31-.54S159,74,159,74.25Z" style="fill:none;stroke:#46d2be;stroke-miterlimit:10;stroke-width:0.75px"/><ellipse cx="160.34" cy="74.2" rx="1.31" ry="0.52" style="fill:#3d3c3d"/><ellipse cx="160.34" cy="74.2" rx="1.31" ry="0.52" style="fill:none;stroke:#46d2be;stroke-miterlimit:10;stroke-width:0.75px"/><path d="M79.84,103.71V112c0,.3.58.54,1.31.54s1.31-.24,1.31-.54V102.3c0-.3-.58-.54-1.31-.54s-1.31.24-1.31.54Z" style="fill:#3d3c3d"/><path d="M79.84,103.71V112c0,.3.58.54,1.31.54s1.31-.24,1.31-.54V102.3c0-.3-.58-.54-1.31-.54s-1.31.24-1.31.54Z" style="fill:none;stroke:#46d2be;stroke-miterlimit:10;stroke-width:0.75px"/><ellipse cx="81.14" cy="102.25" rx="1.31" ry="0.52" style="fill:#3d3c3d"/><ellipse cx="81.14" cy="102.25" rx="1.31" ry="0.52" style="fill:none;stroke:#46d2be;stroke-miterlimit:10;stroke-width:0.75px"/><path d="M101.1,119.16v8.24c0,.3.58.54,1.31.54s1.31-.24,1.31-.54v-9.65c0-.3-.58-.54-1.31-.54s-1.31.24-1.31.54Z" style="fill:#3d3c3d"/><path d="M101.1,119.16v8.24c0,.3.58.54,1.31.54s1.31-.24,1.31-.54v-9.65c0-.3-.58-.54-1.31-.54s-1.31.24-1.31.54Z" style="fill:none;stroke:#46d2be;stroke-miterlimit:10;stroke-width:0.75px"/><path d="M122.12,103.71V112c0,.3.58.54,1.31.54s1.31-.24,1.31-.54V102.3c0-.3-.58-.54-1.31-.54s-1.31.24-1.31.54Z" style="fill:#3d3c3d"/><path d="M122.12,103.71V112c0,.3.58.54,1.31.54s1.31-.24,1.31-.54V102.3c0-.3-.58-.54-1.31-.54s-1.31.24-1.31.54Z" style="fill:none;stroke:#46d2be;stroke-miterlimit:10;stroke-width:0.75px"/><path d="M140.53,89.49v8.24c0,.3.58.54,1.31.54s1.31-.24,1.31-.54V88.07c0-.3-.58-.54-1.31-.54s-1.31.24-1.31.54Z" style="fill:#3d3c3d"/><path d="M140.53,89.49v8.24c0,.3.58.54,1.31.54s1.31-.24,1.31-.54V88.07c0-.3-.58-.54-1.31-.54s-1.31.24-1.31.54Z" style="fill:none;stroke:#46d2be;stroke-miterlimit:10;stroke-width:0.75px"/><path d="M62,89.49v8.24c0,.3.58.54,1.31.54s1.31-.24,1.31-.54V88.07c0-.3-.58-.54-1.31-.54s-1.31.24-1.31.54Z" style="fill:#3d3c3d"/><path d="M62,89.49v8.24c0,.3.58.54,1.31.54s1.31-.24,1.31-.54V88.07c0-.3-.58-.54-1.31-.54s-1.31.24-1.31.54Z" style="fill:none;stroke:#46d2be;stroke-miterlimit:10;stroke-width:0.75px"/><path d="M43.2,76.37v8.24c0,.3.58.54,1.31.54s1.31-.24,1.31-.54V75c0-.3-.58-.54-1.31-.54s-1.31.24-1.31.54Z" style="fill:#3d3c3d"/><path d="M43.2,76.37v8.24c0,.3.58.54,1.31.54s1.31-.24,1.31-.54V75c0-.3-.58-.54-1.31-.54s-1.31.24-1.31.54Z" style="fill:none;stroke:#46d2be;stroke-miterlimit:10;stroke-width:0.75px"/><polyline points="161.62 74.42 161.62 76.96 102.12 121.29 42.93 77.53 42.93 74.98" style="fill:#3d3c3d"/><polyline points="161.62 74.42 161.62 76.96 102.12 121.29 42.93 77.53 42.93 74.98" style="fill:none;stroke:#46d2be;stroke-miterlimit:10;stroke-width:0.75px"/><polygon points="102.82 30.69 43.04 75 102.22 118.75 161.73 74.42 102.82 30.69" style="fill:#3d3c3d"/><polygon points="102.82 30.69 43.04 75 102.22 118.75 161.73 74.42 102.82 30.69" style="fill:none;stroke:#46d2be;stroke-miterlimit:10;stroke-width:0.75px"/><polygon points="92.45 14.59 0.63 82.29 105.93 160.13 197.24 92.39 92.45 14.59" style="fill:#3d3c3d"/><polygon points="92.45 14.59 0.63 82.29 105.93 160.13 197.24 92.39 92.45 14.59" style="fill:none;stroke:#46d2be;stroke-miterlimit:10;stroke-width:0.75px"/><polygon points="92.45 10.45 0.63 78.15 105.93 155.99 197.24 88.25 92.45 10.45" style="fill:#3d3c3d"/><polygon points="92.45 10.45 0.63 78.15 105.93 155.99 197.24 88.25 92.45 10.45" style="fill:none;stroke:#46d2be;stroke-miterlimit:10;stroke-width:0.75px"/><polygon points="92.45 6.31 0.63 74.01 105.93 151.85 197.24 84.11 92.45 6.31" style="fill:#3d3c3d"/><polygon points="92.45 6.31 0.63 74.01 105.93 151.85 197.24 84.11 92.45 6.31" style="fill:none;stroke:#46d2be;stroke-miterlimit:10;stroke-width:0.75px"/><polygon points="92.45 2.17 0.63 69.87 105.93 147.72 197.24 79.97 92.45 2.17" style="fill:#3d3c3d"/><polygon points="92.45 2.17 0.63 69.87 105.93 147.72 197.24 79.97 92.45 2.17" style="fill:none;stroke:#46d2be;stroke-miterlimit:10;stroke-width:0.75px"/><path d="M159,66.16v8.24c0,.3.58.54,1.31.54s1.31-.24,1.31-.54V64.74c0-.3-.58-.54-1.31-.54s-1.31.24-1.31.54Z" style="fill:#3d3c3d"/><path d="M159,66.16v8.24c0,.3.58.54,1.31.54s1.31-.24,1.31-.54V64.74c0-.3-.58-.54-1.31-.54s-1.31.24-1.31.54Z" style="fill:none;stroke:#46d2be;stroke-miterlimit:10;stroke-width:0.75px"/><ellipse cx="160.33" cy="64.69" rx="1.31" ry="0.52" style="fill:#3d3c3d"/><ellipse cx="160.33" cy="64.69" rx="1.31" ry="0.52" style="fill:none;stroke:#46d2be;stroke-miterlimit:10;stroke-width:0.75px"/><path d="M79.84,93.92v8.24c0,.3.58.54,1.31.54s1.31-.24,1.31-.54V92.51c0-.3-.58-.54-1.31-.54s-1.31.24-1.31.54Z" style="fill:#3d3c3d"/><path d="M79.84,93.92v8.24c0,.3.58.54,1.31.54s1.31-.24,1.31-.54V92.51c0-.3-.58-.54-1.31-.54s-1.31.24-1.31.54Z" style="fill:none;stroke:#46d2be;stroke-miterlimit:10;stroke-width:0.75px"/><ellipse cx="81.14" cy="92.46" rx="1.31" ry="0.52" style="fill:#3d3c3d"/><ellipse cx="81.14" cy="92.46" rx="1.31" ry="0.52" style="fill:none;stroke:#46d2be;stroke-miterlimit:10;stroke-width:0.75px"/><path d="M101.09,109.48v8.24c0,.3.58.54,1.31.54s1.31-.24,1.31-.54v-9.65c0-.3-.58-.54-1.31-.54s-1.31.24-1.31.54Z" style="fill:#3d3c3d"/><path d="M101.09,109.48v8.24c0,.3.58.54,1.31.54s1.31-.24,1.31-.54v-9.65c0-.3-.58-.54-1.31-.54s-1.31.24-1.31.54Z" style="fill:none;stroke:#46d2be;stroke-miterlimit:10;stroke-width:0.75px"/><path d="M122.12,93.92v8.24c0,.3.58.54,1.31.54s1.31-.24,1.31-.54V92.51c0-.3-.58-.54-1.31-.54s-1.31.24-1.31.54Z" style="fill:#3d3c3d"/><path d="M122.12,93.92v8.24c0,.3.58.54,1.31.54s1.31-.24,1.31-.54V92.51c0-.3-.58-.54-1.31-.54s-1.31.24-1.31.54Z" style="fill:none;stroke:#46d2be;stroke-miterlimit:10;stroke-width:0.75px"/><path d="M140.53,79.69v8.24c0,.3.58.54,1.31.54s1.31-.24,1.31-.54V78.28c0-.3-.58-.54-1.31-.54s-1.31.24-1.31.54Z" style="fill:#3d3c3d"/><path d="M140.53,79.69v8.24c0,.3.58.54,1.31.54s1.31-.24,1.31-.54V78.28c0-.3-.58-.54-1.31-.54s-1.31.24-1.31.54Z" style="fill:none;stroke:#46d2be;stroke-miterlimit:10;stroke-width:0.75px"/><path d="M62,79.69v8.24c0,.3.58.54,1.31.54s1.31-.24,1.31-.54V78.28c0-.3-.58-.54-1.31-.54S62,78,62,78.28Z" style="fill:#3d3c3d"/><path d="M62,79.69v8.24c0,.3.58.54,1.31.54s1.31-.24,1.31-.54V78.28c0-.3-.58-.54-1.31-.54S62,78,62,78.28Z" style="fill:none;stroke:#46d2be;stroke-miterlimit:10;stroke-width:0.75px"/><path d="M43.18,66.82v8.24c0,.3.58.54,1.31.54s1.31-.24,1.31-.54V65.41c0-.3-.58-.54-1.31-.54s-1.31.24-1.31.54Z" style="fill:#3d3c3d"/><path d="M43.18,66.82v8.24c0,.3.58.54,1.31.54s1.31-.24,1.31-.54V65.41c0-.3-.58-.54-1.31-.54s-1.31.24-1.31.54Z" style="fill:none;stroke:#46d2be;stroke-miterlimit:10;stroke-width:0.75px"/><polyline points="161.67 64.75 161.67 67.29 102.17 111.62 42.98 67.86 42.98 65.35" style="fill:#3d3c3d"/><polyline points="161.67 64.75 161.67 67.29 102.17 111.62 42.98 67.86 42.98 65.35" style="fill:none;stroke:#46d2be;stroke-miterlimit:10;stroke-width:0.75px"/><polygon points="102.88 21.02 43.09 65.33 102.28 109.09 161.78 64.75 102.88 21.02" style="fill:#3d3c3d"/><polygon points="102.88 21.02 43.09 65.33 102.28 109.09 161.78 64.75 102.88 21.02" style="fill:none;stroke:#46d2be;stroke-miterlimit:10;stroke-width:0.75px"/><path d="M159,56.47v8.24c0,.3.58.54,1.31.54s1.31-.24,1.31-.54V55.06c0-.3-.58-.54-1.31-.54s-1.31.24-1.31.54Z" style="fill:#3d3c3d"/><path d="M159,56.47v8.24c0,.3.58.54,1.31.54s1.31-.24,1.31-.54V55.06c0-.3-.58-.54-1.31-.54s-1.31.24-1.31.54Z" style="fill:none;stroke:#46d2be;stroke-miterlimit:10;stroke-width:0.75px"/><ellipse cx="160.34" cy="55.01" rx="1.31" ry="0.52" style="fill:#3d3c3d"/><ellipse cx="160.34" cy="55.01" rx="1.31" ry="0.52" style="fill:none;stroke:#46d2be;stroke-miterlimit:10;stroke-width:0.75px"/><path d="M79.84,84.13v8.24c0,.3.58.54,1.31.54s1.31-.24,1.31-.54V82.72c0-.3-.58-.54-1.31-.54s-1.31.24-1.31.54Z" style="fill:#3d3c3d"/><path d="M79.84,84.13v8.24c0,.3.58.54,1.31.54s1.31-.24,1.31-.54V82.72c0-.3-.58-.54-1.31-.54s-1.31.24-1.31.54Z" style="fill:none;stroke:#46d2be;stroke-miterlimit:10;stroke-width:0.75px"/><ellipse cx="81.14" cy="82.67" rx="1.31" ry="0.52" style="fill:#3d3c3d"/><ellipse cx="81.14" cy="82.67" rx="1.31" ry="0.52" style="fill:none;stroke:#46d2be;stroke-miterlimit:10;stroke-width:0.75px"/><path d="M101.1,100v8.24c0,.3.58.54,1.31.54s1.31-.24,1.31-.54V98.56c0-.3-.58-.54-1.31-.54s-1.31.24-1.31.54Z" style="fill:#3d3c3d"/><path d="M101.1,100v8.24c0,.3.58.54,1.31.54s1.31-.24,1.31-.54V98.56c0-.3-.58-.54-1.31-.54s-1.31.24-1.31.54Z" style="fill:none;stroke:#46d2be;stroke-miterlimit:10;stroke-width:0.75px"/><path d="M122.12,84.13v8.24c0,.3.58.54,1.31.54s1.31-.24,1.31-.54V82.72c0-.3-.58-.54-1.31-.54s-1.31.24-1.31.54Z" style="fill:#3d3c3d"/><path d="M122.12,84.13v8.24c0,.3.58.54,1.31.54s1.31-.24,1.31-.54V82.72c0-.3-.58-.54-1.31-.54s-1.31.24-1.31.54Z" style="fill:none;stroke:#46d2be;stroke-miterlimit:10;stroke-width:0.75px"/><path d="M140.53,69.9v8.24c0,.3.58.54,1.31.54s1.31-.24,1.31-.54V68.49c0-.3-.58-.54-1.31-.54s-1.31.24-1.31.54Z" style="fill:#3d3c3d"/><path d="M140.53,69.9v8.24c0,.3.58.54,1.31.54s1.31-.24,1.31-.54V68.49c0-.3-.58-.54-1.31-.54s-1.31.24-1.31.54Z" style="fill:none;stroke:#46d2be;stroke-miterlimit:10;stroke-width:0.75px"/><path d="M62,69.9v8.24c0,.3.58.54,1.31.54s1.31-.24,1.31-.54V68.49c0-.3-.58-.54-1.31-.54s-1.31.24-1.31.54Z" style="fill:#3d3c3d"/><path d="M62,69.9v8.24c0,.3.58.54,1.31.54s1.31-.24,1.31-.54V68.49c0-.3-.58-.54-1.31-.54s-1.31.24-1.31.54Z" style="fill:none;stroke:#46d2be;stroke-miterlimit:10;stroke-width:0.75px"/><path d="M43.2,57v8.24c0,.3.58.54,1.31.54s1.31-.24,1.31-.54V55.62c0-.3-.58-.54-1.31-.54s-1.31.24-1.31.54Z" style="fill:#3d3c3d"/><path d="M43.2,57v8.24c0,.3.58.54,1.31.54s1.31-.24,1.31-.54V55.62c0-.3-.58-.54-1.31-.54s-1.31.24-1.31.54Z" style="fill:none;stroke:#46d2be;stroke-miterlimit:10;stroke-width:0.75px"/><polyline points="161.73 55.09 161.73 57.62 102.22 101.95 43.04 58.2 43.04 55.66" style="fill:#3d3c3d"/><polyline points="161.73 55.09 161.73 57.62 102.22 101.95 43.04 58.2 43.04 55.66" style="fill:none;stroke:#46d2be;stroke-miterlimit:10;stroke-width:0.75px"/><polygon points="102.93 11.35 43.15 55.66 102.33 99.42 161.84 55.09 102.93 11.35" style="fill:#3d3c3d"/><polygon points="102.93 11.35 43.15 55.66 102.33 99.42 161.84 55.09 102.93 11.35" style="fill:none;stroke:#46d2be;stroke-miterlimit:10;stroke-width:0.75px"/><path d="M101.24,56.87V65.1c0,.3.58.54,1.31.54s1.31-.24,1.31-.54V55.46c0-.3-.58-.54-1.31-.54s-1.31.24-1.31.54Z" style="fill:#3d3c3d"/><path d="M101.24,56.87V65.1c0,.3.58.54,1.31.54s1.31-.24,1.31-.54V55.46c0-.3-.58-.54-1.31-.54s-1.31.24-1.31.54Z" style="fill:none;stroke:#46d2be;stroke-miterlimit:10;stroke-width:0.75px"/><ellipse cx="102.54" cy="55.41" rx="1.31" ry="0.52" style="fill:#3d3c3d"/><ellipse cx="102.54" cy="55.41" rx="1.31" ry="0.52" style="fill:none;stroke:#46d2be;stroke-miterlimit:10;stroke-width:0.75px"/><path d="M79.84,74.23v8.24c0,.3.58.54,1.31.54s1.31-.24,1.31-.54V72.82c0-.3-.58-.54-1.31-.54s-1.31.24-1.31.54Z" style="fill:#3d3c3d"/><path d="M79.84,74.23v8.24c0,.3.58.54,1.31.54s1.31-.24,1.31-.54V72.82c0-.3-.58-.54-1.31-.54s-1.31.24-1.31.54Z" style="fill:none;stroke:#46d2be;stroke-miterlimit:10;stroke-width:0.75px"/><ellipse cx="81.14" cy="70.67" rx="1.31" ry="0.52" style="fill:#3d3c3d"/><ellipse cx="81.14" cy="70.67" rx="1.31" ry="0.52" style="fill:none;stroke:#46d2be;stroke-miterlimit:10;stroke-width:0.75px"/><path d="M122.12,74.26V82.5c0,.3.58.54,1.31.54s1.31-.24,1.31-.54V72.85c0-.3-.58-.54-1.31-.54s-1.31.24-1.31.54Z" style="fill:#3d3c3d"/><path d="M122.12,74.26V82.5c0,.3.58.54,1.31.54s1.31-.24,1.31-.54V72.85c0-.3-.58-.54-1.31-.54s-1.31.24-1.31.54Z" style="fill:none;stroke:#46d2be;stroke-miterlimit:10;stroke-width:0.75px"/><path d="M140.53,60v8.24c0,.3.58.54,1.31.54s1.31-.24,1.31-.54V58.62c0-.3-.58-.54-1.31-.54s-1.31.24-1.31.54Z" style="fill:#3d3c3d"/><path d="M140.53,60v8.24c0,.3.58.54,1.31.54s1.31-.24,1.31-.54V58.62c0-.3-.58-.54-1.31-.54s-1.31.24-1.31.54Z" style="fill:none;stroke:#46d2be;stroke-miterlimit:10;stroke-width:0.75px"/><path d="M62,60v8.24c0,.3.58.54,1.31.54s1.31-.24,1.31-.54V58.62c0-.3-.58-.54-1.31-.54s-1.31.24-1.31.54Z" style="fill:#3d3c3d"/><path d="M62,60v8.24c0,.3.58.54,1.31.54s1.31-.24,1.31-.54V58.62c0-.3-.58-.54-1.31-.54s-1.31.24-1.31.54Z" style="fill:none;stroke:#46d2be;stroke-miterlimit:10;stroke-width:0.75px"/><ellipse cx="126.21" cy="70.67" rx="1.31" ry="0.52" style="fill:#3d3c3d"/><ellipse cx="126.21" cy="70.67" rx="1.31" ry="0.52" style="fill:none;stroke:#46d2be;stroke-miterlimit:10;stroke-width:0.75px"/><path d="M159,46.63v8.24c0,.3.58.54,1.31.54s1.31-.24,1.31-.54V45.21c0-.3-.58-.54-1.31-.54s-1.31.24-1.31.54Z" style="fill:#3d3c3d"/><path d="M159,46.63v8.24c0,.3.58.54,1.31.54s1.31-.24,1.31-.54V45.21c0-.3-.58-.54-1.31-.54s-1.31.24-1.31.54Z" style="fill:none;stroke:#46d2be;stroke-miterlimit:10;stroke-width:0.75px"/><path d="M43.15,47.22v8.24c0,.3.58.54,1.31.54s1.31-.24,1.31-.54V45.81c0-.3-.58-.54-1.31-.54s-1.31.24-1.31.54Z" style="fill:#3d3c3d"/><path d="M43.15,47.22v8.24c0,.3.58.54,1.31.54s1.31-.24,1.31-.54V45.81c0-.3-.58-.54-1.31-.54s-1.31.24-1.31.54Z" style="fill:none;stroke:#46d2be;stroke-miterlimit:10;stroke-width:0.75px"/><ellipse cx="160.29" cy="45.16" rx="1.31" ry="0.52" style="fill:#3d3c3d"/><ellipse cx="160.29" cy="45.16" rx="1.31" ry="0.52" style="fill:none;stroke:#46d2be;stroke-miterlimit:10;stroke-width:0.75px"/><path d="M101,90v8.24c0,.3.58.54,1.31.54s1.31-.24,1.31-.54V88.54c0-.3-.58-.54-1.31-.54s-1.31.24-1.31.54Z" style="fill:#3d3c3d"/><path d="M101,90v8.24c0,.3.58.54,1.31.54s1.31-.24,1.31-.54V88.54c0-.3-.58-.54-1.31-.54s-1.31.24-1.31.54Z" style="fill:none;stroke:#46d2be;stroke-miterlimit:10;stroke-width:0.75px"/><path d="M43,44.78v2.53l59.19,43.76,59.5-44.33V44.2Zm59.29,41.1L80.56,69.8l22-16.29L124.2,69.58Z" style="fill:#3d3c3d"/><path d="M43,44.78v2.53l59.19,43.76,59.5-44.33V44.2Zm59.29,41.1L80.56,69.8l22-16.29L124.2,69.58Z" style="fill:none;stroke:#46d2be;stroke-miterlimit:10;stroke-width:0.75px"/><path d="M102.93.47,43.15,44.77l59.19,43.76,59.5-44.33Zm-.6,84.95L82.5,70.75l20-14.85,19.74,14.65Z" style="fill:#3d3c3d"/><path d="M102.93.47,43.15,44.77l59.19,43.76,59.5-44.33Zm-.6,84.95L82.5,70.75l20-14.85,19.74,14.65Z" style="fill:none;stroke:#46d2be;stroke-miterlimit:10;stroke-width:0.75px"/><line x1="102.54" y1="55.91" x2="102.54" y2="58.57" style="fill:#3d3c3d"/><line x1="102.54" y1="55.91" x2="102.54" y2="58.57" style="fill:none;stroke:#46d2be;stroke-miterlimit:10;stroke-width:0.75px"/><line x1="102.33" y1="88.53" x2="102.33" y2="91.07" style="fill:#3d3c3d"/><line x1="102.33" y1="88.53" x2="102.33" y2="91.07" style="fill:none;stroke:#46d2be;stroke-miterlimit:10;stroke-width:0.75px"/><line x1="102.33" y1="99.42" x2="102.33" y2="101.95" style="fill:#3d3c3d"/><line x1="102.33" y1="99.42" x2="102.33" y2="101.95" style="fill:none;stroke:#46d2be;stroke-miterlimit:10;stroke-width:0.75px"/><line x1="102.33" y1="109.09" x2="102.33" y2="111.62" style="fill:#3d3c3d"/><line x1="102.33" y1="109.09" x2="102.33" y2="111.62" style="fill:none;stroke:#46d2be;stroke-miterlimit:10;stroke-width:0.75px"/><line x1="102.33" y1="157.42" x2="102.33" y2="159.96" style="fill:#3d3c3d"/><line x1="102.33" y1="157.42" x2="102.33" y2="159.96" style="fill:none;stroke:#46d2be;stroke-miterlimit:10;stroke-width:0.75px"/><line x1="30.27" y1="80.02" x2="74.33" y2="112.6" style="fill:#3d3c3d"/><line x1="30.27" y1="80.02" x2="74.33" y2="112.6" style="fill:none;stroke:#46d2be;stroke-miterlimit:10;stroke-width:0.75px"/><line x1="66.34" y1="114.41" x2="82.31" y2="102.56" style="fill:#3d3c3d"/><line x1="66.34" y1="114.41" x2="82.31" y2="102.56" style="fill:none;stroke:#46d2be;stroke-miterlimit:10;stroke-width:0.75px"/><line x1="27.33" y1="85.57" x2="37.75" y2="77.84" style="fill:#3d3c3d"/><line x1="27.33" y1="85.57" x2="37.75" y2="77.84" style="fill:none;stroke:#46d2be;stroke-miterlimit:10;stroke-width:0.75px"/><line x1="74.33" y1="104.44" x2="100.97" y2="124.14" style="fill:#3d3c3d"/><line x1="74.33" y1="104.44" x2="100.97" y2="124.14" style="fill:none;stroke:#46d2be;stroke-miterlimit:10;stroke-width:0.75px"/><line x1="93.14" y1="126.07" x2="103.56" y2="118.34" style="fill:#3d3c3d"/><line x1="93.14" y1="126.07" x2="103.56" y2="118.34" style="fill:none;stroke:#46d2be;stroke-miterlimit:10;stroke-width:0.75px"/><line x1="109.03" y1="178.87" x2="135.67" y2="159.18" style="fill:#3d3c3d"/><line x1="109.03" y1="178.87" x2="135.67" y2="159.18" style="fill:none;stroke:#46d2be;stroke-miterlimit:10;stroke-width:0.75px"/><line x1="127.85" y1="157.24" x2="138.27" y2="164.98" style="fill:#3d3c3d"/><line x1="127.85" y1="157.24" x2="138.27" y2="164.98" style="fill:none;stroke:#46d2be;stroke-miterlimit:10;stroke-width:0.75px"/><line x1="44.51" y1="74.96" x2="44.51" y2="116.23" style="fill:#3d3c3d"/><line x1="44.51" y1="74.96" x2="44.51" y2="75.51" style="fill:none;stroke:#46d2be;stroke-miterlimit:10;stroke-width:0.75px"/><line x1="44.51" y1="76.6" x2="44.51" y2="115.14" style="fill:none;stroke:#46d2be;stroke-miterlimit:10;stroke-width:0.75px;stroke-dasharray:1.0856845378875732,1.0856845378875732"/><line x1="44.51" y1="115.68" x2="44.51" y2="116.23" style="fill:none;stroke:#46d2be;stroke-miterlimit:10;stroke-width:0.75px"/><line x1="160.34" y1="74.96" x2="160.34" y2="119.76" style="fill:#3d3c3d"/><line x1="160.34" y1="74.96" x2="160.34" y2="75.51" style="fill:none;stroke:#46d2be;stroke-miterlimit:10;stroke-width:0.75px"/><line x1="160.34" y1="76.63" x2="160.34" y2="118.65" style="fill:none;stroke:#46d2be;stroke-miterlimit:10;stroke-width:0.75px;stroke-dasharray:1.1204835176467896,1.1204835176467896"/><line x1="160.34" y1="119.21" x2="160.34" y2="119.76" style="fill:none;stroke:#46d2be;stroke-miterlimit:10;stroke-width:0.75px"/><line x1="106" y1="172.81" x2="116.42" y2="180.54" style="fill:#3d3c3d"/><line x1="106" y1="172.81" x2="116.42" y2="180.54" style="fill:none;stroke:#46d2be;stroke-miterlimit:10;stroke-width:0.75px"/><line x1="110.61" y1="127.79" x2="174.64" y2="80.46" style="fill:#3d3c3d"/><line x1="110.61" y1="127.79" x2="174.64" y2="80.46" style="fill:none;stroke:#46d2be;stroke-miterlimit:10;stroke-width:0.75px"/><line x1="166.77" y1="78.37" x2="177.19" y2="86.1" style="fill:#3d3c3d"/><line x1="166.77" y1="78.37" x2="177.19" y2="86.1" style="fill:none;stroke:#46d2be;stroke-miterlimit:10;stroke-width:0.75px"/><line x1="107.58" y1="121.73" x2="118" y2="129.46" style="fill:#3d3c3d"/><line x1="107.58" y1="121.73" x2="118" y2="129.46" style="fill:none;stroke:#46d2be;stroke-miterlimit:10;stroke-width:0.75px"/><text transform="translate(66.34 44.92)" style="font-size:14px;fill:#46d2be;font-family:Barlow-Regular, Barlow"><tspan style="letter-spacing:-0.008980887276785714em">R</tspan><tspan x="8.44" y="0">VT</tspan></text><text transform="translate(167.87 44.92)" style="font-size:14px;fill:#46d2be;font-family:Barlow-Regular, Barlow">N<tspan x="9.42" y="0" style="letter-spacing:-0.014003208705357142em">W</tspan><tspan x="21.43" y="0">F</tspan></text><text transform="translate(167.87 171.45)" style="font-size:14px;fill:#46d2be;font-family:Barlow-Regular, Barlow">PDF</text></svg>