<svg xmlns="http://www.w3.org/2000/svg" xmlns:xlink="http://www.w3.org/1999/xlink" viewBox="0 0 272.82 176.23"><defs><clipPath id="a"><path d="M53.05,114.75a4.33,4.33,0,0,1-4.34-4.31l0-60.58A4.33,4.33,0,0,1,53,45.51H153.68A4.33,4.33,0,0,1,158,49.83l0,60.6a4.33,4.33,0,0,1-4.31,4.34Z" style="fill:#3d3c3d;stroke:#ffc900;stroke-miterlimit:10;stroke-width:0.75px"/></clipPath></defs><title>Asset 9</title><path d="M5.25,109.89A4.84,4.84,0,0,1,.4,105.06l0-99.83A4.84,4.84,0,0,1,5.2.38H65.8A4.84,4.84,0,0,1,70.66,5.2l0,99.85a4.84,4.84,0,0,1-4.83,4.85Z" style="fill:#3d3c3d;stroke:#ffc900;stroke-miterlimit:10;stroke-width:0.75px"/><line x1="7.43" y1="23.01" x2="64.08" y2="23.01" style="fill:none;stroke:#ffc900;stroke-miterlimit:10;stroke-width:0.75px"/><line x1="7.43" y1="26.26" x2="61.85" y2="26.26" style="fill:none;stroke:#ffc900;stroke-miterlimit:10;stroke-width:0.75px"/><line x1="7.43" y1="29.51" x2="58.73" y2="29.51" style="fill:none;stroke:#ffc900;stroke-miterlimit:10;stroke-width:0.75px"/><line x1="7.43" y1="32.77" x2="64.08" y2="32.77" style="fill:none;stroke:#ffc900;stroke-miterlimit:10;stroke-width:0.75px"/><line x1="7.43" y1="36.02" x2="61.85" y2="36.02" style="fill:none;stroke:#ffc900;stroke-miterlimit:10;stroke-width:0.75px"/><line x1="7.43" y1="39.27" x2="36.57" y2="39.27" style="fill:none;stroke:#ffc900;stroke-miterlimit:10;stroke-width:0.75px"/><line x1="7.43" y1="42.53" x2="33.08" y2="42.53" style="fill:none;stroke:#ffc900;stroke-miterlimit:10;stroke-width:0.75px"/><line x1="7.43" y1="45.78" x2="34.64" y2="45.78" style="fill:none;stroke:#ffc900;stroke-miterlimit:10;stroke-width:0.75px"/><line x1="7.43" y1="49.03" x2="34.64" y2="49.03" style="fill:none;stroke:#ffc900;stroke-miterlimit:10;stroke-width:0.75px"/><line x1="7.43" y1="52.29" x2="33.08" y2="52.29" style="fill:none;stroke:#ffc900;stroke-miterlimit:10;stroke-width:0.75px"/><line x1="7.43" y1="55.14" x2="26.2" y2="55.14" style="fill:none;stroke:#ffc900;stroke-miterlimit:10;stroke-width:0.75px"/><rect x="7.43" y="61.37" width="29.14" height="20" style="fill:none;stroke:#ffc900;stroke-miterlimit:10;stroke-width:0.75px"/><rect x="7.43" y="84.24" width="29.14" height="20" style="fill:none;stroke:#ffc900;stroke-miterlimit:10;stroke-width:0.75px"/><line x1="7.43" y1="65.3" x2="36.57" y2="65.3" style="fill:none;stroke:#ffc900;stroke-miterlimit:10;stroke-width:0.75px"/><line x1="7.43" y1="88.23" x2="36.57" y2="88.23" style="fill:none;stroke:#ffc900;stroke-miterlimit:10;stroke-width:0.75px"/><path d="M47.25,121.22a4.84,4.84,0,0,1-4.86-4.83l0-72.07a4.84,4.84,0,0,1,4.83-4.86H158.79a4.84,4.84,0,0,1,4.86,4.83l0,72.09a4.84,4.84,0,0,1-4.83,4.86Z" style="fill:#3d3c3d;stroke:#ffc900;stroke-miterlimit:10;stroke-width:0.75px"/><path d="M197.09,19.81a3,3,0,0,1-3-3V12.78a3,3,0,0,1,3-3H214.2a3,3,0,0,1,3,3l0,4.08a3,3,0,0,1-3,3Z" style="fill:#3d3c3d;stroke:#ffc900;stroke-miterlimit:10;stroke-width:0.75px"/><path d="M234,40.55a3,3,0,0,1-3-3V25.52a3,3,0,0,1,3-3h22.17a3,3,0,0,1,3,3V37.58a3,3,0,0,1-3,3Z" style="fill:#3d3c3d;stroke:#ffc900;stroke-miterlimit:10;stroke-width:0.75px"/><rect x="202.87" y="50.79" width="68.31" height="101.38" style="fill:#3d3c3d;stroke:#ffc900;stroke-miterlimit:10;stroke-width:0.75px"/><path d="M53.05,114.75a4.33,4.33,0,0,1-4.34-4.31l0-60.58A4.33,4.33,0,0,1,53,45.51H153.68A4.33,4.33,0,0,1,158,49.83l0,60.6a4.33,4.33,0,0,1-4.31,4.34Z" style="fill:#3d3c3d"/><g style="clip-path:url(#a)"><path d="M61,141.71s0-3,0-14.73c0-23.6,21.72-25.26,21.72-41.84V77.73" style="fill:none;stroke:#ffc900;stroke-linecap:round;stroke-linejoin:round;stroke-width:0.75px"/><path d="M102.51,92v-.11c.24,25.94-21.71,24-21.74,47.6,0,8.88,0,16.44,0,16.44L61,141.71" style="fill:none;stroke:#ffc900;stroke-linecap:round;stroke-linejoin:round;stroke-width:0.75px"/><line x1="80.79" y1="155.88" x2="61" y2="141.71" style="fill:none;stroke:#ffc900;stroke-miterlimit:10;stroke-width:0.75px"/><line x1="80.79" y1="148.24" x2="61" y2="134.21" style="fill:none;stroke:#ffc900;stroke-miterlimit:10;stroke-width:0.75px"/><line x1="80.77" y1="140.15" x2="61" y2="125.94" style="fill:none;stroke:#ffc900;stroke-miterlimit:10;stroke-width:0.75px"/><line x1="81.8" y1="131.52" x2="62.36" y2="117.58" style="fill:none;stroke:#ffc900;stroke-miterlimit:10;stroke-width:0.75px"/><line x1="93.44" y1="114.72" x2="74.28" y2="100.99" style="fill:none;stroke:#ffc900;stroke-linecap:round;stroke-linejoin:round;stroke-width:0.75px"/><line x1="101.65" y1="100.59" x2="82.72" y2="87.04" style="fill:none;stroke:#ffc900;stroke-linecap:round;stroke-linejoin:round;stroke-width:0.75px"/><path d="M107.6,88.17v6.56c.24,25.94-21.71,24-21.74,47.6,0,8.88,0,9.84,0,9.84" style="fill:none;stroke:#ffc900;stroke-linecap:round;stroke-linejoin:round;stroke-width:0.75px"/><path d="M113,84.17V95c.24,25.94-21.73,24-21.74,47.6v5.53" style="fill:none;stroke:#ffc900;stroke-linecap:round;stroke-linejoin:round;stroke-width:0.75px"/><path d="M118,80.41V95.82c.24,25.94-21.71,24-21.74,47.6,0,.9,0,1,0,1" style="fill:none;stroke:#ffc900;stroke-linecap:round;stroke-linejoin:round;stroke-width:0.75px"/><polyline points="102.51 91.9 82.72 77.73 102.99 62.68 122.78 76.85 122.78 76.91 102.51 91.95" style="fill:none;stroke:#ffc900;stroke-linecap:round;stroke-linejoin:round;stroke-width:0.75px"/><path d="M102.38,92" style="fill:none;stroke:#ffc900;stroke-linecap:round;stroke-linejoin:round;stroke-width:0.75px"/><line x1="122.78" y1="84.91" x2="101.65" y2="100.59" style="fill:none;stroke:#ffc900;stroke-linecap:round;stroke-linejoin:round;stroke-width:0.75px"/><line x1="122.78" y1="93.04" x2="93.22" y2="114.95" style="fill:none;stroke:#ffc900;stroke-linecap:round;stroke-linejoin:round;stroke-width:0.75px"/><line x1="122.6" y1="100.99" x2="81.75" y2="131.58" style="fill:none;stroke:#ffc900;stroke-linecap:round;stroke-linejoin:round;stroke-width:0.75px"/><line x1="119.66" y1="111.5" x2="80.77" y2="140.15" style="fill:none;stroke:#ffc900;stroke-miterlimit:10;stroke-width:0.75px"/><line x1="104.38" y1="130.8" x2="80.77" y2="148.24" style="fill:none;stroke:#ffc900;stroke-miterlimit:10;stroke-width:0.75px"/><path d="M65.22,141.73s0,11.84,0-11.76,21.72-26.24,21.72-42.82v-6.4" style="fill:none;stroke:#ffc900;stroke-linecap:round;stroke-linejoin:round;stroke-width:0.75px"/><path d="M70.12,148.24s0-2.8,0-14.56c0-23.6,21.72-26.24,21.72-42.82V84.27" style="fill:none;stroke:#ffc900;stroke-linecap:round;stroke-linejoin:round;stroke-width:0.75px"/><path d="M75,148.83s0,11.84,0-11.76,21.72-26.24,21.72-42.82V87.76" style="fill:none;stroke:#ffc900;stroke-linecap:round;stroke-linejoin:round;stroke-width:0.75px"/><path d="M80.77,156l20.44-15.06a25.68,25.68,0,0,1,6.26-14.5c6.46-7.81,15.46-13,15.3-29.62V76.85" style="fill:none;stroke:#ffc900;stroke-linecap:round;stroke-linejoin:round;stroke-width:0.75px"/><path d="M79.3,128.67" style="fill:none;stroke:#ffc900;stroke-miterlimit:10;stroke-width:0.75px"/><polygon points="102.61 90.58 121.16 76.9 102.9 64.05 84.34 77.73 102.61 90.58" style="fill:#3d3c3d;stroke:#ffc900;stroke-linecap:round;stroke-linejoin:round;stroke-width:0.75px"/><polyline points="102.9 64.05 102.9 65.81 119.87 77.73" style="fill:none;stroke:#ffc900;stroke-linecap:round;stroke-linejoin:round;stroke-width:0.75px"/><line x1="85.43" y1="78.5" x2="102.9" y2="65.81" style="fill:none;stroke:#ffc900;stroke-linecap:round;stroke-linejoin:round;stroke-width:0.75px"/><path d="M103.34,76.25a.71.71,0,0,1-.51.23.82.82,0,0,1-.51-.23V58.57h1Z" style="fill:#3d3c3d;stroke:#ffc900;stroke-linecap:round;stroke-linejoin:round;stroke-width:0.75px"/><path d="M104,48.89a10.1,10.1,0,0,0-1.17,9.81A11.38,11.38,0,0,0,104,48.89Z" style="fill:#3d3c3d;stroke:#ffc900;stroke-linecap:round;stroke-linejoin:round;stroke-width:0.75px"/><path d="M102.78,58.6a10.1,10.1,0,0,0,7.91,5.92A11.38,11.38,0,0,0,102.78,58.6Z" style="fill:#3d3c3d;stroke:#ffc900;stroke-linecap:round;stroke-linejoin:round;stroke-width:0.75px"/><path d="M102.78,58.6a10.1,10.1,0,0,1-9.11,3.82A11.38,11.38,0,0,1,102.78,58.6Z" style="fill:#3d3c3d;stroke:#ffc900;stroke-linecap:round;stroke-linejoin:round;stroke-width:0.75px"/><circle cx="102.8" cy="58.46" r="0.81" transform="translate(32.21 153.34) rotate(-82.98)" style="fill:#3d3c3d;stroke:#ffc900;stroke-linecap:round;stroke-linejoin:round;stroke-width:0.75px"/></g><path d="M53.05,114.75a4.33,4.33,0,0,1-4.34-4.31l0-60.58A4.33,4.33,0,0,1,53,45.51H153.68A4.33,4.33,0,0,1,158,49.83l0,60.6a4.33,4.33,0,0,1-4.31,4.34Z" style="fill:none;stroke:#ffc900;stroke-miterlimit:10;stroke-width:0.75px"/><rect x="145.41" y="19.62" width="38.15" height="55.03" style="fill:#3d3c3d;stroke:#ffc900;stroke-miterlimit:10;stroke-width:0.75px"/><line x1="225.65" y1="50.79" x2="225.65" y2="151.63" style="fill:none;stroke:#ffc900;stroke-miterlimit:10;stroke-width:0.75px"/><line x1="248.42" y1="50.79" x2="248.42" y2="151.63" style="fill:none;stroke:#ffc900;stroke-miterlimit:10;stroke-width:0.75px"/><line x1="202.87" y1="56.76" x2="271.19" y2="56.76" style="fill:none;stroke:#ffc900;stroke-miterlimit:10;stroke-width:0.75px"/><line x1="202.87" y1="62.72" x2="271.19" y2="62.72" style="fill:none;stroke:#ffc900;stroke-miterlimit:10;stroke-width:0.75px"/><line x1="202.87" y1="68.68" x2="271.19" y2="68.68" style="fill:none;stroke:#ffc900;stroke-miterlimit:10;stroke-width:0.75px"/><line x1="202.87" y1="74.65" x2="271.19" y2="74.65" style="fill:none;stroke:#ffc900;stroke-miterlimit:10;stroke-width:0.75px"/><line x1="202.87" y1="80.61" x2="271.19" y2="80.61" style="fill:none;stroke:#ffc900;stroke-miterlimit:10;stroke-width:0.75px"/><line x1="202.87" y1="86.57" x2="271.19" y2="86.57" style="fill:none;stroke:#ffc900;stroke-miterlimit:10;stroke-width:0.75px"/><line x1="202.87" y1="92.54" x2="271.19" y2="92.54" style="fill:none;stroke:#ffc900;stroke-miterlimit:10;stroke-width:0.75px"/><line x1="202.87" y1="98.5" x2="271.19" y2="98.5" style="fill:none;stroke:#ffc900;stroke-miterlimit:10;stroke-width:0.75px"/><line x1="202.87" y1="104.46" x2="271.19" y2="104.46" style="fill:none;stroke:#ffc900;stroke-miterlimit:10;stroke-width:0.75px"/><line x1="202.87" y1="110.43" x2="271.19" y2="110.43" style="fill:none;stroke:#ffc900;stroke-miterlimit:10;stroke-width:0.75px"/><line x1="202.87" y1="116.39" x2="271.19" y2="116.39" style="fill:none;stroke:#ffc900;stroke-miterlimit:10;stroke-width:0.75px"/><line x1="202.87" y1="122.36" x2="271.19" y2="122.36" style="fill:none;stroke:#ffc900;stroke-miterlimit:10;stroke-width:0.75px"/><line x1="202.87" y1="128.32" x2="271.19" y2="128.32" style="fill:none;stroke:#ffc900;stroke-miterlimit:10;stroke-width:0.75px"/><line x1="202.87" y1="134.28" x2="271.19" y2="134.28" style="fill:none;stroke:#ffc900;stroke-miterlimit:10;stroke-width:0.75px"/><line x1="202.87" y1="140.25" x2="271.19" y2="140.25" style="fill:none;stroke:#ffc900;stroke-miterlimit:10;stroke-width:0.75px"/><line x1="202.87" y1="146.21" x2="271.19" y2="146.21" style="fill:none;stroke:#ffc900;stroke-miterlimit:10;stroke-width:0.75px"/><line x1="149.74" y1="25.04" x2="178.34" y2="25.04" style="fill:none;stroke:#ffc900;stroke-miterlimit:10;stroke-width:0.75px"/><line x1="149.74" y1="28.29" x2="175.63" y2="28.29" style="fill:none;stroke:#ffc900;stroke-miterlimit:10;stroke-width:0.75px"/><line x1="149.74" y1="31.55" x2="172.68" y2="31.55" style="fill:none;stroke:#ffc900;stroke-miterlimit:10;stroke-width:0.75px"/><line x1="149.74" y1="34.8" x2="175.63" y2="34.8" style="fill:none;stroke:#ffc900;stroke-miterlimit:10;stroke-width:0.75px"/><line x1="149.74" y1="38.05" x2="172.28" y2="38.05" style="fill:none;stroke:#ffc900;stroke-miterlimit:10;stroke-width:0.75px"/><line x1="149.74" y1="41.31" x2="168.41" y2="41.31" style="fill:none;stroke:#ffc900;stroke-miterlimit:10;stroke-width:0.75px"/><line x1="149.74" y1="44.56" x2="178.34" y2="44.56" style="fill:none;stroke:#ffc900;stroke-miterlimit:10;stroke-width:0.75px"/><line x1="149.74" y1="47.81" x2="175.63" y2="47.81" style="fill:none;stroke:#ffc900;stroke-miterlimit:10;stroke-width:0.75px"/><line x1="149.74" y1="51.07" x2="175.63" y2="51.07" style="fill:none;stroke:#ffc900;stroke-miterlimit:10;stroke-width:0.75px"/><line x1="149.74" y1="54.32" x2="168.41" y2="54.32" style="fill:none;stroke:#ffc900;stroke-miterlimit:10;stroke-width:0.75px"/><line x1="149.74" y1="57.3" x2="175.63" y2="57.3" style="fill:none;stroke:#ffc900;stroke-miterlimit:10;stroke-width:0.75px"/><line x1="149.74" y1="60.55" x2="175.63" y2="60.55" style="fill:none;stroke:#ffc900;stroke-miterlimit:10;stroke-width:0.75px"/><line x1="149.74" y1="63.81" x2="168.41" y2="63.81" style="fill:none;stroke:#ffc900;stroke-miterlimit:10;stroke-width:0.75px"/><line x1="149.74" y1="67.06" x2="178.34" y2="67.06" style="fill:none;stroke:#ffc900;stroke-miterlimit:10;stroke-width:0.75px"/><line x1="149.74" y1="70.31" x2="168.41" y2="70.31" style="fill:none;stroke:#ffc900;stroke-miterlimit:10;stroke-width:0.75px"/><path d="M231,31.44H214.88A21.8,21.8,0,0,0,193.14,53.3V72.54A21.8,21.8,0,0,1,171.4,94.4h-7.76" style="fill:none;stroke:#ffc900;stroke-miterlimit:10;stroke-width:0.75px"/><path d="M203.12,136.88h-7.76a17.07,17.07,0,0,1-17-17.11l-.25-6.82a17.07,17.07,0,0,0-17-17.11H158" style="fill:none;stroke:#ffc900;stroke-miterlimit:10;stroke-width:0.75px"/><path d="M202.87,142.85H163.54a17.07,17.07,0,0,1-17-17.11l-.25-4.38" style="fill:none;stroke:#ffc900;stroke-miterlimit:10;stroke-width:0.75px"/><path d="M217.18,14.93l2.06.06a4.94,4.94,0,0,1,4.93,5v5.23a4.94,4.94,0,0,0,4.93,5H231" style="fill:none;stroke:#ffc900;stroke-miterlimit:10;stroke-width:0.75px"/><text transform="translate(6.09 17.62)" style="font-size:14px;fill:#ffc900;font-family:Barlow-Regular, Barlow">BEP</text><text transform="translate(114.06 28.97)" style="font-size:14px;fill:#ffc900;font-family:Barlow-Regular, Barlow"><tspan style="letter-spacing:-0.017002650669642856em">D</tspan><tspan x="8.41" y="0" style="letter-spacing:-0.013994489397321428em">Y</tspan><tspan x="16.16" y="0">N</tspan></text><text transform="translate(248.42 173.3)" style="font-size:14px;fill:#ffc900;font-family:Barlow-Regular, Barlow">XLS</text></svg>