<svg xmlns="http://www.w3.org/2000/svg" viewBox="0 0 241.92 157.96"><title>Asset 10</title><polygon points="4.57 153.25 89.25 90.01 89.25 2.34 4.57 65.58 4.57 153.25" style="fill:#3d3c3d;stroke:#b27390;stroke-miterlimit:10;stroke-width:0.75px"/><polygon points="199.21 156.16 241.55 124.24 241.55 2.78 199.21 34.7 199.21 156.16" style="fill:#3d3c3d;stroke:#b27390;stroke-miterlimit:10;stroke-width:0.75px"/><polygon points="123.03 154.34 164.67 123.06 164.67 2.75 123.03 34.03 123.03 154.34" style="fill:#3d3c3d;stroke:#b27390;stroke-miterlimit:10;stroke-width:0.75px"/><polygon points="123.03 154.34 118.83 151.2 118.83 31.38 123.03 34.03 123.03 154.34" style="fill:#3d3c3d;stroke:#b27390;stroke-miterlimit:10;stroke-width:0.75px"/><polyline points="164.67 2.75 160.39 0.44 118.83 31.38" style="fill:#3d3c3d;stroke:#b27390;stroke-miterlimit:10;stroke-width:0.75px"/><polygon points="129.01 147.9 163.12 122.45 163.12 12.44 129.01 37.89 129.01 147.9" style="fill:#3d3c3d;stroke:#b27390;stroke-miterlimit:10;stroke-width:0.75px"/><polygon points="132.47 141.05 160.39 119.61 160.39 19.7 132.47 41.14 132.47 141.05" style="fill:#3d3c3d;stroke:#b27390;stroke-miterlimit:10;stroke-width:0.75px"/><polygon points="129.01 147.9 126.75 146.69 126.75 36.68 129.01 37.89 129.01 147.9" style="fill:#3d3c3d;stroke:#b27390;stroke-miterlimit:10;stroke-width:0.75px"/><polyline points="163.12 12.44 160.39 11.27 126.75 36.68" style="fill:none;stroke:#b27390;stroke-miterlimit:10;stroke-width:0.75px"/><polyline points="160.05 119.43 155.85 116.29 155.85 23.12" style="fill:#3d3c3d;stroke:#b27390;stroke-miterlimit:10;stroke-width:0.75px"/><line x1="132.47" y1="134.3" x2="155.85" y2="116.29" style="fill:#3d3c3d;stroke:#b27390;stroke-miterlimit:10;stroke-width:0.75px"/><polygon points="130.7 112.61 129.01 111.35 129.01 101.93 130.7 103.2 130.7 112.61" style="fill:#3d3c3d;stroke:#b27390;stroke-miterlimit:10;stroke-width:0.75px"/><polygon points="134.32 109.97 130.74 112.61 130.74 103.2 134.32 100.56 134.32 109.97" style="fill:#3d3c3d;stroke:#b27390;stroke-miterlimit:10;stroke-width:0.75px"/><polygon points="134.32 100.58 130.74 103.22 129.01 101.93 132.59 99.29 134.32 100.58" style="fill:#3d3c3d;stroke:#b27390;stroke-miterlimit:10;stroke-width:0.75px"/><polyline points="133.59 106.23 135.27 107.49 135.27 116.91 133.59 115.64 133.59 108.51 131.86 107.25 131.86 105.03" style="fill:#3d3c3d;stroke:#b27390;stroke-miterlimit:10;stroke-width:0.75px"/><polygon points="136.77 115.79 135.31 116.91 135.31 107.49 136.77 106.37 136.77 115.79" style="fill:#3d3c3d;stroke:#b27390;stroke-miterlimit:10;stroke-width:0.75px"/><polygon points="136.77 106.4 135.31 107.52 131.86 105.03 133.32 103.91 136.77 106.4" style="fill:#3d3c3d;stroke:#b27390;stroke-miterlimit:10;stroke-width:0.75px"/><polygon points="52.48 115.22 86.59 89.78 86.59 12.4 52.48 37.85 52.48 115.22" style="fill:#3d3c3d;stroke:#b27390;stroke-miterlimit:10;stroke-width:0.75px"/><polygon points="55.94 108.37 83.86 86.93 83.86 19.66 55.94 41.1 55.94 108.37" style="fill:#3d3c3d;stroke:#b27390;stroke-miterlimit:10;stroke-width:0.75px"/><polygon points="52.48 115.22 50.22 114.01 50.22 36.64 52.48 37.85 52.48 115.22" style="fill:#3d3c3d;stroke:#b27390;stroke-miterlimit:10;stroke-width:0.75px"/><polyline points="86.59 12.4 83.86 11.23 50.22 36.64" style="fill:none;stroke:#b27390;stroke-miterlimit:10;stroke-width:0.75px"/><polyline points="83.52 86.75 79.32 83.61 79.32 23.08" style="fill:#3d3c3d;stroke:#b27390;stroke-miterlimit:10;stroke-width:0.75px"/><line x1="55.94" y1="101.62" x2="79.32" y2="83.61" style="fill:#3d3c3d;stroke:#b27390;stroke-miterlimit:10;stroke-width:0.75px"/><polygon points="4.57 153.25 0.38 150.11 0.38 62.93 4.57 65.58 4.57 153.25" style="fill:#3d3c3d;stroke:#b27390;stroke-miterlimit:10;stroke-width:0.75px"/><polyline points="89.25 2.34 84.88 0.44 0.38 62.93" style="fill:#3d3c3d;stroke:#b27390;stroke-miterlimit:10;stroke-width:0.75px"/><polygon points="10.55 146.81 44.66 121.36 44.66 43.99 10.55 69.44 10.55 146.81" style="fill:#3d3c3d;stroke:#b27390;stroke-miterlimit:10;stroke-width:0.75px"/><polygon points="14.01 139.96 41.93 118.52 41.93 51.25 14.01 72.69 14.01 139.96" style="fill:#3d3c3d;stroke:#b27390;stroke-miterlimit:10;stroke-width:0.75px"/><polygon points="10.55 146.81 8.29 145.6 8.29 68.23 10.55 69.44 10.55 146.81" style="fill:#3d3c3d;stroke:#b27390;stroke-miterlimit:10;stroke-width:0.75px"/><polyline points="44.66 43.99 41.93 42.82 8.29 68.23" style="fill:#3d3c3d;stroke:#b27390;stroke-miterlimit:10;stroke-width:0.75px"/><polyline points="41.59 118.34 37.39 115.2 37.39 54.67" style="fill:#3d3c3d;stroke:#b27390;stroke-miterlimit:10;stroke-width:0.75px"/><line x1="14.01" y1="133.21" x2="37.39" y2="115.2" style="fill:#3d3c3d;stroke:#b27390;stroke-miterlimit:10;stroke-width:0.75px"/><polygon points="54.17 79.93 52.48 78.67 52.48 69.25 54.17 70.52 54.17 79.93" style="fill:#3d3c3d;stroke:#b27390;stroke-miterlimit:10;stroke-width:0.75px"/><polygon points="57.78 77.29 54.2 79.93 54.2 70.52 57.78 67.88 57.78 77.29" style="fill:#3d3c3d;stroke:#b27390;stroke-miterlimit:10;stroke-width:0.75px"/><polygon points="57.78 67.9 54.2 70.54 52.48 69.25 56.06 66.61 57.78 67.9" style="fill:#3d3c3d;stroke:#b27390;stroke-miterlimit:10;stroke-width:0.75px"/><polyline points="57.05 73.55 58.74 74.81 58.74 84.23 57.05 82.97 57.05 75.83 55.33 74.57 55.33 72.35" style="fill:#3d3c3d;stroke:#b27390;stroke-miterlimit:10;stroke-width:0.75px"/><polygon points="60.24 83.11 58.78 84.23 58.78 74.81 60.24 73.69 60.24 83.11" style="fill:#3d3c3d;stroke:#b27390;stroke-miterlimit:10;stroke-width:0.75px"/><polygon points="60.24 73.72 58.78 74.84 55.33 72.35 56.79 71.23 60.24 73.72" style="fill:#3d3c3d;stroke:#b27390;stroke-miterlimit:10;stroke-width:0.75px"/><polygon points="205.79 109.95 239.9 84.5 239.9 13.1 205.79 38.55 205.79 109.95" style="fill:#3d3c3d;stroke:#b27390;stroke-miterlimit:10;stroke-width:0.75px"/><polygon points="209.24 103.09 237.16 81.65 237.16 20.36 209.24 41.8 209.24 103.09" style="fill:#3d3c3d;stroke:#b27390;stroke-miterlimit:10;stroke-width:0.75px"/><polygon points="205.79 109.95 203.52 108.74 203.52 37.34 205.79 38.55 205.79 109.95" style="fill:#3d3c3d;stroke:#b27390;stroke-miterlimit:10;stroke-width:0.75px"/><polyline points="239.9 13.1 237.16 11.93 203.52 37.34" style="fill:none;stroke:#b27390;stroke-miterlimit:10;stroke-width:0.75px"/><polyline points="236.82 81.48 232.63 78.34 232.63 23.78" style="fill:#3d3c3d;stroke:#b27390;stroke-miterlimit:10;stroke-width:0.75px"/><line x1="209.24" y1="96.35" x2="232.63" y2="78.34" style="fill:#3d3c3d;stroke:#b27390;stroke-miterlimit:10;stroke-width:0.75px"/><polygon points="200.21 156.16 196.02 153.02 196.02 32.05 200.21 34.7 200.21 156.16" style="fill:#3d3c3d;stroke:#b27390;stroke-miterlimit:10;stroke-width:0.75px"/><polyline points="241.64 2.38 238.18 0.88 196.02 32.05" style="fill:none;stroke:#b27390;stroke-miterlimit:10;stroke-width:0.75px"/><polygon points="205.79 148.36 239.9 122.92 239.9 91.22 205.79 116.67 205.79 148.36" style="fill:#3d3c3d;stroke:#b27390;stroke-miterlimit:10;stroke-width:0.75px"/><polygon points="209.24 141.51 237.16 120.07 237.16 98.48 209.24 119.92 209.24 141.51" style="fill:#3d3c3d;stroke:#b27390;stroke-miterlimit:10;stroke-width:0.75px"/><polygon points="205.79 148.36 203.52 147.15 203.52 115.46 205.79 116.67 205.79 148.36" style="fill:#3d3c3d;stroke:#b27390;stroke-miterlimit:10;stroke-width:0.75px"/><polyline points="239.9 91.22 237.16 90.05 203.52 115.46" style="fill:#3d3c3d;stroke:#b27390;stroke-miterlimit:10;stroke-width:0.75px"/><polyline points="236.82 119.89 232.63 116.75 232.63 101.91" style="fill:#3d3c3d;stroke:#b27390;stroke-miterlimit:10;stroke-width:0.75px"/><line x1="209.24" y1="134.76" x2="232.63" y2="116.75" style="fill:#3d3c3d;stroke:#b27390;stroke-miterlimit:10;stroke-width:0.75px"/><polygon points="207.47 75.3 205.79 74.04 205.79 64.62 207.47 65.88 207.47 75.3" style="fill:#3d3c3d;stroke:#b27390;stroke-miterlimit:10;stroke-width:0.75px"/><polygon points="211.09 72.66 207.51 75.3 207.51 65.88 211.09 63.24 211.09 72.66" style="fill:#3d3c3d;stroke:#b27390;stroke-miterlimit:10;stroke-width:0.75px"/><polygon points="211.09 63.27 207.51 65.91 205.79 64.62 209.37 61.98 211.09 63.27" style="fill:#3d3c3d;stroke:#b27390;stroke-miterlimit:10;stroke-width:0.75px"/><polyline points="210.36 68.92 212.05 70.18 212.05 79.59 210.36 78.33 210.36 71.19 208.64 69.93 208.64 67.71" style="fill:#3d3c3d;stroke:#b27390;stroke-miterlimit:10;stroke-width:0.75px"/><polygon points="213.54 78.47 212.08 79.59 212.08 70.18 213.54 69.06 213.54 78.47" style="fill:#3d3c3d;stroke:#b27390;stroke-miterlimit:10;stroke-width:0.75px"/><polygon points="213.54 69.09 212.08 70.21 208.64 67.71 210.1 66.59 213.54 69.09" style="fill:#3d3c3d;stroke:#b27390;stroke-miterlimit:10;stroke-width:0.75px"/><text transform="translate(60.24 155.04)" style="font-size:14px;fill:#b27390;font-family:Barlow-Regular, Barlow">R<tspan x="8.57" y="0" style="letter-spacing:-0.04997907366071429em">F</tspan><tspan x="15.82" y="0">A</tspan></text></svg>