<svg xmlns="http://www.w3.org/2000/svg" viewBox="0 0 235.88 196.1"><title>Asset 11</title><path d="M124.5,51.6c0,7.15-3.73,11.4-10.23,15.94l-43,29c-6.78,3.42-11.57-2.14-11.57-9.29V81.67c0-7.15,4.61-11.84,11.57-16.6L112,38.13c6.8-4.26,12.49-1.82,12.49,5.64Z" style="fill:none;stroke:#f39200;stroke-miterlimit:10;stroke-width:0.75px"/><path d="M122.85,50.16c0,6.77-2.65,11-8.82,15.3l-41.15,28c-7.8,4.92-11-.79-11-8.34V82.3c0-6.77,4.36-11.21,11-15.72L113,40c6.44-4,9.88-.79,9.88,6.28Z" style="fill:none;stroke:#f39200;stroke-miterlimit:10;stroke-width:0.75px"/><path d="M63.5,96.4v-.08L46.76,84.63C44,82.66,43,79,43,76.17V70.55C43,63.4,48.54,58.71,55.51,54L96.22,27c3.19-2,7.09-2.67,9.34-1.19,2.09,1.37,16,11.13,16,11.13" style="fill:none;stroke:#f39200;stroke-miterlimit:10;stroke-width:0.75px"/><line x1="31.92" y1="65.06" x2="31.92" y2="57.65" style="fill:none;stroke:#f39200;stroke-miterlimit:10;stroke-width:0.75px"/><line x1="46.85" y1="84.68" x2="33.25" y2="75.03" style="fill:none;stroke:#f39200;stroke-miterlimit:10;stroke-width:0.75px"/><path d="M105.87,26,93.59,18.51C85.5,30.73,59.3,51.44,31.92,57.65l11.62,8.21" style="fill:none;stroke:#f39200;stroke-linecap:round;stroke-linejoin:round;stroke-width:0.75px"/><path d="M43,68.11s-9-5.75-19-1.47C13.42,71.19.3,65.76.38,55.47.4,52-.06,45.91,8.17,38A178.72,178.72,0,0,1,33.86,17.22,45.33,45.33,0,0,1,55,10.15c9.45-.81,16.91-.14,26.92,5.13,2.77,1.46,6.66,3.88,9.75,5.62" style="fill:none;stroke:#f39200;stroke-miterlimit:10;stroke-width:0.75px"/><path d="M3.28,63.09C.37,53.87,13.89,43.75,32.57,30c9.65-7.12,17.15-10.46,25.48-10.46,8.84,0,11.76-.11,26.9,8.87" style="fill:none;stroke:#f39200;stroke-miterlimit:10;stroke-width:0.75px"/><path d="M43,77.87a19.73,19.73,0,0,0-18-1.25c-9.44,4-22,.92-24.6-6V56.72" style="fill:none;stroke:#f39200;stroke-miterlimit:10;stroke-width:0.75px"/><path d="M.47,56.72" style="fill:none;stroke:#f39200;stroke-miterlimit:10;stroke-width:0.75px"/><path d="M183.24,155.89c18,3.67,30.1,10.59,30.1,18.51,0,11.77-26.73,21.32-59.71,21.32s-59.71-9.54-59.71-21.32c0-9.26,16.54-17.14,39.65-20.08" style="fill:none;stroke:#f39200;stroke-miterlimit:10;stroke-width:0.75px"/><path d="M180.57,158.92c16.29,3.06,27.26,8.81,27.26,15.41,0,9.8-24.25,17.74-54.15,17.74s-54.15-7.94-54.15-17.74c0-7.44,14-13.8,33.74-16.44" style="fill:none;stroke:#f39200;stroke-miterlimit:10;stroke-width:0.75px"/><path d="M208.94,22.87s-7.48-5.78-18.7-3-11.4,16.76-11.38,18.68c0,5,0,12.44,6.34,11.95,4.86-.38,3.42-9.74,3.51-11.66s.15-12.43,10.67-9.41c11.14,3.2,14.81,12.94,12.78,17.81s-4.83,6.25-9,5.95c-2.24-.16-7.43-1.22-8.26,3.5-.93,5.29,6.35,6.43,8.55,6.45,3.82,0,10.85.48,15.33-2.06a71.49,71.49,0,0,0,7.31-5.52s2.61-2.36,5.37-5.36,5.62-17.3,2.87-21.38C231.82,25,228.15,21,224.16,16.64c-6.7-7.4-12.26-10.25-17.38-11.36L183.63.62s-7.34-1.44-8.12,2.67c-.5,2.65.42,5.76,7.81,7.18" style="fill:none;stroke:#f39200;stroke-miterlimit:10;stroke-width:0.75px"/><path d="M206.62,13.57c-5.77-1.93-10.54-2.36-16.74-2.78-7.36-.51-9.92-.11-16,.41-4.81.41-8.31,2.31-7.18,6.2,1,3.49,4.83,3.37,8.22,3.55,4,.22,11.14,0,13.38-.47" style="fill:none;stroke:#f39200;stroke-miterlimit:10;stroke-width:0.75px"/><path d="M189.2,48.71a7.16,7.16,0,1,1-8.47,2.1" style="fill:none;stroke:#f39200;stroke-miterlimit:10;stroke-width:0.75px"/><path d="M127.51,173.45s0-3.5,0-17.37c0-27.83,25.61-29.78,25.61-49.33V98" style="fill:none;stroke:#f39200;stroke-linecap:round;stroke-linejoin:round;stroke-width:0.75px"/><path d="M176.46,114.78v-.13c.28,30.59-25.61,28.3-25.63,56.13,0,10.47,0,19.38,0,19.38l-23.33-16.71" style="fill:none;stroke:#f39200;stroke-linecap:round;stroke-linejoin:round;stroke-width:0.75px"/><line x1="150.85" y1="190.17" x2="127.52" y2="173.46" style="fill:none;stroke:#f39200;stroke-miterlimit:10;stroke-width:0.75px"/><line x1="150.85" y1="181.16" x2="127.51" y2="164.61" style="fill:none;stroke:#f39200;stroke-miterlimit:10;stroke-width:0.75px"/><line x1="150.83" y1="171.62" x2="127.51" y2="154.86" style="fill:none;stroke:#f39200;stroke-miterlimit:10;stroke-width:0.75px"/><line x1="152.04" y1="161.43" x2="129.11" y2="145" style="fill:none;stroke:#f39200;stroke-miterlimit:10;stroke-width:0.75px"/><line x1="165.77" y1="141.62" x2="143.17" y2="125.44" style="fill:none;stroke:#f39200;stroke-linecap:round;stroke-linejoin:round;stroke-width:0.75px"/><line x1="175.44" y1="124.97" x2="153.13" y2="108.99" style="fill:none;stroke:#f39200;stroke-linecap:round;stroke-linejoin:round;stroke-width:0.75px"/><path d="M182.47,110.32v7.74c.28,30.59-25.6,28.3-25.63,56.13,0,10.47,0,11.61,0,11.61" style="fill:none;stroke:#f39200;stroke-linecap:round;stroke-linejoin:round;stroke-width:0.75px"/><path d="M188.83,105.6v12.83c.28,30.59-25.62,28.3-25.63,56.13v6.52" style="fill:none;stroke:#f39200;stroke-linecap:round;stroke-linejoin:round;stroke-width:0.75px"/><path d="M194.74,101.17v18.17c.28,30.59-25.61,28.3-25.63,56.13,0,1.06,0,1.22,0,1.22" style="fill:none;stroke:#f39200;stroke-linecap:round;stroke-linejoin:round;stroke-width:0.75px"/><polyline points="176.46 114.72 153.13 98.01 177.03 80.26 200.36 96.97 200.36 97.04 176.46 114.78" style="fill:none;stroke:#f39200;stroke-linecap:round;stroke-linejoin:round;stroke-width:0.75px"/><path d="M176.31,114.83" style="fill:none;stroke:#f39200;stroke-linecap:round;stroke-linejoin:round;stroke-width:0.75px"/><line x1="200.36" y1="106.47" x2="175.44" y2="124.97" style="fill:none;stroke:#f39200;stroke-linecap:round;stroke-linejoin:round;stroke-width:0.75px"/><line x1="200.36" y1="116.06" x2="165.51" y2="141.9" style="fill:none;stroke:#f39200;stroke-linecap:round;stroke-linejoin:round;stroke-width:0.75px"/><line x1="200.16" y1="125.44" x2="151.99" y2="161.51" style="fill:none;stroke:#f39200;stroke-linecap:round;stroke-linejoin:round;stroke-width:0.75px"/><line x1="196.68" y1="137.83" x2="150.83" y2="171.62" style="fill:none;stroke:#f39200;stroke-miterlimit:10;stroke-width:0.75px"/><line x1="178.67" y1="160.59" x2="150.83" y2="181.16" style="fill:none;stroke:#f39200;stroke-miterlimit:10;stroke-width:0.75px"/><path d="M132.49,173.47s0,14,0-13.87,25.61-30.95,25.61-50.49v-7.55" style="fill:none;stroke:#f39200;stroke-linecap:round;stroke-linejoin:round;stroke-width:0.75px"/><path d="M138.27,181.16s0-3.3,0-17.17c0-27.83,25.61-30.95,25.61-50.49v-7.76" style="fill:none;stroke:#f39200;stroke-linecap:round;stroke-linejoin:round;stroke-width:0.75px"/><path d="M144.05,181.85s0,14,0-13.87,25.61-30.95,25.61-50.49v-7.65" style="fill:none;stroke:#f39200;stroke-linecap:round;stroke-linejoin:round;stroke-width:0.75px"/><path d="M150.83,190.26l24.11-17.76a30.28,30.28,0,0,1,7.38-17.1c7.62-9.2,18.23-15.29,18-34.93V97" style="fill:none;stroke:#f39200;stroke-linecap:round;stroke-linejoin:round;stroke-width:0.75px"/><path d="M149.09,158.07" style="fill:none;stroke:#f39200;stroke-miterlimit:10;stroke-width:0.75px"/><polygon points="176.57 113.16 198.46 97.03 176.92 81.88 155.03 98.01 176.57 113.16" style="fill:#3d3c3d;stroke:#f39200;stroke-linecap:round;stroke-linejoin:round;stroke-width:0.75px"/><polyline points="176.92 81.88 176.92 83.95 196.93 98.01" style="fill:none;stroke:#f39200;stroke-linecap:round;stroke-linejoin:round;stroke-width:0.75px"/><line x1="156.32" y1="98.92" x2="176.92" y2="83.95" style="fill:none;stroke:#f39200;stroke-linecap:round;stroke-linejoin:round;stroke-width:0.75px"/><path d="M185.38,94.1a.66.66,0,0,1-.48.21.77.77,0,0,1-.48-.21V72.78h1Z" style="fill:none;stroke:#f39200;stroke-linecap:round;stroke-linejoin:round;stroke-width:0.75px"/><path d="M183.44,63.42a9.46,9.46,0,0,0,1.68,9.1A10.66,10.66,0,0,0,183.44,63.42Z" style="fill:none;stroke:#f39200;stroke-linecap:round;stroke-linejoin:round;stroke-width:0.75px"/><path d="M185,72.45a9.46,9.46,0,0,0,8.72,3.1A10.65,10.65,0,0,0,185,72.45Z" style="fill:none;stroke:#f39200;stroke-linecap:round;stroke-linejoin:round;stroke-width:0.75px"/><path d="M185,72.45a9.46,9.46,0,0,1-7.09,6A10.65,10.65,0,0,1,185,72.45Z" style="fill:#3d3c3d;stroke:#f39200;stroke-linecap:round;stroke-linejoin:round;stroke-width:0.75px"/><circle cx="185" cy="72.32" r="0.75" transform="translate(-9.92 34.08) rotate(-10.25)" style="fill:#1d1d1b;stroke:#f39200;stroke-linecap:round;stroke-linejoin:round;stroke-width:0.75px"/><path d="M178.55,98.65a.66.66,0,0,1-.48.21.77.77,0,0,1-.48-.21V77.33h1Z" style="fill:#1d1d1b;stroke:#f39200;stroke-linecap:round;stroke-linejoin:round;stroke-width:0.75px"/><path d="M176.62,68a9.46,9.46,0,0,0,1.68,9.1A10.66,10.66,0,0,0,176.62,68Z" style="fill:#3d3c3d;stroke:#f39200;stroke-linecap:round;stroke-linejoin:round;stroke-width:0.75px"/><path d="M178.2,77a9.46,9.46,0,0,0,8.72,3.1A10.65,10.65,0,0,0,178.2,77Z" style="fill:#3d3c3d;stroke:#f39200;stroke-linecap:round;stroke-linejoin:round;stroke-width:0.75px"/><path d="M178.2,77a9.46,9.46,0,0,1-7.09,6A10.65,10.65,0,0,1,178.2,77Z" style="fill:#3d3c3d;stroke:#f39200;stroke-linecap:round;stroke-linejoin:round;stroke-width:0.75px"/><circle cx="178.18" cy="76.87" r="0.75" transform="translate(-10.84 32.94) rotate(-10.25)" style="fill:#1d1d1b;stroke:#f39200;stroke-linecap:round;stroke-linejoin:round;stroke-width:0.75px"/><path d="M171.73,103.2a.66.66,0,0,1-.48.21.77.77,0,0,1-.48-.21V81.88h1Z" style="fill:#1d1d1b;stroke:#f39200;stroke-linecap:round;stroke-linejoin:round;stroke-width:0.75px"/><path d="M169.79,72.52a9.46,9.46,0,0,0,1.68,9.1A10.66,10.66,0,0,0,169.79,72.52Z" style="fill:#3d3c3d;stroke:#f39200;stroke-linecap:round;stroke-linejoin:round;stroke-width:0.75px"/><path d="M171.38,81.55a9.46,9.46,0,0,0,8.72,3.1A10.65,10.65,0,0,0,171.38,81.55Z" style="fill:#3d3c3d;stroke:#f39200;stroke-linecap:round;stroke-linejoin:round;stroke-width:0.75px"/><path d="M171.38,81.55a9.46,9.46,0,0,1-7.09,6A10.65,10.65,0,0,1,171.38,81.55Z" style="fill:#3d3c3d;stroke:#f39200;stroke-linecap:round;stroke-linejoin:round;stroke-width:0.75px"/><circle cx="171.35" cy="81.42" r="0.75" transform="translate(-11.76 31.8) rotate(-10.25)" style="fill:#1d1d1b;stroke:#f39200;stroke-linecap:round;stroke-linejoin:round;stroke-width:0.75px"/><path d="M204.72,173.52l11.12-57.05c3.53-32.25-8.5-48.6-32.61-54.69S141.85,66,128.53,94.39l-19.07,53.27" style="fill:none;stroke:#f39200;stroke-miterlimit:10;stroke-width:0.75px"/><path d="M127.52,168.09c-13.12-6.52-19.52-14.92-18.07-20.43,2.32-8.82,24-10,52.84-2.38S207,164.7,204.72,173.52c-1.35,5.14-4.94,8.51-18,8.74-7.48.13-10.48,0-10.48,0-5.74-.19-13-1.18-13-1.18" style="fill:none;stroke:#f39200;stroke-miterlimit:10;stroke-width:0.75px"/><line x1="126.91" y1="80.38" x2="119.51" y2="77.96" style="fill:none;stroke:#f39200;stroke-linecap:round;stroke-linejoin:round;stroke-width:0.75px"/><line x1="138.13" y1="67.67" x2="131.36" y2="62.36" style="fill:none;stroke:#f39200;stroke-linecap:round;stroke-linejoin:round;stroke-width:0.75px"/><line x1="149.25" y1="56.97" x2="145.39" y2="50.46" style="fill:none;stroke:#f39200;stroke-linecap:round;stroke-linejoin:round;stroke-width:0.75px"/><line x1="164.81" y1="52.28" x2="164.47" y2="46.3" style="fill:none;stroke:#f39200;stroke-linecap:round;stroke-linejoin:round;stroke-width:0.75px"/><text transform="translate(33.31 107.05)" style="font-size:14px;fill:#f39200;font-family:Barlow-Regular, Barlow">VR</text></svg>