<svg xmlns="http://www.w3.org/2000/svg" viewBox="0 0 206.99 220.71"><title>Asset 6</title><text transform="translate(0 170)" style="font-size:200px;fill:#4fcfbb;font-family:Barlow-Thin, Barlow">5</text><path d="M10.16,219.91l13.21-49.18a.8.8,0,0,1,.84-.58H206.34c.53,0,.73.26.61.79l-13.21,49.18a.8.8,0,0,1-.84.58H10.78Q10,220.71,10.16,219.91Z"/><path d="M175.21,163.68v7.53c0,.27.53.49,1.19.49s1.19-.22,1.19-.49V156.05c0-.27-.53-.49-1.19-.49s-1.19.22-1.19.49Z" style="fill:#f3f3f3;stroke:#7d7778;stroke-miterlimit:10;stroke-width:0.5px"/><ellipse cx="176.41" cy="156.01" rx="1.19" ry="0.48" style="fill:#f3f3f3;stroke:#7d7778;stroke-miterlimit:10;stroke-width:0.5px"/><path d="M102.8,179.59v17c0,.27.53.49,1.19.49s1.19-.22,1.19-.49V178.3c0-.27-.53-.49-1.19-.49s-1.19.22-1.19.49Z" style="fill:#f3f3f3;stroke:#7d7778;stroke-miterlimit:10;stroke-width:0.5px"/><path d="M141.46,179.59v17c0,.27.53.49,1.19.49s1.19-.22,1.19-.49V178.3c0-.27-.53-.49-1.19-.49s-1.19.22-1.19.49Z" style="fill:#f3f3f3;stroke:#7d7778;stroke-miterlimit:10;stroke-width:0.5px"/><path d="M158.29,166.91v17c0,.27.53.49,1.19.49s1.19-.22,1.19-.49V165.62c0-.27-.53-.49-1.19-.49s-1.19.22-1.19.49Z" style="fill:#f3f3f3;stroke:#7d7778;stroke-miterlimit:10;stroke-width:0.5px"/><path d="M86.51,167.49v17c0,.27.53.49,1.19.49s1.19-.22,1.19-.49V166.2c0-.27-.53-.49-1.19-.49s-1.19.22-1.19.49Z" style="fill:#f3f3f3;stroke:#7d7778;stroke-miterlimit:10;stroke-width:0.5px"/><path d="M69.31,164.29v7.53c0,.27.53.49,1.19.49s1.19-.22,1.19-.49V156.66c0-.27-.53-.49-1.19-.49s-1.19.22-1.19.49Z" style="fill:#f3f3f3;stroke:#7d7778;stroke-miterlimit:10;stroke-width:0.5px"/><path d="M122.25,203.34v7.53c0,.27.53.49,1.19.49s1.19-.22,1.19-.49V195.71c0-.27-.53-.49-1.19-.49s-1.19.22-1.19.49Z" style="fill:#f3f3f3;stroke:#7d7778;stroke-miterlimit:10;stroke-width:0.5px"/><polyline points="177.52 153.79 177.52 156.11 123.12 196.64 69.01 156.63 69.01 154.35" style="fill:#f3f3f3;stroke:#7d7778;stroke-miterlimit:10;stroke-width:0.5px"/><polygon points="123.77 113.81 69.11 154.32 123.22 194.32 177.62 153.79 123.77 113.81" style="fill:#f3f3f3;stroke:#7d7778;stroke-miterlimit:10;stroke-width:0.5px"/><path d="M175.21,146v7.53c0,.27.53.49,1.19.49s1.19-.22,1.19-.49v-8.82c0-.27-.53-.49-1.19-.49s-1.19.22-1.19.49Z" style="fill:#f3f3f3;stroke:#7d7778;stroke-miterlimit:10;stroke-width:0.5px"/><ellipse cx="176.41" cy="144.71" rx="1.19" ry="0.48" style="fill:#f3f3f3;stroke:#7d7778;stroke-miterlimit:10;stroke-width:0.5px"/><path d="M102.8,171.64v7.53c0,.27.53.49,1.19.49s1.19-.22,1.19-.49v-8.82c0-.27-.53-.49-1.19-.49s-1.19.22-1.19.49Z" style="fill:#f3f3f3;stroke:#7d7778;stroke-miterlimit:10;stroke-width:0.5px"/><ellipse cx="104" cy="170.3" rx="1.19" ry="0.48" style="fill:#f3f3f3;stroke:#7d7778;stroke-miterlimit:10;stroke-width:0.5px"/><path d="M122.25,185.73v7.53c0,.27.53.49,1.19.49s1.19-.22,1.19-.49v-8.82c0-.27-.53-.49-1.19-.49s-1.19.22-1.19.49Z" style="fill:#f3f3f3;stroke:#7d7778;stroke-miterlimit:10;stroke-width:0.5px"/><path d="M141.46,171.64v7.53c0,.27.53.49,1.19.49s1.19-.22,1.19-.49v-8.82c0-.27-.53-.49-1.19-.49s-1.19.22-1.19.49Z" style="fill:#f3f3f3;stroke:#7d7778;stroke-miterlimit:10;stroke-width:0.5px"/><path d="M158.29,158.63v7.53c0,.27.53.49,1.19.49s1.19-.22,1.19-.49v-8.82c0-.27-.53-.49-1.19-.49s-1.19.22-1.19.49Z" style="fill:#f3f3f3;stroke:#7d7778;stroke-miterlimit:10;stroke-width:0.5px"/><path d="M86.51,158.63v7.53c0,.27.53.49,1.19.49s1.19-.22,1.19-.49v-8.82c0-.27-.53-.49-1.19-.49s-1.19.22-1.19.49Z" style="fill:#f3f3f3;stroke:#7d7778;stroke-miterlimit:10;stroke-width:0.5px"/><path d="M69.31,146.7v7.53c0,.27.53.49,1.19.49s1.19-.22,1.19-.49v-8.82c0-.27-.53-.49-1.19-.49s-1.19.22-1.19.49Z" style="fill:#f3f3f3;stroke:#7d7778;stroke-miterlimit:10;stroke-width:0.5px"/><polyline points="177.57 144.91 177.57 147.27 123.17 187.8 69.06 147.8 69.06 145.45" style="fill:#f3f3f3;stroke:#7d7778;stroke-miterlimit:10;stroke-width:0.5px"/><polygon points="123.82 104.97 69.16 145.48 123.27 185.48 177.67 144.95 123.82 104.97" style="fill:#f3f3f3;stroke:#7d7778;stroke-miterlimit:10;stroke-width:0.5px"/><path d="M175.21,137.2v7.53c0,.27.53.49,1.19.49s1.19-.22,1.19-.49v-8.82c0-.27-.53-.49-1.19-.49s-1.19.22-1.19.49Z" style="fill:#f3f3f3;stroke:#7d7778;stroke-miterlimit:10;stroke-width:0.5px"/><ellipse cx="176.41" cy="135.86" rx="1.19" ry="0.48" style="fill:#f3f3f3;stroke:#7d7778;stroke-miterlimit:10;stroke-width:0.5px"/><path d="M102.8,162.75v7.53c0,.27.53.49,1.19.49s1.19-.22,1.19-.49v-8.82c0-.27-.53-.49-1.19-.49s-1.19.22-1.19.49Z" style="fill:#f3f3f3;stroke:#7d7778;stroke-miterlimit:10;stroke-width:0.5px"/><ellipse cx="104" cy="161.42" rx="1.19" ry="0.48" style="fill:#f3f3f3;stroke:#7d7778;stroke-miterlimit:10;stroke-width:0.5px"/><path d="M122.25,177v7.53c0,.27.53.49,1.19.49s1.19-.22,1.19-.49v-8.82c0-.27-.53-.49-1.19-.49s-1.19.22-1.19.49Z" style="fill:#f3f3f3;stroke:#7d7778;stroke-miterlimit:10;stroke-width:0.5px"/><path d="M141.46,162.75v7.53c0,.27.53.49,1.19.49s1.19-.22,1.19-.49v-8.82c0-.27-.53-.49-1.19-.49s-1.19.22-1.19.49Z" style="fill:#f3f3f3;stroke:#7d7778;stroke-miterlimit:10;stroke-width:0.5px"/><path d="M158.29,149.75v7.53c0,.27.53.49,1.19.49s1.19-.22,1.19-.49v-8.82c0-.27-.53-.49-1.19-.49s-1.19.22-1.19.49Z" style="fill:#f3f3f3;stroke:#7d7778;stroke-miterlimit:10;stroke-width:0.5px"/><path d="M86.51,149.75v7.53c0,.27.53.49,1.19.49s1.19-.22,1.19-.49v-8.82c0-.27-.53-.49-1.19-.49s-1.19.22-1.19.49Z" style="fill:#f3f3f3;stroke:#7d7778;stroke-miterlimit:10;stroke-width:0.5px"/><path d="M69.31,137.85v7.53c0,.27.53.49,1.19.49s1.19-.22,1.19-.49v-8.82c0-.27-.53-.49-1.19-.49s-1.19.22-1.19.49Z" style="fill:#f3f3f3;stroke:#7d7778;stroke-miterlimit:10;stroke-width:0.5px"/><polyline points="177.62 136.15 177.62 138.43 123.22 178.96 69.11 138.96 69.11 136.64" style="fill:#f3f3f3;stroke:#7d7778;stroke-miterlimit:10;stroke-width:0.5px"/><polygon points="123.87 96.13 69.21 136.64 123.32 176.64 177.72 136.11 123.87 96.13" style="fill:#f3f3f3;stroke:#7d7778;stroke-miterlimit:10;stroke-width:0.5px"/><path d="M175.21,128.46V136c0,.27.53.49,1.19.49s1.19-.22,1.19-.49v-8.82c0-.27-.53-.49-1.19-.49s-1.19.22-1.19.49Z" style="fill:#f3f3f3;stroke:#7d7778;stroke-miterlimit:10;stroke-width:0.5px"/><ellipse cx="176.41" cy="127.12" rx="1.19" ry="0.48" style="fill:#f3f3f3;stroke:#7d7778;stroke-miterlimit:10;stroke-width:0.5px"/><path d="M102.8,154.17v7.53c0,.27.53.49,1.19.49s1.19-.22,1.19-.49v-8.82c0-.27-.53-.49-1.19-.49s-1.19.22-1.19.49Z" style="fill:#f3f3f3;stroke:#7d7778;stroke-miterlimit:10;stroke-width:0.5px"/><ellipse cx="104" cy="152.83" rx="1.19" ry="0.48" style="fill:#f3f3f3;stroke:#7d7778;stroke-miterlimit:10;stroke-width:0.5px"/><path d="M122.25,168.14v7.53c0,.27.53.49,1.19.49s1.19-.22,1.19-.49v-8.82c0-.27-.53-.49-1.19-.49s-1.19.22-1.19.49Z" style="fill:#f3f3f3;stroke:#7d7778;stroke-miterlimit:10;stroke-width:0.5px"/><path d="M141.46,154.17v7.53c0,.27.53.49,1.19.49s1.19-.22,1.19-.49v-8.82c0-.27-.53-.49-1.19-.49s-1.19.22-1.19.49Z" style="fill:#f3f3f3;stroke:#7d7778;stroke-miterlimit:10;stroke-width:0.5px"/><path d="M158.29,141.16v7.53c0,.27.53.49,1.19.49s1.19-.22,1.19-.49v-8.82c0-.27-.53-.49-1.19-.49s-1.19.22-1.19.49Z" style="fill:#f3f3f3;stroke:#7d7778;stroke-miterlimit:10;stroke-width:0.5px"/><path d="M86.51,141.16v7.53c0,.27.53.49,1.19.49s1.19-.22,1.19-.49v-8.82c0-.27-.53-.49-1.19-.49s-1.19.22-1.19.49Z" style="fill:#f3f3f3;stroke:#7d7778;stroke-miterlimit:10;stroke-width:0.5px"/><path d="M69.31,129v7.53c0,.27.53.49,1.19.49s1.19-.22,1.19-.49v-8.82c0-.27-.53-.49-1.19-.49s-1.19.22-1.19.49Z" style="fill:#f3f3f3;stroke:#7d7778;stroke-miterlimit:10;stroke-width:0.5px"/><polyline points="177.67 127.27 177.67 129.59 123.27 170.12 69.16 130.12 69.16 127.79" style="fill:#f3f3f3;stroke:#7d7778;stroke-miterlimit:10;stroke-width:0.5px"/><polygon points="123.92 87.29 69.26 127.8 123.37 167.81 177.77 127.27 123.92 87.29" style="fill:#f3f3f3;stroke:#7d7778;stroke-miterlimit:10;stroke-width:0.5px"/><path d="M175.21,119.58v7.53c0,.27.53.49,1.19.49s1.19-.22,1.19-.49v-8.82c0-.27-.53-.49-1.19-.49s-1.19.22-1.19.49Z" style="fill:#f3f3f3;stroke:#7d7778;stroke-miterlimit:10;stroke-width:0.5px"/><ellipse cx="176.41" cy="118.24" rx="1.19" ry="0.48" style="fill:#f3f3f3;stroke:#7d7778;stroke-miterlimit:10;stroke-width:0.5px"/><path d="M102.8,145.22v7.53c0,.27.53.49,1.19.49s1.19-.22,1.19-.49v-8.82c0-.27-.53-.49-1.19-.49s-1.19.22-1.19.49Z" style="fill:#f3f3f3;stroke:#7d7778;stroke-miterlimit:10;stroke-width:0.5px"/><ellipse cx="104" cy="143.88" rx="1.19" ry="0.48" style="fill:#f3f3f3;stroke:#7d7778;stroke-miterlimit:10;stroke-width:0.5px"/><path d="M122.25,159.34v7.53c0,.27.53.49,1.19.49s1.19-.22,1.19-.49V158c0-.27-.53-.49-1.19-.49s-1.19.22-1.19.49Z" style="fill:#f3f3f3;stroke:#7d7778;stroke-miterlimit:10;stroke-width:0.5px"/><path d="M141.46,145.22v7.53c0,.27.53.49,1.19.49s1.19-.22,1.19-.49v-8.82c0-.27-.53-.49-1.19-.49s-1.19.22-1.19.49Z" style="fill:#f3f3f3;stroke:#7d7778;stroke-miterlimit:10;stroke-width:0.5px"/><path d="M158.29,132.21v7.53c0,.27.53.49,1.19.49s1.19-.22,1.19-.49v-8.82c0-.27-.53-.49-1.19-.49s-1.19.22-1.19.49Z" style="fill:#f3f3f3;stroke:#7d7778;stroke-miterlimit:10;stroke-width:0.5px"/><path d="M86.51,132.21v7.53c0,.27.53.49,1.19.49s1.19-.22,1.19-.49v-8.82c0-.27-.53-.49-1.19-.49s-1.19.22-1.19.49Z" style="fill:#f3f3f3;stroke:#7d7778;stroke-miterlimit:10;stroke-width:0.5px"/><path d="M69.31,120.22v7.53c0,.27.53.49,1.19.49s1.19-.22,1.19-.49v-8.82c0-.27-.53-.49-1.19-.49s-1.19.22-1.19.49Z" style="fill:#f3f3f3;stroke:#7d7778;stroke-miterlimit:10;stroke-width:0.5px"/><polyline points="177.57 118.44 177.57 120.75 123.17 161.29 69.06 121.28 69.06 118.95" style="fill:#f3f3f3;stroke:#7d7778;stroke-miterlimit:10;stroke-width:0.5px"/><polygon points="123.82 78.45 69.16 118.96 123.27 158.97 177.67 118.44 123.82 78.45" style="fill:#f3f3f3;stroke:#7d7778;stroke-miterlimit:10;stroke-width:0.5px"/><path d="M175.2,110.88v7.53c0,.27.53.49,1.19.49s1.19-.22,1.19-.49v-8.82c0-.27-.53-.49-1.19-.49s-1.19.22-1.19.49Z" style="fill:#f3f3f3;stroke:#7d7778;stroke-miterlimit:10;stroke-width:0.5px"/><ellipse cx="176.39" cy="109.54" rx="1.19" ry="0.48" style="fill:#f3f3f3;stroke:#7d7778;stroke-miterlimit:10;stroke-width:0.5px"/><path d="M102.8,136.27v7.53c0,.27.53.49,1.19.49s1.19-.22,1.19-.49V135c0-.27-.53-.49-1.19-.49s-1.19.22-1.19.49Z" style="fill:#f3f3f3;stroke:#7d7778;stroke-miterlimit:10;stroke-width:0.5px"/><ellipse cx="104" cy="134.93" rx="1.19" ry="0.48" style="fill:#f3f3f3;stroke:#7d7778;stroke-miterlimit:10;stroke-width:0.5px"/><path d="M122.23,150.48V158c0,.27.53.49,1.19.49s1.19-.22,1.19-.49v-8.82c0-.27-.53-.49-1.19-.49s-1.19.22-1.19.49Z" style="fill:#f3f3f3;stroke:#7d7778;stroke-miterlimit:10;stroke-width:0.5px"/><path d="M141.46,136.27v7.53c0,.27.53.49,1.19.49s1.19-.22,1.19-.49V135c0-.27-.53-.49-1.19-.49s-1.19.22-1.19.49Z" style="fill:#f3f3f3;stroke:#7d7778;stroke-miterlimit:10;stroke-width:0.5px"/><path d="M158.29,123.26v7.53c0,.27.53.49,1.19.49s1.19-.22,1.19-.49V122c0-.27-.53-.49-1.19-.49s-1.19.22-1.19.49Z" style="fill:#f3f3f3;stroke:#7d7778;stroke-miterlimit:10;stroke-width:0.5px"/><path d="M86.51,123.26v7.53c0,.27.53.49,1.19.49s1.19-.22,1.19-.49V122c0-.27-.53-.49-1.19-.49s-1.19.22-1.19.49Z" style="fill:#f3f3f3;stroke:#7d7778;stroke-miterlimit:10;stroke-width:0.5px"/><path d="M69.29,111.49V119c0,.27.53.49,1.19.49s1.19-.22,1.19-.49V110.2c0-.27-.53-.49-1.19-.49s-1.19.22-1.19.49Z" style="fill:#f3f3f3;stroke:#7d7778;stroke-miterlimit:10;stroke-width:0.5px"/><polyline points="177.62 109.6 177.62 111.92 123.22 152.45 69.11 112.44 69.11 110.14" style="fill:#f3f3f3;stroke:#7d7778;stroke-miterlimit:10;stroke-width:0.5px"/><polygon points="123.87 69.62 69.21 110.12 123.32 150.13 177.72 109.6 123.87 69.62" style="fill:#f3f3f3;stroke:#7d7778;stroke-miterlimit:10;stroke-width:0.5px"/><path d="M175.21,102v7.53c0,.27.53.49,1.19.49s1.19-.22,1.19-.49v-8.82c0-.27-.53-.49-1.19-.49s-1.19.22-1.19.49Z" style="fill:#f3f3f3;stroke:#7d7778;stroke-miterlimit:10;stroke-width:0.5px"/><ellipse cx="176.41" cy="100.69" rx="1.19" ry="0.48" style="fill:#f3f3f3;stroke:#7d7778;stroke-miterlimit:10;stroke-width:0.5px"/><path d="M102.8,127.32v7.53c0,.27.53.49,1.19.49s1.19-.22,1.19-.49V126c0-.27-.53-.49-1.19-.49s-1.19.22-1.19.49Z" style="fill:#f3f3f3;stroke:#7d7778;stroke-miterlimit:10;stroke-width:0.5px"/><ellipse cx="104" cy="125.98" rx="1.19" ry="0.48" style="fill:#f3f3f3;stroke:#7d7778;stroke-miterlimit:10;stroke-width:0.5px"/><path d="M122.25,141.8v7.53c0,.27.53.49,1.19.49s1.19-.22,1.19-.49V140.5c0-.27-.53-.49-1.19-.49s-1.19.22-1.19.49Z" style="fill:#f3f3f3;stroke:#7d7778;stroke-miterlimit:10;stroke-width:0.5px"/><path d="M141.46,127.32v7.53c0,.27.53.49,1.19.49s1.19-.22,1.19-.49V126c0-.27-.53-.49-1.19-.49s-1.19.22-1.19.49Z" style="fill:#f3f3f3;stroke:#7d7778;stroke-miterlimit:10;stroke-width:0.5px"/><path d="M158.29,114.31v7.53c0,.27.53.49,1.19.49s1.19-.22,1.19-.49V113c0-.27-.53-.49-1.19-.49s-1.19.22-1.19.49Z" style="fill:#f3f3f3;stroke:#7d7778;stroke-miterlimit:10;stroke-width:0.5px"/><path d="M86.51,114.31v7.53c0,.27.53.49,1.19.49s1.19-.22,1.19-.49V113c0-.27-.53-.49-1.19-.49s-1.19.22-1.19.49Z" style="fill:#f3f3f3;stroke:#7d7778;stroke-miterlimit:10;stroke-width:0.5px"/><path d="M69.31,102.54v7.53c0,.27.53.49,1.19.49s1.19-.22,1.19-.49v-8.82c0-.27-.53-.49-1.19-.49s-1.19.22-1.19.49Z" style="fill:#f3f3f3;stroke:#7d7778;stroke-miterlimit:10;stroke-width:0.5px"/><polyline points="177.67 100.76 177.67 103.08 123.27 143.61 69.16 103.6 69.16 101.29" style="fill:#f3f3f3;stroke:#7d7778;stroke-miterlimit:10;stroke-width:0.5px"/><polygon points="123.97 60.76 69.31 101.27 123.42 141.27 177.82 100.74 123.97 60.76" style="fill:#f3f3f3;stroke:#7d7778;stroke-miterlimit:10;stroke-width:0.5px"/><line x1="135.1" y1="120.11" x2="123.56" y2="111.61" style="fill:#f3f3f3;stroke:#7d7778;stroke-miterlimit:10;stroke-width:0.5px"/><line x1="112.03" y1="120.11" x2="123.56" y2="111.61" style="fill:#f3f3f3;stroke:#7d7778;stroke-miterlimit:10;stroke-width:0.5px"/><ellipse cx="123.56" cy="101.05" rx="1.19" ry="0.48" style="fill:#f3f3f3;stroke:#7d7778;stroke-miterlimit:10;stroke-width:0.5px"/><path d="M102.8,118.26v7.53c0,.27.53.49,1.19.49s1.19-.22,1.19-.49V117c0-.27-.53-.49-1.19-.49s-1.19.22-1.19.49Z" style="fill:#f3f3f3;stroke:#7d7778;stroke-miterlimit:10;stroke-width:0.5px"/><ellipse cx="104" cy="115.01" rx="1.19" ry="0.48" style="fill:#f3f3f3;stroke:#7d7778;stroke-miterlimit:10;stroke-width:0.5px"/><path d="M141.46,118.29v7.53c0,.27.53.49,1.19.49s1.19-.22,1.19-.49V117c0-.27-.53-.49-1.19-.49s-1.19.22-1.19.49Z" style="fill:#f3f3f3;stroke:#7d7778;stroke-miterlimit:10;stroke-width:0.5px"/><path d="M158.29,105.28v7.53c0,.27.53.49,1.19.49s1.19-.22,1.19-.49V104c0-.27-.53-.49-1.19-.49s-1.19.22-1.19.49Z" style="fill:#f3f3f3;stroke:#7d7778;stroke-miterlimit:10;stroke-width:0.5px"/><path d="M86.51,105.28v7.53c0,.27.53.49,1.19.49s1.19-.22,1.19-.49V104c0-.27-.53-.49-1.19-.49s-1.19.22-1.19.49Z" style="fill:#f3f3f3;stroke:#7d7778;stroke-miterlimit:10;stroke-width:0.5px"/><ellipse cx="145.2" cy="115.01" rx="1.19" ry="0.48" style="fill:#f3f3f3;stroke:#7d7778;stroke-miterlimit:10;stroke-width:0.5px"/><polygon points="104.44 118.13 123.51 104.01 142.16 118.04 146.4 113.72 144.11 108.96 123.51 98.88 112.76 103.42 102.08 116.19 103.01 118.55 104.44 118.13" style="fill:#f3f3f3;stroke:#7d7778;stroke-miterlimit:10;stroke-width:0.5px"/><polygon points="110.38 113.81 105.28 117.58 105.28 125.16 110.39 121.4 110.38 113.81" style="fill:#f3f3f3;stroke:#7d7778;stroke-miterlimit:10;stroke-width:0.5px"/><polyline points="122.42 112.45 122.41 104.86 117.31 108.63 117.31 116.21" style="fill:none;stroke:#7d7778;stroke-miterlimit:10;stroke-width:0.5px"/><polygon points="116.4 109.31 111.29 113.09 111.3 120.67 116.41 116.9 116.4 109.31" style="fill:none;stroke:#7d7778;stroke-miterlimit:10;stroke-width:0.5px"/><polygon points="136.8 113.92 141.9 117.69 141.9 125.27 136.79 121.51 136.8 113.92" style="fill:#f3f3f3;stroke:#7d7778;stroke-miterlimit:10;stroke-width:0.5px"/><polyline points="124.73 112.56 124.74 104.97 129.84 108.74 129.84 116.32" style="fill:none;stroke:#7d7778;stroke-miterlimit:10;stroke-width:0.5px"/><polyline points="130.75 117.01 130.76 109.42 135.86 113.2 135.86 120.78" style="fill:none;stroke:#7d7778;stroke-miterlimit:10;stroke-width:0.5px"/><path d="M175.16,93v7.53c0,.27.53.49,1.19.49s1.19-.22,1.19-.49V91.73c0-.27-.53-.49-1.19-.49s-1.19.22-1.19.49Z" style="fill:#f3f3f3;stroke:#7d7778;stroke-miterlimit:10;stroke-width:0.5px"/><path d="M69.26,93.57v7.53c0,.27.53.49,1.19.49s1.19-.22,1.19-.49V92.28c0-.27-.53-.49-1.19-.49s-1.19.22-1.19.49Z" style="fill:#f3f3f3;stroke:#7d7778;stroke-miterlimit:10;stroke-width:0.5px"/><ellipse cx="176.36" cy="91.69" rx="1.19" ry="0.48" style="fill:#f3f3f3;stroke:#7d7778;stroke-miterlimit:10;stroke-width:0.5px"/><path d="M122.2,132.63v7.53c0,.27.53.49,1.19.49s1.19-.22,1.19-.49v-8.82c0-.27-.53-.49-1.19-.49s-1.19.22-1.19.49Z" style="fill:#f3f3f3;stroke:#7d7778;stroke-miterlimit:10;stroke-width:0.5px"/><path d="M69.16,91.34v2.31l54.11,40,54.4-40.53V90.81Zm54.2,37.58-19.89-14.71,20.09-14.89,19.8,14.7Z" style="fill:#f3f3f3;stroke:#7d7778;stroke-miterlimit:10;stroke-width:0.5px"/><path d="M123.92,50.83,69.26,91.33l54.11,40,54.4-40.53Zm-.55,77.66-18.13-13.41,18.32-13.57,18,13.4Z" style="fill:#f3f3f3;stroke:#7d7778;stroke-miterlimit:10;stroke-width:0.5px"/><polygon points="73.05 91.27 123.89 53.59 173.98 90.78 143.69 113.35 123.67 98.48 103.3 113.57 73.05 91.27" style="fill:#f3f3f3;stroke:#7d7778;stroke-miterlimit:10;stroke-width:0.5px"/><polyline points="74.95 92.67 123.89 56.41 172.09 92.19" style="fill:#f3f3f3;stroke:#7d7778;stroke-miterlimit:10;stroke-width:0.5px"/><line x1="123.89" y1="53.59" x2="123.89" y2="56.41" style="fill:#f3f3f3;stroke:#7d7778;stroke-miterlimit:10;stroke-width:0.5px"/><line x1="123.56" y1="101.51" x2="123.56" y2="111.51" style="fill:#f3f3f3;stroke:#7d7778;stroke-miterlimit:10;stroke-width:0.5px"/><polyline points="113.92 75.77 112.69 75.44 102.51 61.37 103.61 61.59" style="fill:#f3f3f3;stroke:#7d7778;stroke-miterlimit:10;stroke-width:0.5px"/><polyline points="111.93 55.55 110.74 55.32 102.51 61.37 103.61 61.59 111.93 55.55" style="fill:#f3f3f3;stroke:#7d7778;stroke-miterlimit:10;stroke-width:0.5px"/><rect x="107.78" y="56.89" width="10.29" height="17.53" transform="translate(-17.02 78.98) rotate(-36.03)" style="fill:#f3f3f3;stroke:#7d7778;stroke-miterlimit:10;stroke-width:0.5px"/><line x1="113.99" y1="58.38" x2="105.67" y2="64.43" style="fill:#f3f3f3;stroke:#7d7778;stroke-miterlimit:10;stroke-width:0.5px"/><line x1="116.06" y1="61.22" x2="107.74" y2="67.26" style="fill:#f3f3f3;stroke:#7d7778;stroke-miterlimit:10;stroke-width:0.5px"/><line x1="118.12" y1="64.05" x2="109.8" y2="70.1" style="fill:#f3f3f3;stroke:#7d7778;stroke-miterlimit:10;stroke-width:0.5px"/><line x1="120.18" y1="66.89" x2="111.86" y2="72.94" style="fill:#f3f3f3;stroke:#7d7778;stroke-miterlimit:10;stroke-width:0.5px"/><line x1="106.39" y1="59.66" x2="116.66" y2="73.78" style="fill:#f3f3f3;stroke:#7d7778;stroke-miterlimit:10;stroke-width:0.5px"/><line x1="109.22" y1="57.6" x2="119.5" y2="71.72" style="fill:#f3f3f3;stroke:#7d7778;stroke-miterlimit:10;stroke-width:0.5px"/><polyline points="104.44 82.62 103.2 82.28 93.03 68.21 94.13 68.44" style="fill:#f3f3f3;stroke:#7d7778;stroke-miterlimit:10;stroke-width:0.5px"/><polyline points="102.44 62.39 101.26 62.17 93.03 68.21 94.13 68.44 102.44 62.39" style="fill:#f3f3f3;stroke:#7d7778;stroke-miterlimit:10;stroke-width:0.5px"/><rect x="98.3" y="63.74" width="10.29" height="17.53" transform="translate(-22.86 74.71) rotate(-36.03)" style="fill:#f3f3f3;stroke:#7d7778;stroke-miterlimit:10;stroke-width:0.5px"/><line x1="104.51" y1="65.22" x2="96.19" y2="71.27" style="fill:#f3f3f3;stroke:#7d7778;stroke-miterlimit:10;stroke-width:0.5px"/><line x1="106.57" y1="68.06" x2="98.25" y2="74.11" style="fill:#f3f3f3;stroke:#7d7778;stroke-miterlimit:10;stroke-width:0.5px"/><line x1="108.63" y1="70.89" x2="100.31" y2="76.95" style="fill:#f3f3f3;stroke:#7d7778;stroke-miterlimit:10;stroke-width:0.5px"/><line x1="110.69" y1="73.73" x2="102.38" y2="79.78" style="fill:#f3f3f3;stroke:#7d7778;stroke-miterlimit:10;stroke-width:0.5px"/><line x1="96.9" y1="66.51" x2="107.17" y2="80.63" style="fill:#f3f3f3;stroke:#7d7778;stroke-miterlimit:10;stroke-width:0.5px"/><line x1="99.74" y1="64.44" x2="110.01" y2="78.56" style="fill:#f3f3f3;stroke:#7d7778;stroke-miterlimit:10;stroke-width:0.5px"/><polyline points="95.12 89.64 93.89 89.3 83.71 75.23 84.81 75.46" style="fill:#f3f3f3;stroke:#7d7778;stroke-miterlimit:10;stroke-width:0.5px"/><polyline points="93.13 69.41 91.94 69.19 83.71 75.23 84.81 75.46 93.13 69.41" style="fill:#f3f3f3;stroke:#7d7778;stroke-miterlimit:10;stroke-width:0.5px"/><rect x="88.98" y="70.76" width="10.29" height="17.53" transform="translate(-28.77 70.58) rotate(-36.03)" style="fill:#f3f3f3;stroke:#7d7778;stroke-miterlimit:10;stroke-width:0.5px"/><line x1="95.19" y1="72.24" x2="86.87" y2="78.29" style="fill:#f3f3f3;stroke:#7d7778;stroke-miterlimit:10;stroke-width:0.5px"/><line x1="97.25" y1="75.08" x2="88.94" y2="81.13" style="fill:#f3f3f3;stroke:#7d7778;stroke-miterlimit:10;stroke-width:0.5px"/><line x1="99.32" y1="77.92" x2="91" y2="83.97" style="fill:#f3f3f3;stroke:#7d7778;stroke-miterlimit:10;stroke-width:0.5px"/><line x1="101.38" y1="80.75" x2="93.06" y2="86.8" style="fill:#f3f3f3;stroke:#7d7778;stroke-miterlimit:10;stroke-width:0.5px"/><line x1="87.59" y1="73.53" x2="97.86" y2="87.65" style="fill:#f3f3f3;stroke:#7d7778;stroke-miterlimit:10;stroke-width:0.5px"/><line x1="90.42" y1="71.46" x2="100.69" y2="85.58" style="fill:#f3f3f3;stroke:#7d7778;stroke-miterlimit:10;stroke-width:0.5px"/><polyline points="124.93 83.64 123.69 83.3 113.52 69.23 114.62 69.46" style="fill:#f3f3f3;stroke:#7d7778;stroke-miterlimit:10;stroke-width:0.5px"/><polyline points="122.94 63.41 121.75 63.19 113.52 69.23 114.62 69.46 122.94 63.41" style="fill:#f3f3f3;stroke:#7d7778;stroke-miterlimit:10;stroke-width:0.5px"/><rect x="118.79" y="64.76" width="10.29" height="17.53" transform="translate(-19.54 86.96) rotate(-36.03)" style="fill:#f3f3f3;stroke:#7d7778;stroke-miterlimit:10;stroke-width:0.5px"/><line x1="125" y1="66.24" x2="116.68" y2="72.29" style="fill:#f3f3f3;stroke:#7d7778;stroke-miterlimit:10;stroke-width:0.5px"/><line x1="127.06" y1="69.08" x2="118.74" y2="75.13" style="fill:#f3f3f3;stroke:#7d7778;stroke-miterlimit:10;stroke-width:0.5px"/><line x1="129.12" y1="71.91" x2="120.81" y2="77.96" style="fill:#f3f3f3;stroke:#7d7778;stroke-miterlimit:10;stroke-width:0.5px"/><line x1="131.19" y1="74.75" x2="122.87" y2="80.8" style="fill:#f3f3f3;stroke:#7d7778;stroke-miterlimit:10;stroke-width:0.5px"/><line x1="117.39" y1="67.52" x2="127.67" y2="81.65" style="fill:#f3f3f3;stroke:#7d7778;stroke-miterlimit:10;stroke-width:0.5px"/><line x1="120.23" y1="65.46" x2="130.5" y2="79.58" style="fill:#f3f3f3;stroke:#7d7778;stroke-miterlimit:10;stroke-width:0.5px"/><polyline points="115.44 90.48 114.21 90.14 104.03 76.08 105.13 76.3" style="fill:#f3f3f3;stroke:#7d7778;stroke-miterlimit:10;stroke-width:0.5px"/><polyline points="113.45 70.25 112.26 70.03 104.03 76.08 105.13 76.3 113.45 70.25" style="fill:#f3f3f3;stroke:#7d7778;stroke-miterlimit:10;stroke-width:0.5px"/><rect x="109.31" y="71.6" width="10.29" height="17.53" transform="translate(-25.38 82.69) rotate(-36.03)" style="fill:#f3f3f3;stroke:#7d7778;stroke-miterlimit:10;stroke-width:0.5px"/><line x1="115.51" y1="73.09" x2="107.2" y2="79.14" style="fill:#f3f3f3;stroke:#7d7778;stroke-miterlimit:10;stroke-width:0.5px"/><line x1="117.58" y1="75.92" x2="109.26" y2="81.97" style="fill:#f3f3f3;stroke:#7d7778;stroke-miterlimit:10;stroke-width:0.5px"/><line x1="119.64" y1="78.76" x2="111.32" y2="84.81" style="fill:#f3f3f3;stroke:#7d7778;stroke-miterlimit:10;stroke-width:0.5px"/><line x1="121.7" y1="81.59" x2="113.38" y2="87.64" style="fill:#f3f3f3;stroke:#7d7778;stroke-miterlimit:10;stroke-width:0.5px"/><line x1="107.91" y1="74.37" x2="118.18" y2="88.49" style="fill:#f3f3f3;stroke:#7d7778;stroke-miterlimit:10;stroke-width:0.5px"/><line x1="110.74" y1="72.31" x2="121.02" y2="86.43" style="fill:#f3f3f3;stroke:#7d7778;stroke-miterlimit:10;stroke-width:0.5px"/><polyline points="106.13 97.5 104.89 97.17 94.72 83.1 95.82 83.32" style="fill:#f3f3f3;stroke:#7d7778;stroke-miterlimit:10;stroke-width:0.5px"/><polyline points="104.14 77.27 102.95 77.05 94.72 83.1 95.82 83.32 104.14 77.27" style="fill:#f3f3f3;stroke:#7d7778;stroke-miterlimit:10;stroke-width:0.5px"/><rect x="99.99" y="78.62" width="10.29" height="17.53" transform="translate(-31.29 78.55) rotate(-36.03)" style="fill:#f3f3f3;stroke:#7d7778;stroke-miterlimit:10;stroke-width:0.5px"/><line x1="106.2" y1="80.11" x2="97.88" y2="86.16" style="fill:#f3f3f3;stroke:#7d7778;stroke-miterlimit:10;stroke-width:0.5px"/><line x1="108.26" y1="82.94" x2="99.94" y2="88.99" style="fill:#f3f3f3;stroke:#7d7778;stroke-miterlimit:10;stroke-width:0.5px"/><line x1="110.32" y1="85.78" x2="102" y2="91.83" style="fill:#f3f3f3;stroke:#7d7778;stroke-miterlimit:10;stroke-width:0.5px"/><line x1="112.39" y1="88.61" x2="104.07" y2="94.66" style="fill:#f3f3f3;stroke:#7d7778;stroke-miterlimit:10;stroke-width:0.5px"/><line x1="98.59" y1="81.39" x2="108.86" y2="95.51" style="fill:#f3f3f3;stroke:#7d7778;stroke-miterlimit:10;stroke-width:0.5px"/><line x1="101.43" y1="79.33" x2="111.7" y2="93.45" style="fill:#f3f3f3;stroke:#7d7778;stroke-miterlimit:10;stroke-width:0.5px"/><polyline points="158.05 89.61 158.05 100.69 153.79 103.86 149.55 100.73 149.55 89.61" style="fill:#f3f3f3;stroke:#7d7778;stroke-miterlimit:10;stroke-width:0.5px"/><polygon points="153.84 86.45 149.56 89.63 153.8 92.76 158.06 89.58 153.84 86.45" style="fill:#f3f3f3;stroke:#7d7778;stroke-miterlimit:10;stroke-width:0.5px"/><line x1="153.8" y1="92.76" x2="153.8" y2="103.75" style="fill:#f3f3f3;stroke:#7d7778;stroke-miterlimit:10;stroke-width:0.5px"/><polygon points="69.26 91.08 123.37 131.09 123.36 211.51 69.16 171.58 69.26 91.08" style="fill:#f3f3f3;stroke:#7d7778;stroke-miterlimit:10;stroke-width:0.5px"/><polygon points="177.47 91.08 123.36 131.09 123.36 211.51 177.57 171.58 177.47 91.08" style="fill:#f3f3f3;stroke:#7d7778;stroke-miterlimit:10;stroke-width:0.5px"/><polygon points="117.23 129 122.34 132.78 122.34 140.36 117.23 136.59 117.23 129" style="fill:#f3f3f3;stroke:#7d7778;stroke-miterlimit:10;stroke-width:0.5px"/><polygon points="105.2 120.05 110.3 123.82 110.3 131.41 105.19 127.64 105.2 120.05" style="fill:#f3f3f3;stroke:#7d7778;stroke-miterlimit:10;stroke-width:0.5px"/><polygon points="111.22 124.51 116.32 128.28 116.32 135.86 111.21 132.1 111.22 124.51" style="fill:#f3f3f3;stroke:#7d7778;stroke-miterlimit:10;stroke-width:0.5px"/><polygon points="99.34 115.8 104.25 119.48 104.25 127.06 99.33 123.38 99.34 115.8" style="fill:#f3f3f3;stroke:#7d7778;stroke-miterlimit:10;stroke-width:0.5px"/><polygon points="93.61 111.51 98.51 115.19 98.51 122.77 93.6 119.1 93.61 111.51" style="fill:#f3f3f3;stroke:#7d7778;stroke-miterlimit:10;stroke-width:0.5px"/><polygon points="87.87 107.22 92.78 110.9 92.77 118.49 87.86 114.81 87.87 107.22" style="fill:#f3f3f3;stroke:#7d7778;stroke-miterlimit:10;stroke-width:0.5px"/><polygon points="82.22 103.02 87.13 106.7 87.13 114.29 82.22 110.61 82.22 103.02" style="fill:#f3f3f3;stroke:#7d7778;stroke-miterlimit:10;stroke-width:0.5px"/><polygon points="76.49 98.73 81.39 102.42 81.39 110 76.48 106.32 76.49 98.73" style="fill:#f3f3f3;stroke:#7d7778;stroke-miterlimit:10;stroke-width:0.5px"/><polygon points="70.75 94.45 75.66 98.13 75.66 105.71 70.74 102.04 70.75 94.45" style="fill:#f3f3f3;stroke:#7d7778;stroke-miterlimit:10;stroke-width:0.5px"/><polygon points="117.23 138.89 122.34 142.66 122.34 149.27 117.23 145.51 117.23 138.89" style="fill:#f3f3f3;stroke:#7d7778;stroke-miterlimit:10;stroke-width:0.5px"/><polygon points="105.2 129.94 110.3 133.71 110.3 140.32 105.19 136.56 105.2 129.94" style="fill:#f3f3f3;stroke:#7d7778;stroke-miterlimit:10;stroke-width:0.5px"/><polygon points="111.22 134.4 116.32 138.17 116.32 144.77 111.21 141.01 111.22 134.4" style="fill:#f3f3f3;stroke:#7d7778;stroke-miterlimit:10;stroke-width:0.5px"/><polygon points="99.34 125.68 104.25 129.37 104.25 135.97 99.33 132.3 99.34 125.68" style="fill:#f3f3f3;stroke:#7d7778;stroke-miterlimit:10;stroke-width:0.5px"/><polygon points="93.61 121.4 98.51 125.08 98.51 131.69 93.6 128.01 93.61 121.4" style="fill:#f3f3f3;stroke:#7d7778;stroke-miterlimit:10;stroke-width:0.5px"/><polygon points="87.87 117.11 92.78 120.79 92.77 127.4 87.86 123.72 87.87 117.11" style="fill:#f3f3f3;stroke:#7d7778;stroke-miterlimit:10;stroke-width:0.5px"/><polygon points="82.22 112.91 87.13 116.59 87.13 123.2 82.22 119.52 82.22 112.91" style="fill:#f3f3f3;stroke:#7d7778;stroke-miterlimit:10;stroke-width:0.5px"/><polygon points="76.49 108.63 81.39 112.31 81.39 118.91 76.48 115.24 76.49 108.63" style="fill:#f3f3f3;stroke:#7d7778;stroke-miterlimit:10;stroke-width:0.5px"/><polygon points="70.75 104.34 75.66 108.02 75.66 114.63 70.74 110.95 70.75 104.34" style="fill:#f3f3f3;stroke:#7d7778;stroke-miterlimit:10;stroke-width:0.5px"/><polygon points="117.23 147.74 122.34 151.51 122.34 158.12 117.23 154.35 117.23 147.74" style="fill:#f3f3f3;stroke:#7d7778;stroke-miterlimit:10;stroke-width:0.5px"/><polygon points="105.2 138.79 110.3 142.56 110.3 149.17 105.19 145.4 105.2 138.79" style="fill:#f3f3f3;stroke:#7d7778;stroke-miterlimit:10;stroke-width:0.5px"/><polygon points="111.22 143.24 116.32 147.01 116.32 153.62 111.21 149.86 111.22 143.24" style="fill:#f3f3f3;stroke:#7d7778;stroke-miterlimit:10;stroke-width:0.5px"/><polygon points="99.34 134.53 104.25 138.21 104.25 144.82 99.33 141.15 99.34 134.53" style="fill:#f3f3f3;stroke:#7d7778;stroke-miterlimit:10;stroke-width:0.5px"/><polygon points="93.61 130.25 98.51 133.93 98.51 140.53 93.6 136.86 93.61 130.25" style="fill:#f3f3f3;stroke:#7d7778;stroke-miterlimit:10;stroke-width:0.5px"/><polygon points="87.87 125.96 92.78 129.64 92.77 136.25 87.86 132.57 87.87 125.96" style="fill:#f3f3f3;stroke:#7d7778;stroke-miterlimit:10;stroke-width:0.5px"/><polygon points="82.22 121.76 87.13 125.44 87.13 132.05 82.22 128.37 82.22 121.76" style="fill:#f3f3f3;stroke:#7d7778;stroke-miterlimit:10;stroke-width:0.5px"/><polygon points="76.49 117.47 81.39 121.15 81.39 127.76 76.48 124.08 76.49 117.47" style="fill:#f3f3f3;stroke:#7d7778;stroke-miterlimit:10;stroke-width:0.5px"/><polygon points="70.75 113.19 75.66 116.87 75.66 123.47 70.74 119.8 70.75 113.19" style="fill:#f3f3f3;stroke:#7d7778;stroke-miterlimit:10;stroke-width:0.5px"/><polygon points="117.23 156.59 122.34 160.36 122.34 166.97 117.23 163.2 117.23 156.59" style="fill:#f3f3f3;stroke:#7d7778;stroke-miterlimit:10;stroke-width:0.5px"/><polygon points="105.2 147.64 110.3 151.41 110.3 158.01 105.19 154.25 105.2 147.64" style="fill:#f3f3f3;stroke:#7d7778;stroke-miterlimit:10;stroke-width:0.5px"/><polygon points="111.22 152.09 116.32 155.86 116.32 162.47 111.21 158.7 111.22 152.09" style="fill:#f3f3f3;stroke:#7d7778;stroke-miterlimit:10;stroke-width:0.5px"/><polygon points="99.34 143.38 104.25 147.06 104.25 153.67 99.33 149.99 99.34 143.38" style="fill:#f3f3f3;stroke:#7d7778;stroke-miterlimit:10;stroke-width:0.5px"/><polygon points="93.61 139.09 98.51 142.78 98.51 149.38 93.6 145.71 93.61 139.09" style="fill:#f3f3f3;stroke:#7d7778;stroke-miterlimit:10;stroke-width:0.5px"/><polygon points="87.87 134.81 92.78 138.49 92.77 145.09 87.86 141.42 87.87 134.81" style="fill:#f3f3f3;stroke:#7d7778;stroke-miterlimit:10;stroke-width:0.5px"/><polygon points="82.22 130.61 87.13 134.29 87.13 140.89 82.22 137.22 82.22 130.61" style="fill:#f3f3f3;stroke:#7d7778;stroke-miterlimit:10;stroke-width:0.5px"/><polygon points="76.49 126.32 81.39 130 81.39 136.61 76.48 132.93 76.49 126.32" style="fill:#f3f3f3;stroke:#7d7778;stroke-miterlimit:10;stroke-width:0.5px"/><polygon points="70.75 122.03 75.66 125.72 75.66 132.32 70.74 128.65 70.75 122.03" style="fill:#f3f3f3;stroke:#7d7778;stroke-miterlimit:10;stroke-width:0.5px"/><polygon points="117.23 165.43 122.34 169.21 122.34 175.81 117.23 172.05 117.23 165.43" style="fill:#f3f3f3;stroke:#7d7778;stroke-miterlimit:10;stroke-width:0.5px"/><polygon points="105.2 156.48 110.3 160.25 110.3 166.86 105.19 163.1 105.2 156.48" style="fill:#f3f3f3;stroke:#7d7778;stroke-miterlimit:10;stroke-width:0.5px"/><polygon points="111.22 160.94 116.32 164.71 116.32 171.32 111.21 167.55 111.22 160.94" style="fill:#f3f3f3;stroke:#7d7778;stroke-miterlimit:10;stroke-width:0.5px"/><polygon points="99.34 152.23 104.25 155.91 104.25 162.51 99.33 158.84 99.34 152.23" style="fill:#f3f3f3;stroke:#7d7778;stroke-miterlimit:10;stroke-width:0.5px"/><polygon points="93.61 147.94 98.51 151.62 98.51 158.23 93.6 154.55 93.61 147.94" style="fill:#f3f3f3;stroke:#7d7778;stroke-miterlimit:10;stroke-width:0.5px"/><polygon points="87.87 143.65 92.78 147.34 92.77 153.94 87.86 150.27 87.87 143.65" style="fill:#f3f3f3;stroke:#7d7778;stroke-miterlimit:10;stroke-width:0.5px"/><polygon points="82.22 139.45 87.13 143.13 87.13 149.74 82.22 146.07 82.22 139.45" style="fill:#f3f3f3;stroke:#7d7778;stroke-miterlimit:10;stroke-width:0.5px"/><polygon points="76.49 135.17 81.39 138.85 81.39 145.46 76.48 141.78 76.49 135.17" style="fill:#f3f3f3;stroke:#7d7778;stroke-miterlimit:10;stroke-width:0.5px"/><polygon points="70.75 130.88 75.66 134.56 75.66 141.17 70.74 137.49 70.75 130.88" style="fill:#f3f3f3;stroke:#7d7778;stroke-miterlimit:10;stroke-width:0.5px"/><polygon points="117.23 174.28 122.34 178.05 122.34 184.66 117.23 180.9 117.23 174.28" style="fill:#f3f3f3;stroke:#7d7778;stroke-miterlimit:10;stroke-width:0.5px"/><polygon points="105.2 165.33 110.3 169.1 110.3 175.71 105.19 171.94 105.2 165.33" style="fill:#f3f3f3;stroke:#7d7778;stroke-miterlimit:10;stroke-width:0.5px"/><polygon points="111.22 169.79 116.32 173.56 116.32 180.16 111.21 176.4 111.22 169.79" style="fill:#f3f3f3;stroke:#7d7778;stroke-miterlimit:10;stroke-width:0.5px"/><polygon points="99.34 161.07 104.25 164.76 104.25 171.36 99.33 167.69 99.34 161.07" style="fill:#f3f3f3;stroke:#7d7778;stroke-miterlimit:10;stroke-width:0.5px"/><polygon points="93.61 156.79 98.51 160.47 98.51 167.08 93.6 163.4 93.61 156.79" style="fill:#f3f3f3;stroke:#7d7778;stroke-miterlimit:10;stroke-width:0.5px"/><polygon points="87.87 152.5 92.78 156.18 92.77 162.79 87.86 159.11 87.87 152.5" style="fill:#f3f3f3;stroke:#7d7778;stroke-miterlimit:10;stroke-width:0.5px"/><polygon points="82.22 148.3 87.13 151.98 87.13 158.59 82.22 154.91 82.22 148.3" style="fill:#f3f3f3;stroke:#7d7778;stroke-miterlimit:10;stroke-width:0.5px"/><polygon points="76.49 144.01 81.39 147.7 81.39 154.3 76.48 150.63 76.49 144.01" style="fill:#f3f3f3;stroke:#7d7778;stroke-miterlimit:10;stroke-width:0.5px"/><polygon points="70.75 139.73 75.66 143.41 75.66 150.02 70.74 146.34 70.75 139.73" style="fill:#f3f3f3;stroke:#7d7778;stroke-miterlimit:10;stroke-width:0.5px"/><polygon points="117.23 183.13 122.34 186.9 122.34 193.51 117.23 189.74 117.23 183.13" style="fill:#f3f3f3;stroke:#7d7778;stroke-miterlimit:10;stroke-width:0.5px"/><polygon points="105.2 174.18 110.3 177.95 110.3 184.56 105.19 180.79 105.2 174.18" style="fill:#f3f3f3;stroke:#7d7778;stroke-miterlimit:10;stroke-width:0.5px"/><polygon points="111.22 178.63 116.32 182.4 116.32 189.01 111.21 185.25 111.22 178.63" style="fill:#f3f3f3;stroke:#7d7778;stroke-miterlimit:10;stroke-width:0.5px"/><polygon points="99.34 169.92 104.25 173.6 104.25 180.21 99.33 176.53 99.34 169.92" style="fill:#f3f3f3;stroke:#7d7778;stroke-miterlimit:10;stroke-width:0.5px"/><polygon points="93.61 165.63 98.51 169.32 98.51 175.92 93.6 172.25 93.61 165.63" style="fill:#f3f3f3;stroke:#7d7778;stroke-miterlimit:10;stroke-width:0.5px"/><polygon points="87.87 161.35 92.78 165.03 92.77 171.64 87.86 167.96 87.87 161.35" style="fill:#f3f3f3;stroke:#7d7778;stroke-miterlimit:10;stroke-width:0.5px"/><polygon points="82.22 157.15 87.13 160.83 87.13 167.44 82.22 163.76 82.22 157.15" style="fill:#f3f3f3;stroke:#7d7778;stroke-miterlimit:10;stroke-width:0.5px"/><polygon points="76.49 152.86 81.39 156.54 81.39 163.15 76.48 159.47 76.49 152.86" style="fill:#f3f3f3;stroke:#7d7778;stroke-miterlimit:10;stroke-width:0.5px"/><polygon points="70.75 148.57 75.66 152.26 75.66 158.86 70.74 155.19 70.75 148.57" style="fill:#f3f3f3;stroke:#7d7778;stroke-miterlimit:10;stroke-width:0.5px"/><polygon points="117.23 191.98 122.34 195.75 122.34 202.35 117.23 198.59 117.23 191.98" style="fill:#f3f3f3;stroke:#7d7778;stroke-miterlimit:10;stroke-width:0.5px"/><polygon points="105.2 183.03 110.3 186.8 110.3 193.4 105.19 189.64 105.2 183.03" style="fill:#f3f3f3;stroke:#7d7778;stroke-miterlimit:10;stroke-width:0.5px"/><polygon points="111.22 187.48 116.32 191.25 116.32 197.86 111.21 194.09 111.22 187.48" style="fill:#f3f3f3;stroke:#7d7778;stroke-miterlimit:10;stroke-width:0.5px"/><polygon points="99.34 178.77 104.25 182.45 104.25 189.06 99.33 185.38 99.34 178.77" style="fill:#f3f3f3;stroke:#7d7778;stroke-miterlimit:10;stroke-width:0.5px"/><polygon points="93.61 174.48 98.51 178.16 98.51 184.77 93.6 181.09 93.61 174.48" style="fill:#f3f3f3;stroke:#7d7778;stroke-miterlimit:10;stroke-width:0.5px"/><polygon points="87.87 170.19 92.78 173.88 92.77 180.48 87.86 176.81 87.87 170.19" style="fill:#f3f3f3;stroke:#7d7778;stroke-miterlimit:10;stroke-width:0.5px"/><polygon points="82.22 166 87.13 169.68 87.13 176.28 82.22 172.61 82.22 166" style="fill:#f3f3f3;stroke:#7d7778;stroke-miterlimit:10;stroke-width:0.5px"/><polygon points="76.49 161.71 81.39 165.39 81.39 172 76.48 168.32 76.49 161.71" style="fill:#f3f3f3;stroke:#7d7778;stroke-miterlimit:10;stroke-width:0.5px"/><polygon points="70.75 157.42 75.66 161.1 75.66 167.71 70.74 164.03 70.75 157.42" style="fill:#f3f3f3;stroke:#7d7778;stroke-miterlimit:10;stroke-width:0.5px"/><polyline points="117.23 207.44 117.23 200.82 122.34 204.59 122.34 211.2" style="fill:none;stroke:#7d7778;stroke-miterlimit:10;stroke-width:0.5px"/><polyline points="105.19 198.49 105.2 191.87 110.3 195.64 110.3 202.25" style="fill:none;stroke:#7d7778;stroke-miterlimit:10;stroke-width:0.5px"/><polyline points="111.21 202.94 111.22 196.33 116.32 200.1 116.32 206.71" style="fill:none;stroke:#7d7778;stroke-miterlimit:10;stroke-width:0.5px"/><polyline points="99.33 194.23 99.34 187.62 104.25 191.3 104.25 197.9" style="fill:none;stroke:#7d7778;stroke-miterlimit:10;stroke-width:0.5px"/><polyline points="93.6 189.94 93.61 183.33 98.51 187.01 98.51 193.62" style="fill:none;stroke:#7d7778;stroke-miterlimit:10;stroke-width:0.5px"/><polyline points="87.86 185.66 87.87 179.04 92.78 182.72 92.77 189.33" style="fill:none;stroke:#7d7778;stroke-miterlimit:10;stroke-width:0.5px"/><polyline points="82.22 181.46 82.22 174.84 87.13 178.52 87.13 185.13" style="fill:none;stroke:#7d7778;stroke-miterlimit:10;stroke-width:0.5px"/><polyline points="76.48 177.17 76.49 170.56 81.39 174.24 81.39 180.84" style="fill:none;stroke:#7d7778;stroke-miterlimit:10;stroke-width:0.5px"/><polyline points="70.74 172.88 70.75 166.27 75.66 169.95 75.66 176.56" style="fill:none;stroke:#7d7778;stroke-miterlimit:10;stroke-width:0.5px"/><polygon points="129.77 128.76 124.67 132.53 124.67 140.11 129.78 136.35 129.77 128.76" style="fill:#f3f3f3;stroke:#7d7778;stroke-miterlimit:10;stroke-width:0.5px"/><polygon points="141.81 119.81 136.71 123.58 136.71 131.16 141.82 127.4 141.81 119.81" style="fill:#f3f3f3;stroke:#7d7778;stroke-miterlimit:10;stroke-width:0.5px"/><polygon points="135.79 124.26 130.69 128.03 130.69 135.62 135.8 131.85 135.79 124.26" style="fill:#f3f3f3;stroke:#7d7778;stroke-miterlimit:10;stroke-width:0.5px"/><polygon points="147.66 115.55 142.76 119.23 142.76 126.82 147.67 123.14 147.66 115.55" style="fill:#f3f3f3;stroke:#7d7778;stroke-miterlimit:10;stroke-width:0.5px"/><polygon points="153.4 111.27 148.5 114.95 148.5 122.53 153.41 118.85 153.4 111.27" style="fill:#f3f3f3;stroke:#7d7778;stroke-miterlimit:10;stroke-width:0.5px"/><polygon points="159.14 106.98 154.23 110.66 154.23 118.24 159.15 114.57 159.14 106.98" style="fill:#f3f3f3;stroke:#7d7778;stroke-miterlimit:10;stroke-width:0.5px"/><polygon points="164.78 102.78 159.88 106.46 159.88 114.04 164.79 110.37 164.78 102.78" style="fill:#f3f3f3;stroke:#7d7778;stroke-miterlimit:10;stroke-width:0.5px"/><polygon points="170.52 98.49 165.62 102.17 165.62 109.76 170.53 106.08 170.52 98.49" style="fill:#f3f3f3;stroke:#7d7778;stroke-miterlimit:10;stroke-width:0.5px"/><polygon points="176.26 94.21 171.35 97.89 171.35 105.47 176.26 101.79 176.26 94.21" style="fill:#f3f3f3;stroke:#7d7778;stroke-miterlimit:10;stroke-width:0.5px"/><polygon points="129.77 138.65 124.67 142.42 124.67 149.03 129.78 145.26 129.77 138.65" style="fill:#f3f3f3;stroke:#7d7778;stroke-miterlimit:10;stroke-width:0.5px"/><polygon points="141.81 129.7 136.71 133.47 136.71 140.08 141.82 136.31 141.81 129.7" style="fill:#f3f3f3;stroke:#7d7778;stroke-miterlimit:10;stroke-width:0.5px"/><polygon points="135.79 134.15 130.69 137.92 130.69 144.53 135.8 140.77 135.79 134.15" style="fill:#f3f3f3;stroke:#7d7778;stroke-miterlimit:10;stroke-width:0.5px"/><polygon points="147.66 125.44 142.76 129.12 142.76 135.73 147.67 132.05 147.66 125.44" style="fill:#f3f3f3;stroke:#7d7778;stroke-miterlimit:10;stroke-width:0.5px"/><polygon points="153.4 121.16 148.5 124.84 148.5 131.44 153.41 127.77 153.4 121.16" style="fill:#f3f3f3;stroke:#7d7778;stroke-miterlimit:10;stroke-width:0.5px"/><polygon points="159.14 116.87 154.23 120.55 154.23 127.16 159.15 123.48 159.14 116.87" style="fill:#f3f3f3;stroke:#7d7778;stroke-miterlimit:10;stroke-width:0.5px"/><polygon points="164.78 112.67 159.88 116.35 159.88 122.96 164.79 119.28 164.78 112.67" style="fill:#f3f3f3;stroke:#7d7778;stroke-miterlimit:10;stroke-width:0.5px"/><polygon points="170.52 108.38 165.62 112.06 165.62 118.67 170.53 114.99 170.52 108.38" style="fill:#f3f3f3;stroke:#7d7778;stroke-miterlimit:10;stroke-width:0.5px"/><polygon points="176.26 104.09 171.35 107.78 171.35 114.38 176.26 110.71 176.26 104.09" style="fill:#f3f3f3;stroke:#7d7778;stroke-miterlimit:10;stroke-width:0.5px"/><polygon points="129.77 147.5 124.67 151.27 124.67 157.87 129.78 154.11 129.77 147.5" style="fill:#f3f3f3;stroke:#7d7778;stroke-miterlimit:10;stroke-width:0.5px"/><polygon points="141.81 138.54 136.71 142.32 136.71 148.92 141.82 145.16 141.81 138.54" style="fill:#f3f3f3;stroke:#7d7778;stroke-miterlimit:10;stroke-width:0.5px"/><polygon points="135.79 143 130.69 146.77 130.69 153.38 135.8 149.61 135.79 143" style="fill:#f3f3f3;stroke:#7d7778;stroke-miterlimit:10;stroke-width:0.5px"/><polygon points="147.66 134.29 142.76 137.97 142.76 144.58 147.67 140.9 147.66 134.29" style="fill:#f3f3f3;stroke:#7d7778;stroke-miterlimit:10;stroke-width:0.5px"/><polygon points="153.4 130 148.5 133.68 148.5 140.29 153.41 136.62 153.4 130" style="fill:#f3f3f3;stroke:#7d7778;stroke-miterlimit:10;stroke-width:0.5px"/><polygon points="159.14 125.72 154.23 129.4 154.23 136 159.15 132.33 159.14 125.72" style="fill:#f3f3f3;stroke:#7d7778;stroke-miterlimit:10;stroke-width:0.5px"/><polygon points="164.78 121.52 159.88 125.2 159.88 131.8 164.79 128.13 164.78 121.52" style="fill:#f3f3f3;stroke:#7d7778;stroke-miterlimit:10;stroke-width:0.5px"/><polygon points="170.52 117.23 165.62 120.91 165.62 127.52 170.53 123.84 170.52 117.23" style="fill:#f3f3f3;stroke:#7d7778;stroke-miterlimit:10;stroke-width:0.5px"/><polygon points="176.26 112.94 171.35 116.62 171.35 123.23 176.26 119.56 176.26 112.94" style="fill:#f3f3f3;stroke:#7d7778;stroke-miterlimit:10;stroke-width:0.5px"/><polygon points="129.77 156.34 124.67 160.12 124.67 166.72 129.78 162.96 129.77 156.34" style="fill:#f3f3f3;stroke:#7d7778;stroke-miterlimit:10;stroke-width:0.5px"/><polygon points="141.81 147.39 136.71 151.16 136.71 157.77 141.82 154.01 141.81 147.39" style="fill:#f3f3f3;stroke:#7d7778;stroke-miterlimit:10;stroke-width:0.5px"/><polygon points="135.79 151.85 130.69 155.62 130.69 162.22 135.8 158.46 135.79 151.85" style="fill:#f3f3f3;stroke:#7d7778;stroke-miterlimit:10;stroke-width:0.5px"/><polygon points="147.66 143.14 142.76 146.82 142.76 153.42 147.67 149.75 147.66 143.14" style="fill:#f3f3f3;stroke:#7d7778;stroke-miterlimit:10;stroke-width:0.5px"/><polygon points="153.4 138.85 148.5 142.53 148.5 149.14 153.41 145.46 153.4 138.85" style="fill:#f3f3f3;stroke:#7d7778;stroke-miterlimit:10;stroke-width:0.5px"/><polygon points="159.14 134.56 154.23 138.25 154.23 144.85 159.15 141.18 159.14 134.56" style="fill:#f3f3f3;stroke:#7d7778;stroke-miterlimit:10;stroke-width:0.5px"/><polygon points="164.78 130.36 159.88 134.04 159.88 140.65 164.79 136.97 164.78 130.36" style="fill:#f3f3f3;stroke:#7d7778;stroke-miterlimit:10;stroke-width:0.5px"/><polygon points="170.52 126.08 165.62 129.76 165.62 136.36 170.53 132.69 170.52 126.08" style="fill:#f3f3f3;stroke:#7d7778;stroke-miterlimit:10;stroke-width:0.5px"/><polygon points="176.26 121.79 171.35 125.47 171.35 132.08 176.26 128.4 176.26 121.79" style="fill:#f3f3f3;stroke:#7d7778;stroke-miterlimit:10;stroke-width:0.5px"/><polygon points="129.77 165.19 124.67 168.96 124.67 175.57 129.78 171.8 129.77 165.19" style="fill:#f3f3f3;stroke:#7d7778;stroke-miterlimit:10;stroke-width:0.5px"/><polygon points="141.81 156.24 136.71 160.01 136.71 166.62 141.82 162.85 141.81 156.24" style="fill:#f3f3f3;stroke:#7d7778;stroke-miterlimit:10;stroke-width:0.5px"/><polygon points="135.79 160.69 130.69 164.47 130.69 171.07 135.8 167.31 135.79 160.69" style="fill:#f3f3f3;stroke:#7d7778;stroke-miterlimit:10;stroke-width:0.5px"/><polygon points="147.66 151.98 142.76 155.66 142.76 162.27 147.67 158.6 147.66 151.98" style="fill:#f3f3f3;stroke:#7d7778;stroke-miterlimit:10;stroke-width:0.5px"/><polygon points="153.4 147.7 148.5 151.38 148.5 157.99 153.41 154.31 153.4 147.7" style="fill:#f3f3f3;stroke:#7d7778;stroke-miterlimit:10;stroke-width:0.5px"/><polygon points="159.14 143.41 154.23 147.09 154.23 153.7 159.15 150.02 159.14 143.41" style="fill:#f3f3f3;stroke:#7d7778;stroke-miterlimit:10;stroke-width:0.5px"/><polygon points="164.78 139.21 159.88 142.89 159.88 149.5 164.79 145.82 164.78 139.21" style="fill:#f3f3f3;stroke:#7d7778;stroke-miterlimit:10;stroke-width:0.5px"/><polygon points="170.52 134.92 165.62 138.6 165.62 145.21 170.53 141.54 170.52 134.92" style="fill:#f3f3f3;stroke:#7d7778;stroke-miterlimit:10;stroke-width:0.5px"/><polygon points="176.26 130.64 171.35 134.32 171.35 140.93 176.26 137.25 176.26 130.64" style="fill:#f3f3f3;stroke:#7d7778;stroke-miterlimit:10;stroke-width:0.5px"/><polygon points="129.77 174.04 124.67 177.81 124.67 184.42 129.78 180.65 129.77 174.04" style="fill:#f3f3f3;stroke:#7d7778;stroke-miterlimit:10;stroke-width:0.5px"/><polygon points="141.81 165.09 136.71 168.86 136.71 175.47 141.82 171.7 141.81 165.09" style="fill:#f3f3f3;stroke:#7d7778;stroke-miterlimit:10;stroke-width:0.5px"/><polygon points="135.79 169.54 130.69 173.31 130.69 179.92 135.8 176.16 135.79 169.54" style="fill:#f3f3f3;stroke:#7d7778;stroke-miterlimit:10;stroke-width:0.5px"/><polygon points="147.66 160.83 142.76 164.51 142.76 171.12 147.67 167.44 147.66 160.83" style="fill:#f3f3f3;stroke:#7d7778;stroke-miterlimit:10;stroke-width:0.5px"/><polygon points="153.4 156.54 148.5 160.23 148.5 166.83 153.41 163.16 153.4 156.54" style="fill:#f3f3f3;stroke:#7d7778;stroke-miterlimit:10;stroke-width:0.5px"/><polygon points="159.14 152.26 154.23 155.94 154.23 162.55 159.15 158.87 159.14 152.26" style="fill:#f3f3f3;stroke:#7d7778;stroke-miterlimit:10;stroke-width:0.5px"/><polygon points="164.78 148.06 159.88 151.74 159.88 158.34 164.79 154.67 164.78 148.06" style="fill:#f3f3f3;stroke:#7d7778;stroke-miterlimit:10;stroke-width:0.5px"/><polygon points="170.52 143.77 165.62 147.45 165.62 154.06 170.53 150.38 170.52 143.77" style="fill:#f3f3f3;stroke:#7d7778;stroke-miterlimit:10;stroke-width:0.5px"/><polygon points="176.26 139.48 171.35 143.17 171.35 149.77 176.26 146.1 176.26 139.48" style="fill:#f3f3f3;stroke:#7d7778;stroke-miterlimit:10;stroke-width:0.5px"/><polygon points="129.77 182.89 124.67 186.66 124.67 193.26 129.78 189.5 129.77 182.89" style="fill:#f3f3f3;stroke:#7d7778;stroke-miterlimit:10;stroke-width:0.5px"/><polygon points="141.81 173.94 136.71 177.71 136.71 184.31 141.82 180.55 141.81 173.94" style="fill:#f3f3f3;stroke:#7d7778;stroke-miterlimit:10;stroke-width:0.5px"/><polygon points="135.79 178.39 130.69 182.16 130.69 188.77 135.8 185 135.79 178.39" style="fill:#f3f3f3;stroke:#7d7778;stroke-miterlimit:10;stroke-width:0.5px"/><polygon points="147.66 169.68 142.76 173.36 142.76 179.97 147.67 176.29 147.66 169.68" style="fill:#f3f3f3;stroke:#7d7778;stroke-miterlimit:10;stroke-width:0.5px"/><polygon points="153.4 165.39 148.5 169.07 148.5 175.68 153.41 172 153.4 165.39" style="fill:#f3f3f3;stroke:#7d7778;stroke-miterlimit:10;stroke-width:0.5px"/><polygon points="159.14 161.1 154.23 164.79 154.23 171.39 159.15 167.72 159.14 161.1" style="fill:#f3f3f3;stroke:#7d7778;stroke-miterlimit:10;stroke-width:0.5px"/><polygon points="164.78 156.9 159.88 160.59 159.88 167.19 164.79 163.52 164.78 156.9" style="fill:#f3f3f3;stroke:#7d7778;stroke-miterlimit:10;stroke-width:0.5px"/><polygon points="170.52 152.62 165.62 156.3 165.62 162.91 170.53 159.23 170.52 152.62" style="fill:#f3f3f3;stroke:#7d7778;stroke-miterlimit:10;stroke-width:0.5px"/><polygon points="176.26 148.33 171.35 152.01 171.35 158.62 176.26 154.94 176.26 148.33" style="fill:#f3f3f3;stroke:#7d7778;stroke-miterlimit:10;stroke-width:0.5px"/><polygon points="129.77 191.73 124.67 195.5 124.67 202.11 129.78 198.35 129.77 191.73" style="fill:#f3f3f3;stroke:#7d7778;stroke-miterlimit:10;stroke-width:0.5px"/><polygon points="141.81 182.78 136.71 186.55 136.71 193.16 141.82 189.4 141.81 182.78" style="fill:#f3f3f3;stroke:#7d7778;stroke-miterlimit:10;stroke-width:0.5px"/><polygon points="135.79 187.24 130.69 191.01 130.69 197.62 135.8 193.85 135.79 187.24" style="fill:#f3f3f3;stroke:#7d7778;stroke-miterlimit:10;stroke-width:0.5px"/><polygon points="147.66 178.53 142.76 182.21 142.76 188.81 147.67 185.14 147.66 178.53" style="fill:#f3f3f3;stroke:#7d7778;stroke-miterlimit:10;stroke-width:0.5px"/><polygon points="153.4 174.24 148.5 177.92 148.5 184.53 153.41 180.85 153.4 174.24" style="fill:#f3f3f3;stroke:#7d7778;stroke-miterlimit:10;stroke-width:0.5px"/><polygon points="159.14 169.95 154.23 173.63 154.23 180.24 159.15 176.56 159.14 169.95" style="fill:#f3f3f3;stroke:#7d7778;stroke-miterlimit:10;stroke-width:0.5px"/><polygon points="164.78 165.75 159.88 169.43 159.88 176.04 164.79 172.37 164.78 165.75" style="fill:#f3f3f3;stroke:#7d7778;stroke-miterlimit:10;stroke-width:0.5px"/><polygon points="170.52 161.47 165.62 165.15 165.62 171.75 170.53 168.08 170.52 161.47" style="fill:#f3f3f3;stroke:#7d7778;stroke-miterlimit:10;stroke-width:0.5px"/><polygon points="176.26 157.18 171.35 160.86 171.35 167.47 176.26 163.79 176.26 157.18" style="fill:#f3f3f3;stroke:#7d7778;stroke-miterlimit:10;stroke-width:0.5px"/><polyline points="129.78 207.19 129.77 200.58 124.67 204.35 124.67 210.96" style="fill:none;stroke:#7d7778;stroke-miterlimit:10;stroke-width:0.5px"/><polyline points="141.82 198.24 141.81 191.63 136.71 195.4 136.71 202.01" style="fill:none;stroke:#7d7778;stroke-miterlimit:10;stroke-width:0.5px"/><polyline points="135.8 202.7 135.79 196.08 130.69 199.86 130.69 206.46" style="fill:none;stroke:#7d7778;stroke-miterlimit:10;stroke-width:0.5px"/><polyline points="147.67 193.99 147.66 187.37 142.76 191.05 142.76 197.66" style="fill:none;stroke:#7d7778;stroke-miterlimit:10;stroke-width:0.5px"/><polyline points="153.41 189.7 153.4 183.09 148.5 186.77 148.5 193.37" style="fill:none;stroke:#7d7778;stroke-miterlimit:10;stroke-width:0.5px"/><polyline points="159.15 185.41 159.14 178.8 154.23 182.48 154.23 189.09" style="fill:none;stroke:#7d7778;stroke-miterlimit:10;stroke-width:0.5px"/><polyline points="164.79 181.21 164.78 174.6 159.88 178.28 159.88 184.89" style="fill:none;stroke:#7d7778;stroke-miterlimit:10;stroke-width:0.5px"/><polyline points="170.53 176.93 170.52 170.31 165.62 173.99 165.62 180.6" style="fill:none;stroke:#7d7778;stroke-miterlimit:10;stroke-width:0.5px"/><polyline points="176.26 172.64 176.26 166.03 171.35 169.71 171.35 176.31" style="fill:none;stroke:#7d7778;stroke-miterlimit:10;stroke-width:0.5px"/></svg>