<?xml version="1.0" encoding="utf-8"?>
<!-- Generator: Adobe Illustrator 21.0.0, SVG Export Plug-In . SVG Version: 6.00 Build 0)  -->
<svg version="1.1" id="Layer_1" xmlns="http://www.w3.org/2000/svg" xmlns:xlink="http://www.w3.org/1999/xlink" x="0px" y="0px"
	 viewBox="0 0 207 220.7" style="enable-background:new 0 0 207 220.7;" xml:space="preserve">
<style type="text/css">
	.st0{enable-background:new    ;}
	.st1{fill:#4FCFBB;}
	.st2{fill:#F3F3F3;stroke:#7D7778;stroke-width:0.5;stroke-miterlimit:10;}
	.st3{fill:none;stroke:#7D7778;stroke-width:0.5;stroke-miterlimit:10;}
</style>
<title>Asset 6</title>
<g class="st0">
	<path class="st1" d="M88,127.8c0,6.1-0.4,11.3-1.2,15.6c-1.9,8.7-5.9,15.5-12.2,20.6c-6.3,5.1-13.9,7.6-23,7.6
		c-8.9,0-16.4-2.4-22.5-7.2c-6.1-4.8-10.1-11.1-12.1-19c-0.8-3.9-1.3-6.4-1.4-7.6c0-1.1,0.5-1.6,1.6-1.6h3c1.1,0,1.6,0.5,1.6,1.6
		c0,0.5,0,1.2,0.1,2c0.1,0.8,0.2,1.7,0.5,2.8c1.5,7.1,4.8,12.7,9.9,17c5.1,4.3,11.6,6.4,19.3,6.4c7.9,0,14.4-2.3,19.7-6.8
		c5.3-4.5,8.6-10.7,9.9-18.6c0.5-2.8,0.8-7.1,0.8-12.8c0-4.4-0.3-9.3-0.8-14.6c-0.9-7.7-4.1-13.6-9.4-17.6c-5.3-4-12.1-6-20.2-6
		c-7.2,0-13.5,1.6-18.8,4.8c-5.3,3.2-8.9,7.6-10.6,13.2c-0.4,0.9-1,1.4-1.8,1.4h-3.2c-1.1,0-1.6-0.5-1.6-1.6V31.6
		c0-1.1,0.5-1.6,1.6-1.6h63c1.1,0,1.6,0.5,1.6,1.6V34c0,1.1-0.5,1.6-1.6,1.6h-58c-0.4,0-0.6,0.2-0.6,0.6v60.2c0,0.1,0.1,0.2,0.3,0.3
		c0.2,0.1,0.4,0,0.5-0.1c3.1-3.9,7.2-6.9,12.4-9.2c5.2-2.3,10.9-3.4,17-3.4c9.3,0,17.2,2.3,23.5,6.8c6.3,4.5,10.2,11.1,11.5,19.6
		C87.6,116,88,121.8,88,127.8z"/>
</g>
<path d="M10.2,219.9l13.2-49.2c0.1-0.4,0.5-0.6,0.8-0.6h182.1c0.5,0,0.7,0.3,0.6,0.8l-13.2,49.2c-0.1,0.4-0.5,0.6-0.8,0.6H10.8
	C10.3,220.7,10.1,220.4,10.2,219.9z"/>
<path class="st2" d="M175.2,163.7v7.5c0,0.3,0.5,0.5,1.2,0.5s1.2-0.2,1.2-0.5v-15.2c0-0.3-0.5-0.5-1.2-0.5s-1.2,0.2-1.2,0.5V163.7z"
	/>
<ellipse class="st2" cx="176.4" cy="156" rx="1.2" ry="0.5"/>
<path class="st2" d="M102.8,179.6v17c0,0.3,0.5,0.5,1.2,0.5s1.2-0.2,1.2-0.5v-18.3c0-0.3-0.5-0.5-1.2-0.5s-1.2,0.2-1.2,0.5V179.6z"
	/>
<path class="st2" d="M141.5,179.6v17c0,0.3,0.5,0.5,1.2,0.5s1.2-0.2,1.2-0.5v-18.3c0-0.3-0.5-0.5-1.2-0.5s-1.2,0.2-1.2,0.5V179.6z"
	/>
<path class="st2" d="M158.3,166.9v17c0,0.3,0.5,0.5,1.2,0.5s1.2-0.2,1.2-0.5v-18.3c0-0.3-0.5-0.5-1.2-0.5s-1.2,0.2-1.2,0.5V166.9z"
	/>
<path class="st2" d="M86.5,167.5v17c0,0.3,0.5,0.5,1.2,0.5s1.2-0.2,1.2-0.5v-18.3c0-0.3-0.5-0.5-1.2-0.5s-1.2,0.2-1.2,0.5V167.5z"/>
<path class="st2" d="M69.3,164.3v7.5c0,0.3,0.5,0.5,1.2,0.5s1.2-0.2,1.2-0.5v-15.2c0-0.3-0.5-0.5-1.2-0.5s-1.2,0.2-1.2,0.5V164.3z"
	/>
<path class="st2" d="M122.2,203.3v7.5c0,0.3,0.5,0.5,1.2,0.5s1.2-0.2,1.2-0.5v-15.2c0-0.3-0.5-0.5-1.2-0.5s-1.2,0.2-1.2,0.5V203.3z"
	/>
<polyline class="st2" points="177.5,153.8 177.5,156.1 123.1,196.6 69,156.6 69,154.4 "/>
<polygon class="st2" points="123.8,113.8 69.1,154.3 123.2,194.3 177.6,153.8 "/>
<path class="st2" d="M175.2,146v7.5c0,0.3,0.5,0.5,1.2,0.5s1.2-0.2,1.2-0.5v-8.8c0-0.3-0.5-0.5-1.2-0.5s-1.2,0.2-1.2,0.5V146z"/>
<ellipse class="st2" cx="176.4" cy="144.7" rx="1.2" ry="0.5"/>
<path class="st2" d="M102.8,171.6v7.5c0,0.3,0.5,0.5,1.2,0.5s1.2-0.2,1.2-0.5v-8.8c0-0.3-0.5-0.5-1.2-0.5s-1.2,0.2-1.2,0.5V171.6z"
	/>
<ellipse class="st2" cx="104" cy="170.3" rx="1.2" ry="0.5"/>
<path class="st2" d="M122.2,185.7v7.5c0,0.3,0.5,0.5,1.2,0.5s1.2-0.2,1.2-0.5v-8.8c0-0.3-0.5-0.5-1.2-0.5s-1.2,0.2-1.2,0.5V185.7z"
	/>
<path class="st2" d="M141.5,171.6v7.5c0,0.3,0.5,0.5,1.2,0.5s1.2-0.2,1.2-0.5v-8.8c0-0.3-0.5-0.5-1.2-0.5s-1.2,0.2-1.2,0.5V171.6z"
	/>
<path class="st2" d="M158.3,158.6v7.5c0,0.3,0.5,0.5,1.2,0.5s1.2-0.2,1.2-0.5v-8.8c0-0.3-0.5-0.5-1.2-0.5s-1.2,0.2-1.2,0.5V158.6z"
	/>
<path class="st2" d="M86.5,158.6v7.5c0,0.3,0.5,0.5,1.2,0.5s1.2-0.2,1.2-0.5v-8.8c0-0.3-0.5-0.5-1.2-0.5s-1.2,0.2-1.2,0.5V158.6z"/>
<path class="st2" d="M69.3,146.7v7.5c0,0.3,0.5,0.5,1.2,0.5s1.2-0.2,1.2-0.5v-8.8c0-0.3-0.5-0.5-1.2-0.5s-1.2,0.2-1.2,0.5V146.7z"/>
<polyline class="st2" points="177.6,144.9 177.6,147.3 123.2,187.8 69.1,147.8 69.1,145.4 "/>
<polygon class="st2" points="123.8,105 69.2,145.5 123.3,185.5 177.7,144.9 "/>
<path class="st2" d="M175.2,137.2v7.5c0,0.3,0.5,0.5,1.2,0.5s1.2-0.2,1.2-0.5v-8.8c0-0.3-0.5-0.5-1.2-0.5s-1.2,0.2-1.2,0.5V137.2z"
	/>
<ellipse class="st2" cx="176.4" cy="135.9" rx="1.2" ry="0.5"/>
<path class="st2" d="M102.8,162.8v7.5c0,0.3,0.5,0.5,1.2,0.5s1.2-0.2,1.2-0.5v-8.8c0-0.3-0.5-0.5-1.2-0.5s-1.2,0.2-1.2,0.5V162.8z"
	/>
<ellipse class="st2" cx="104" cy="161.4" rx="1.2" ry="0.5"/>
<path class="st2" d="M122.2,177v7.5c0,0.3,0.5,0.5,1.2,0.5s1.2-0.2,1.2-0.5v-8.8c0-0.3-0.5-0.5-1.2-0.5s-1.2,0.2-1.2,0.5V177z"/>
<path class="st2" d="M141.5,162.8v7.5c0,0.3,0.5,0.5,1.2,0.5s1.2-0.2,1.2-0.5v-8.8c0-0.3-0.5-0.5-1.2-0.5s-1.2,0.2-1.2,0.5V162.8z"
	/>
<path class="st2" d="M158.3,149.8v7.5c0,0.3,0.5,0.5,1.2,0.5s1.2-0.2,1.2-0.5v-8.8c0-0.3-0.5-0.5-1.2-0.5s-1.2,0.2-1.2,0.5V149.8z"
	/>
<path class="st2" d="M86.5,149.8v7.5c0,0.3,0.5,0.5,1.2,0.5s1.2-0.2,1.2-0.5v-8.8c0-0.3-0.5-0.5-1.2-0.5s-1.2,0.2-1.2,0.5V149.8z"/>
<path class="st2" d="M69.3,137.9v7.5c0,0.3,0.5,0.5,1.2,0.5s1.2-0.2,1.2-0.5v-8.8c0-0.3-0.5-0.5-1.2-0.5s-1.2,0.2-1.2,0.5V137.9z"/>
<polyline class="st2" points="177.6,136.1 177.6,138.4 123.2,179 69.1,139 69.1,136.6 "/>
<polygon class="st2" points="123.9,96.1 69.2,136.6 123.3,176.6 177.7,136.1 "/>
<path class="st2" d="M175.2,128.5v7.5c0,0.3,0.5,0.5,1.2,0.5s1.2-0.2,1.2-0.5v-8.8c0-0.3-0.5-0.5-1.2-0.5s-1.2,0.2-1.2,0.5V128.5z"
	/>
<ellipse class="st2" cx="176.4" cy="127.1" rx="1.2" ry="0.5"/>
<path class="st2" d="M102.8,154.2v7.5c0,0.3,0.5,0.5,1.2,0.5s1.2-0.2,1.2-0.5v-8.8c0-0.3-0.5-0.5-1.2-0.5s-1.2,0.2-1.2,0.5V154.2z"
	/>
<ellipse class="st2" cx="104" cy="152.8" rx="1.2" ry="0.5"/>
<path class="st2" d="M122.2,168.1v7.5c0,0.3,0.5,0.5,1.2,0.5s1.2-0.2,1.2-0.5v-8.8c0-0.3-0.5-0.5-1.2-0.5s-1.2,0.2-1.2,0.5V168.1z"
	/>
<path class="st2" d="M141.5,154.2v7.5c0,0.3,0.5,0.5,1.2,0.5s1.2-0.2,1.2-0.5v-8.8c0-0.3-0.5-0.5-1.2-0.5s-1.2,0.2-1.2,0.5V154.2z"
	/>
<path class="st2" d="M158.3,141.2v7.5c0,0.3,0.5,0.5,1.2,0.5s1.2-0.2,1.2-0.5v-8.8c0-0.3-0.5-0.5-1.2-0.5s-1.2,0.2-1.2,0.5V141.2z"
	/>
<path class="st2" d="M86.5,141.2v7.5c0,0.3,0.5,0.5,1.2,0.5s1.2-0.2,1.2-0.5v-8.8c0-0.3-0.5-0.5-1.2-0.5s-1.2,0.2-1.2,0.5V141.2z"/>
<path class="st2" d="M69.3,129v7.5c0,0.3,0.5,0.5,1.2,0.5s1.2-0.2,1.2-0.5v-8.8c0-0.3-0.5-0.5-1.2-0.5s-1.2,0.2-1.2,0.5V129z"/>
<polyline class="st2" points="177.7,127.3 177.7,129.6 123.3,170.1 69.2,130.1 69.2,127.8 "/>
<polygon class="st2" points="123.9,87.3 69.3,127.8 123.4,167.8 177.8,127.3 "/>
<path class="st2" d="M175.2,119.6v7.5c0,0.3,0.5,0.5,1.2,0.5s1.2-0.2,1.2-0.5v-8.8c0-0.3-0.5-0.5-1.2-0.5s-1.2,0.2-1.2,0.5V119.6z"
	/>
<ellipse class="st2" cx="176.4" cy="118.2" rx="1.2" ry="0.5"/>
<path class="st2" d="M102.8,145.2v7.5c0,0.3,0.5,0.5,1.2,0.5s1.2-0.2,1.2-0.5v-8.8c0-0.3-0.5-0.5-1.2-0.5s-1.2,0.2-1.2,0.5V145.2z"
	/>
<ellipse class="st2" cx="104" cy="143.9" rx="1.2" ry="0.5"/>
<path class="st2" d="M122.2,159.3v7.5c0,0.3,0.5,0.5,1.2,0.5s1.2-0.2,1.2-0.5V158c0-0.3-0.5-0.5-1.2-0.5s-1.2,0.2-1.2,0.5V159.3z"/>
<path class="st2" d="M141.5,145.2v7.5c0,0.3,0.5,0.5,1.2,0.5s1.2-0.2,1.2-0.5v-8.8c0-0.3-0.5-0.5-1.2-0.5s-1.2,0.2-1.2,0.5V145.2z"
	/>
<path class="st2" d="M158.3,132.2v7.5c0,0.3,0.5,0.5,1.2,0.5s1.2-0.2,1.2-0.5v-8.8c0-0.3-0.5-0.5-1.2-0.5s-1.2,0.2-1.2,0.5V132.2z"
	/>
<path class="st2" d="M86.5,132.2v7.5c0,0.3,0.5,0.5,1.2,0.5s1.2-0.2,1.2-0.5v-8.8c0-0.3-0.5-0.5-1.2-0.5s-1.2,0.2-1.2,0.5V132.2z"/>
<path class="st2" d="M69.3,120.2v7.5c0,0.3,0.5,0.5,1.2,0.5s1.2-0.2,1.2-0.5v-8.8c0-0.3-0.5-0.5-1.2-0.5s-1.2,0.2-1.2,0.5V120.2z"/>
<polyline class="st2" points="177.6,118.4 177.6,120.8 123.2,161.3 69.1,121.3 69.1,119 "/>
<polygon class="st2" points="123.8,78.5 69.2,119 123.3,159 177.7,118.4 "/>
<path class="st2" d="M175.2,110.9v7.5c0,0.3,0.5,0.5,1.2,0.5s1.2-0.2,1.2-0.5v-8.8c0-0.3-0.5-0.5-1.2-0.5s-1.2,0.2-1.2,0.5V110.9z"
	/>
<ellipse class="st2" cx="176.4" cy="109.5" rx="1.2" ry="0.5"/>
<path class="st2" d="M102.8,136.3v7.5c0,0.3,0.5,0.5,1.2,0.5s1.2-0.2,1.2-0.5V135c0-0.3-0.5-0.5-1.2-0.5s-1.2,0.2-1.2,0.5V136.3z"/>
<ellipse class="st2" cx="104" cy="134.9" rx="1.2" ry="0.5"/>
<path class="st2" d="M122.2,150.5v7.5c0,0.3,0.5,0.5,1.2,0.5s1.2-0.2,1.2-0.5v-8.8c0-0.3-0.5-0.5-1.2-0.5s-1.2,0.2-1.2,0.5V150.5z"
	/>
<path class="st2" d="M141.5,136.3v7.5c0,0.3,0.5,0.5,1.2,0.5s1.2-0.2,1.2-0.5V135c0-0.3-0.5-0.5-1.2-0.5s-1.2,0.2-1.2,0.5V136.3z"/>
<path class="st2" d="M158.3,123.3v7.5c0,0.3,0.5,0.5,1.2,0.5s1.2-0.2,1.2-0.5V122c0-0.3-0.5-0.5-1.2-0.5s-1.2,0.2-1.2,0.5V123.3z"/>
<path class="st2" d="M86.5,123.3v7.5c0,0.3,0.5,0.5,1.2,0.5s1.2-0.2,1.2-0.5V122c0-0.3-0.5-0.5-1.2-0.5s-1.2,0.2-1.2,0.5V123.3z"/>
<path class="st2" d="M69.3,111.5v7.5c0,0.3,0.5,0.5,1.2,0.5s1.2-0.2,1.2-0.5v-8.8c0-0.3-0.5-0.5-1.2-0.5s-1.2,0.2-1.2,0.5V111.5z"/>
<polyline class="st2" points="177.6,109.6 177.6,111.9 123.2,152.4 69.1,112.4 69.1,110.1 "/>
<polygon class="st2" points="123.9,69.6 69.2,110.1 123.3,150.1 177.7,109.6 "/>
<path class="st2" d="M175.2,102v7.5c0,0.3,0.5,0.5,1.2,0.5s1.2-0.2,1.2-0.5v-8.8c0-0.3-0.5-0.5-1.2-0.5s-1.2,0.2-1.2,0.5V102z"/>
<ellipse class="st2" cx="176.4" cy="100.7" rx="1.2" ry="0.5"/>
<path class="st2" d="M102.8,127.3v7.5c0,0.3,0.5,0.5,1.2,0.5s1.2-0.2,1.2-0.5V126c0-0.3-0.5-0.5-1.2-0.5s-1.2,0.2-1.2,0.5V127.3z"/>
<ellipse class="st2" cx="104" cy="126" rx="1.2" ry="0.5"/>
<path class="st2" d="M122.2,141.8v7.5c0,0.3,0.5,0.5,1.2,0.5s1.2-0.2,1.2-0.5v-8.8c0-0.3-0.5-0.5-1.2-0.5s-1.2,0.2-1.2,0.5V141.8z"
	/>
<path class="st2" d="M141.5,127.3v7.5c0,0.3,0.5,0.5,1.2,0.5s1.2-0.2,1.2-0.5V126c0-0.3-0.5-0.5-1.2-0.5s-1.2,0.2-1.2,0.5V127.3z"/>
<path class="st2" d="M158.3,114.3v7.5c0,0.3,0.5,0.5,1.2,0.5s1.2-0.2,1.2-0.5V113c0-0.3-0.5-0.5-1.2-0.5s-1.2,0.2-1.2,0.5V114.3z"/>
<path class="st2" d="M86.5,114.3v7.5c0,0.3,0.5,0.5,1.2,0.5s1.2-0.2,1.2-0.5V113c0-0.3-0.5-0.5-1.2-0.5s-1.2,0.2-1.2,0.5V114.3z"/>
<path class="st2" d="M69.3,102.5v7.5c0,0.3,0.5,0.5,1.2,0.5s1.2-0.2,1.2-0.5v-8.8c0-0.3-0.5-0.5-1.2-0.5s-1.2,0.2-1.2,0.5V102.5z"/>
<polyline class="st2" points="177.7,100.8 177.7,103.1 123.3,143.6 69.2,103.6 69.2,101.3 "/>
<polygon class="st2" points="124,60.8 69.3,101.3 123.4,141.3 177.8,100.7 "/>
<line class="st3" x1="135.1" y1="120.1" x2="123.6" y2="111.6"/>
<line class="st3" x1="112" y1="120.1" x2="123.6" y2="111.6"/>
<ellipse class="st2" cx="123.6" cy="101.1" rx="1.2" ry="0.5"/>
<path class="st2" d="M102.8,118.3v7.5c0,0.3,0.5,0.5,1.2,0.5s1.2-0.2,1.2-0.5V117c0-0.3-0.5-0.5-1.2-0.5s-1.2,0.2-1.2,0.5V118.3z"/>
<ellipse class="st2" cx="104" cy="115" rx="1.2" ry="0.5"/>
<path class="st2" d="M141.5,118.3v7.5c0,0.3,0.5,0.5,1.2,0.5s1.2-0.2,1.2-0.5V117c0-0.3-0.5-0.5-1.2-0.5s-1.2,0.2-1.2,0.5V118.3z"/>
<path class="st2" d="M158.3,105.3v7.5c0,0.3,0.5,0.5,1.2,0.5s1.2-0.2,1.2-0.5V104c0-0.3-0.5-0.5-1.2-0.5s-1.2,0.2-1.2,0.5V105.3z"/>
<path class="st2" d="M86.5,105.3v7.5c0,0.3,0.5,0.5,1.2,0.5s1.2-0.2,1.2-0.5V104c0-0.3-0.5-0.5-1.2-0.5s-1.2,0.2-1.2,0.5V105.3z"/>
<ellipse class="st2" cx="145.2" cy="115" rx="1.2" ry="0.5"/>
<polygon class="st2" points="104.4,118.1 123.5,104 142.2,118 146.4,113.7 144.1,109 123.5,98.9 112.8,103.4 102.1,116.2 103,118.6 
	"/>
<polygon class="st2" points="110.4,113.8 105.3,117.6 105.3,125.2 110.4,121.4 "/>
<polyline class="st3" points="122.4,112.5 122.4,104.9 117.3,108.6 117.3,116.2 "/>
<polygon class="st3" points="116.4,109.3 111.3,113.1 111.3,120.7 116.4,116.9 "/>
<polygon class="st2" points="136.8,113.9 141.9,117.7 141.9,125.3 136.8,121.5 "/>
<polyline class="st3" points="124.7,112.6 124.7,105 129.8,108.7 129.8,116.3 "/>
<polyline class="st3" points="130.8,117 130.8,109.4 135.9,113.2 135.9,120.8 "/>
<path class="st2" d="M175.2,93v7.5c0,0.3,0.5,0.5,1.2,0.5s1.2-0.2,1.2-0.5v-8.8c0-0.3-0.5-0.5-1.2-0.5s-1.2,0.2-1.2,0.5V93z"/>
<path class="st2" d="M69.3,93.6v7.5c0,0.3,0.5,0.5,1.2,0.5s1.2-0.2,1.2-0.5v-8.8c0-0.3-0.5-0.5-1.2-0.5s-1.2,0.2-1.2,0.5V93.6z"/>
<ellipse class="st2" cx="176.4" cy="91.7" rx="1.2" ry="0.5"/>
<path class="st2" d="M122.2,132.6v7.5c0,0.3,0.5,0.5,1.2,0.5s1.2-0.2,1.2-0.5v-8.8c0-0.3-0.5-0.5-1.2-0.5s-1.2,0.2-1.2,0.5V132.6z"
	/>
<path class="st2" d="M69.2,91.3v2.3l54.1,40l54.4-40.5v-2.3L69.2,91.3z M123.4,128.9l-19.9-14.7l20.1-14.9l19.8,14.7L123.4,128.9z"
	/>
<path class="st2" d="M123.9,50.8L69.3,91.3l54.1,40l54.4-40.5L123.9,50.8z M123.4,128.5l-18.1-13.4l18.3-13.6l18,13.4L123.4,128.5z"
	/>
<polygon class="st2" points="73.1,91.3 123.9,53.6 174,90.8 143.7,113.4 123.7,98.5 103.3,113.6 "/>
<polyline class="st2" points="74.9,92.7 123.9,56.4 172.1,92.2 "/>
<line class="st3" x1="123.9" y1="53.6" x2="123.9" y2="56.4"/>
<line class="st3" x1="123.6" y1="101.5" x2="123.6" y2="111.5"/>
<polyline class="st2" points="113.9,75.8 112.7,75.4 102.5,61.4 103.6,61.6 "/>
<polyline class="st2" points="111.9,55.6 110.7,55.3 102.5,61.4 103.6,61.6 111.9,55.6 "/>
<rect x="107.8" y="56.9" transform="matrix(0.8087 -0.5882 0.5882 0.8087 -17.0163 78.9806)" class="st2" width="10.3" height="17.5"/>
<line class="st3" x1="114" y1="58.4" x2="105.7" y2="64.4"/>
<line class="st3" x1="116.1" y1="61.2" x2="107.7" y2="67.3"/>
<line class="st3" x1="118.1" y1="64.1" x2="109.8" y2="70.1"/>
<line class="st3" x1="120.2" y1="66.9" x2="111.9" y2="72.9"/>
<line class="st3" x1="106.4" y1="59.7" x2="116.7" y2="73.8"/>
<line class="st3" x1="109.2" y1="57.6" x2="119.5" y2="71.7"/>
<polyline class="st2" points="104.4,82.6 103.2,82.3 93,68.2 94.1,68.4 "/>
<polyline class="st2" points="102.4,62.4 101.3,62.2 93,68.2 94.1,68.4 102.4,62.4 "/>
<rect x="98.3" y="63.7" transform="matrix(0.8087 -0.5882 0.5882 0.8087 -22.856 74.7155)" class="st2" width="10.3" height="17.5"/>
<line class="st3" x1="104.5" y1="65.2" x2="96.2" y2="71.3"/>
<line class="st3" x1="106.6" y1="68.1" x2="98.2" y2="74.1"/>
<line class="st3" x1="108.6" y1="70.9" x2="100.3" y2="77"/>
<line class="st3" x1="110.7" y1="73.7" x2="102.4" y2="79.8"/>
<line class="st3" x1="96.9" y1="66.5" x2="107.2" y2="80.6"/>
<line class="st3" x1="99.7" y1="64.4" x2="110" y2="78.6"/>
<polyline class="st2" points="95.1,89.6 93.9,89.3 83.7,75.2 84.8,75.5 "/>
<polyline class="st2" points="93.1,69.4 91.9,69.2 83.7,75.2 84.8,75.5 93.1,69.4 "/>
<rect x="89" y="70.8" transform="matrix(0.8087 -0.5882 0.5882 0.8087 -28.7731 70.5792)" class="st2" width="10.3" height="17.5"/>
<line class="st3" x1="95.2" y1="72.2" x2="86.9" y2="78.3"/>
<line class="st3" x1="97.2" y1="75.1" x2="88.9" y2="81.1"/>
<line class="st3" x1="99.3" y1="77.9" x2="91" y2="84"/>
<line class="st3" x1="101.4" y1="80.8" x2="93.1" y2="86.8"/>
<line class="st3" x1="87.6" y1="73.5" x2="97.9" y2="87.7"/>
<line class="st3" x1="90.4" y1="71.5" x2="100.7" y2="85.6"/>
<polyline class="st2" points="124.9,83.6 123.7,83.3 113.5,69.2 114.6,69.5 "/>
<polyline class="st2" points="122.9,63.4 121.8,63.2 113.5,69.2 114.6,69.5 122.9,63.4 "/>
<rect x="118.8" y="64.8" transform="matrix(0.8087 -0.5882 0.5882 0.8087 -19.5378 86.9637)" class="st2" width="10.3" height="17.5"/>
<line class="st3" x1="125" y1="66.2" x2="116.7" y2="72.3"/>
<line class="st3" x1="127.1" y1="69.1" x2="118.7" y2="75.1"/>
<line class="st3" x1="129.1" y1="71.9" x2="120.8" y2="78"/>
<line class="st3" x1="131.2" y1="74.8" x2="122.9" y2="80.8"/>
<line class="st3" x1="117.4" y1="67.5" x2="127.7" y2="81.7"/>
<line class="st3" x1="120.2" y1="65.5" x2="130.5" y2="79.6"/>
<polyline class="st2" points="115.4,90.5 114.2,90.1 104,76.1 105.1,76.3 "/>
<polyline class="st2" points="113.4,70.3 112.3,70 104,76.1 105.1,76.3 113.4,70.3 "/>
<rect x="109.3" y="71.6" transform="matrix(0.8087 -0.5882 0.5882 0.8087 -25.3739 82.6936)" class="st2" width="10.3" height="17.5"/>
<line class="st3" x1="115.5" y1="73.1" x2="107.2" y2="79.1"/>
<line class="st3" x1="117.6" y1="75.9" x2="109.3" y2="82"/>
<line class="st3" x1="119.6" y1="78.8" x2="111.3" y2="84.8"/>
<line class="st3" x1="121.7" y1="81.6" x2="113.4" y2="87.6"/>
<line class="st3" x1="107.9" y1="74.4" x2="118.2" y2="88.5"/>
<line class="st3" x1="110.7" y1="72.3" x2="121" y2="86.4"/>
<polyline class="st2" points="106.1,97.5 104.9,97.2 94.7,83.1 95.8,83.3 "/>
<polyline class="st2" points="104.1,77.3 102.9,77.1 94.7,83.1 95.8,83.3 104.1,77.3 "/>
<rect x="100" y="78.6" transform="matrix(0.8087 -0.5882 0.5882 0.8087 -31.2851 78.5555)" class="st2" width="10.3" height="17.5"/>
<line class="st3" x1="106.2" y1="80.1" x2="97.9" y2="86.2"/>
<line class="st3" x1="108.3" y1="82.9" x2="99.9" y2="89"/>
<line class="st3" x1="110.3" y1="85.8" x2="102" y2="91.8"/>
<line class="st3" x1="112.4" y1="88.6" x2="104.1" y2="94.7"/>
<line class="st3" x1="98.6" y1="81.4" x2="108.9" y2="95.5"/>
<line class="st3" x1="101.4" y1="79.3" x2="111.7" y2="93.5"/>
<polyline class="st2" points="158.1,89.6 158.1,100.7 153.8,103.9 149.6,100.7 149.6,89.6 "/>
<polygon class="st2" points="153.8,86.5 149.6,89.6 153.8,92.8 158.1,89.6 "/>
<line class="st3" x1="153.8" y1="92.8" x2="153.8" y2="103.8"/>
<polygon class="st2" points="69.3,91.1 123.4,131.1 123.4,211.5 69.2,171.6 "/>
<polygon class="st2" points="177.5,91.1 123.4,131.1 123.4,211.5 177.6,171.6 "/>
<polygon class="st2" points="117.2,129 122.3,132.8 122.3,140.4 117.2,136.6 "/>
<polygon class="st2" points="105.2,120.1 110.3,123.8 110.3,131.4 105.2,127.6 "/>
<polygon class="st2" points="111.2,124.5 116.3,128.3 116.3,135.9 111.2,132.1 "/>
<polygon class="st2" points="99.3,115.8 104.2,119.5 104.2,127.1 99.3,123.4 "/>
<polygon class="st2" points="93.6,111.5 98.5,115.2 98.5,122.8 93.6,119.1 "/>
<polygon class="st2" points="87.9,107.2 92.8,110.9 92.8,118.5 87.9,114.8 "/>
<polygon class="st2" points="82.2,103 87.1,106.7 87.1,114.3 82.2,110.6 "/>
<polygon class="st2" points="76.5,98.7 81.4,102.4 81.4,110 76.5,106.3 "/>
<polygon class="st2" points="70.8,94.5 75.7,98.1 75.7,105.7 70.7,102 "/>
<polygon class="st2" points="117.2,138.9 122.3,142.7 122.3,149.3 117.2,145.5 "/>
<polygon class="st2" points="105.2,129.9 110.3,133.7 110.3,140.3 105.2,136.6 "/>
<polygon class="st2" points="111.2,134.4 116.3,138.2 116.3,144.8 111.2,141 "/>
<polygon class="st2" points="99.3,125.7 104.2,129.4 104.2,136 99.3,132.3 "/>
<polygon class="st2" points="93.6,121.4 98.5,125.1 98.5,131.7 93.6,128 "/>
<polygon class="st2" points="87.9,117.1 92.8,120.8 92.8,127.4 87.9,123.7 "/>
<polygon class="st2" points="82.2,112.9 87.1,116.6 87.1,123.2 82.2,119.5 "/>
<polygon class="st2" points="76.5,108.6 81.4,112.3 81.4,118.9 76.5,115.2 "/>
<polygon class="st2" points="70.8,104.3 75.7,108 75.7,114.6 70.7,111 "/>
<polygon class="st2" points="117.2,147.7 122.3,151.5 122.3,158.1 117.2,154.4 "/>
<polygon class="st2" points="105.2,138.8 110.3,142.6 110.3,149.2 105.2,145.4 "/>
<polygon class="st2" points="111.2,143.2 116.3,147 116.3,153.6 111.2,149.9 "/>
<polygon class="st2" points="99.3,134.5 104.2,138.2 104.2,144.8 99.3,141.1 "/>
<polygon class="st2" points="93.6,130.2 98.5,133.9 98.5,140.5 93.6,136.9 "/>
<polygon class="st2" points="87.9,126 92.8,129.6 92.8,136.2 87.9,132.6 "/>
<polygon class="st2" points="82.2,121.8 87.1,125.4 87.1,132.1 82.2,128.4 "/>
<polygon class="st2" points="76.5,117.5 81.4,121.2 81.4,127.8 76.5,124.1 "/>
<polygon class="st2" points="70.8,113.2 75.7,116.9 75.7,123.5 70.7,119.8 "/>
<polygon class="st2" points="117.2,156.6 122.3,160.4 122.3,167 117.2,163.2 "/>
<polygon class="st2" points="105.2,147.6 110.3,151.4 110.3,158 105.2,154.2 "/>
<polygon class="st2" points="111.2,152.1 116.3,155.9 116.3,162.5 111.2,158.7 "/>
<polygon class="st2" points="99.3,143.4 104.2,147.1 104.2,153.7 99.3,150 "/>
<polygon class="st2" points="93.6,139.1 98.5,142.8 98.5,149.4 93.6,145.7 "/>
<polygon class="st2" points="87.9,134.8 92.8,138.5 92.8,145.1 87.9,141.4 "/>
<polygon class="st2" points="82.2,130.6 87.1,134.3 87.1,140.9 82.2,137.2 "/>
<polygon class="st2" points="76.5,126.3 81.4,130 81.4,136.6 76.5,132.9 "/>
<polygon class="st2" points="70.8,122 75.7,125.7 75.7,132.3 70.7,128.6 "/>
<polygon class="st2" points="117.2,165.4 122.3,169.2 122.3,175.8 117.2,172.1 "/>
<polygon class="st2" points="105.2,156.5 110.3,160.2 110.3,166.9 105.2,163.1 "/>
<polygon class="st2" points="111.2,160.9 116.3,164.7 116.3,171.3 111.2,167.6 "/>
<polygon class="st2" points="99.3,152.2 104.2,155.9 104.2,162.5 99.3,158.8 "/>
<polygon class="st2" points="93.6,147.9 98.5,151.6 98.5,158.2 93.6,154.6 "/>
<polygon class="st2" points="87.9,143.6 92.8,147.3 92.8,153.9 87.9,150.3 "/>
<polygon class="st2" points="82.2,139.4 87.1,143.1 87.1,149.7 82.2,146.1 "/>
<polygon class="st2" points="76.5,135.2 81.4,138.9 81.4,145.5 76.5,141.8 "/>
<polygon class="st2" points="70.8,130.9 75.7,134.6 75.7,141.2 70.7,137.5 "/>
<polygon class="st2" points="117.2,174.3 122.3,178.1 122.3,184.7 117.2,180.9 "/>
<polygon class="st2" points="105.2,165.3 110.3,169.1 110.3,175.7 105.2,171.9 "/>
<polygon class="st2" points="111.2,169.8 116.3,173.6 116.3,180.2 111.2,176.4 "/>
<polygon class="st2" points="99.3,161.1 104.2,164.8 104.2,171.4 99.3,167.7 "/>
<polygon class="st2" points="93.6,156.8 98.5,160.5 98.5,167.1 93.6,163.4 "/>
<polygon class="st2" points="87.9,152.5 92.8,156.2 92.8,162.8 87.9,159.1 "/>
<polygon class="st2" points="82.2,148.3 87.1,152 87.1,158.6 82.2,154.9 "/>
<polygon class="st2" points="76.5,144 81.4,147.7 81.4,154.3 76.5,150.6 "/>
<polygon class="st2" points="70.8,139.7 75.7,143.4 75.7,150 70.7,146.3 "/>
<polygon class="st2" points="117.2,183.1 122.3,186.9 122.3,193.5 117.2,189.7 "/>
<polygon class="st2" points="105.2,174.2 110.3,177.9 110.3,184.6 105.2,180.8 "/>
<polygon class="st2" points="111.2,178.6 116.3,182.4 116.3,189 111.2,185.2 "/>
<polygon class="st2" points="99.3,169.9 104.2,173.6 104.2,180.2 99.3,176.5 "/>
<polygon class="st2" points="93.6,165.6 98.5,169.3 98.5,175.9 93.6,172.2 "/>
<polygon class="st2" points="87.9,161.4 92.8,165 92.8,171.6 87.9,168 "/>
<polygon class="st2" points="82.2,157.1 87.1,160.8 87.1,167.4 82.2,163.8 "/>
<polygon class="st2" points="76.5,152.9 81.4,156.5 81.4,163.1 76.5,159.5 "/>
<polygon class="st2" points="70.8,148.6 75.7,152.3 75.7,158.9 70.7,155.2 "/>
<polygon class="st2" points="117.2,192 122.3,195.8 122.3,202.4 117.2,198.6 "/>
<polygon class="st2" points="105.2,183 110.3,186.8 110.3,193.4 105.2,189.6 "/>
<polygon class="st2" points="111.2,187.5 116.3,191.2 116.3,197.9 111.2,194.1 "/>
<polygon class="st2" points="99.3,178.8 104.2,182.4 104.2,189.1 99.3,185.4 "/>
<polygon class="st2" points="93.6,174.5 98.5,178.2 98.5,184.8 93.6,181.1 "/>
<polygon class="st2" points="87.9,170.2 92.8,173.9 92.8,180.5 87.9,176.8 "/>
<polygon class="st2" points="82.2,166 87.1,169.7 87.1,176.3 82.2,172.6 "/>
<polygon class="st2" points="76.5,161.7 81.4,165.4 81.4,172 76.5,168.3 "/>
<polygon class="st2" points="70.8,157.4 75.7,161.1 75.7,167.7 70.7,164 "/>
<polyline class="st3" points="117.2,207.4 117.2,200.8 122.3,204.6 122.3,211.2 "/>
<polyline class="st3" points="105.2,198.5 105.2,191.9 110.3,195.6 110.3,202.2 "/>
<polyline class="st3" points="111.2,202.9 111.2,196.3 116.3,200.1 116.3,206.7 "/>
<polyline class="st3" points="99.3,194.2 99.3,187.6 104.2,191.3 104.2,197.9 "/>
<polyline class="st3" points="93.6,189.9 93.6,183.3 98.5,187 98.5,193.6 "/>
<polyline class="st3" points="87.9,185.7 87.9,179 92.8,182.7 92.8,189.3 "/>
<polyline class="st3" points="82.2,181.5 82.2,174.8 87.1,178.5 87.1,185.1 "/>
<polyline class="st3" points="76.5,177.2 76.5,170.6 81.4,174.2 81.4,180.8 "/>
<polyline class="st3" points="70.7,172.9 70.8,166.3 75.7,169.9 75.7,176.6 "/>
<polygon class="st2" points="129.8,128.8 124.7,132.5 124.7,140.1 129.8,136.4 "/>
<polygon class="st2" points="141.8,119.8 136.7,123.6 136.7,131.2 141.8,127.4 "/>
<polygon class="st2" points="135.8,124.3 130.7,128 130.7,135.6 135.8,131.9 "/>
<polygon class="st2" points="147.7,115.6 142.8,119.2 142.8,126.8 147.7,123.1 "/>
<polygon class="st2" points="153.4,111.3 148.5,115 148.5,122.5 153.4,118.9 "/>
<polygon class="st2" points="159.1,107 154.2,110.7 154.2,118.2 159.1,114.6 "/>
<polygon class="st2" points="164.8,102.8 159.9,106.5 159.9,114 164.8,110.4 "/>
<polygon class="st2" points="170.5,98.5 165.6,102.2 165.6,109.8 170.5,106.1 "/>
<polygon class="st2" points="176.3,94.2 171.4,97.9 171.4,105.5 176.3,101.8 "/>
<polygon class="st2" points="129.8,138.6 124.7,142.4 124.7,149 129.8,145.3 "/>
<polygon class="st2" points="141.8,129.7 136.7,133.5 136.7,140.1 141.8,136.3 "/>
<polygon class="st2" points="135.8,134.1 130.7,137.9 130.7,144.5 135.8,140.8 "/>
<polygon class="st2" points="147.7,125.4 142.8,129.1 142.8,135.7 147.7,132.1 "/>
<polygon class="st2" points="153.4,121.2 148.5,124.8 148.5,131.4 153.4,127.8 "/>
<polygon class="st2" points="159.1,116.9 154.2,120.6 154.2,127.2 159.1,123.5 "/>
<polygon class="st2" points="164.8,112.7 159.9,116.4 159.9,123 164.8,119.3 "/>
<polygon class="st2" points="170.5,108.4 165.6,112.1 165.6,118.7 170.5,115 "/>
<polygon class="st2" points="176.3,104.1 171.4,107.8 171.4,114.4 176.3,110.7 "/>
<polygon class="st2" points="129.8,147.5 124.7,151.3 124.7,157.9 129.8,154.1 "/>
<polygon class="st2" points="141.8,138.5 136.7,142.3 136.7,148.9 141.8,145.2 "/>
<polygon class="st2" points="135.8,143 130.7,146.8 130.7,153.4 135.8,149.6 "/>
<polygon class="st2" points="147.7,134.3 142.8,138 142.8,144.6 147.7,140.9 "/>
<polygon class="st2" points="153.4,130 148.5,133.7 148.5,140.3 153.4,136.6 "/>
<polygon class="st2" points="159.1,125.7 154.2,129.4 154.2,136 159.1,132.3 "/>
<polygon class="st2" points="164.8,121.5 159.9,125.2 159.9,131.8 164.8,128.1 "/>
<polygon class="st2" points="170.5,117.2 165.6,120.9 165.6,127.5 170.5,123.8 "/>
<polygon class="st2" points="176.3,112.9 171.4,116.6 171.4,123.2 176.3,119.6 "/>
<polygon class="st2" points="129.8,156.3 124.7,160.1 124.7,166.7 129.8,163 "/>
<polygon class="st2" points="141.8,147.4 136.7,151.2 136.7,157.8 141.8,154 "/>
<polygon class="st2" points="135.8,151.9 130.7,155.6 130.7,162.2 135.8,158.5 "/>
<polygon class="st2" points="147.7,143.1 142.8,146.8 142.8,153.4 147.7,149.8 "/>
<polygon class="st2" points="153.4,138.9 148.5,142.5 148.5,149.1 153.4,145.5 "/>
<polygon class="st2" points="159.1,134.6 154.2,138.2 154.2,144.9 159.1,141.2 "/>
<polygon class="st2" points="164.8,130.4 159.9,134 159.9,140.6 164.8,137 "/>
<polygon class="st2" points="170.5,126.1 165.6,129.8 165.6,136.4 170.5,132.7 "/>
<polygon class="st2" points="176.3,121.8 171.4,125.5 171.4,132.1 176.3,128.4 "/>
<polygon class="st2" points="129.8,165.2 124.7,169 124.7,175.6 129.8,171.8 "/>
<polygon class="st2" points="141.8,156.2 136.7,160 136.7,166.6 141.8,162.9 "/>
<polygon class="st2" points="135.8,160.7 130.7,164.5 130.7,171.1 135.8,167.3 "/>
<polygon class="st2" points="147.7,152 142.8,155.7 142.8,162.3 147.7,158.6 "/>
<polygon class="st2" points="153.4,147.7 148.5,151.4 148.5,158 153.4,154.3 "/>
<polygon class="st2" points="159.1,143.4 154.2,147.1 154.2,153.7 159.1,150 "/>
<polygon class="st2" points="164.8,139.2 159.9,142.9 159.9,149.5 164.8,145.8 "/>
<polygon class="st2" points="170.5,134.9 165.6,138.6 165.6,145.2 170.5,141.5 "/>
<polygon class="st2" points="176.3,130.6 171.4,134.3 171.4,140.9 176.3,137.2 "/>
<polygon class="st2" points="129.8,174 124.7,177.8 124.7,184.4 129.8,180.6 "/>
<polygon class="st2" points="141.8,165.1 136.7,168.9 136.7,175.5 141.8,171.7 "/>
<polygon class="st2" points="135.8,169.5 130.7,173.3 130.7,179.9 135.8,176.2 "/>
<polygon class="st2" points="147.7,160.8 142.8,164.5 142.8,171.1 147.7,167.4 "/>
<polygon class="st2" points="153.4,156.5 148.5,160.2 148.5,166.8 153.4,163.2 "/>
<polygon class="st2" points="159.1,152.3 154.2,155.9 154.2,162.6 159.1,158.9 "/>
<polygon class="st2" points="164.8,148.1 159.9,151.7 159.9,158.3 164.8,154.7 "/>
<polygon class="st2" points="170.5,143.8 165.6,147.4 165.6,154.1 170.5,150.4 "/>
<polygon class="st2" points="176.3,139.5 171.4,143.2 171.4,149.8 176.3,146.1 "/>
<polygon class="st2" points="129.8,182.9 124.7,186.7 124.7,193.3 129.8,189.5 "/>
<polygon class="st2" points="141.8,173.9 136.7,177.7 136.7,184.3 141.8,180.6 "/>
<polygon class="st2" points="135.8,178.4 130.7,182.2 130.7,188.8 135.8,185 "/>
<polygon class="st2" points="147.7,169.7 142.8,173.4 142.8,180 147.7,176.3 "/>
<polygon class="st2" points="153.4,165.4 148.5,169.1 148.5,175.7 153.4,172 "/>
<polygon class="st2" points="159.1,161.1 154.2,164.8 154.2,171.4 159.1,167.7 "/>
<polygon class="st2" points="164.8,156.9 159.9,160.6 159.9,167.2 164.8,163.5 "/>
<polygon class="st2" points="170.5,152.6 165.6,156.3 165.6,162.9 170.5,159.2 "/>
<polygon class="st2" points="176.3,148.3 171.4,152 171.4,158.6 176.3,154.9 "/>
<polygon class="st2" points="129.8,191.7 124.7,195.5 124.7,202.1 129.8,198.4 "/>
<polygon class="st2" points="141.8,182.8 136.7,186.6 136.7,193.2 141.8,189.4 "/>
<polygon class="st2" points="135.8,187.2 130.7,191 130.7,197.6 135.8,193.9 "/>
<polygon class="st2" points="147.7,178.5 142.8,182.2 142.8,188.8 147.7,185.1 "/>
<polygon class="st2" points="153.4,174.2 148.5,177.9 148.5,184.5 153.4,180.9 "/>
<polygon class="st2" points="159.1,169.9 154.2,173.6 154.2,180.2 159.1,176.6 "/>
<polygon class="st2" points="164.8,165.8 159.9,169.4 159.9,176 164.8,172.4 "/>
<polygon class="st2" points="170.5,161.5 165.6,165.1 165.6,171.8 170.5,168.1 "/>
<polygon class="st2" points="176.3,157.2 171.4,160.9 171.4,167.5 176.3,163.8 "/>
<polyline class="st3" points="129.8,207.2 129.8,200.6 124.7,204.4 124.7,211 "/>
<polyline class="st3" points="141.8,198.2 141.8,191.6 136.7,195.4 136.7,202 "/>
<polyline class="st3" points="135.8,202.7 135.8,196.1 130.7,199.9 130.7,206.5 "/>
<polyline class="st3" points="147.7,194 147.7,187.4 142.8,191.1 142.8,197.7 "/>
<polyline class="st3" points="153.4,189.7 153.4,183.1 148.5,186.8 148.5,193.4 "/>
<polyline class="st3" points="159.1,185.4 159.1,178.8 154.2,182.5 154.2,189.1 "/>
<polyline class="st3" points="164.8,181.2 164.8,174.6 159.9,178.3 159.9,184.9 "/>
<polyline class="st3" points="170.5,176.9 170.5,170.3 165.6,174 165.6,180.6 "/>
<polyline class="st3" points="176.3,172.6 176.3,166 171.4,169.7 171.4,176.3 "/>
</svg>
