<svg xmlns="http://www.w3.org/2000/svg" xmlns:xlink="http://www.w3.org/1999/xlink" viewBox="0 0 264.37 220.71"><defs><clipPath id="a"><path d="M192.5,164.9a4.52,4.52,0,0,1-4.52,4.52H97.54A4.52,4.52,0,0,1,93,164.9V116.77c0-2.5,2-4.52,4.52-57.66H188c2.5,53.14,4.52,55.16,4.52,57.66Z" style="fill:none"/></clipPath><clipPath id="b"><path d="M211,57.95a1.32,1.32,0,0,1-1.63,1.39H176.84a1.32,1.32,0,0,1-1.63-1.39V40.62c0-.9.73-1.63,1.63-20.76h32.56C210.31,39,211,39.72,211,40.62Z" style="fill:none"/></clipPath></defs><title>Asset 5</title><text transform="translate(0 170)" style="font-size:200px;fill:#4fcfbb;font-family:Barlow-Thin, Barlow">4</text><path d="M32.76,126.14c-2.38,15.3-.85,45.74,24.39,62.15" style="fill:none;stroke:#7d7778;stroke-miterlimit:10;stroke-width:0.5px"/><path d="M48,114.37a60.74,60.74,0,0,0,31.77,77.29" style="fill:none;stroke:#7d7778;stroke-miterlimit:10;stroke-width:0.5px"/><path d="M11.45,219.91l13.21-49.18a.8.8,0,0,1,.84-.58H207.63c.53,0,.73.26.61.79L195,220.13a.8.8,0,0,1-.84.58H12.07Q11.27,220.71,11.45,219.91Z"/><path d="M96.86,53.33s59.61,0,59.61,0" style="fill:none;stroke:#7d7778;stroke-miterlimit:10;stroke-width:0.5px"/><line x1="155.8" y1="61.42" x2="136.45" y2="61.44" style="fill:none;stroke:#7d7778;stroke-miterlimit:10;stroke-width:0.5px"/><path d="M208.54,183.17A69.45,69.45,0,0,0,211.89,81.7" style="fill:none;stroke:#7d7778;stroke-miterlimit:10;stroke-width:0.5px"/><path d="M187.85,205.18c32.21-8,43-26.7,48.9-40.81" style="fill:none;stroke:#7d7778;stroke-miterlimit:10;stroke-width:0.5px"/><path d="M125.36,191a5.06,5.06,0,0,0,1.54-3.48v-8h31.5v8a5.05,5.05,0,0,0,1.54,3.48l8.33,7H117.6Z" style="fill:#f3f3f3;stroke:#7d7778;stroke-miterlimit:10;stroke-width:0.5px"/><path d="M199.57,175.54a6.41,6.41,0,0,1-6.41,6.42H91.76a6.42,6.42,0,0,1-6.42-6.42V112.15a6.42,6.42,0,0,1,6.42-6.42h101.4a6.42,6.42,0,0,1,6.41,6.42Z" style="fill:#f3f3f3;stroke:#7d7778;stroke-miterlimit:10;stroke-width:0.5px"/><rect x="93.02" y="112.25" width="99.48" height="57.17" rx="4.52" ry="4.52" style="fill:#f3f3f3;stroke:#7d7778;stroke-miterlimit:10;stroke-width:0.5px"/><rect x="117.6" y="198.02" width="50.67" height="4.86" style="fill:#f3f3f3;stroke:#7d7778;stroke-miterlimit:10;stroke-width:0.5px"/><g style="clip-path:url(#a)"><path d="M175.44,155.42v4.91c0,.18.35.32.78.32s.78-.14.78-.32v-9.89c0-.18-.35-.32-.78-.32s-.78.14-.78.32Z" style="fill:#f3f3f3;stroke:#7d7778;stroke-miterlimit:10;stroke-width:0.5px"/><ellipse cx="176.22" cy="150.41" rx="0.78" ry="0.31" style="fill:#f3f3f3;stroke:#7d7778;stroke-miterlimit:10;stroke-width:0.5px"/><path d="M128.19,165.8v11.08c0,.18.35.32.78.32s.78-.14.78-.32V165c0-.18-.35-.32-.78-.32s-.78.14-.78.32Z" style="fill:#f3f3f3;stroke:#7d7778;stroke-miterlimit:10;stroke-width:0.5px"/><path d="M153.42,165.8v11.08c0,.18.35.32.78.32s.78-.14.78-.32V165c0-.18-.35-.32-.78-.32s-.78.14-.78.32Z" style="fill:#f3f3f3;stroke:#7d7778;stroke-miterlimit:10;stroke-width:0.5px"/><path d="M164.4,157.53v11.08c0,.18.35.32.78.32s.78-.14.78-.32V156.68c0-.18-.35-.32-.78-.32s-.78.14-.78.32Z" style="fill:#f3f3f3;stroke:#7d7778;stroke-miterlimit:10;stroke-width:0.5px"/><path d="M117.56,157.9V169c0,.18.35.32.78.32s.78-.14.78-.32V157.06c0-.18-.35-.32-.78-.32s-.78.14-.78.32Z" style="fill:#f3f3f3;stroke:#7d7778;stroke-miterlimit:10;stroke-width:0.5px"/><path d="M106.33,155.82v4.91c0,.18.35.32.78.32s.78-.14.78-.32v-9.89c0-.18-.35-.32-.78-.32s-.78.14-.78.32Z" style="fill:#f3f3f3;stroke:#7d7778;stroke-miterlimit:10;stroke-width:0.5px"/><path d="M140.88,181.3v4.91c0,.18.35.32.78.32s.78-.14.78-.32v-9.89c0-.18-.35-.32-.78-.32s-.78.14-.78.32Z" style="fill:#f3f3f3;stroke:#7d7778;stroke-miterlimit:10;stroke-width:0.5px"/><polyline points="176.95 148.96 176.95 150.48 141.45 176.93 106.14 150.82 106.14 149.33" style="fill:#f3f3f3;stroke:#7d7778;stroke-miterlimit:10;stroke-width:0.5px"/><polygon points="141.87 122.87 106.2 149.31 141.52 175.41 177.02 148.96 141.87 122.87" style="fill:#f3f3f3;stroke:#7d7778;stroke-miterlimit:10;stroke-width:0.5px"/><path d="M175.44,143.91v4.91c0,.18.35.32.78.32s.78-.14.78-.32v-5.76c0-.18-.35-.32-.78-.32s-.78.14-.78.32Z" style="fill:#f3f3f3;stroke:#7d7778;stroke-miterlimit:10;stroke-width:0.5px"/><ellipse cx="176.22" cy="143.04" rx="0.78" ry="0.31" style="fill:#f3f3f3;stroke:#7d7778;stroke-miterlimit:10;stroke-width:0.5px"/><path d="M128.19,160.61v4.91c0,.18.35.32.78.32s.78-.14.78-.32v-5.76c0-.18-.35-.32-.78-.32s-.78.14-.78.32Z" style="fill:#f3f3f3;stroke:#7d7778;stroke-miterlimit:10;stroke-width:0.5px"/><ellipse cx="128.97" cy="159.74" rx="0.78" ry="0.31" style="fill:#f3f3f3;stroke:#7d7778;stroke-miterlimit:10;stroke-width:0.5px"/><path d="M140.88,169.81v4.91c0,.18.35.32.78.32s.78-.14.78-.32V169c0-.18-.35-.32-.78-.32s-.78.14-.78.32Z" style="fill:#f3f3f3;stroke:#7d7778;stroke-miterlimit:10;stroke-width:0.5px"/><path d="M153.42,160.61v4.91c0,.18.35.32.78.32s.78-.14.78-.32v-5.76c0-.18-.35-.32-.78-.32s-.78.14-.78.32Z" style="fill:#f3f3f3;stroke:#7d7778;stroke-miterlimit:10;stroke-width:0.5px"/><path d="M164.4,152.12V157c0,.18.35.32.78.32s.78-.14.78-.32v-5.76c0-.18-.35-.32-.78-.32s-.78.14-.78.32Z" style="fill:#f3f3f3;stroke:#7d7778;stroke-miterlimit:10;stroke-width:0.5px"/><path d="M117.56,152.12V157c0,.18.35.32.78.32s.78-.14.78-.32v-5.76c0-.18-.35-.32-.78-.32s-.78.14-.78.32Z" style="fill:#f3f3f3;stroke:#7d7778;stroke-miterlimit:10;stroke-width:0.5px"/><path d="M106.33,144.34v4.91c0,.18.35.32.78.32s.78-.14.78-.32v-5.76c0-.18-.35-.32-.78-.32s-.78.14-.78.32Z" style="fill:#f3f3f3;stroke:#7d7778;stroke-miterlimit:10;stroke-width:0.5px"/><polyline points="176.98 143.17 176.98 144.71 141.48 171.16 106.17 145.05 106.17 143.52" style="fill:#f3f3f3;stroke:#7d7778;stroke-miterlimit:10;stroke-width:0.5px"/><polygon points="141.91 117.1 106.24 143.54 141.55 169.65 177.05 143.19 141.91 117.1" style="fill:#f3f3f3;stroke:#7d7778;stroke-miterlimit:10;stroke-width:0.5px"/><path d="M175.44,138.14V143c0,.18.35.32.78.32s.78-.14.78-.32v-5.76c0-.18-.35-.32-.78-.32s-.78.14-.78.32Z" style="fill:#f3f3f3;stroke:#7d7778;stroke-miterlimit:10;stroke-width:0.5px"/><ellipse cx="176.22" cy="137.26" rx="0.78" ry="0.31" style="fill:#f3f3f3;stroke:#7d7778;stroke-miterlimit:10;stroke-width:0.5px"/><path d="M128.19,154.81v4.91c0,.18.35.32.78.32s.78-.14.78-.32V154c0-.18-.35-.32-.78-.32s-.78.14-.78.32Z" style="fill:#f3f3f3;stroke:#7d7778;stroke-miterlimit:10;stroke-width:0.5px"/><ellipse cx="128.97" cy="153.94" rx="0.78" ry="0.31" style="fill:#f3f3f3;stroke:#7d7778;stroke-miterlimit:10;stroke-width:0.5px"/><path d="M140.88,164.11V169c0,.18.35.32.78.32s.78-.14.78-.32v-5.76c0-.18-.35-.32-.78-.32s-.78.14-.78.32Z" style="fill:#f3f3f3;stroke:#7d7778;stroke-miterlimit:10;stroke-width:0.5px"/><path d="M153.42,154.81v4.91c0,.18.35.32.78.32s.78-.14.78-.32V154c0-.18-.35-.32-.78-.32s-.78.14-.78.32Z" style="fill:#f3f3f3;stroke:#7d7778;stroke-miterlimit:10;stroke-width:0.5px"/><path d="M164.4,146.32v4.91c0,.18.35.32.78.32s.78-.14.78-.32v-5.76c0-.18-.35-.32-.78-.32s-.78.14-.78.32Z" style="fill:#f3f3f3;stroke:#7d7778;stroke-miterlimit:10;stroke-width:0.5px"/><path d="M117.56,146.32v4.91c0,.18.35.32.78.32s.78-.14.78-.32v-5.76c0-.18-.35-.32-.78-.32s-.78.14-.78.32Z" style="fill:#f3f3f3;stroke:#7d7778;stroke-miterlimit:10;stroke-width:0.5px"/><path d="M106.33,138.56v4.91c0,.18.35.32.78.32s.78-.14.78-.32v-5.76c0-.18-.35-.32-.78-.32s-.78.14-.78.32Z" style="fill:#f3f3f3;stroke:#7d7778;stroke-miterlimit:10;stroke-width:0.5px"/><polyline points="177.02 137.45 177.02 138.94 141.52 165.39 106.2 139.28 106.2 137.77" style="fill:#f3f3f3;stroke:#7d7778;stroke-miterlimit:10;stroke-width:0.5px"/><polygon points="141.94 111.34 106.27 137.77 141.58 163.88 177.08 137.43 141.94 111.34" style="fill:#f3f3f3;stroke:#7d7778;stroke-miterlimit:10;stroke-width:0.5px"/><path d="M175.44,132.43v4.91c0,.18.35.32.78.32s.78-.14.78-.32v-5.76c0-.18-.35-.32-.78-.32s-.78.14-.78.32Z" style="fill:#f3f3f3;stroke:#7d7778;stroke-miterlimit:10;stroke-width:0.5px"/><ellipse cx="176.22" cy="131.56" rx="0.78" ry="0.31" style="fill:#f3f3f3;stroke:#7d7778;stroke-miterlimit:10;stroke-width:0.5px"/><path d="M128.19,149.21v4.91c0,.18.35.32.78.32s.78-.14.78-.32v-5.76c0-.18-.35-.32-.78-.32s-.78.14-.78.32Z" style="fill:#f3f3f3;stroke:#7d7778;stroke-miterlimit:10;stroke-width:0.5px"/><ellipse cx="128.97" cy="148.34" rx="0.78" ry="0.31" style="fill:#f3f3f3;stroke:#7d7778;stroke-miterlimit:10;stroke-width:0.5px"/><path d="M140.88,158.33v4.91c0,.18.35.32.78.32s.78-.14.78-.32v-5.76c0-.18-.35-.32-.78-.32s-.78.14-.78.32Z" style="fill:#f3f3f3;stroke:#7d7778;stroke-miterlimit:10;stroke-width:0.5px"/><path d="M153.42,149.21v4.91c0,.18.35.32.78.32s.78-.14.78-.32v-5.76c0-.18-.35-.32-.78-.32s-.78.14-.78.32Z" style="fill:#f3f3f3;stroke:#7d7778;stroke-miterlimit:10;stroke-width:0.5px"/><path d="M164.4,140.72v4.91c0,.18.35.32.78.32s.78-.14.78-.32v-5.76c0-.18-.35-.32-.78-.32s-.78.14-.78.32Z" style="fill:#f3f3f3;stroke:#7d7778;stroke-miterlimit:10;stroke-width:0.5px"/><path d="M117.56,140.72v4.91c0,.18.35.32.78.32s.78-.14.78-.32v-5.76c0-.18-.35-.32-.78-.32s-.78.14-.78.32Z" style="fill:#f3f3f3;stroke:#7d7778;stroke-miterlimit:10;stroke-width:0.5px"/><path d="M106.33,132.8v4.91c0,.18.35.32.78.32s.78-.14.78-.32V132c0-.18-.35-.32-.78-.32s-.78.14-.78.32Z" style="fill:#f3f3f3;stroke:#7d7778;stroke-miterlimit:10;stroke-width:0.5px"/><polyline points="177.05 131.66 177.05 133.17 141.55 159.62 106.24 133.52 106.24 132" style="fill:#f3f3f3;stroke:#7d7778;stroke-miterlimit:10;stroke-width:0.5px"/><polygon points="141.97 105.57 106.3 132 141.61 158.11 177.11 131.66 141.97 105.57" style="fill:#f3f3f3;stroke:#7d7778;stroke-miterlimit:10;stroke-width:0.5px"/><path d="M175.44,126.64v4.91c0,.18.35.32.78.32s.78-.14.78-.32v-5.76c0-.18-.35-.32-.78-.32s-.78.14-.78.32Z" style="fill:#f3f3f3;stroke:#7d7778;stroke-miterlimit:10;stroke-width:0.5px"/><ellipse cx="176.22" cy="125.76" rx="0.78" ry="0.31" style="fill:#f3f3f3;stroke:#7d7778;stroke-miterlimit:10;stroke-width:0.5px"/><path d="M128.19,143.37v4.91c0,.18.35.32.78.32s.78-.14.78-.32v-5.76c0-.18-.35-.32-.78-.32s-.78.14-.78.32Z" style="fill:#f3f3f3;stroke:#7d7778;stroke-miterlimit:10;stroke-width:0.5px"/><ellipse cx="128.97" cy="142.5" rx="0.78" ry="0.31" style="fill:#f3f3f3;stroke:#7d7778;stroke-miterlimit:10;stroke-width:0.5px"/><path d="M140.88,152.59v4.91c0,.18.35.32.78.32s.78-.14.78-.32v-5.76c0-.18-.35-.32-.78-.32s-.78.14-.78.32Z" style="fill:#f3f3f3;stroke:#7d7778;stroke-miterlimit:10;stroke-width:0.5px"/><path d="M153.42,143.37v4.91c0,.18.35.32.78.32s.78-.14.78-.32v-5.76c0-.18-.35-.32-.78-.32s-.78.14-.78.32Z" style="fill:#f3f3f3;stroke:#7d7778;stroke-miterlimit:10;stroke-width:0.5px"/><path d="M164.4,134.88v4.91c0,.18.35.32.78.32s.78-.14.78-.32V134c0-.18-.35-.32-.78-.32s-.78.14-.78.32Z" style="fill:#f3f3f3;stroke:#7d7778;stroke-miterlimit:10;stroke-width:0.5px"/><path d="M117.56,134.88v4.91c0,.18.35.32.78.32s.78-.14.78-.32V134c0-.18-.35-.32-.78-.32s-.78.14-.78.32Z" style="fill:#f3f3f3;stroke:#7d7778;stroke-miterlimit:10;stroke-width:0.5px"/><path d="M106.33,127.06V132c0,.18.35.32.78.32s.78-.14.78-.32v-5.76c0-.18-.35-.32-.78-.32s-.78.14-.78.32Z" style="fill:#f3f3f3;stroke:#7d7778;stroke-miterlimit:10;stroke-width:0.5px"/><polyline points="176.98 125.89 176.98 127.41 141.48 153.85 106.17 127.75 106.17 126.23" style="fill:#f3f3f3;stroke:#7d7778;stroke-miterlimit:10;stroke-width:0.5px"/><polygon points="141.91 99.8 106.24 126.23 141.55 152.34 177.05 125.89 141.91 99.8" style="fill:#f3f3f3;stroke:#7d7778;stroke-miterlimit:10;stroke-width:0.5px"/><path d="M175.43,121v4.91c0,.18.35.32.78.32s.78-.14.78-.32v-5.76c0-.18-.35-.32-.78-.32s-.78.14-.78.32Z" style="fill:#f3f3f3;stroke:#7d7778;stroke-miterlimit:10;stroke-width:0.5px"/><ellipse cx="176.21" cy="120.09" rx="0.78" ry="0.31" style="fill:#f3f3f3;stroke:#7d7778;stroke-miterlimit:10;stroke-width:0.5px"/><path d="M128.19,137.53v4.91c0,.18.35.32.78.32s.78-.14.78-.32v-5.76c0-.18-.35-.32-.78-.32s-.78.14-.78.32Z" style="fill:#f3f3f3;stroke:#7d7778;stroke-miterlimit:10;stroke-width:0.5px"/><ellipse cx="128.97" cy="136.66" rx="0.78" ry="0.31" style="fill:#f3f3f3;stroke:#7d7778;stroke-miterlimit:10;stroke-width:0.5px"/><path d="M140.87,146.81v4.91c0,.18.35.32.78.32s.78-.14.78-.32V146c0-.18-.35-.32-.78-.32s-.78.14-.78.32Z" style="fill:#f3f3f3;stroke:#7d7778;stroke-miterlimit:10;stroke-width:0.5px"/><path d="M153.42,137.53v4.91c0,.18.35.32.78.32s.78-.14.78-.32v-5.76c0-.18-.35-.32-.78-.32s-.78.14-.78.32Z" style="fill:#f3f3f3;stroke:#7d7778;stroke-miterlimit:10;stroke-width:0.5px"/><path d="M164.4,129V134c0,.18.35.32.78.32s.78-.14.78-.32V128.2c0-.18-.35-.32-.78-.32s-.78.14-.78.32Z" style="fill:#f3f3f3;stroke:#7d7778;stroke-miterlimit:10;stroke-width:0.5px"/><path d="M117.56,129V134c0,.18.35.32.78.32s.78-.14.78-.32V128.2c0-.18-.35-.32-.78-.32s-.78.14-.78.32Z" style="fill:#f3f3f3;stroke:#7d7778;stroke-miterlimit:10;stroke-width:0.5px"/><path d="M106.32,121.36v4.91c0,.18.35.32.78.32s.78-.14.78-.32v-5.76c0-.18-.35-.32-.78-.32s-.78.14-.78.32Z" style="fill:#f3f3f3;stroke:#7d7778;stroke-miterlimit:10;stroke-width:0.5px"/><polyline points="177.02 120.12 177.02 121.64 141.52 148.09 106.2 121.98 106.2 120.48" style="fill:#f3f3f3;stroke:#7d7778;stroke-miterlimit:10;stroke-width:0.5px"/><polygon points="141.94 94.03 106.27 120.47 141.58 146.57 177.08 120.12 141.94 94.03" style="fill:#f3f3f3;stroke:#7d7778;stroke-miterlimit:10;stroke-width:0.5px"/><path d="M175.44,115.19v4.91c0,.18.35.32.78.32s.78-.14.78-.32v-5.76c0-.18-.35-.32-.78-.32s-.78.14-.78.32Z" style="fill:#f3f3f3;stroke:#7d7778;stroke-miterlimit:10;stroke-width:0.5px"/><ellipse cx="176.22" cy="114.31" rx="0.78" ry="0.31" style="fill:#f3f3f3;stroke:#7d7778;stroke-miterlimit:10;stroke-width:0.5px"/><path d="M128.19,131.69v4.91c0,.18.35.32.78.32s.78-.14.78-.32v-5.76c0-.18-.35-.32-.78-.32s-.78.14-.78.32Z" style="fill:#f3f3f3;stroke:#7d7778;stroke-miterlimit:10;stroke-width:0.5px"/><ellipse cx="128.97" cy="130.81" rx="0.78" ry="0.31" style="fill:#f3f3f3;stroke:#7d7778;stroke-miterlimit:10;stroke-width:0.5px"/><path d="M140.88,141.14V146c0,.18.35.32.78.32s.78-.14.78-.32v-5.76c0-.18-.35-.32-.78-.32s-.78.14-.78.32Z" style="fill:#f3f3f3;stroke:#7d7778;stroke-miterlimit:10;stroke-width:0.5px"/><path d="M153.42,131.69v4.91c0,.18.35.32.78.32s.78-.14.78-.32v-5.76c0-.18-.35-.32-.78-.32s-.78.14-.78.32Z" style="fill:#f3f3f3;stroke:#7d7778;stroke-miterlimit:10;stroke-width:0.5px"/><path d="M164.4,123.2v4.91c0,.18.35.32.78.32s.78-.14.78-.32v-5.76c0-.18-.35-.32-.78-.32s-.78.14-.78.32Z" style="fill:#f3f3f3;stroke:#7d7778;stroke-miterlimit:10;stroke-width:0.5px"/><path d="M117.56,123.2v4.91c0,.18.35.32.78.32s.78-.14.78-.32v-5.76c0-.18-.35-.32-.78-.32s-.78.14-.78.32Z" style="fill:#f3f3f3;stroke:#7d7778;stroke-miterlimit:10;stroke-width:0.5px"/><path d="M106.33,115.52v4.91c0,.18.35.32.78.32s.78-.14.78-.32v-5.76c0-.18-.35-.32-.78-.32s-.78.14-.78.32Z" style="fill:#f3f3f3;stroke:#7d7778;stroke-miterlimit:10;stroke-width:0.5px"/><polyline points="177.05 114.36 177.05 115.87 141.55 142.32 106.24 116.21 106.24 114.7" style="fill:#f3f3f3;stroke:#7d7778;stroke-miterlimit:10;stroke-width:0.5px"/><polygon points="141.97 88.27 106.3 114.7 141.61 140.81 177.11 114.36 141.97 88.27" style="fill:#f3f3f3;stroke:#7d7778;stroke-miterlimit:10;stroke-width:0.5px"/><path d="M141,115.42v4.91c0,.18.35.32.78.32s.78-.14.78-.32v-5.76c0-.18-.35-.32-.78-.32s-.78.14-.78.32Z" style="fill:#f3f3f3;stroke:#7d7778;stroke-miterlimit:10;stroke-width:0.5px"/><ellipse cx="141.74" cy="114.55" rx="0.78" ry="0.31" style="fill:#f3f3f3;stroke:#7d7778;stroke-miterlimit:10;stroke-width:0.5px"/><path d="M128.19,125.78v4.91c0,.18.35.32.78.32s.78-.14.78-.32v-5.76c0-.18-.35-.32-.78-.32s-.78.14-.78.32Z" style="fill:#f3f3f3;stroke:#7d7778;stroke-miterlimit:10;stroke-width:0.5px"/><ellipse cx="128.97" cy="123.66" rx="0.78" ry="0.31" style="fill:#f3f3f3;stroke:#7d7778;stroke-miterlimit:10;stroke-width:0.5px"/><path d="M153.42,125.8v4.91c0,.18.35.32.78.32s.78-.14.78-.32V125c0-.18-.35-.32-.78-.32s-.78.14-.78.32Z" style="fill:#f3f3f3;stroke:#7d7778;stroke-miterlimit:10;stroke-width:0.5px"/><path d="M164.4,117.31v4.91c0,.18.35.32.78.32s.78-.14.78-.32v-5.76c0-.18-.35-.32-.78-.32s-.78.14-.78.32Z" style="fill:#f3f3f3;stroke:#7d7778;stroke-miterlimit:10;stroke-width:0.5px"/><path d="M117.56,117.31v4.91c0,.18.35.32.78.32s.78-.14.78-.32v-5.76c0-.18-.35-.32-.78-.32s-.78.14-.78.32Z" style="fill:#f3f3f3;stroke:#7d7778;stroke-miterlimit:10;stroke-width:0.5px"/><ellipse cx="155.86" cy="123.66" rx="0.78" ry="0.31" style="fill:#f3f3f3;stroke:#7d7778;stroke-miterlimit:10;stroke-width:0.5px"/><polygon points="129.26 125.69 141.71 116.47 153.88 125.63 156.64 122.81 155.15 119.71 141.71 113.13 134.69 116.09 127.72 124.43 128.33 125.96 129.26 125.69" style="fill:#f3f3f3;stroke:#7d7778;stroke-miterlimit:10;stroke-width:0.5px"/><path d="M175.41,109.31v4.91c0,.18.35.32.78.32s.78-.14.78-.32v-5.76c0-.18-.35-.32-.78-.32s-.78.14-.78.32Z" style="fill:#f3f3f3;stroke:#7d7778;stroke-miterlimit:10;stroke-width:0.5px"/><path d="M106.3,109.67v4.91c0,.18.35.32.78.32s.78-.14.78-.32v-5.76c0-.18-.35-.32-.78-.32s-.78.14-.78.32Z" style="fill:#f3f3f3;stroke:#7d7778;stroke-miterlimit:10;stroke-width:0.5px"/><ellipse cx="176.19" cy="108.44" rx="0.78" ry="0.31" style="fill:#f3f3f3;stroke:#7d7778;stroke-miterlimit:10;stroke-width:0.5px"/><path d="M140.85,135.16v4.91c0,.18.35.32.78.32s.78-.14.78-.32v-5.76c0-.18-.35-.32-.78-.32s-.78.14-.78.32Z" style="fill:#f3f3f3;stroke:#7d7778;stroke-miterlimit:10;stroke-width:0.5px"/><path d="M106.24,108.21v1.51l35.31,26.11L177,109.37v-1.51Zm35.37,24.52-13-9.6,13.11-9.72L154.66,123Z" style="fill:#f3f3f3;stroke:#7d7778;stroke-miterlimit:10;stroke-width:0.5px"/><path d="M142,81.77,106.3,108.2l35.31,26.11,35.5-26.45Zm-.36,50.68-11.83-8.75,12-8.86,11.78,8.74Z" style="fill:#f3f3f3;stroke:#7d7778;stroke-miterlimit:10;stroke-width:0.5px"/><line x1="141.74" y1="114.85" x2="141.74" y2="116.43" style="fill:#f3f3f3;stroke:#7d7778;stroke-miterlimit:10;stroke-width:0.5px"/><line x1="141.61" y1="134.31" x2="141.61" y2="135.82" style="fill:#f3f3f3;stroke:#7d7778;stroke-miterlimit:10;stroke-width:0.5px"/><line x1="141.61" y1="140.81" x2="141.61" y2="142.32" style="fill:#f3f3f3;stroke:#7d7778;stroke-miterlimit:10;stroke-width:0.5px"/><line x1="141.61" y1="146.57" x2="141.61" y2="148.09" style="fill:#f3f3f3;stroke:#7d7778;stroke-miterlimit:10;stroke-width:0.5px"/><line x1="141.61" y1="152.34" x2="141.61" y2="153.85" style="fill:#f3f3f3;stroke:#7d7778;stroke-miterlimit:10;stroke-width:0.5px"/><line x1="141.61" y1="158.11" x2="141.61" y2="159.62" style="fill:#f3f3f3;stroke:#7d7778;stroke-miterlimit:10;stroke-width:0.5px"/><line x1="141.61" y1="163.88" x2="141.61" y2="165.39" style="fill:#f3f3f3;stroke:#7d7778;stroke-miterlimit:10;stroke-width:0.5px"/><line x1="141.61" y1="169.64" x2="141.61" y2="171.16" style="fill:#f3f3f3;stroke:#7d7778;stroke-miterlimit:10;stroke-width:0.5px"/><line x1="141.61" y1="175.41" x2="141.61" y2="176.92" style="fill:#f3f3f3;stroke:#7d7778;stroke-miterlimit:10;stroke-width:0.5px"/><polyline points="165.95 107.08 165.95 114.31 163.17 116.38 160.41 114.34 160.41 107.08" style="fill:#f3f3f3;stroke:#7d7778;stroke-miterlimit:10;stroke-width:0.5px"/><polygon points="163.21 105.02 160.41 107.09 163.18 109.14 165.96 107.06 163.21 105.02" style="fill:#f3f3f3;stroke:#7d7778;stroke-miterlimit:10;stroke-width:0.5px"/><line x1="163.18" y1="109.14" x2="163.18" y2="116.31" style="fill:#f3f3f3;stroke:#7d7778;stroke-miterlimit:10;stroke-width:0.5px"/></g><path d="M133.1,67A12,12,0,0,0,124,56.44v0a16.58,16.58,0,0,0-19.59-11.08A16.87,16.87,0,0,0,72,46.82a16.58,16.58,0,0,0,1.75,33.07H93.55l28.68.06A11.94,11.94,0,0,0,133.1,67Z" style="fill:#f3f3f3;stroke:#7d7778;stroke-miterlimit:10;stroke-width:0.5px"/><path d="M73.9,46.82A16.58,16.58,0,0,0,73.9,80H93.65l28.68.06a11.94,11.94,0,1,0-2-23.8" style="fill:#f3f3f3;stroke:#7d7778;stroke-miterlimit:10;stroke-width:0.5px"/><path d="M71.7,50.81a16.87,16.87,0,0,1,33.4-3.4" style="fill:#f3f3f3;stroke:#7d7778;stroke-miterlimit:10;stroke-width:0.5px"/><path d="M100.26,47.07a16.58,16.58,0,0,1,23.88,9.42" style="fill:#f3f3f3;stroke:#7d7778;stroke-miterlimit:10;stroke-width:0.5px"/><path d="M202.75,71.74l4.69,4h-28.5l4.37-4a2.84,2.84,0,0,0,.86-2V65.26h17.72v4.52A2.84,2.84,0,0,0,202.75,71.74Z" style="fill:#f3f3f3;stroke:#7d7778;stroke-miterlimit:10;stroke-width:0.5px"/><rect x="160.79" y="23.78" width="64.25" height="42.88" rx="3.61" ry="3.61" style="fill:#f3f3f3;stroke:#7d7778;stroke-miterlimit:10;stroke-width:0.5px"/><rect x="165.12" y="27.45" width="55.95" height="32.16" rx="2.54" ry="2.54" style="fill:#f3f3f3;stroke:#7d7778;stroke-miterlimit:10;stroke-width:0.5px"/><rect x="178.94" y="75.69" width="28.5" height="2.73" style="fill:#f3f3f3;stroke:#7d7778;stroke-miterlimit:10;stroke-width:0.5px"/><path d="M245.07,107.59l19,15.52-19,15.52" style="fill:none;stroke:#7d7778;stroke-linecap:round;stroke-linejoin:round;stroke-width:0.5px"/><line x1="264.12" y1="123.11" x2="186.75" y2="123.11" style="fill:none;stroke:#7d7778;stroke-linecap:round;stroke-linejoin:round;stroke-width:0.5px"/><g style="clip-path:url(#b)"><path d="M205.81,58.21v1.9c0,.07.14.12.3.12s.3-.06.3-.12V56.28c0-.07-.14-.12-.3-.12s-.3.06-.3.12Z" style="fill:#f3f3f3;stroke:#7d7778;stroke-miterlimit:10;stroke-width:0.5px"/><ellipse cx="206.12" cy="56.27" rx="0.3" ry="0.12" style="fill:#f3f3f3;stroke:#7d7778;stroke-miterlimit:10;stroke-width:0.5px"/><path d="M187.51,62.23v4.29c0,.07.14.12.3.12s.3-.06.3-.12V61.91c0-.07-.14-.12-.3-.12s-.3.06-.3.12Z" style="fill:#f3f3f3;stroke:#7d7778;stroke-miterlimit:10;stroke-width:0.5px"/><path d="M197.28,62.23v4.29c0,.07.14.12.3.12s.3-.06.3-.12V61.91c0-.07-.14-.12-.3-.12s-.3.06-.3.12Z" style="fill:#f3f3f3;stroke:#7d7778;stroke-miterlimit:10;stroke-width:0.5px"/><path d="M201.54,59v4.29c0,.07.14.12.3.12s.3-.06.3-.12V58.7c0-.07-.14-.12-.3-.12s-.3.06-.3.12Z" style="fill:#f3f3f3;stroke:#7d7778;stroke-miterlimit:10;stroke-width:0.5px"/><path d="M183.39,59.17v4.29c0,.07.14.12.3.12s.3-.06.3-.12V58.85c0-.07-.14-.12-.3-.12s-.3.06-.3.12Z" style="fill:#f3f3f3;stroke:#7d7778;stroke-miterlimit:10;stroke-width:0.5px"/><path d="M179,58.37v1.9c0,.07.14.12.3.12s.3-.06.3-.12V56.44c0-.07-.14-.12-.3-.12s-.3.06-.3.12Z" style="fill:#f3f3f3;stroke:#7d7778;stroke-miterlimit:10;stroke-width:0.5px"/><path d="M192.43,68.24v1.9c0,.07.14.12.3.12s.3-.06.3-.12V66.31c0-.07-.14-.12-.3-.12s-.3.06-.3.12Z" style="fill:#f3f3f3;stroke:#7d7778;stroke-miterlimit:10;stroke-width:0.5px"/><polygon points="192.81 45.61 178.99 55.84 192.67 65.96 206.42 55.71 192.81 45.61" style="fill:#f3f3f3;stroke:#7d7778;stroke-miterlimit:10;stroke-width:0.5px"/><path d="M205.81,53.75v1.9c0,.07.14.12.3.12s.3-.06.3-.12V53.43c0-.07-.14-.12-.3-.12s-.3.06-.3.12Z" style="fill:#f3f3f3;stroke:#7d7778;stroke-miterlimit:10;stroke-width:0.5px"/><ellipse cx="206.12" cy="53.42" rx="0.3" ry="0.12" style="fill:#f3f3f3;stroke:#7d7778;stroke-miterlimit:10;stroke-width:0.5px"/><path d="M187.51,60.22v1.9c0,.07.14.12.3.12s.3-.06.3-.12V59.9c0-.07-.14-.12-.3-.12s-.3.06-.3.12Z" style="fill:#f3f3f3;stroke:#7d7778;stroke-miterlimit:10;stroke-width:0.5px"/><ellipse cx="187.81" cy="59.89" rx="0.3" ry="0.12" style="fill:#f3f3f3;stroke:#7d7778;stroke-miterlimit:10;stroke-width:0.5px"/><path d="M192.43,63.79v1.9c0,.07.14.12.3.12s.3-.06.3-.12V63.46c0-.07-.14-.12-.3-.12s-.3.06-.3.12Z" style="fill:#f3f3f3;stroke:#7d7778;stroke-miterlimit:10;stroke-width:0.5px"/><path d="M197.28,60.22v1.9c0,.07.14.12.3.12s.3-.06.3-.12V59.9c0-.07-.14-.12-.3-.12s-.3.06-.3.12Z" style="fill:#f3f3f3;stroke:#7d7778;stroke-miterlimit:10;stroke-width:0.5px"/><path d="M201.54,56.94v1.9c0,.07.14.12.3.12s.3-.06.3-.12V56.61c0-.07-.14-.12-.3-.12s-.3.06-.3.12Z" style="fill:#f3f3f3;stroke:#7d7778;stroke-miterlimit:10;stroke-width:0.5px"/><path d="M183.39,56.94v1.9c0,.07.14.12.3.12s.3-.06.3-.12V56.61c0-.07-.14-.12-.3-.12s-.3.06-.3.12Z" style="fill:#f3f3f3;stroke:#7d7778;stroke-miterlimit:10;stroke-width:0.5px"/><path d="M179,53.92v1.9c0,.07.14.12.3.12s.3-.06.3-.12V53.59c0-.07-.14-.12-.3-.12s-.3.06-.3.12Z" style="fill:#f3f3f3;stroke:#7d7778;stroke-miterlimit:10;stroke-width:0.5px"/><polygon points="192.82 43.37 179.01 53.61 192.69 63.72 206.44 53.48 192.82 43.37" style="fill:#f3f3f3;stroke:#7d7778;stroke-miterlimit:10;stroke-width:0.5px"/><path d="M205.81,51.52v1.9c0,.07.14.12.3.12s.3-.06.3-.12V51.19c0-.07-.14-.12-.3-.12s-.3.06-.3.12Z" style="fill:#f3f3f3;stroke:#7d7778;stroke-miterlimit:10;stroke-width:0.5px"/><ellipse cx="206.12" cy="51.18" rx="0.3" ry="0.12" style="fill:#f3f3f3;stroke:#7d7778;stroke-miterlimit:10;stroke-width:0.5px"/><path d="M187.51,58v1.9c0,.07.14.12.3.12s.3-.06.3-.12V57.65c0-.07-.14-.12-.3-.12s-.3.06-.3.12Z" style="fill:#f3f3f3;stroke:#7d7778;stroke-miterlimit:10;stroke-width:0.5px"/><ellipse cx="187.81" cy="57.64" rx="0.3" ry="0.12" style="fill:#f3f3f3;stroke:#7d7778;stroke-miterlimit:10;stroke-width:0.5px"/><path d="M192.43,61.58v1.9c0,.07.14.12.3.12s.3-.06.3-.12V61.25c0-.07-.14-.12-.3-.12s-.3.06-.3.12Z" style="fill:#f3f3f3;stroke:#7d7778;stroke-miterlimit:10;stroke-width:0.5px"/><path d="M197.28,58v1.9c0,.07.14.12.3.12s.3-.06.3-.12V57.65c0-.07-.14-.12-.3-.12s-.3.06-.3.12Z" style="fill:#f3f3f3;stroke:#7d7778;stroke-miterlimit:10;stroke-width:0.5px"/><path d="M201.54,54.69v1.9c0,.07.14.12.3.12s.3-.06.3-.12V54.36c0-.07-.14-.12-.3-.12s-.3.06-.3.12Z" style="fill:#f3f3f3;stroke:#7d7778;stroke-miterlimit:10;stroke-width:0.5px"/><path d="M183.39,54.69v1.9c0,.07.14.12.3.12s.3-.06.3-.12V54.36c0-.07-.14-.12-.3-.12s-.3.06-.3.12Z" style="fill:#f3f3f3;stroke:#7d7778;stroke-miterlimit:10;stroke-width:0.5px"/><path d="M179,51.68v1.9c0,.07.14.12.3.12s.3-.06.3-.12V51.36c0-.07-.14-.12-.3-.12s-.3.06-.3.12Z" style="fill:#f3f3f3;stroke:#7d7778;stroke-miterlimit:10;stroke-width:0.5px"/><polygon points="192.84 41.14 179.02 51.38 192.7 61.49 206.45 51.24 192.84 41.14" style="fill:#f3f3f3;stroke:#7d7778;stroke-miterlimit:10;stroke-width:0.5px"/><path d="M205.81,49.31v1.9c0,.07.14.12.3.12s.3-.06.3-.12V49c0-.07-.14-.12-.3-.12s-.3.06-.3.12Z" style="fill:#f3f3f3;stroke:#7d7778;stroke-miterlimit:10;stroke-width:0.5px"/><ellipse cx="206.12" cy="48.97" rx="0.3" ry="0.12" style="fill:#f3f3f3;stroke:#7d7778;stroke-miterlimit:10;stroke-width:0.5px"/><path d="M187.51,55.81v1.9c0,.07.14.12.3.12s.3-.06.3-.12V55.48c0-.07-.14-.12-.3-.12s-.3.06-.3.12Z" style="fill:#f3f3f3;stroke:#7d7778;stroke-miterlimit:10;stroke-width:0.5px"/><ellipse cx="187.81" cy="55.47" rx="0.3" ry="0.12" style="fill:#f3f3f3;stroke:#7d7778;stroke-miterlimit:10;stroke-width:0.5px"/><path d="M192.43,59.34v1.9c0,.07.14.12.3.12s.3-.06.3-.12V59c0-.07-.14-.12-.3-.12s-.3.06-.3.12Z" style="fill:#f3f3f3;stroke:#7d7778;stroke-miterlimit:10;stroke-width:0.5px"/><path d="M197.28,55.81v1.9c0,.07.14.12.3.12s.3-.06.3-.12V55.48c0-.07-.14-.12-.3-.12s-.3.06-.3.12Z" style="fill:#f3f3f3;stroke:#7d7778;stroke-miterlimit:10;stroke-width:0.5px"/><path d="M201.54,52.52v1.9c0,.07.14.12.3.12s.3-.06.3-.12V52.19c0-.07-.14-.12-.3-.12s-.3.06-.3.12Z" style="fill:#f3f3f3;stroke:#7d7778;stroke-miterlimit:10;stroke-width:0.5px"/><path d="M183.39,52.52v1.9c0,.07.14.12.3.12s.3-.06.3-.12V52.19c0-.07-.14-.12-.3-.12s-.3.06-.3.12Z" style="fill:#f3f3f3;stroke:#7d7778;stroke-miterlimit:10;stroke-width:0.5px"/><path d="M179,49.45v1.9c0,.07.14.12.3.12s.3-.06.3-.12V49.13c0-.07-.14-.12-.3-.12s-.3.06-.3.12Z" style="fill:#f3f3f3;stroke:#7d7778;stroke-miterlimit:10;stroke-width:0.5px"/><polygon points="192.85 38.9 179.03 49.14 192.71 59.26 206.46 49.01 192.85 38.9" style="fill:#f3f3f3;stroke:#7d7778;stroke-miterlimit:10;stroke-width:0.5px"/><path d="M205.81,47.06V49c0,.07.14.12.3.12s.3-.06.3-.12V46.74c0-.07-.14-.12-.3-.12s-.3.06-.3.12Z" style="fill:#f3f3f3;stroke:#7d7778;stroke-miterlimit:10;stroke-width:0.5px"/><ellipse cx="206.12" cy="46.73" rx="0.3" ry="0.12" style="fill:#f3f3f3;stroke:#7d7778;stroke-miterlimit:10;stroke-width:0.5px"/><path d="M187.51,53.55v1.9c0,.07.14.12.3.12s.3-.06.3-.12V53.22c0-.07-.14-.12-.3-.12s-.3.06-.3.12Z" style="fill:#f3f3f3;stroke:#7d7778;stroke-miterlimit:10;stroke-width:0.5px"/><ellipse cx="187.81" cy="53.21" rx="0.3" ry="0.12" style="fill:#f3f3f3;stroke:#7d7778;stroke-miterlimit:10;stroke-width:0.5px"/><path d="M192.43,57.12V59c0,.07.14.12.3.12s.3-.06.3-.12V56.79c0-.07-.14-.12-.3-.12s-.3.06-.3.12Z" style="fill:#f3f3f3;stroke:#7d7778;stroke-miterlimit:10;stroke-width:0.5px"/><path d="M197.28,53.55v1.9c0,.07.14.12.3.12s.3-.06.3-.12V53.22c0-.07-.14-.12-.3-.12s-.3.06-.3.12Z" style="fill:#f3f3f3;stroke:#7d7778;stroke-miterlimit:10;stroke-width:0.5px"/><path d="M201.54,50.26v1.9c0,.07.14.12.3.12s.3-.06.3-.12V49.93c0-.07-.14-.12-.3-.12s-.3.06-.3.12Z" style="fill:#f3f3f3;stroke:#7d7778;stroke-miterlimit:10;stroke-width:0.5px"/><path d="M183.39,50.26v1.9c0,.07.14.12.3.12s.3-.06.3-.12V49.93c0-.07-.14-.12-.3-.12s-.3.06-.3.12Z" style="fill:#f3f3f3;stroke:#7d7778;stroke-miterlimit:10;stroke-width:0.5px"/><path d="M179,47.23v1.9c0,.07.14.12.3.12s.3-.06.3-.12V46.9c0-.07-.14-.12-.3-.12s-.3.06-.3.12Z" style="fill:#f3f3f3;stroke:#7d7778;stroke-miterlimit:10;stroke-width:0.5px"/><polygon points="192.82 36.67 179.01 46.91 192.69 57.02 206.44 46.78 192.82 36.67" style="fill:#f3f3f3;stroke:#7d7778;stroke-miterlimit:10;stroke-width:0.5px"/><path d="M205.81,44.87v1.9c0,.07.14.12.3.12s.3-.06.3-.12V44.54c0-.07-.14-.12-.3-.12s-.3.06-.3.12Z" style="fill:#f3f3f3;stroke:#7d7778;stroke-miterlimit:10;stroke-width:0.5px"/><ellipse cx="206.11" cy="44.53" rx="0.3" ry="0.12" style="fill:#f3f3f3;stroke:#7d7778;stroke-miterlimit:10;stroke-width:0.5px"/><path d="M187.51,51.28v1.9c0,.07.14.12.3.12s.3-.06.3-.12V51c0-.07-.14-.12-.3-.12s-.3.06-.3.12Z" style="fill:#f3f3f3;stroke:#7d7778;stroke-miterlimit:10;stroke-width:0.5px"/><ellipse cx="187.81" cy="50.95" rx="0.3" ry="0.12" style="fill:#f3f3f3;stroke:#7d7778;stroke-miterlimit:10;stroke-width:0.5px"/><path d="M192.42,54.88v1.9c0,.07.14.12.3.12s.3-.06.3-.12V54.55c0-.07-.14-.12-.3-.12s-.3.06-.3.12Z" style="fill:#f3f3f3;stroke:#7d7778;stroke-miterlimit:10;stroke-width:0.5px"/><path d="M197.28,51.28v1.9c0,.07.14.12.3.12s.3-.06.3-.12V51c0-.07-.14-.12-.3-.12s-.3.06-.3.12Z" style="fill:#f3f3f3;stroke:#7d7778;stroke-miterlimit:10;stroke-width:0.5px"/><path d="M201.54,48v1.9c0,.07.14.12.3.12s.3-.06.3-.12V47.67c0-.07-.14-.12-.3-.12s-.3.06-.3.12Z" style="fill:#f3f3f3;stroke:#7d7778;stroke-miterlimit:10;stroke-width:0.5px"/><path d="M183.39,48v1.9c0,.07.14.12.3.12s.3-.06.3-.12V47.67c0-.07-.14-.12-.3-.12s-.3.06-.3.12Z" style="fill:#f3f3f3;stroke:#7d7778;stroke-miterlimit:10;stroke-width:0.5px"/><path d="M179,45v1.9c0,.07.14.12.3.12s.3-.06.3-.12V44.69c0-.07-.14-.12-.3-.12s-.3.06-.3.12Z" style="fill:#f3f3f3;stroke:#7d7778;stroke-miterlimit:10;stroke-width:0.5px"/><polygon points="192.84 34.44 179.02 44.67 192.7 54.79 206.45 44.54 192.84 34.44" style="fill:#f3f3f3;stroke:#7d7778;stroke-miterlimit:10;stroke-width:0.5px"/><path d="M205.81,42.63v1.9c0,.07.14.12.3.12s.3-.06.3-.12V42.3c0-.07-.14-.12-.3-.12s-.3.06-.3.12Z" style="fill:#f3f3f3;stroke:#7d7778;stroke-miterlimit:10;stroke-width:0.5px"/><ellipse cx="206.12" cy="42.29" rx="0.3" ry="0.12" style="fill:#f3f3f3;stroke:#7d7778;stroke-miterlimit:10;stroke-width:0.5px"/><path d="M187.51,49v1.9c0,.07.14.12.3.12s.3-.06.3-.12V48.69c0-.07-.14-.12-.3-.12s-.3.06-.3.12Z" style="fill:#f3f3f3;stroke:#7d7778;stroke-miterlimit:10;stroke-width:0.5px"/><ellipse cx="187.81" cy="48.68" rx="0.3" ry="0.12" style="fill:#f3f3f3;stroke:#7d7778;stroke-miterlimit:10;stroke-width:0.5px"/><path d="M192.43,52.68v1.9c0,.07.14.12.3.12s.3-.06.3-.12V52.35c0-.07-.14-.12-.3-.12s-.3.06-.3.12Z" style="fill:#f3f3f3;stroke:#7d7778;stroke-miterlimit:10;stroke-width:0.5px"/><path d="M197.28,49v1.9c0,.07.14.12.3.12s.3-.06.3-.12V48.69c0-.07-.14-.12-.3-.12s-.3.06-.3.12Z" style="fill:#f3f3f3;stroke:#7d7778;stroke-miterlimit:10;stroke-width:0.5px"/><path d="M201.54,45.73v1.9c0,.07.14.12.3.12s.3-.06.3-.12V45.41c0-.07-.14-.12-.3-.12s-.3.06-.3.12Z" style="fill:#f3f3f3;stroke:#7d7778;stroke-miterlimit:10;stroke-width:0.5px"/><path d="M183.39,45.73v1.9c0,.07.14.12.3.12s.3-.06.3-.12V45.41c0-.07-.14-.12-.3-.12s-.3.06-.3.12Z" style="fill:#f3f3f3;stroke:#7d7778;stroke-miterlimit:10;stroke-width:0.5px"/><path d="M179,42.76v1.9c0,.07.14.12.3.12s.3-.06.3-.12V42.43c0-.07-.14-.12-.3-.12s-.3.06-.3.12Z" style="fill:#f3f3f3;stroke:#7d7778;stroke-miterlimit:10;stroke-width:0.5px"/><polygon points="192.85 32.2 179.03 42.44 192.71 52.55 206.46 42.31 192.85 32.2" style="fill:#f3f3f3;stroke:#7d7778;stroke-miterlimit:10;stroke-width:0.5px"/><path d="M192.46,42.72v1.9c0,.07.14.12.3.12s.3-.06.3-.12V42.39c0-.07-.14-.12-.3-.12s-.3.06-.3.12Z" style="fill:#f3f3f3;stroke:#7d7778;stroke-miterlimit:10;stroke-width:0.5px"/><ellipse cx="192.76" cy="42.38" rx="0.3" ry="0.12" style="fill:#f3f3f3;stroke:#7d7778;stroke-miterlimit:10;stroke-width:0.5px"/><path d="M187.51,46.73v1.9c0,.07.14.12.3.12s.3-.06.3-.12V46.41c0-.07-.14-.12-.3-.12s-.3.06-.3.12Z" style="fill:#f3f3f3;stroke:#7d7778;stroke-miterlimit:10;stroke-width:0.5px"/><ellipse cx="187.81" cy="45.91" rx="0.3" ry="0.12" style="fill:#f3f3f3;stroke:#7d7778;stroke-miterlimit:10;stroke-width:0.5px"/><path d="M197.28,46.74v1.9c0,.07.14.12.3.12s.3-.06.3-.12V46.41c0-.07-.14-.12-.3-.12s-.3.06-.3.12Z" style="fill:#f3f3f3;stroke:#7d7778;stroke-miterlimit:10;stroke-width:0.5px"/><path d="M201.54,43.45v1.9c0,.07.14.12.3.12s.3-.06.3-.12V43.13c0-.07-.14-.12-.3-.12s-.3.06-.3.12Z" style="fill:#f3f3f3;stroke:#7d7778;stroke-miterlimit:10;stroke-width:0.5px"/><path d="M183.39,43.45v1.9c0,.07.14.12.3.12s.3-.06.3-.12V43.13c0-.07-.14-.12-.3-.12s-.3.06-.3.12Z" style="fill:#f3f3f3;stroke:#7d7778;stroke-miterlimit:10;stroke-width:0.5px"/><ellipse cx="198.23" cy="45.91" rx="0.3" ry="0.12" style="fill:#f3f3f3;stroke:#7d7778;stroke-miterlimit:10;stroke-width:0.5px"/><polygon points="187.93 46.7 192.75 43.13 197.46 46.68 198.53 45.58 197.95 44.38 192.75 41.83 190.03 42.98 187.33 46.21 187.56 46.8 187.93 46.7" style="fill:#f3f3f3;stroke:#7d7778;stroke-miterlimit:10;stroke-width:0.5px"/><path d="M205.8,40.35v1.9c0,.07.14.12.3.12s.3-.06.3-.12V40c0-.07-.14-.12-.3-.12s-.3.06-.3.12Z" style="fill:#f3f3f3;stroke:#7d7778;stroke-miterlimit:10;stroke-width:0.5px"/><path d="M179,40.49v1.9c0,.07.14.12.3.12s.3-.06.3-.12V40.16c0-.07-.14-.12-.3-.12s-.3.06-.3.12Z" style="fill:#f3f3f3;stroke:#7d7778;stroke-miterlimit:10;stroke-width:0.5px"/><ellipse cx="206.1" cy="40.02" rx="0.3" ry="0.12" style="fill:#f3f3f3;stroke:#7d7778;stroke-miterlimit:10;stroke-width:0.5px"/><path d="M192.41,50.36v1.9c0,.07.14.12.3.12s.3-.06.3-.12V50c0-.07-.14-.12-.3-.12s-.3.06-.3.12Z" style="fill:#f3f3f3;stroke:#7d7778;stroke-miterlimit:10;stroke-width:0.5px"/><path d="M192.71,49.42l-5-3.72,5.08-3.76,5,3.72Z" style="fill:#f3f3f3;stroke:#7d7778;stroke-miterlimit:10;stroke-width:0.5px"/><path d="M192.85,29.69,179,39.93,192.71,50l13.75-10.25Zm-.14,19.63-4.58-3.39,4.63-3.43,4.56,3.39Z" style="fill:#f3f3f3;stroke:#7d7778;stroke-miterlimit:10;stroke-width:0.5px"/><line x1="192.71" y1="50.04" x2="192.71" y2="50.62" style="fill:#f3f3f3;stroke:#7d7778;stroke-miterlimit:10;stroke-width:0.5px"/><line x1="192.71" y1="52.55" x2="192.71" y2="53.14" style="fill:#f3f3f3;stroke:#7d7778;stroke-miterlimit:10;stroke-width:0.5px"/><line x1="192.71" y1="54.79" x2="192.71" y2="55.37" style="fill:#f3f3f3;stroke:#7d7778;stroke-miterlimit:10;stroke-width:0.5px"/><line x1="192.71" y1="57.02" x2="192.71" y2="57.61" style="fill:#f3f3f3;stroke:#7d7778;stroke-miterlimit:10;stroke-width:0.5px"/><line x1="192.71" y1="59.25" x2="192.71" y2="59.84" style="fill:#f3f3f3;stroke:#7d7778;stroke-miterlimit:10;stroke-width:0.5px"/><line x1="192.71" y1="61.49" x2="192.71" y2="62.08" style="fill:#f3f3f3;stroke:#7d7778;stroke-miterlimit:10;stroke-width:0.5px"/><line x1="192.71" y1="63.72" x2="192.71" y2="64.31" style="fill:#f3f3f3;stroke:#7d7778;stroke-miterlimit:10;stroke-width:0.5px"/><line x1="192.71" y1="65.96" x2="192.71" y2="66.54" style="fill:#f3f3f3;stroke:#7d7778;stroke-miterlimit:10;stroke-width:0.5px"/><polyline points="202.14 39.49 202.14 42.29 201.06 43.09 199.99 42.3 199.99 39.49" style="fill:#f3f3f3;stroke:#7d7778;stroke-miterlimit:10;stroke-width:0.5px"/><polygon points="201.07 38.69 199.99 39.49 201.06 40.29 202.14 39.48 201.07 38.69" style="fill:#f3f3f3;stroke:#7d7778;stroke-miterlimit:10;stroke-width:0.5px"/><line x1="201.06" y1="40.29" x2="201.06" y2="43.06" style="fill:#f3f3f3;stroke:#7d7778;stroke-miterlimit:10;stroke-width:0.5px"/></g></svg>