<?xml version="1.0" encoding="utf-8"?>
<!-- Generator: Adobe Illustrator 21.0.0, SVG Export Plug-In . SVG Version: 6.00 Build 0)  -->
<svg version="1.1" id="Layer_1" xmlns="http://www.w3.org/2000/svg" xmlns:xlink="http://www.w3.org/1999/xlink" x="0px" y="0px"
	 viewBox="0 0 261.4 220.7" style="enable-background:new 0 0 261.4 220.7;" xml:space="preserve">
<style type="text/css">
	.st0{enable-background:new    ;}
	.st1{fill:#4FCFBB;}
	.st2{fill:#F3F3F3;stroke:#7D7778;stroke-width:0.5;stroke-miterlimit:10;}
	.st3{fill:none;stroke:#7D7778;stroke-width:0.5;stroke-miterlimit:10;}
	.st4{fill:none;stroke:#7D7778;stroke-width:0.5;stroke-linecap:round;stroke-linejoin:round;}
</style>
<title>Asset 4</title>
<g class="st0">
	<path class="st1" d="M84.4,128.6c0,7.3-0.8,13.7-2.4,19.2c-2.4,7.9-6.4,13.8-12.1,17.8c-5.7,4-12.9,6-21.7,6
		c-8.9,0-16.4-2.4-22.5-7.2c-6.1-4.8-10.1-11.2-12.1-19.2c-1.1-3.9-1.6-8.7-1.6-14.4c0-1.1,0.5-1.6,1.6-1.6h2.8
		c1.1,0,1.6,0.5,1.6,1.6c0,4.3,0.3,8.2,1,11.8c1.3,7.1,4.6,12.7,9.8,17c5.2,4.3,11.7,6.4,19.4,6.4c7.1,0,13-1.6,17.7-4.9
		c4.7-3.3,8.1-8.1,10.1-14.5c1.6-5.1,2.4-11.1,2.4-18c0-8.9-1.2-16.3-3.6-22C70.3,95,61.4,89.2,48.2,89.2c-2.1,0-4,0.2-5.6,0.6
		c-0.9,0.3-1.6,0.1-2-0.6l-1.2-1.6c-0.7-0.7-0.7-1.4-0.2-2.2l37.2-49c0.1-0.1,0.1-0.3,0-0.5c-0.1-0.2-0.3-0.3-0.4-0.3H13.8
		c-1.1,0-1.6-0.5-1.6-1.6v-2.4c0-1.1,0.5-1.6,1.6-1.6h68.8c1.1,0,1.6,0.5,1.6,1.6v2.8c0,0.7-0.2,1.3-0.6,2L48.4,83.8
		c-0.3,0.5-0.1,0.8,0.4,0.8c15.7,0,26.3,6.6,31.6,19.8C83.1,110.9,84.4,119,84.4,128.6z"/>
</g>
<path d="M8.3,219.9l13.2-49.2c0.1-0.4,0.5-0.6,0.8-0.6h182.1c0.5,0,0.7,0.3,0.6,0.8l-13.2,49.2c-0.1,0.4-0.5,0.6-0.8,0.6H8.9
	C8.3,220.7,8.1,220.4,8.3,219.9z"/>
<polygon class="st2" points="60.4,178.1 113,216.9 165.8,177.6 165.8,114.3 113.6,75.5 60.5,114.8 "/>
<polyline class="st2" points="165.8,176.8 113,138 60.5,177.3 "/>
<line class="st3" x1="113" y1="154" x2="165.8" y2="114.6"/>
<line class="st3" x1="60.4" y1="115.1" x2="113" y2="154"/>
<line class="st3" x1="113" y1="154" x2="113" y2="216.9"/>
<ellipse class="st2" cx="112.2" cy="115.1" rx="27.8" ry="13.5"/>
<ellipse class="st2" cx="112.2" cy="115.2" rx="18.8" ry="8"/>
<path class="st2" d="M100.3,81.4c0,0,3.8,3.3,12.1,3.3c8.6,0,11.9-3.3,11.9-3.3c2.7-2.8,5.4-8.8,5.4-8.8c1.7,0.4,3.5,0.5,5.3,0.2
	c5.8-1.3,7.3-8.6,7.3-8.6c1.4-7.1,1.4-18.7-10.6-18.9c0.4,0.5,0.7,1,0.9,1.6c-1.7-4.6-10.1-8.1-20.1-8.1c-11.3,0-20.4,4.4-20.4,9.9
	C92,48.7,90.2,70.9,100.3,81.4z M132.8,48c0,0.1,0.1,0.3,0.1,0.4l0,0C132.8,48.3,132.8,48.2,132.8,48z M131.2,67
	c1.3-6,1.9-12.2,1.6-18.3c0.1,0.9,0.1,1.9,0.1,2.8c0,0,4.6,0.6,4.6,6.8c0,5.8-1.2,6.8-2.9,8C133.6,66.9,132.4,67.1,131.2,67
	L131.2,67z"/>
<path class="st2" d="M132.9,48.5c0,0,1.4,22.4-8.6,33c0,0-3.3,3.3-11.9,3.3c-8.2,0-12.1-3.3-12.1-3.3C90.2,70.9,92,48.7,92,48.7"/>
<ellipse class="st2" cx="112.4" cy="48.7" rx="20.4" ry="9.9"/>
<path class="st2" d="M112.4,58.6c7.5,0,16.2-2.6,18.3-5.7c-2.1-3.1-10.9-5.3-18.4-5.3S96.1,49.8,94,52.9
	C96.1,56,104.9,58.6,112.4,58.6z"/>
<path class="st2" d="M131.6,45.3c12,0.2,12,11.9,10.6,18.9c0,0-1.5,7.3-7.3,8.6c-4,0.9-5.4-0.2-5.4-0.2c0.7-1.8,1.2-3.7,1.7-5.6
	c1.2,0.1,2.3-0.2,3.4-0.8c1.8-1.2,2.9-2.2,2.9-8c0-6.2-4.6-6.8-4.6-6.8C133.3,46.9,131.6,45.3,131.6,45.3z"/>
<path class="st2" d="M163.6,46c-1.4-1.7-4.5-7.7-6-11.3c-1.3-3-3-6.2-0.4-8.5c2.9-2.6,5.9-0.4,8.3,3.5c1.9,3.2,3.2,5.2,4.6,8v-0.2
	c-1.9-6.9,0.4-9,2.9-9.7c3.8-1,5.7,5.8,5.7,5.8l5.7,21.8c1.2,4.8,1.1,10.8-2.4,19.6c-2.1,5.3-2.3,7.3-4.7,10.9
	c-7.1,10.7-17.1,10.6-20.9,9.4s-6.8-2.3-6.8-2.3c-2.7-1.1-5.3-2.5-7.8-3.9c-4.1-2.8-6.6-9-8.2-12.3c-0.9-1.9-3-8.6,1.9-10
	c4.4-1.3,5.7,3.6,6.5,5.6c1.5,3.7,3.8,5.5,8.9,5.2s11.8-7.5,9.9-18.4c-1.8-10.3-10.4-6.6-12.1-5.9s-5.5,3.9-5.5,3.9
	c0.1-2.6-2.6-8.4-2.6-8.1c1.4-1.4,3-2.6,4.8-3.5c1.6-0.8,11.3-6,18.6,0.6"/>
<path class="st2" d="M170.2,64.7c0.8-6.2-1.1-12.5-5.3-17.3c-7.1-8.4-18.2-2.7-19.8-1.8c-1.8,0.9-3.4,2.1-4.8,3.5
	c1.5,2.5,2.4,5.2,2.7,8.1c1.7-1.5,3.5-2.8,5.5-3.9c1.6-0.8,10.3-4.4,12.1,5.9c1.9,10.9-4.9,18.1-9.9,18.4s-7.4-1.5-8.9-5.2
	c-0.8-2-2.1-6.9-6.5-5.6c-4.9,1.4-2.9,8.1-1.9,10c1.6,3.3,4.1,9.5,8.2,12.3c2.5,1.5,5.1,2.8,7.8,3.9c0,0,3.1,1.2,6.8,2.3
	c7,2.1,16.6-1.6,20.9-9.4c2.1-3.8,2.6-5.7,4.7-10.9c3.5-8.8,3.6-14.8,2.4-19.6l-5.7-21.8c0,0-1.8-6.9-5.7-5.8
	c-2.5,0.7-4.8,2.8-2.9,9.7"/>
<path class="st2" d="M177.2,58.8c-0.8-5.8-2.4-10-4.6-15.5c-2.6-6.5-4.1-8.5-7-13.5c-2.4-3.9-5.5-6.1-8.3-3.5
	c-2.6,2.3-0.9,5.5,0.4,8.5c1.5,3.5,4.6,9.5,6,11.3"/>
<path class="st4" d="M241.9,107.6l19,15.5l-19,15.5"/>
<line class="st4" x1="261.2" y1="123.1" x2="172.8" y2="123.1"/>
</svg>
