<svg xmlns="http://www.w3.org/2000/svg" viewBox="0 0 261.42 220.71"><title>Asset 4</title><text transform="translate(0 170)" style="font-size:200px;fill:#4fcfbb;font-family:Barlow-Thin, Barlow">3</text><path d="M8.26,219.91l13.21-49.18a.8.8,0,0,1,.84-.58H204.44c.53,0,.73.26.61.79l-13.21,49.18a.8.8,0,0,1-.84.58H8.87Q8.08,220.71,8.26,219.91Z"/><polygon points="60.42 178.06 112.97 216.91 165.81 177.55 165.81 114.33 113.55 75.5 60.47 114.84 60.42 178.06" style="fill:#f3f3f3;stroke:#7d7778;stroke-miterlimit:10;stroke-width:0.5px"/><polyline points="165.81 176.81 112.97 137.98 60.47 177.32" style="fill:#f3f3f3;stroke:#7d7778;stroke-miterlimit:10;stroke-width:0.5px"/><line x1="112.97" y1="153.96" x2="165.8" y2="114.59" style="fill:#f3f3f3;stroke:#7d7778;stroke-miterlimit:10;stroke-width:0.5px"/><line x1="60.42" y1="115.1" x2="112.97" y2="153.96" style="fill:#f3f3f3;stroke:#7d7778;stroke-miterlimit:10;stroke-width:0.5px"/><line x1="112.97" y1="153.96" x2="112.97" y2="216.91" style="fill:#f3f3f3;stroke:#7d7778;stroke-miterlimit:10;stroke-width:0.5px"/><ellipse cx="112.2" cy="115.1" rx="27.83" ry="13.46" style="fill:#f3f3f3;stroke:#7d7778;stroke-miterlimit:10;stroke-width:0.5px"/><ellipse cx="112.24" cy="115.22" rx="18.77" ry="8" style="fill:#f3f3f3;stroke:#7d7778;stroke-miterlimit:10;stroke-width:0.5px"/><path d="M100.27,81.43s3.84,3.32,12.08,3.32c8.56,0,11.88-3.32,11.88-3.32,2.65-2.78,5.41-8.78,5.41-8.78a12.55,12.55,0,0,0,5.26.15c5.81-1.35,7.31-8.56,7.31-8.56,1.44-7.06,1.44-18.71-10.6-18.94a4.29,4.29,0,0,1,.87,1.62c-1.74-4.59-10.05-8.07-20.05-8.07C101.17,38.85,92,43.26,92,48.71,92,48.71,90.24,70.88,100.27,81.43ZM132.77,48c0,.14.05.28.07.44h0C132.8,48.3,132.79,48.16,132.77,48Zm-1.54,19a72,72,0,0,0,1.65-18.33,14.2,14.2,0,0,1,.06,2.85s4.64.57,4.6,6.76c0,5.75-1.18,6.79-2.94,8A5.73,5.73,0,0,1,131.22,67Z" style="fill:#f3f3f3;stroke:#7d7778;stroke-miterlimit:10;stroke-width:0.5px"/><path d="M132.86,48.45s1.4,22.44-8.63,33c0,0-3.32,3.32-11.88,3.32-8.24,0-12.08-3.32-12.08-3.32C90.24,70.88,92,48.71,92,48.71" style="fill:#f3f3f3;stroke:#7d7778;stroke-miterlimit:10;stroke-width:0.5px"/><ellipse cx="112.43" cy="48.71" rx="20.39" ry="9.87" style="fill:#f3f3f3;stroke:#7d7778;stroke-miterlimit:10;stroke-width:0.5px"/><path d="M112.43,58.58c7.5,0,16.23-2.63,18.34-5.72-2.11-3.09-10.92-5.34-18.42-5.34S96.14,49.76,94,52.85C96.14,55.95,104.93,58.58,112.43,58.58Z" style="fill:#f3f3f3;stroke:#7d7778;stroke-miterlimit:10;stroke-width:0.5px"/><path d="M131.61,45.3c12,.24,12,11.88,10.6,18.94,0,0-1.49,7.3-7.31,8.56-4,.87-5.39-.16-5.39-.16A53.51,53.51,0,0,0,131.22,67a5.52,5.52,0,0,0,3.36-.76c1.76-1.18,2.9-2.22,2.94-8,0-6.19-4.6-6.76-4.6-6.76C133.26,46.9,131.61,45.3,131.61,45.3Z" style="fill:#f3f3f3;stroke:#7d7778;stroke-miterlimit:10;stroke-width:0.5px"/><path d="M163.61,46c-1.36-1.71-4.51-7.71-6-11.26-1.26-3-3-6.19-.4-8.52,2.86-2.6,5.95-.4,8.32,3.55,1.93,3.21,3.2,5.19,4.58,8v-.21c-1.89-6.92.39-9,2.87-9.69,3.84-1.05,5.69,5.83,5.69,5.83l5.71,21.78c1.2,4.85,1.09,10.8-2.44,19.64-2.1,5.27-2.32,7.28-4.73,10.92-7.06,10.69-17.1,10.56-20.92,9.43s-6.84-2.35-6.84-2.35a68.29,68.29,0,0,1-7.79-3.94c-4.05-2.78-6.62-9-8.19-12.27-.9-1.89-3-8.6,1.94-10,4.39-1.27,5.66,3.62,6.46,5.61,1.47,3.65,3.83,5.48,8.85,5.17s11.82-7.53,9.89-18.41c-1.82-10.27-10.43-6.6-12.12-5.91S143,57.22,143,57.22c.13-2.59-2.57-8.36-2.61-8.13a16.86,16.86,0,0,1,4.8-3.51c1.55-.77,11.32-6,18.6.59" style="fill:#f3f3f3;stroke:#7d7778;stroke-miterlimit:10;stroke-width:0.5px"/><path d="M170.21,64.69a21.87,21.87,0,0,0-5.27-17.27c-7.09-8.44-18.19-2.73-19.79-1.83a20.86,20.86,0,0,0-4.8,3.51A18.4,18.4,0,0,1,143,57.22a28.12,28.12,0,0,1,5.52-3.88c1.65-.79,10.3-4.37,12.12,5.91,1.93,10.88-4.87,18.1-9.89,18.41s-7.38-1.52-8.85-5.17c-.8-2-2.07-6.88-6.46-5.61-4.92,1.42-2.85,8.13-1.94,10,1.57,3.29,4.14,9.49,8.19,12.27a68.29,68.29,0,0,0,7.79,3.94s3.12,1.22,6.84,2.35c7,2.12,16.62-1.58,20.92-9.43,2.1-3.83,2.62-5.66,4.73-10.92,3.53-8.84,3.63-14.79,2.44-19.64l-5.71-21.78s-1.84-6.88-5.69-5.83c-2.48.68-4.76,2.78-2.87,9.69" style="fill:#f3f3f3;stroke:#7d7778;stroke-miterlimit:10;stroke-width:0.5px"/><path d="M177.2,58.8c-.76-5.76-2.4-10-4.63-15.5-2.65-6.51-4.07-8.54-7-13.5-2.37-3.94-5.46-6.14-8.32-3.55-2.56,2.33-.86,5.54.4,8.52,1.5,3.55,4.64,9.55,6,11.26" style="fill:#f3f3f3;stroke:#7d7778;stroke-miterlimit:10;stroke-width:0.5px"/><path d="M241.92,107.59l19,15.52-19,15.52" style="fill:none;stroke:#7d7778;stroke-linecap:round;stroke-linejoin:round;stroke-width:0.5px"/><line x1="261.17" y1="123.11" x2="172.8" y2="123.11" style="fill:none;stroke:#7d7778;stroke-linecap:round;stroke-linejoin:round;stroke-width:0.5px"/></svg>