<svg xmlns="http://www.w3.org/2000/svg" viewBox="0 0 262.05 220.71"><title>Asset 3</title><text transform="translate(0 170)" style="font-size:200px;fill:#4fcfbb;font-family:Barlow-Thin, Barlow">2</text><path d="M5.76,219.91,19,170.74c.13-.38.41-.58,6.84-.58H207.94c-5.47,0-5.27.26-5.39.79l-13.21,49.18a.8.8,0,0,1-.84.58H6.38Q5.58,220.71,5.76,219.91Z"/><path d="M138.6,29.93H108.88a6.44,6.44,0,0,0-6.44,6.44v11.1l-7.2,7h7.2V63a6.44,6.44,0,0,0,6.44,6.44H138.6A6.44,6.44,0,0,0,145,63V36.38A6.44,6.44,0,0,0,138.6,29.93Z" style="fill:#f3f3f3;stroke:#7d7778;stroke-linecap:round;stroke-linejoin:round;stroke-width:0.5px"/><line x1="110.24" y1="44.5" x2="136.32" y2="44.5" style="fill:#f3f3f3;stroke:#7d7778;stroke-linecap:round;stroke-linejoin:round;stroke-width:0.5px"/><line x1="110.24" y1="49.71" x2="136.32" y2="49.71" style="fill:#f3f3f3;stroke:#7d7778;stroke-linecap:round;stroke-linejoin:round;stroke-width:0.5px"/><line x1="110.24" y1="54.92" x2="136.32" y2="54.92" style="fill:#f3f3f3;stroke:#7d7778;stroke-linecap:round;stroke-linejoin:round;stroke-width:0.5px"/><path d="M90.24,93.72h88.32a9,9,0,0,1,8.95,8.95v73l10,9.66h-10v3.29a9,9,0,0,1-8.95,8.95H90.24a9,9,0,0,1-8.95-8.95v-85.9A9,9,0,0,1,90.24,93.72Z" style="fill:#f3f3f3;stroke:#7d7778;stroke-linecap:round;stroke-linejoin:round;stroke-width:0.5px"/><path d="M242.75,107.59l19,15.52-19,15.52" style="fill:none;stroke:#7d7778;stroke-linecap:round;stroke-linejoin:round;stroke-width:0.5px"/><line x1="261.79" y1="123.11" x2="187.51" y2="123.11" style="fill:none;stroke:#7d7778;stroke-linecap:round;stroke-linejoin:round;stroke-width:0.5px"/><ellipse cx="171.46" cy="109.64" rx="0.85" ry="0.34" style="fill:#f3f3f3;stroke:#7d7778;stroke-linecap:round;stroke-linejoin:round;stroke-width:0.5px"/><ellipse cx="120.14" cy="127.56" rx="0.85" ry="0.34" style="fill:#f3f3f3;stroke:#7d7778;stroke-linecap:round;stroke-linejoin:round;stroke-width:0.5px"/><path d="M158.62,119.29v5.34c0,.19.38.35.85.35s.85-.16.85-.35v-6.25c0-.19-.38-.35-.85-.35s-.85.16-.85.35Z" style="fill:#f3f3f3;stroke:#7d7778;stroke-linecap:round;stroke-linejoin:round;stroke-width:0.5px"/><polyline points="172.36 109.69 172.36 111.33 133.8 140.06 95.44 111.7 95.44 110.06" style="fill:#f3f3f3;stroke:#7d7778;stroke-linecap:round;stroke-linejoin:round;stroke-width:0.5px"/><line x1="142.19" y1="123.4" x2="134.01" y2="117.38" style="fill:#f3f3f3;stroke:#7d7778;stroke-linecap:round;stroke-linejoin:round;stroke-width:0.5px"/><line x1="125.83" y1="123.4" x2="134.01" y2="117.38" style="fill:#f3f3f3;stroke:#7d7778;stroke-linecap:round;stroke-linejoin:round;stroke-width:0.5px"/><ellipse cx="134.01" cy="109.9" rx="0.85" ry="0.34" style="fill:#f3f3f3;stroke:#7d7778;stroke-linecap:round;stroke-linejoin:round;stroke-width:0.5px"/><ellipse cx="120.14" cy="119.79" rx="0.85" ry="0.34" style="fill:#f3f3f3;stroke:#7d7778;stroke-linecap:round;stroke-linejoin:round;stroke-width:0.5px"/><path d="M146.69,122.12v5.34c0,.19.38.35.85.35s.85-.16.85-.35V121.2c0-.19-.38-.35-.85-.35s-.85.16-.85.35Z" style="fill:#f3f3f3;stroke:#7d7778;stroke-linecap:round;stroke-linejoin:round;stroke-width:0.5px"/><path d="M158.62,112.89v5.34c0,.19.38.35.85.35s.85-.16.85-.35V112c0-.19-.38-.35-.85-.35s-.85.16-.85.35Z" style="fill:#f3f3f3;stroke:#7d7778;stroke-linecap:round;stroke-linejoin:round;stroke-width:0.5px"/><ellipse cx="149.34" cy="119.79" rx="0.85" ry="0.34" style="fill:#f3f3f3;stroke:#7d7778;stroke-linecap:round;stroke-linejoin:round;stroke-width:0.5px"/><path d="M170.58,104.21v5.34c0,.19.38.35.85.35s.85-.16.85-.35v-6.25c0-.19-.38-.35-.85-.35s-.85.16-.85.35Z" style="fill:#f3f3f3;stroke:#7d7778;stroke-linecap:round;stroke-linejoin:round;stroke-width:0.5px"/><ellipse cx="171.43" cy="103.26" rx="0.85" ry="0.34" style="fill:#f3f3f3;stroke:#7d7778;stroke-linecap:round;stroke-linejoin:round;stroke-width:0.5px"/><path d="M133,132.28v5.34c0,.19.38.35.85.35s.85-.16.85-.35v-6.25c0-.19-.38-.35-.85-.35s-.85.16-.85.35Z" style="fill:#f3f3f3;stroke:#7d7778;stroke-linecap:round;stroke-linejoin:round;stroke-width:0.5px"/><path d="M95.44,103v1.64L133.8,133l38.56-28.73v-1.64Zm38.42,26.64-14.1-10.42L134,108.66l14,10.42Z" style="fill:#f3f3f3;stroke:#7d7778;stroke-linecap:round;stroke-linejoin:round;stroke-width:0.5px"/><path d="M134.26,74.29,95.51,103l38.36,28.36,38.56-28.73Zm-.39,55L121,119.84l13-9.62,12.79,9.5Z" style="fill:#f3f3f3;stroke:#7d7778;stroke-linecap:round;stroke-linejoin:round;stroke-width:0.5px"/><line x1="134.01" y1="110.22" x2="134.01" y2="117.31" style="fill:#f3f3f3;stroke:#7d7778;stroke-linecap:round;stroke-linejoin:round;stroke-width:0.5px"/><polyline points="158.45 101.78 158.45 109.64 155.43 111.89 152.43 109.67 152.43 101.78" style="fill:#f3f3f3;stroke:#7d7778;stroke-linecap:round;stroke-linejoin:round;stroke-width:0.5px"/><polygon points="155.47 99.55 152.43 101.8 155.44 104.02 158.46 101.77 155.47 99.55" style="fill:#f3f3f3;stroke:#7d7778;stroke-linecap:round;stroke-linejoin:round;stroke-width:0.5px"/><line x1="155.44" y1="104.02" x2="155.44" y2="111.8" style="fill:#f3f3f3;stroke:#7d7778;stroke-linecap:round;stroke-linejoin:round;stroke-width:0.5px"/><polyline points="131.25 99.97 129.78 99.57 117.67 82.83 118.98 83.09" style="fill:#f3f3f3;stroke:#7d7778;stroke-linecap:round;stroke-linejoin:round;stroke-width:0.5px"/><polyline points="128.88 75.9 127.46 75.63 117.67 82.83 118.98 83.09 128.88 75.9" style="fill:#f3f3f3;stroke:#7d7778;stroke-linecap:round;stroke-linejoin:round;stroke-width:0.5px"/><rect x="123.94" y="77.5" width="12.24" height="20.86" transform="translate(-26.84 93.32) rotate(-36.03)" style="fill:#f3f3f3;stroke:#7d7778;stroke-linecap:round;stroke-linejoin:round;stroke-width:0.5px"/><line x1="131.33" y1="79.27" x2="121.43" y2="86.47" style="fill:#f3f3f3;stroke:#7d7778;stroke-linecap:round;stroke-linejoin:round;stroke-width:0.5px"/><line x1="133.78" y1="82.64" x2="123.89" y2="89.84" style="fill:#f3f3f3;stroke:#7d7778;stroke-linecap:round;stroke-linejoin:round;stroke-width:0.5px"/><line x1="136.24" y1="86.02" x2="126.34" y2="93.22" style="fill:#f3f3f3;stroke:#7d7778;stroke-linecap:round;stroke-linejoin:round;stroke-width:0.5px"/><line x1="138.69" y1="89.39" x2="128.8" y2="96.59" style="fill:#f3f3f3;stroke:#7d7778;stroke-linecap:round;stroke-linejoin:round;stroke-width:0.5px"/><line x1="122.28" y1="80.8" x2="134.5" y2="97.6" style="fill:#f3f3f3;stroke:#7d7778;stroke-linecap:round;stroke-linejoin:round;stroke-width:0.5px"/><line x1="125.66" y1="78.34" x2="137.88" y2="95.14" style="fill:#f3f3f3;stroke:#7d7778;stroke-linecap:round;stroke-linejoin:round;stroke-width:0.5px"/><polyline points="120.16 108.32 118.69 107.92 106.59 91.18 107.89 91.45" style="fill:#f3f3f3;stroke:#7d7778;stroke-linecap:round;stroke-linejoin:round;stroke-width:0.5px"/><polyline points="117.79 84.25 116.38 83.98 106.59 91.18 107.89 91.45 117.79 84.25" style="fill:#f3f3f3;stroke:#7d7778;stroke-linecap:round;stroke-linejoin:round;stroke-width:0.5px"/><rect x="112.86" y="85.85" width="12.24" height="20.86" transform="translate(-33.88 88.4) rotate(-36.03)" style="fill:#f3f3f3;stroke:#7d7778;stroke-linecap:round;stroke-linejoin:round;stroke-width:0.5px"/><line x1="120.25" y1="87.62" x2="110.35" y2="94.82" style="fill:#f3f3f3;stroke:#7d7778;stroke-linecap:round;stroke-linejoin:round;stroke-width:0.5px"/><line x1="122.7" y1="91" x2="112.8" y2="98.2" style="fill:#f3f3f3;stroke:#7d7778;stroke-linecap:round;stroke-linejoin:round;stroke-width:0.5px"/><line x1="125.15" y1="94.37" x2="115.26" y2="101.57" style="fill:#f3f3f3;stroke:#7d7778;stroke-linecap:round;stroke-linejoin:round;stroke-width:0.5px"/><line x1="127.61" y1="97.75" x2="117.71" y2="104.95" style="fill:#f3f3f3;stroke:#7d7778;stroke-linecap:round;stroke-linejoin:round;stroke-width:0.5px"/><line x1="111.2" y1="89.15" x2="123.42" y2="105.95" style="fill:#f3f3f3;stroke:#7d7778;stroke-linecap:round;stroke-linejoin:round;stroke-width:0.5px"/><line x1="114.57" y1="86.69" x2="126.79" y2="103.5" style="fill:#f3f3f3;stroke:#7d7778;stroke-linecap:round;stroke-linejoin:round;stroke-width:0.5px"/><polygon points="95.51 102.83 133.87 131.18 133.86 188.19 95.44 159.89 95.51 102.83" style="fill:#f3f3f3;stroke:#7d7778;stroke-linecap:round;stroke-linejoin:round;stroke-width:0.5px"/><polygon points="172.22 102.83 133.86 131.18 133.86 188.19 172.29 159.89 172.22 102.83" style="fill:#f3f3f3;stroke:#7d7778;stroke-linecap:round;stroke-linejoin:round;stroke-width:0.5px"/><polygon points="122.14 124.31 132.27 131.93 132.27 148.82 122.12 141.21 122.14 124.31" style="fill:#f3f3f3;stroke:#7d7778;stroke-linecap:round;stroke-linejoin:round;stroke-width:0.5px"/><polygon points="109.36 114.76 120.29 122.96 120.29 139.85 109.34 131.67 109.36 114.76" style="fill:#f3f3f3;stroke:#7d7778;stroke-linecap:round;stroke-linejoin:round;stroke-width:0.5px"/><polygon points="97.05 105.56 107.51 113.42 107.51 130.31 97.03 122.47 97.05 105.56" style="fill:#f3f3f3;stroke:#7d7778;stroke-linecap:round;stroke-linejoin:round;stroke-width:0.5px"/><polygon points="122.14 143.99 132.27 151.61 132.27 168.5 122.12 160.89 122.14 143.99" style="fill:#f3f3f3;stroke:#7d7778;stroke-linecap:round;stroke-linejoin:round;stroke-width:0.5px"/><polygon points="109.36 134.44 120.29 142.64 120.29 159.53 109.34 151.34 109.36 134.44" style="fill:#f3f3f3;stroke:#7d7778;stroke-linecap:round;stroke-linejoin:round;stroke-width:0.5px"/><polygon points="97.05 125.24 107.51 133.09 107.51 149.98 97.03 142.14 97.05 125.24" style="fill:#f3f3f3;stroke:#7d7778;stroke-linecap:round;stroke-linejoin:round;stroke-width:0.5px"/><polygon points="122.14 163.66 132.27 171.29 132.27 187.13 122.12 179.52 122.14 163.66" style="fill:#f3f3f3;stroke:#7d7778;stroke-linecap:round;stroke-linejoin:round;stroke-width:0.5px"/><polygon points="109.36 154.12 120.29 162.32 120.29 178.16 109.34 169.97 109.36 154.12" style="fill:#f3f3f3;stroke:#7d7778;stroke-linecap:round;stroke-linejoin:round;stroke-width:0.5px"/><polygon points="97.05 144.91 107.51 152.77 107.51 168.61 97.03 160.77 97.05 144.91" style="fill:#f3f3f3;stroke:#7d7778;stroke-linecap:round;stroke-linejoin:round;stroke-width:0.5px"/><polygon points="145.75 124.31 135.66 131.93 135.66 148.82 145.77 141.21 145.75 124.31" style="fill:#f3f3f3;stroke:#7d7778;stroke-linecap:round;stroke-linejoin:round;stroke-width:0.5px"/><polygon points="158.53 114.76 147.61 122.96 147.61 139.85 158.55 131.67 158.53 114.76" style="fill:#f3f3f3;stroke:#7d7778;stroke-linecap:round;stroke-linejoin:round;stroke-width:0.5px"/><polygon points="170.61 105.76 160.38 113.42 160.38 130.31 170.63 122.67 170.61 105.76" style="fill:#f3f3f3;stroke:#7d7778;stroke-linecap:round;stroke-linejoin:round;stroke-width:0.5px"/><polygon points="145.75 143.99 135.66 151.61 135.66 168.5 145.77 160.89 145.75 143.99" style="fill:#f3f3f3;stroke:#7d7778;stroke-linecap:round;stroke-linejoin:round;stroke-width:0.5px"/><polygon points="158.53 134.44 147.61 142.64 147.61 159.53 158.55 151.34 158.53 134.44" style="fill:#f3f3f3;stroke:#7d7778;stroke-linecap:round;stroke-linejoin:round;stroke-width:0.5px"/><polygon points="170.61 125.44 160.38 133.09 160.38 149.98 170.63 142.34 170.61 125.44" style="fill:#f3f3f3;stroke:#7d7778;stroke-linecap:round;stroke-linejoin:round;stroke-width:0.5px"/><polygon points="145.75 163.66 135.66 171.29 135.66 187.13 145.77 179.52 145.75 163.66" style="fill:#f3f3f3;stroke:#7d7778;stroke-linecap:round;stroke-linejoin:round;stroke-width:0.5px"/><polygon points="158.53 154.12 147.61 162.32 147.61 178.16 158.55 169.97 158.53 154.12" style="fill:#f3f3f3;stroke:#7d7778;stroke-linecap:round;stroke-linejoin:round;stroke-width:0.5px"/><polygon points="170.61 145.12 160.38 152.77 160.38 168.61 170.63 160.97 170.61 145.12" style="fill:#f3f3f3;stroke:#7d7778;stroke-linecap:round;stroke-linejoin:round;stroke-width:0.5px"/></svg>