<?xml version="1.0" encoding="utf-8"?>
<!-- Generator: Adobe Illustrator 21.0.0, SVG Export Plug-In . SVG Version: 6.00 Build 0)  -->
<svg version="1.1" id="Layer_1" xmlns="http://www.w3.org/2000/svg" xmlns:xlink="http://www.w3.org/1999/xlink" x="0px" y="0px"
	 viewBox="0 0 264.4 220.7" style="enable-background:new 0 0 264.4 220.7;" xml:space="preserve">
<style type="text/css">
	.st0{enable-background:new    ;}
	.st1{fill:#4FCFBB;}
	.st2{fill:none;stroke:#7D7778;stroke-width:0.5;stroke-miterlimit:10;}
	.st3{fill:#F3F3F3;stroke:#7D7778;stroke-width:0.5;stroke-miterlimit:10;}
	.st4{clip-path:url(#SVGID_2_);}
	.st5{fill:none;stroke:#7D7778;stroke-width:0.5;stroke-linecap:round;stroke-linejoin:round;}
	.st6{clip-path:url(#SVGID_4_);}
</style>
<title>Asset 5</title>
<g class="st0">
	<path class="st1" d="M90.2,126v2.2c0,1.1-0.5,1.6-1.6,1.6h-9c-0.4,0-0.6,0.2-0.6,0.6v38c0,1.1-0.5,1.6-1.6,1.6h-2.8
		c-1.1,0-1.6-0.5-1.6-1.6v-38c0-0.4-0.2-0.6-0.6-0.6H13.2c-1.1,0-1.6-0.5-1.6-1.6v-2.6c0-0.5,0.1-1.2,0.4-2l44-92.4
		c0.4-0.8,1.1-1.2,2-1.2h2.6c0.5,0,0.9,0.2,1.2,0.5c0.3,0.3,0.3,0.8,0,1.3l-43.4,91.8c-0.1,0.1-0.1,0.3,0,0.5
		c0.1,0.2,0.3,0.3,0.4,0.3h53.6c0.4,0,0.6-0.2,0.6-0.6v-37c0-1.1,0.5-1.6,1.6-1.6h2.8c1.1,0,1.6,0.5,1.6,1.6v37
		c0,0.4,0.2,0.6,0.6,0.6h9C89.7,124.4,90.2,124.9,90.2,126z"/>
</g>
<path class="st2" d="M32.8,126.1c-2.4,15.3-0.9,45.7,24.4,62.2"/>
<path class="st2" d="M48,114.4c-11.6,30.1,2.3,64.1,31.8,77.3"/>
<path d="M11.4,219.9l13.2-49.2c0.1-0.4,0.5-0.6,0.8-0.6h182.1c0.5,0,0.7,0.3,0.6,0.8L195,220.1c-0.1,0.4-0.5,0.6-0.8,0.6H12.1
	C11.5,220.7,11.3,220.4,11.4,219.9z"/>
<path class="st2" d="M96.9,53.3h59.6"/>
<line class="st2" x1="155.8" y1="61.4" x2="136.4" y2="61.4"/>
<path class="st2" d="M208.5,183.2c28.9-25.2,31.8-69.1,6.6-98c-1-1.2-2.1-2.4-3.3-3.5"/>
<path class="st2" d="M187.9,205.2c32.2-8,43-26.7,48.9-40.8"/>
<path class="st3" d="M125.4,191c0.9-0.9,1.5-2.2,1.5-3.5v-8h31.5v8c0,1.3,0.6,2.6,1.5,3.5l8.3,7h-50.7L125.4,191z"/>
<path class="st3" d="M199.6,175.5c0,3.5-2.9,6.4-6.4,6.4c0,0,0,0,0,0H91.8c-3.5,0-6.4-2.9-6.4-6.4v-63.4c0-3.5,2.9-6.4,6.4-6.4
	h101.4c3.5,0,6.4,2.9,6.4,6.4V175.5z"/>
<path class="st3" d="M97.5,112.3H188c2.5,0,4.5,2,4.5,4.5v48.1c0,2.5-2,4.5-4.5,4.5H97.5c-2.5,0-4.5-2-4.5-4.5v-48.1
	C93,114.3,95,112.3,97.5,112.3z"/>
<rect x="117.6" y="198" class="st3" width="50.7" height="4.9"/>
<g>
	<defs>
		<path id="SVGID_1_" d="M192.5,164.9c0,2.5-2,4.5-4.5,4.5c0,0,0,0,0,0H97.5c-2.5,0-4.5-2-4.5-4.5c0,0,0,0,0,0v-48.1
			c0-2.5,2-4.5,4.5-57.7H188c2.5,53.1,4.5,55.2,4.5,57.7L192.5,164.9z"/>
	</defs>
	<clipPath id="SVGID_2_">
		<use xlink:href="#SVGID_1_"  style="overflow:visible;"/>
	</clipPath>
	<g class="st4">
		<path class="st3" d="M175.4,155.4v4.9c0,0.2,0.4,0.3,0.8,0.3s0.8-0.1,0.8-0.3v-9.9c0-0.2-0.4-0.3-0.8-0.3s-0.8,0.1-0.8,0.3V155.4z
			"/>
		<ellipse class="st3" cx="176.2" cy="150.4" rx="0.8" ry="0.3"/>
		<path class="st3" d="M128.2,165.8v11.1c0,0.2,0.4,0.3,0.8,0.3s0.8-0.1,0.8-0.3V165c0-0.2-0.4-0.3-0.8-0.3s-0.8,0.1-0.8,0.3V165.8z
			"/>
		<path class="st3" d="M153.4,165.8v11.1c0,0.2,0.4,0.3,0.8,0.3s0.8-0.1,0.8-0.3V165c0-0.2-0.4-0.3-0.8-0.3s-0.8,0.1-0.8,0.3V165.8z
			"/>
		<path class="st3" d="M164.4,157.5v11.1c0,0.2,0.4,0.3,0.8,0.3s0.8-0.1,0.8-0.3v-11.9c0-0.2-0.4-0.3-0.8-0.3s-0.8,0.1-0.8,0.3
			V157.5z"/>
		<path class="st3" d="M117.6,157.9V169c0,0.2,0.3,0.3,0.8,0.3s0.8-0.1,0.8-0.3v-11.9c0-0.2-0.3-0.3-0.8-0.3s-0.8,0.1-0.8,0.3V157.9
			z"/>
		<path class="st3" d="M106.3,155.8v4.9c0,0.2,0.3,0.3,0.8,0.3s0.8-0.1,0.8-0.3v-9.9c0-0.2-0.3-0.3-0.8-0.3s-0.8,0.1-0.8,0.3V155.8z
			"/>
		<path class="st3" d="M140.9,181.3v4.9c0,0.2,0.4,0.3,0.8,0.3s0.8-0.1,0.8-0.3v-9.9c0-0.2-0.4-0.3-0.8-0.3s-0.8,0.1-0.8,0.3V181.3z
			"/>
		<polyline class="st3" points="176.9,149 176.9,150.5 141.4,176.9 106.1,150.8 106.1,149.3 		"/>
		<polygon class="st3" points="141.9,122.9 106.2,149.3 141.5,175.4 177,149 		"/>
		<path class="st3" d="M175.4,143.9v4.9c0,0.2,0.4,0.3,0.8,0.3s0.8-0.1,0.8-0.3v-5.8c0-0.2-0.4-0.3-0.8-0.3s-0.8,0.1-0.8,0.3V143.9z
			"/>
		<ellipse class="st3" cx="176.2" cy="143" rx="0.8" ry="0.3"/>
		<path class="st3" d="M128.2,160.6v4.9c0,0.2,0.4,0.3,0.8,0.3s0.8-0.1,0.8-0.3v-5.8c0-0.2-0.4-0.3-0.8-0.3s-0.8,0.1-0.8,0.3V160.6z
			"/>
		<ellipse class="st3" cx="129" cy="159.7" rx="0.8" ry="0.3"/>
		<path class="st3" d="M140.9,169.8v4.9c0,0.2,0.4,0.3,0.8,0.3s0.8-0.1,0.8-0.3V169c0-0.2-0.4-0.3-0.8-0.3s-0.8,0.1-0.8,0.3V169.8z"
			/>
		<path class="st3" d="M153.4,160.6v4.9c0,0.2,0.4,0.3,0.8,0.3s0.8-0.1,0.8-0.3v-5.8c0-0.2-0.4-0.3-0.8-0.3s-0.8,0.1-0.8,0.3V160.6z
			"/>
		<path class="st3" d="M164.4,152.1v4.9c0,0.2,0.4,0.3,0.8,0.3s0.8-0.1,0.8-0.3v-5.8c0-0.2-0.4-0.3-0.8-0.3s-0.8,0.1-0.8,0.3V152.1z
			"/>
		<path class="st3" d="M117.6,152.1v4.9c0,0.2,0.3,0.3,0.8,0.3s0.8-0.1,0.8-0.3v-5.8c0-0.2-0.3-0.3-0.8-0.3s-0.8,0.1-0.8,0.3V152.1z
			"/>
		<path class="st3" d="M106.3,144.3v4.9c0,0.2,0.3,0.3,0.8,0.3s0.8-0.1,0.8-0.3v-5.8c0-0.2-0.3-0.3-0.8-0.3s-0.8,0.1-0.8,0.3V144.3z
			"/>
		<polyline class="st3" points="177,143.2 177,144.7 141.5,171.2 106.2,145.1 106.2,143.5 		"/>
		<polygon class="st3" points="141.9,117.1 106.2,143.5 141.6,169.6 177.1,143.2 		"/>
		<path class="st3" d="M175.4,138.1v4.9c0,0.2,0.4,0.3,0.8,0.3s0.8-0.1,0.8-0.3v-5.8c0-0.2-0.4-0.3-0.8-0.3s-0.8,0.1-0.8,0.3V138.1z
			"/>
		<ellipse class="st3" cx="176.2" cy="137.3" rx="0.8" ry="0.3"/>
		<path class="st3" d="M128.2,154.8v4.9c0,0.2,0.4,0.3,0.8,0.3s0.8-0.1,0.8-0.3V154c0-0.2-0.4-0.3-0.8-0.3s-0.8,0.1-0.8,0.3V154.8z"
			/>
		<ellipse class="st3" cx="129" cy="153.9" rx="0.8" ry="0.3"/>
		<path class="st3" d="M140.9,164.1v4.9c0,0.2,0.4,0.3,0.8,0.3s0.8-0.1,0.8-0.3v-5.8c0-0.2-0.4-0.3-0.8-0.3s-0.8,0.1-0.8,0.3V164.1z
			"/>
		<path class="st3" d="M153.4,154.8v4.9c0,0.2,0.4,0.3,0.8,0.3s0.8-0.1,0.8-0.3V154c0-0.2-0.4-0.3-0.8-0.3s-0.8,0.1-0.8,0.3V154.8z"
			/>
		<path class="st3" d="M164.4,146.3v4.9c0,0.2,0.4,0.3,0.8,0.3s0.8-0.1,0.8-0.3v-5.8c0-0.2-0.4-0.3-0.8-0.3s-0.8,0.1-0.8,0.3V146.3z
			"/>
		<path class="st3" d="M117.6,146.3v4.9c0,0.2,0.3,0.3,0.8,0.3s0.8-0.1,0.8-0.3v-5.8c0-0.2-0.3-0.3-0.8-0.3s-0.8,0.1-0.8,0.3V146.3z
			"/>
		<path class="st3" d="M106.3,138.6v4.9c0,0.2,0.3,0.3,0.8,0.3s0.8-0.1,0.8-0.3v-5.8c0-0.2-0.3-0.3-0.8-0.3s-0.8,0.1-0.8,0.3V138.6z
			"/>
		<polyline class="st3" points="177,137.4 177,138.9 141.5,165.4 106.2,139.3 106.2,137.8 		"/>
		<polygon class="st3" points="141.9,111.3 106.3,137.8 141.6,163.9 177.1,137.4 		"/>
		<path class="st3" d="M175.4,132.4v4.9c0,0.2,0.4,0.3,0.8,0.3s0.8-0.1,0.8-0.3v-5.8c0-0.2-0.4-0.3-0.8-0.3s-0.8,0.1-0.8,0.3V132.4z
			"/>
		<ellipse class="st3" cx="176.2" cy="131.6" rx="0.8" ry="0.3"/>
		<path class="st3" d="M128.2,149.2v4.9c0,0.2,0.4,0.3,0.8,0.3s0.8-0.1,0.8-0.3v-5.8c0-0.2-0.4-0.3-0.8-0.3s-0.8,0.1-0.8,0.3V149.2z
			"/>
		<ellipse class="st3" cx="129" cy="148.3" rx="0.8" ry="0.3"/>
		<path class="st3" d="M140.9,158.3v4.9c0,0.2,0.4,0.3,0.8,0.3s0.8-0.1,0.8-0.3v-5.8c0-0.2-0.4-0.3-0.8-0.3s-0.8,0.1-0.8,0.3V158.3z
			"/>
		<path class="st3" d="M153.4,149.2v4.9c0,0.2,0.4,0.3,0.8,0.3s0.8-0.1,0.8-0.3v-5.8c0-0.2-0.4-0.3-0.8-0.3s-0.8,0.1-0.8,0.3V149.2z
			"/>
		<path class="st3" d="M164.4,140.7v4.9c0,0.2,0.4,0.3,0.8,0.3s0.8-0.1,0.8-0.3v-5.8c0-0.2-0.4-0.3-0.8-0.3s-0.8,0.1-0.8,0.3V140.7z
			"/>
		<path class="st3" d="M117.6,140.7v4.9c0,0.2,0.3,0.3,0.8,0.3s0.8-0.1,0.8-0.3v-5.8c0-0.2-0.3-0.3-0.8-0.3s-0.8,0.1-0.8,0.3V140.7z
			"/>
		<path class="st3" d="M106.3,132.8v4.9c0,0.2,0.3,0.3,0.8,0.3s0.8-0.1,0.8-0.3V132c0-0.2-0.3-0.3-0.8-0.3s-0.8,0.1-0.8,0.3V132.8z"
			/>
		<polyline class="st3" points="177.1,131.7 177.1,133.2 141.6,159.6 106.2,133.5 106.2,132 		"/>
		<polygon class="st3" points="142,105.6 106.3,132 141.6,158.1 177.1,131.7 		"/>
		<path class="st3" d="M175.4,126.6v4.9c0,0.2,0.4,0.3,0.8,0.3s0.8-0.1,0.8-0.3v-5.8c0-0.2-0.4-0.3-0.8-0.3s-0.8,0.1-0.8,0.3V126.6z
			"/>
		<ellipse class="st3" cx="176.2" cy="125.8" rx="0.8" ry="0.3"/>
		<path class="st3" d="M128.2,143.4v4.9c0,0.2,0.4,0.3,0.8,0.3s0.8-0.1,0.8-0.3v-5.8c0-0.2-0.4-0.3-0.8-0.3s-0.8,0.1-0.8,0.3V143.4z
			"/>
		<ellipse class="st3" cx="129" cy="142.5" rx="0.8" ry="0.3"/>
		<path class="st3" d="M140.9,152.6v4.9c0,0.2,0.4,0.3,0.8,0.3s0.8-0.1,0.8-0.3v-5.8c0-0.2-0.4-0.3-0.8-0.3s-0.8,0.1-0.8,0.3V152.6z
			"/>
		<path class="st3" d="M153.4,143.4v4.9c0,0.2,0.4,0.3,0.8,0.3s0.8-0.1,0.8-0.3v-5.8c0-0.2-0.4-0.3-0.8-0.3s-0.8,0.1-0.8,0.3V143.4z
			"/>
		<path class="st3" d="M164.4,134.9v4.9c0,0.2,0.4,0.3,0.8,0.3s0.8-0.1,0.8-0.3V134c0-0.2-0.4-0.3-0.8-0.3s-0.8,0.1-0.8,0.3V134.9z"
			/>
		<path class="st3" d="M117.6,134.9v4.9c0,0.2,0.3,0.3,0.8,0.3s0.8-0.1,0.8-0.3V134c0-0.2-0.3-0.3-0.8-0.3s-0.8,0.1-0.8,0.3V134.9z"
			/>
		<path class="st3" d="M106.3,127.1v4.9c0,0.2,0.3,0.3,0.8,0.3s0.8-0.1,0.8-0.3v-5.8c0-0.2-0.3-0.3-0.8-0.3s-0.8,0.1-0.8,0.3V127.1z
			"/>
		<polyline class="st3" points="177,125.9 177,127.4 141.5,153.9 106.2,127.8 106.2,126.2 		"/>
		<polygon class="st3" points="141.9,99.8 106.2,126.2 141.6,152.3 177.1,125.9 		"/>
		<path class="st3" d="M175.4,121v4.9c0,0.2,0.4,0.3,0.8,0.3s0.8-0.1,0.8-0.3v-5.8c0-0.2-0.4-0.3-0.8-0.3s-0.8,0.1-0.8,0.3V121z"/>
		<ellipse class="st3" cx="176.2" cy="120.1" rx="0.8" ry="0.3"/>
		<path class="st3" d="M128.2,137.5v4.9c0,0.2,0.4,0.3,0.8,0.3s0.8-0.1,0.8-0.3v-5.8c0-0.2-0.4-0.3-0.8-0.3s-0.8,0.1-0.8,0.3V137.5z
			"/>
		<ellipse class="st3" cx="129" cy="136.7" rx="0.8" ry="0.3"/>
		<path class="st3" d="M140.9,146.8v4.9c0,0.2,0.4,0.3,0.8,0.3s0.8-0.1,0.8-0.3V146c0-0.2-0.4-0.3-0.8-0.3s-0.8,0.1-0.8,0.3V146.8z"
			/>
		<path class="st3" d="M153.4,137.5v4.9c0,0.2,0.4,0.3,0.8,0.3s0.8-0.1,0.8-0.3v-5.8c0-0.2-0.4-0.3-0.8-0.3s-0.8,0.1-0.8,0.3V137.5z
			"/>
		<path class="st3" d="M164.4,129v5c0,0.2,0.4,0.3,0.8,0.3s0.8-0.1,0.8-0.3v-5.8c0-0.2-0.4-0.3-0.8-0.3s-0.8,0.1-0.8,0.3V129z"/>
		<path class="st3" d="M117.6,129v5c0,0.2,0.3,0.3,0.8,0.3s0.8-0.1,0.8-0.3v-5.8c0-0.2-0.3-0.3-0.8-0.3s-0.8,0.1-0.8,0.3V129z"/>
		<path class="st3" d="M106.3,121.4v4.9c0,0.2,0.3,0.3,0.8,0.3s0.8-0.1,0.8-0.3v-5.8c0-0.2-0.3-0.3-0.8-0.3s-0.8,0.1-0.8,0.3V121.4z
			"/>
		<polyline class="st3" points="177,120.1 177,121.6 141.5,148.1 106.2,122 106.2,120.5 		"/>
		<polygon class="st3" points="141.9,94 106.3,120.5 141.6,146.6 177.1,120.1 		"/>
		<path class="st3" d="M175.4,115.2v4.9c0,0.2,0.4,0.3,0.8,0.3s0.8-0.1,0.8-0.3v-5.8c0-0.2-0.4-0.3-0.8-0.3s-0.8,0.1-0.8,0.3V115.2z
			"/>
		<ellipse class="st3" cx="176.2" cy="114.3" rx="0.8" ry="0.3"/>
		<path class="st3" d="M128.2,131.7v4.9c0,0.2,0.4,0.3,0.8,0.3s0.8-0.1,0.8-0.3v-5.8c0-0.2-0.4-0.3-0.8-0.3s-0.8,0.1-0.8,0.3V131.7z
			"/>
		<ellipse class="st3" cx="129" cy="130.8" rx="0.8" ry="0.3"/>
		<path class="st3" d="M140.9,141.1v4.9c0,0.2,0.4,0.3,0.8,0.3s0.8-0.1,0.8-0.3v-5.8c0-0.2-0.4-0.3-0.8-0.3s-0.8,0.1-0.8,0.3V141.1z
			"/>
		<path class="st3" d="M153.4,131.7v4.9c0,0.2,0.4,0.3,0.8,0.3s0.8-0.1,0.8-0.3v-5.8c0-0.2-0.4-0.3-0.8-0.3s-0.8,0.1-0.8,0.3V131.7z
			"/>
		<path class="st3" d="M164.4,123.2v4.9c0,0.2,0.4,0.3,0.8,0.3s0.8-0.1,0.8-0.3v-5.8c0-0.2-0.4-0.3-0.8-0.3s-0.8,0.1-0.8,0.3V123.2z
			"/>
		<path class="st3" d="M117.6,123.2v4.9c0,0.2,0.3,0.3,0.8,0.3s0.8-0.1,0.8-0.3v-5.8c0-0.2-0.3-0.3-0.8-0.3s-0.8,0.1-0.8,0.3V123.2z
			"/>
		<path class="st3" d="M106.3,115.5v4.9c0,0.2,0.3,0.3,0.8,0.3s0.8-0.1,0.8-0.3v-5.8c0-0.2-0.3-0.3-0.8-0.3s-0.8,0.1-0.8,0.3V115.5z
			"/>
		<polyline class="st3" points="177.1,114.4 177.1,115.9 141.6,142.3 106.2,116.2 106.2,114.7 		"/>
		<polygon class="st3" points="142,88.3 106.3,114.7 141.6,140.8 177.1,114.4 		"/>
		<path class="st3" d="M141,115.4v4.9c0,0.2,0.4,0.3,0.8,0.3s0.8-0.1,0.8-0.3v-5.8c0-0.2-0.4-0.3-0.8-0.3s-0.8,0.1-0.8,0.3V115.4z"
			/>
		<ellipse class="st3" cx="141.7" cy="114.6" rx="0.8" ry="0.3"/>
		<path class="st3" d="M128.2,125.8v4.9c0,0.2,0.4,0.3,0.8,0.3s0.8-0.1,0.8-0.3v-5.8c0-0.2-0.4-0.3-0.8-0.3s-0.8,0.1-0.8,0.3V125.8z
			"/>
		<ellipse class="st3" cx="129" cy="123.7" rx="0.8" ry="0.3"/>
		<path class="st3" d="M153.4,125.8v4.9c0,0.2,0.4,0.3,0.8,0.3s0.8-0.1,0.8-0.3V125c0-0.2-0.4-0.3-0.8-0.3s-0.8,0.1-0.8,0.3V125.8z"
			/>
		<path class="st3" d="M164.4,117.3v4.9c0,0.2,0.4,0.3,0.8,0.3s0.8-0.1,0.8-0.3v-5.8c0-0.2-0.4-0.3-0.8-0.3s-0.8,0.1-0.8,0.3V117.3z
			"/>
		<path class="st3" d="M117.6,117.3v4.9c0,0.2,0.3,0.3,0.8,0.3s0.8-0.1,0.8-0.3v-5.8c0-0.2-0.3-0.3-0.8-0.3s-0.8,0.1-0.8,0.3V117.3z
			"/>
		<ellipse class="st3" cx="155.9" cy="123.7" rx="0.8" ry="0.3"/>
		<polygon class="st3" points="129.3,125.7 141.7,116.5 153.9,125.6 156.6,122.8 155.1,119.7 141.7,113.1 134.7,116.1 127.7,124.4 
			128.3,126 		"/>
		<path class="st3" d="M175.4,109.3v4.9c0,0.2,0.4,0.3,0.8,0.3s0.8-0.1,0.8-0.3v-5.8c0-0.2-0.4-0.3-0.8-0.3s-0.8,0.1-0.8,0.3V109.3z
			"/>
		<path class="st3" d="M106.3,109.7v4.9c0,0.2,0.3,0.3,0.8,0.3s0.8-0.1,0.8-0.3v-5.8c0-0.2-0.3-0.3-0.8-0.3s-0.8,0.1-0.8,0.3V109.7z
			"/>
		<ellipse class="st3" cx="176.2" cy="108.4" rx="0.8" ry="0.3"/>
		<path class="st3" d="M140.9,135.2v4.9c0,0.2,0.4,0.3,0.8,0.3s0.8-0.1,0.8-0.3v-5.8c0-0.2-0.4-0.3-0.8-0.3s-0.8,0.1-0.8,0.3V135.2z
			"/>
		<path class="st3" d="M106.2,108.2v1.5l35.3,26.1l35.4-26.5v-1.5L106.2,108.2z M141.6,132.7l-13-9.6l13.1-9.7l12.9,9.6L141.6,132.7
			z"/>
		<path class="st3" d="M142,81.8l-35.7,26.4l35.3,26.1l35.5-26.4L142,81.8z M141.6,132.4l-11.8-8.7l12-8.9l11.8,8.7L141.6,132.4z"/>
		<line class="st2" x1="141.7" y1="114.9" x2="141.7" y2="116.4"/>
		<line class="st2" x1="141.6" y1="134.3" x2="141.6" y2="135.8"/>
		<line class="st2" x1="141.6" y1="140.8" x2="141.6" y2="142.3"/>
		<line class="st2" x1="141.6" y1="146.6" x2="141.6" y2="148.1"/>
		<line class="st2" x1="141.6" y1="152.3" x2="141.6" y2="153.9"/>
		<line class="st2" x1="141.6" y1="158.1" x2="141.6" y2="159.6"/>
		<line class="st2" x1="141.6" y1="163.9" x2="141.6" y2="165.4"/>
		<line class="st2" x1="141.6" y1="169.6" x2="141.6" y2="171.2"/>
		<line class="st2" x1="141.6" y1="175.4" x2="141.6" y2="176.9"/>
		<polyline class="st3" points="165.9,107.1 165.9,114.3 163.2,116.4 160.4,114.3 160.4,107.1 		"/>
		<polygon class="st3" points="163.2,105 160.4,107.1 163.2,109.1 166,107.1 		"/>
		<line class="st2" x1="163.2" y1="109.1" x2="163.2" y2="116.3"/>
	</g>
</g>
<path class="st3" d="M133.1,67c-0.5-5.1-4.1-9.3-9.1-10.6l0,0c-2.6-8.2-11.2-13.1-19.6-11.1c-3-8.8-12.5-13.6-21.4-10.6
	c-5.5,1.9-9.7,6.4-11.1,12.1c-9.1,1-15.7,9.1-14.8,18.2c0.9,8.5,8,14.9,16.5,14.9h19.8l28.7,0.1C128.8,79.4,133.7,73.6,133.1,67
	C133.1,67,133.1,67,133.1,67z"/>
<path class="st3" d="M73.9,46.8c-9.2,0-16.6,7.4-16.6,16.6S64.7,80,73.9,80l0,0h19.8l28.7,0.1c6.6-0.6,11.5-6.3,10.9-12.9
	c-0.6-6.6-6.3-11.5-12.9-10.9"/>
<path class="st3" d="M71.7,50.8c0-9.3,7.5-16.9,16.8-16.9c8,0,15,5.6,16.6,13.5"/>
<path class="st3" d="M100.3,47.1c8-4.5,18.1-1.6,22.6,6.4c0.5,1,1,2,1.3,3"/>
<path class="st3" d="M202.8,71.7l4.7,4h-28.5l4.4-4c0.5-0.5,0.9-1.2,0.9-2v-4.5h17.7v4.5C201.9,70.5,202.2,71.2,202.8,71.7z"/>
<path class="st3" d="M164.4,23.8h57c2,0,3.6,1.6,3.6,3.6v35.7c0,2-1.6,3.6-3.6,3.6h-57c-2,0-3.6-1.6-3.6-3.6V27.4
	C160.8,25.4,162.4,23.8,164.4,23.8z"/>
<path class="st3" d="M167.7,27.5h50.9c1.4,0,2.5,1.1,2.5,2.5v27.1c0,1.4-1.1,2.5-2.5,2.5h-50.9c-1.4,0-2.5-1.1-2.5-2.5V30
	C165.1,28.6,166.3,27.5,167.7,27.5z"/>
<rect x="178.9" y="75.7" class="st3" width="28.5" height="2.7"/>
<path class="st5" d="M245.1,107.6l19,15.5l-19,15.5"/>
<line class="st5" x1="264.1" y1="123.1" x2="186.8" y2="123.1"/>
<g>
	<defs>
		<path id="SVGID_3_" d="M211,58c0.1,0.7-0.5,1.4-1.2,1.4c-0.1,0-0.3,0-0.4,0h-32.5c-0.7,0.2-1.4-0.3-1.6-1c0-0.1,0-0.3,0-0.4V40.6
			c0-0.9,0.7-1.6,1.6-20.8h32.6c0.9,19.1,1.6,19.9,1.6,20.8V58z"/>
	</defs>
	<clipPath id="SVGID_4_">
		<use xlink:href="#SVGID_3_"  style="overflow:visible;"/>
	</clipPath>
	<g class="st6">
		<path class="st3" d="M205.8,58.2v1.9c0,0.1,0.1,0.1,0.3,0.1s0.3-0.1,0.3-0.1v-3.8c0-0.1-0.1-0.1-0.3-0.1s-0.3,0.1-0.3,0.1V58.2z"
			/>
		<ellipse class="st3" cx="206.1" cy="56.3" rx="0.3" ry="0.1"/>
		<path class="st3" d="M187.5,62.2v4.3c0,0.1,0.1,0.1,0.3,0.1s0.3-0.1,0.3-0.1v-4.6c0-0.1-0.1-0.1-0.3-0.1s-0.3,0.1-0.3,0.1V62.2z"
			/>
		<path class="st3" d="M197.3,62.2v4.3c0,0.1,0.1,0.1,0.3,0.1s0.3-0.1,0.3-0.1v-4.6c0-0.1-0.1-0.1-0.3-0.1s-0.3,0.1-0.3,0.1V62.2z"
			/>
		<path class="st3" d="M201.5,59v4.3c0,0.1,0.1,0.1,0.3,0.1s0.3-0.1,0.3-0.1v-4.6c0-0.1-0.1-0.1-0.3-0.1s-0.3,0.1-0.3,0.1V59z"/>
		<path class="st3" d="M183.4,59.2v4.3c0,0.1,0.1,0.1,0.3,0.1s0.3-0.1,0.3-0.1v-4.6c0-0.1-0.1-0.1-0.3-0.1s-0.3,0.1-0.3,0.1V59.2z"
			/>
		<path class="st3" d="M179,58.4v1.9c0,0.1,0.1,0.1,0.3,0.1s0.3-0.1,0.3-0.1v-3.8c0-0.1-0.1-0.1-0.3-0.1s-0.3,0.1-0.3,0.1V58.4z"/>
		<path class="st3" d="M192.4,68.2v1.9c0,0.1,0.1,0.1,0.3,0.1s0.3-0.1,0.3-0.1v-3.8c0-0.1-0.1-0.1-0.3-0.1s-0.3,0.1-0.3,0.1V68.2z"
			/>
		<polygon class="st3" points="192.8,45.6 179,55.8 192.7,66 206.4,55.7 		"/>
		<path class="st3" d="M205.8,53.8v1.9c0,0.1,0.1,0.1,0.3,0.1s0.3-0.1,0.3-0.1v-2.2c0-0.1-0.1-0.1-0.3-0.1s-0.3,0.1-0.3,0.1V53.8z"
			/>
		<ellipse class="st3" cx="206.1" cy="53.4" rx="0.3" ry="0.1"/>
		<path class="st3" d="M187.5,60.2v1.9c0,0.1,0.1,0.1,0.3,0.1s0.3-0.1,0.3-0.1v-2.2c0-0.1-0.1-0.1-0.3-0.1s-0.3,0.1-0.3,0.1V60.2z"
			/>
		<ellipse class="st3" cx="187.8" cy="59.9" rx="0.3" ry="0.1"/>
		<path class="st3" d="M192.4,63.8v1.9c0,0.1,0.1,0.1,0.3,0.1s0.3-0.1,0.3-0.1v-2.2c0-0.1-0.1-0.1-0.3-0.1s-0.3,0.1-0.3,0.1V63.8z"
			/>
		<path class="st3" d="M197.3,60.2v1.9c0,0.1,0.1,0.1,0.3,0.1s0.3-0.1,0.3-0.1v-2.2c0-0.1-0.1-0.1-0.3-0.1s-0.3,0.1-0.3,0.1V60.2z"
			/>
		<path class="st3" d="M201.5,56.9v1.9c0,0.1,0.1,0.1,0.3,0.1s0.3-0.1,0.3-0.1v-2.2c0-0.1-0.1-0.1-0.3-0.1s-0.3,0.1-0.3,0.1V56.9z"
			/>
		<path class="st3" d="M183.4,56.9v1.9c0,0.1,0.1,0.1,0.3,0.1s0.3-0.1,0.3-0.1v-2.2c0-0.1-0.1-0.1-0.3-0.1s-0.3,0.1-0.3,0.1V56.9z"
			/>
		<path class="st3" d="M179,53.9v1.9c0,0.1,0.1,0.1,0.3,0.1s0.3-0.1,0.3-0.1v-2.2c0-0.1-0.1-0.1-0.3-0.1s-0.3,0.1-0.3,0.1V53.9z"/>
		<polygon class="st3" points="192.8,43.4 179,53.6 192.7,63.7 206.4,53.5 		"/>
		<path class="st3" d="M205.8,51.5v1.9c0,0.1,0.1,0.1,0.3,0.1s0.3-0.1,0.3-0.1v-2.2c0-0.1-0.1-0.1-0.3-0.1s-0.3,0.1-0.3,0.1V51.5z"
			/>
		<ellipse class="st3" cx="206.1" cy="51.2" rx="0.3" ry="0.1"/>
		<path class="st3" d="M187.5,58v1.9c0,0.1,0.1,0.1,0.3,0.1s0.3-0.1,0.3-0.1v-2.2c0-0.1-0.1-0.1-0.3-0.1s-0.3,0.1-0.3,0.1V58z"/>
		<ellipse class="st3" cx="187.8" cy="57.6" rx="0.3" ry="0.1"/>
		<path class="st3" d="M192.4,61.6v1.9c0,0.1,0.1,0.1,0.3,0.1s0.3-0.1,0.3-0.1v-2.2c0-0.1-0.1-0.1-0.3-0.1s-0.3,0.1-0.3,0.1V61.6z"
			/>
		<path class="st3" d="M197.3,58v1.9c0,0.1,0.1,0.1,0.3,0.1s0.3-0.1,0.3-0.1v-2.2c0-0.1-0.1-0.1-0.3-0.1s-0.3,0.1-0.3,0.1V58z"/>
		<path class="st3" d="M201.5,54.7v1.9c0,0.1,0.1,0.1,0.3,0.1s0.3-0.1,0.3-0.1v-2.2c0-0.1-0.1-0.1-0.3-0.1s-0.3,0.1-0.3,0.1V54.7z"
			/>
		<path class="st3" d="M183.4,54.7v1.9c0,0.1,0.1,0.1,0.3,0.1s0.3-0.1,0.3-0.1v-2.2c0-0.1-0.1-0.1-0.3-0.1s-0.3,0.1-0.3,0.1V54.7z"
			/>
		<path class="st3" d="M179,51.7v1.9c0,0.1,0.1,0.1,0.3,0.1s0.3-0.1,0.3-0.1v-2.2c0-0.1-0.1-0.1-0.3-0.1s-0.3,0.1-0.3,0.1V51.7z"/>
		<polygon class="st3" points="192.8,41.1 179,51.4 192.7,61.5 206.4,51.2 		"/>
		<path class="st3" d="M205.8,49.3v1.9c0,0.1,0.1,0.1,0.3,0.1s0.3-0.1,0.3-0.1V49c0-0.1-0.1-0.1-0.3-0.1s-0.3,0.1-0.3,0.1V49.3z"/>
		<ellipse class="st3" cx="206.1" cy="49" rx="0.3" ry="0.1"/>
		<path class="st3" d="M187.5,55.8v1.9c0,0.1,0.1,0.1,0.3,0.1s0.3-0.1,0.3-0.1v-2.2c0-0.1-0.1-0.1-0.3-0.1s-0.3,0.1-0.3,0.1V55.8z"
			/>
		<ellipse class="st3" cx="187.8" cy="55.5" rx="0.3" ry="0.1"/>
		<path class="st3" d="M192.4,59.3v1.9c0,0.1,0.1,0.1,0.3,0.1s0.3-0.1,0.3-0.1V59c0-0.1-0.1-0.1-0.3-0.1s-0.3,0.1-0.3,0.1V59.3z"/>
		<path class="st3" d="M197.3,55.8v1.9c0,0.1,0.1,0.1,0.3,0.1s0.3-0.1,0.3-0.1v-2.2c0-0.1-0.1-0.1-0.3-0.1s-0.3,0.1-0.3,0.1V55.8z"
			/>
		<path class="st3" d="M201.5,52.5v1.9c0,0.1,0.1,0.1,0.3,0.1s0.3-0.1,0.3-0.1v-2.2c0-0.1-0.1-0.1-0.3-0.1s-0.3,0.1-0.3,0.1V52.5z"
			/>
		<path class="st3" d="M183.4,52.5v1.9c0,0.1,0.1,0.1,0.3,0.1s0.3-0.1,0.3-0.1v-2.2c0-0.1-0.1-0.1-0.3-0.1s-0.3,0.1-0.3,0.1V52.5z"
			/>
		<path class="st3" d="M179,49.5v1.9c0,0.1,0.1,0.1,0.3,0.1s0.3-0.1,0.3-0.1v-2.2c0-0.1-0.1-0.1-0.3-0.1s-0.3,0.1-0.3,0.1V49.5z"/>
		<polygon class="st3" points="192.9,38.9 179,49.1 192.7,59.3 206.5,49 		"/>
		<path class="st3" d="M205.8,47.1V49c0,0.1,0.1,0.1,0.3,0.1s0.3-0.1,0.3-0.1v-2.3c0-0.1-0.1-0.1-0.3-0.1s-0.3,0.1-0.3,0.1V47.1z"/>
		<ellipse class="st3" cx="206.1" cy="46.7" rx="0.3" ry="0.1"/>
		<path class="st3" d="M187.5,53.6v1.9c0,0.1,0.1,0.1,0.3,0.1s0.3-0.1,0.3-0.1v-2.2c0-0.1-0.1-0.1-0.3-0.1s-0.3,0.1-0.3,0.1V53.6z"
			/>
		<ellipse class="st3" cx="187.8" cy="53.2" rx="0.3" ry="0.1"/>
		<path class="st3" d="M192.4,57.1V59c0,0.1,0.1,0.1,0.3,0.1s0.3-0.1,0.3-0.1v-2.2c0-0.1-0.1-0.1-0.3-0.1s-0.3,0.1-0.3,0.1V57.1z"/>
		<path class="st3" d="M197.3,53.6v1.9c0,0.1,0.1,0.1,0.3,0.1s0.3-0.1,0.3-0.1v-2.2c0-0.1-0.1-0.1-0.3-0.1s-0.3,0.1-0.3,0.1V53.6z"
			/>
		<path class="st3" d="M201.5,50.3v1.9c0,0.1,0.1,0.1,0.3,0.1s0.3-0.1,0.3-0.1v-2.2c0-0.1-0.1-0.1-0.3-0.1s-0.3,0.1-0.3,0.1V50.3z"
			/>
		<path class="st3" d="M183.4,50.3v1.9c0,0.1,0.1,0.1,0.3,0.1s0.3-0.1,0.3-0.1v-2.2c0-0.1-0.1-0.1-0.3-0.1s-0.3,0.1-0.3,0.1V50.3z"
			/>
		<path class="st3" d="M179,47.2v1.9c0,0.1,0.1,0.1,0.3,0.1s0.3-0.1,0.3-0.1v-2.2c0-0.1-0.1-0.1-0.3-0.1s-0.3,0.1-0.3,0.1V47.2z"/>
		<polygon class="st3" points="192.8,36.7 179,46.9 192.7,57 206.4,46.8 		"/>
		<path class="st3" d="M205.8,44.9v1.9c0,0.1,0.1,0.1,0.3,0.1s0.3-0.1,0.3-0.1v-2.2c0-0.1-0.1-0.1-0.3-0.1s-0.3,0.1-0.3,0.1V44.9z"
			/>
		<ellipse class="st3" cx="206.1" cy="44.5" rx="0.3" ry="0.1"/>
		<path class="st3" d="M187.5,51.3v1.9c0,0.1,0.1,0.1,0.3,0.1s0.3-0.1,0.3-0.1V51c0-0.1-0.1-0.1-0.3-0.1s-0.3,0.1-0.3,0.1V51.3z"/>
		<ellipse class="st3" cx="187.8" cy="51" rx="0.3" ry="0.1"/>
		<path class="st3" d="M192.4,54.9v1.9c0,0.1,0.1,0.1,0.3,0.1s0.3-0.1,0.3-0.1v-2.2c0-0.1-0.1-0.1-0.3-0.1s-0.3,0.1-0.3,0.1V54.9z"
			/>
		<path class="st3" d="M197.3,51.3v1.9c0,0.1,0.1,0.1,0.3,0.1s0.3-0.1,0.3-0.1V51c0-0.1-0.1-0.1-0.3-0.1s-0.3,0.1-0.3,0.1V51.3z"/>
		<path class="st3" d="M201.5,48v1.9c0,0.1,0.1,0.1,0.3,0.1s0.3-0.1,0.3-0.1v-2.2c0-0.1-0.1-0.1-0.3-0.1s-0.3,0.1-0.3,0.1V48z"/>
		<path class="st3" d="M183.4,48v1.9c0,0.1,0.1,0.1,0.3,0.1s0.3-0.1,0.3-0.1v-2.2c0-0.1-0.1-0.1-0.3-0.1s-0.3,0.1-0.3,0.1V48z"/>
		<path class="st3" d="M179,45v1.9c0,0.1,0.1,0.1,0.3,0.1s0.3-0.1,0.3-0.1v-2.2c0-0.1-0.1-0.1-0.3-0.1s-0.3,0.1-0.3,0.1V45z"/>
		<polygon class="st3" points="192.8,34.4 179,44.7 192.7,54.8 206.4,44.5 		"/>
		<path class="st3" d="M205.8,42.6v1.9c0,0.1,0.1,0.1,0.3,0.1s0.3-0.1,0.3-0.1v-2.2c0-0.1-0.1-0.1-0.3-0.1s-0.3,0.1-0.3,0.1V42.6z"
			/>
		<ellipse class="st3" cx="206.1" cy="42.3" rx="0.3" ry="0.1"/>
		<path class="st3" d="M187.5,49v1.9c0,0.1,0.1,0.1,0.3,0.1s0.3-0.1,0.3-0.1v-2.2c0-0.1-0.1-0.1-0.3-0.1s-0.3,0.1-0.3,0.1V49z"/>
		<ellipse class="st3" cx="187.8" cy="48.7" rx="0.3" ry="0.1"/>
		<path class="st3" d="M192.4,52.7v1.9c0,0.1,0.1,0.1,0.3,0.1s0.3-0.1,0.3-0.1v-2.2c0-0.1-0.1-0.1-0.3-0.1s-0.3,0.1-0.3,0.1V52.7z"
			/>
		<path class="st3" d="M197.3,49v1.9c0,0.1,0.1,0.1,0.3,0.1s0.3-0.1,0.3-0.1v-2.2c0-0.1-0.1-0.1-0.3-0.1s-0.3,0.1-0.3,0.1V49z"/>
		<path class="st3" d="M201.5,45.7v1.9c0,0.1,0.1,0.1,0.3,0.1s0.3-0.1,0.3-0.1v-2.2c0-0.1-0.1-0.1-0.3-0.1s-0.3,0.1-0.3,0.1V45.7z"
			/>
		<path class="st3" d="M183.4,45.7v1.9c0,0.1,0.1,0.1,0.3,0.1s0.3-0.1,0.3-0.1v-2.2c0-0.1-0.1-0.1-0.3-0.1s-0.3,0.1-0.3,0.1V45.7z"
			/>
		<path class="st3" d="M179,42.8v1.9c0,0.1,0.1,0.1,0.3,0.1s0.3-0.1,0.3-0.1v-2.2c0-0.1-0.1-0.1-0.3-0.1s-0.3,0.1-0.3,0.1V42.8z"/>
		<polygon class="st3" points="192.9,32.2 179,42.4 192.7,52.6 206.5,42.3 		"/>
		<path class="st3" d="M192.5,42.7v1.9c0,0.1,0.1,0.1,0.3,0.1s0.3-0.1,0.3-0.1v-2.2c0-0.1-0.1-0.1-0.3-0.1s-0.3,0.1-0.3,0.1V42.7z"
			/>
		<ellipse class="st3" cx="192.8" cy="42.4" rx="0.3" ry="0.1"/>
		<path class="st3" d="M187.5,46.7v1.9c0,0.1,0.1,0.1,0.3,0.1s0.3-0.1,0.3-0.1v-2.2c0-0.1-0.1-0.1-0.3-0.1s-0.3,0.1-0.3,0.1V46.7z"
			/>
		<ellipse class="st3" cx="187.8" cy="45.9" rx="0.3" ry="0.1"/>
		<path class="st3" d="M197.3,46.7v1.9c0,0.1,0.1,0.1,0.3,0.1s0.3-0.1,0.3-0.1v-2.2c0-0.1-0.1-0.1-0.3-0.1s-0.3,0.1-0.3,0.1V46.7z"
			/>
		<path class="st3" d="M201.5,43.5v1.9c0,0.1,0.1,0.1,0.3,0.1s0.3-0.1,0.3-0.1v-2.2c0-0.1-0.1-0.1-0.3-0.1s-0.3,0.1-0.3,0.1V43.5z"
			/>
		<path class="st3" d="M183.4,43.5v1.9c0,0.1,0.1,0.1,0.3,0.1s0.3-0.1,0.3-0.1v-2.2c0-0.1-0.1-0.1-0.3-0.1s-0.3,0.1-0.3,0.1V43.5z"
			/>
		<ellipse class="st3" cx="198.2" cy="45.9" rx="0.3" ry="0.1"/>
		<polygon class="st3" points="187.9,46.7 192.8,43.1 197.5,46.7 198.5,45.6 197.9,44.4 192.8,41.8 190,43 187.3,46.2 187.6,46.8 		
			"/>
		<path class="st3" d="M205.8,40.4v1.9c0,0.1,0.1,0.1,0.3,0.1s0.3-0.1,0.3-0.1V40c0-0.1-0.1-0.1-0.3-0.1s-0.3,0.1-0.3,0.1V40.4z"/>
		<path class="st3" d="M179,40.5v1.9c0,0.1,0.1,0.1,0.3,0.1s0.3-0.1,0.3-0.1v-2.2c0-0.1-0.1-0.1-0.3-0.1s-0.3,0.1-0.3,0.1V40.5z"/>
		<ellipse class="st3" cx="206.1" cy="40" rx="0.3" ry="0.1"/>
		<path class="st3" d="M192.4,50.4v1.9c0,0.1,0.1,0.1,0.3,0.1s0.3-0.1,0.3-0.1V50c0-0.1-0.1-0.1-0.3-0.1s-0.3,0.1-0.3,0.1V50.4z"/>
		<path class="st3" d="M192.7,49.4l-5-3.7l5.1-3.8l5,3.7L192.7,49.4z"/>
		<path class="st3" d="M192.9,29.7L179,39.9L192.7,50l13.8-10.2L192.9,29.7z M192.7,49.3l-4.6-3.4l4.6-3.4l4.6,3.4L192.7,49.3z"/>
		<line class="st2" x1="192.7" y1="50" x2="192.7" y2="50.6"/>
		<line class="st2" x1="192.7" y1="52.6" x2="192.7" y2="53.1"/>
		<line class="st2" x1="192.7" y1="54.8" x2="192.7" y2="55.4"/>
		<line class="st2" x1="192.7" y1="57" x2="192.7" y2="57.6"/>
		<line class="st2" x1="192.7" y1="59.3" x2="192.7" y2="59.8"/>
		<line class="st2" x1="192.7" y1="61.5" x2="192.7" y2="62.1"/>
		<line class="st2" x1="192.7" y1="63.7" x2="192.7" y2="64.3"/>
		<line class="st2" x1="192.7" y1="66" x2="192.7" y2="66.5"/>
		<polyline class="st3" points="202.1,39.5 202.1,42.3 201.1,43.1 200,42.3 200,39.5 		"/>
		<polygon class="st3" points="201.1,38.7 200,39.5 201.1,40.3 202.1,39.5 		"/>
		<line class="st2" x1="201.1" y1="40.3" x2="201.1" y2="43.1"/>
	</g>
</g>
</svg>
