<svg xmlns="http://www.w3.org/2000/svg" viewBox="0 0 263 220.71"><title>Asset 2</title><text transform="translate(0 170)" style="font-size:200px;fill:#4fcfbb;font-family:Barlow-Thin, Barlow">1</text><path d="M11.76,219.91,25,170.74a.8.8,0,0,1,.84-.58H207.94c.53,0,.73.26.61.79l-13.21,49.18a.8.8,0,0,1-.84.58H12.38Q11.58,220.71,11.76,219.91Z"/><path d="M71.37,195.27a6.55,6.55,0,0,1-6.57-6.53L64.74,69.92a6.55,6.55,0,0,1,6.53-6.57h82a6.55,6.55,0,0,1,6.57,6.53V188.73a6.55,6.55,0,0,1-6.53,6.57Z" style="fill:#f3f3f3;stroke:#7d7778;stroke-miterlimit:10;stroke-width:0.449882656335831px"/><circle cx="113.06" cy="186.2" r="3.79" transform="translate(-73.56 298.56) rotate(-89.79)" style="fill:#f3f3f3;stroke:#7d7778;stroke-miterlimit:10;stroke-width:0.449882656335831px"/><line x1="75.48" y1="101.17" x2="149.75" y2="101.17" style="fill:#f3f3f3;stroke:#7d7778;stroke-miterlimit:10;stroke-width:0.449882656335831px"/><line x1="75.37" y1="116.01" x2="149.57" y2="116.01" style="fill:#f3f3f3;stroke:#7d7778;stroke-miterlimit:10;stroke-width:0.449882656335831px"/><line x1="75.46" y1="130.84" x2="149.65" y2="130.84" style="fill:#f3f3f3;stroke:#7d7778;stroke-miterlimit:10;stroke-width:0.449882656335831px"/><line x1="75.54" y1="145.67" x2="149.74" y2="145.67" style="fill:#f3f3f3;stroke:#7d7778;stroke-miterlimit:10;stroke-width:0.449882656335831px"/><line x1="75.62" y1="160.51" x2="149.55" y2="160.51" style="fill:#f3f3f3;stroke:#7d7778;stroke-miterlimit:10;stroke-width:0.449882656335831px"/><line x1="90.31" y1="175.24" x2="90.31" y2="86.38" style="fill:#f3f3f3;stroke:#7d7778;stroke-miterlimit:10;stroke-width:0.449882656335831px"/><line x1="105.15" y1="175.34" x2="105.15" y2="86.5" style="fill:#f3f3f3;stroke:#7d7778;stroke-miterlimit:10;stroke-width:0.449882656335831px"/><line x1="119.98" y1="175.45" x2="119.98" y2="86.4" style="fill:#f3f3f3;stroke:#7d7778;stroke-miterlimit:10;stroke-width:0.449882656335831px"/><line x1="134.82" y1="175.35" x2="134.82" y2="86.3" style="fill:#f3f3f3;stroke:#7d7778;stroke-miterlimit:10;stroke-width:0.449882656335831px"/><polyline points="75.48 175.34 75.48 86.34 75.87 86.34 149.4 86.34 149.65 86.34 149.65 175.24 149.65 175.34 75.71 175.34" style="fill:none;stroke:#7d7778;stroke-miterlimit:10;stroke-width:0.449882656335831px"/><line x1="119.98" y1="101.17" x2="134.69" y2="115.88" style="fill:none;stroke:#7d7778;stroke-linecap:round;stroke-linejoin:round;stroke-width:0.5px"/><line x1="134.69" y1="101.17" x2="119.98" y2="115.88" style="fill:none;stroke:#7d7778;stroke-linecap:round;stroke-linejoin:round;stroke-width:0.5px"/><path d="M171.21,154.07a30.66,30.66,0,0,1-8.61,42.71c-14.34,9.38-31.78,4.2-41.16-10.14l-6.88-10.26A7.46,7.46,0,1,1,127,168.21l-2.67-3.87a7.46,7.46,0,1,1,12.49-8.18c-2.26-3.45-4.18-8.76,1-12.12a7.47,7.47,0,0,1,10.33,2.16l-17.86-27.3a7.46,7.46,0,1,1,12.49-8.17l11,16.8Z" style="fill:#f3f3f3;stroke:#7d7778;stroke-miterlimit:10;stroke-width:0.449882656335831px"/><path d="M156.49,39.21A29.32,29.32,0,0,1,185.8,68.53" style="fill:none;stroke:#7d7778;stroke-linecap:round;stroke-linejoin:round;stroke-width:0.5px"/><path d="M156.49,52.56a16,16,0,0,1,16,16" style="fill:none;stroke:#7d7778;stroke-linecap:round;stroke-linejoin:round;stroke-width:0.5px"/><path d="M156.49,25.13a43.4,43.4,0,0,1,43.4,43.4" style="fill:none;stroke:#7d7778;stroke-linecap:round;stroke-linejoin:round;stroke-width:0.5px"/><path d="M243.7,107.59l19,15.52-19,15.52" style="fill:none;stroke:#7d7778;stroke-linecap:round;stroke-linejoin:round;stroke-width:0.5px"/><line x1="262.75" y1="123.11" x2="159.84" y2="123.11" style="fill:none;stroke:#7d7778;stroke-linecap:round;stroke-linejoin:round;stroke-width:0.5px"/></svg>