<?xml version="1.0" encoding="utf-8"?>
<!-- Generator: Adobe Illustrator 21.0.0, SVG Export Plug-In . SVG Version: 6.00 Build 0)  -->
<svg version="1.1" id="Layer_1" xmlns="http://www.w3.org/2000/svg" xmlns:xlink="http://www.w3.org/1999/xlink" x="0px" y="0px"
	 viewBox="0 0 263 220.7" style="enable-background:new 0 0 263 220.7;" xml:space="preserve">
<style type="text/css">
	.st0{enable-background:new    ;}
	.st1{fill:#4FCFBB;}
	.st2{fill:#F3F3F3;stroke:#7D7778;stroke-width:0.4499;stroke-miterlimit:10;}
	.st3{fill:none;stroke:#7D7778;stroke-width:0.4499;stroke-miterlimit:10;}
	.st4{fill:none;stroke:#7D7778;stroke-width:0.5;stroke-linecap:round;stroke-linejoin:round;}
</style>
<title>Asset 2</title>
<g class="st0">
	<path class="st1" d="M41.4,30h3.4c1.1,0,1.6,0.5,1.6,1.6v136.8c0,1.1-0.5,1.6-1.6,1.6H42c-1.1,0-1.6-0.5-1.6-1.6v-130
		c0-0.1-0.1-0.3-0.3-0.4c-0.2-0.1-0.4-0.1-0.5,0L15.4,50.2c-0.1,0.1-0.4,0.2-0.8,0.2c-0.7,0-1-0.5-1-1.4v-1.8c0-0.8,0.3-1.4,1-1.8
		l24.8-14.8C39.9,30.2,40.6,30,41.4,30z"/>
</g>
<path d="M11.8,219.9L25,170.7c0.1-0.4,0.5-0.6,0.8-0.6h182.1c0.5,0,0.7,0.3,0.6,0.8l-13.2,49.2c-0.1,0.4-0.5,0.6-0.8,0.6H12.4
	C11.8,220.7,11.6,220.4,11.8,219.9z"/>
<path class="st2" d="M71.4,195.3c-3.6,0-6.6-2.9-6.6-6.5c0,0,0,0,0,0L64.7,69.9c0-3.6,2.9-6.6,6.5-6.6c0,0,0,0,0,0h82
	c3.6,0,6.6,2.9,6.6,6.5c0,0,0,0,0,0v118.8c0,3.6-2.9,6.6-6.5,6.6c0,0,0,0,0,0L71.4,195.3z"/>
<ellipse transform="matrix(3.665167e-03 -1 1 3.665167e-03 -73.5432 298.5532)" class="st2" cx="113.1" cy="186.2" rx="3.8" ry="3.8"/>
<line class="st3" x1="75.5" y1="101.2" x2="149.8" y2="101.2"/>
<line class="st3" x1="75.4" y1="116" x2="149.6" y2="116"/>
<line class="st3" x1="75.5" y1="130.8" x2="149.6" y2="130.8"/>
<line class="st3" x1="75.5" y1="145.7" x2="149.7" y2="145.7"/>
<line class="st3" x1="75.6" y1="160.5" x2="149.6" y2="160.5"/>
<line class="st3" x1="90.3" y1="175.2" x2="90.3" y2="86.4"/>
<line class="st3" x1="105.2" y1="175.3" x2="105.2" y2="86.5"/>
<line class="st3" x1="120" y1="175.4" x2="120" y2="86.4"/>
<line class="st3" x1="134.8" y1="175.4" x2="134.8" y2="86.3"/>
<polyline class="st3" points="75.5,175.3 75.5,86.3 75.9,86.3 149.4,86.3 149.6,86.3 149.6,175.2 149.6,175.3 75.7,175.3 "/>
<line class="st4" x1="120" y1="101.2" x2="134.7" y2="115.9"/>
<line class="st4" x1="134.7" y1="101.2" x2="120" y2="115.9"/>
<path class="st2" d="M171.2,154.1c9.4,14.1,5.7,33.1-8.4,42.5c-0.1,0.1-0.2,0.1-0.2,0.2c-14.3,9.4-31.8,4.2-41.2-10.1l-6.9-10.3
	c-2.5-3.3-1.9-8,1.4-10.5c3.3-2.5,8-1.9,10.5,1.4c0.2,0.3,0.4,0.6,0.6,0.9l-2.7-3.9c-2.3-3.4-1.3-8.1,2.2-10.3s8.1-1.3,10.3,2.2
	c-2.3-3.4-4.2-8.8,1-12.1c3.4-2.3,8.1-1.3,10.3,2.2l-17.9-27.3c-2.3-3.4-1.3-8.1,2.2-10.3s8.1-1.3,10.3,2.2l11,16.8L171.2,154.1z"/>
<path class="st4" d="M156.5,39.2c16.2,0,29.3,13.1,29.3,29.3"/>
<path class="st4" d="M156.5,52.6c8.8,0,16,7.2,16,16"/>
<path class="st4" d="M156.5,25.1c24,0,43.4,19.4,43.4,43.4c0,0,0,0,0,0"/>
<path class="st4" d="M243.7,107.6l19,15.5l-19,15.5"/>
<line class="st4" x1="262.8" y1="123.1" x2="159.8" y2="123.1"/>
</svg>
