<?xml version="1.0" encoding="utf-8"?>
<!-- Generator: Adobe Illustrator 21.0.0, SVG Export Plug-In . SVG Version: 6.00 Build 0)  -->
<svg version="1.1" id="Layer_1" xmlns="http://www.w3.org/2000/svg" xmlns:xlink="http://www.w3.org/1999/xlink" x="0px" y="0px"
	 viewBox="0 0 262 220.7" style="enable-background:new 0 0 262 220.7;" xml:space="preserve">
<style type="text/css">
	.st0{enable-background:new    ;}
	.st1{fill:#4FCFBB;}
	.st2{fill:#F3F3F3;stroke:#7D7778;stroke-width:0.5;stroke-linecap:round;stroke-linejoin:round;}
	.st3{fill:none;stroke:#7D7778;stroke-width:0.5;stroke-linecap:round;stroke-linejoin:round;}
</style>
<title>Asset 3</title>
<g class="st0">
	<path class="st1" d="M13.4,168.4v-2.6c0-0.8,0.2-1.5,0.6-2l46.4-61c12.8-17.3,19.2-31,19.2-41c0-8.4-2.8-15.1-8.4-20.2
		C65.6,36.5,58.2,34,49,34c-8.9,0-16.1,2.5-21.6,7.6c-5.5,5.1-8.1,11.8-8,20.2v7c0,1.1-0.5,1.6-1.6,1.6H15c-1.1,0-1.6-0.5-1.6-1.6
		v-7.4c0.1-9.9,3.5-17.8,10-23.9c6.5-6.1,15.1-9.1,25.6-9.1c10.9,0,19.8,3.1,26.5,9.2c6.7,6.1,10.1,14.1,10.1,24
		c0,11.7-6.6,26.3-19.8,43.8L51,124.8l-29.6,38.8c-0.1,0.1-0.2,0.3-0.1,0.5c0.1,0.2,0.2,0.3,0.5,0.3h67.6c1.1,0,1.6,0.5,1.6,1.6v2.4
		c0,1.1-0.5,1.6-1.6,1.6H15C13.9,170,13.4,169.5,13.4,168.4z"/>
</g>
<path d="M5.8,219.9L19,170.7c0.1-0.4,0.4-0.6,6.8-0.6h182.1c-5.5,0-5.3,0.3-5.4,0.8l-13.2,49.2c-0.1,0.4-0.5,0.6-0.8,0.6H6.4
	C5.8,220.7,5.6,220.4,5.8,219.9z"/>
<path class="st2" d="M138.6,29.9h-29.7c-3.6,0-6.4,2.9-6.4,6.4l0,0v11.1l-7.2,7h7.2V63c0,3.6,2.9,6.4,6.4,6.4c0,0,0,0,0,0h29.7
	c3.5,0,6.4-2.9,6.4-6.4V36.4C145,32.8,142.1,30,138.6,29.9z"/>
<line class="st3" x1="110.2" y1="44.5" x2="136.3" y2="44.5"/>
<line class="st3" x1="110.2" y1="49.7" x2="136.3" y2="49.7"/>
<line class="st3" x1="110.2" y1="54.9" x2="136.3" y2="54.9"/>
<path class="st2" d="M90.2,93.7h88.3c4.9,0,8.9,4,8.9,8.9v73l10,9.7h-10v3.3c0,4.9-4,8.9-8.9,8.9H90.2c-4.9,0-8.9-4-8.9-8.9v-85.9
	C81.3,97.8,85.3,93.7,90.2,93.7z"/>
<path class="st3" d="M242.8,107.6l19,15.5l-19,15.5"/>
<line class="st3" x1="261.8" y1="123.1" x2="187.5" y2="123.1"/>
<ellipse class="st2" cx="171.5" cy="109.6" rx="0.9" ry="0.3"/>
<ellipse class="st2" cx="120.1" cy="127.6" rx="0.8" ry="0.3"/>
<path class="st2" d="M158.6,119.3v5.3c0,0.2,0.4,0.3,0.9,0.3s0.9-0.2,0.9-0.3v-6.2c0-0.2-0.4-0.3-0.9-0.3s-0.9,0.2-0.9,0.3V119.3z"
	/>
<polyline class="st2" points="172.4,109.7 172.4,111.3 133.8,140.1 95.4,111.7 95.4,110.1 "/>
<line class="st3" x1="142.2" y1="123.4" x2="134" y2="117.4"/>
<line class="st3" x1="125.8" y1="123.4" x2="134" y2="117.4"/>
<ellipse class="st2" cx="134" cy="109.9" rx="0.9" ry="0.3"/>
<ellipse class="st2" cx="120.1" cy="119.8" rx="0.8" ry="0.3"/>
<path class="st2" d="M146.7,122.1v5.3c0,0.2,0.4,0.3,0.9,0.3s0.9-0.2,0.9-0.3v-6.3c0-0.2-0.4-0.3-0.9-0.3s-0.9,0.2-0.9,0.3V122.1z"
	/>
<path class="st2" d="M158.6,112.9v5.3c0,0.2,0.4,0.3,0.9,0.3s0.9-0.2,0.9-0.3V112c0-0.2-0.4-0.3-0.9-0.3s-0.9,0.2-0.9,0.3V112.9z"/>
<ellipse class="st2" cx="149.3" cy="119.8" rx="0.9" ry="0.3"/>
<path class="st2" d="M170.6,104.2v5.3c0,0.2,0.4,0.3,0.9,0.3s0.9-0.2,0.9-0.3v-6.2c0-0.2-0.4-0.3-0.9-0.3s-0.9,0.2-0.9,0.3V104.2z"
	/>
<ellipse class="st2" cx="171.4" cy="103.3" rx="0.9" ry="0.3"/>
<path class="st2" d="M133,132.3v5.3c0,0.2,0.4,0.4,0.9,0.4s0.9-0.2,0.9-0.4v-6.2c0-0.2-0.4-0.4-0.9-0.4s-0.9,0.2-0.9,0.4V132.3z"/>
<path class="st2" d="M95.4,103v1.6l38.4,28.4l38.6-28.7v-1.6L95.4,103z M133.9,129.6l-14.1-10.4l14.2-10.6l14,10.4L133.9,129.6z"/>
<path class="st2" d="M134.3,74.3L95.5,103l38.4,28.4l38.6-28.7L134.3,74.3z M133.9,129.3l-12.9-9.5l13-9.6l12.8,9.5L133.9,129.3z"/>
<line class="st3" x1="134" y1="110.2" x2="134" y2="117.3"/>
<polyline class="st2" points="158.4,101.8 158.4,109.6 155.4,111.9 152.4,109.7 152.4,101.8 "/>
<polygon class="st2" points="155.5,99.6 152.4,101.8 155.4,104 158.5,101.8 "/>
<line class="st3" x1="155.4" y1="104" x2="155.4" y2="111.8"/>
<polyline class="st2" points="131.2,100 129.8,99.6 117.7,82.8 119,83.1 "/>
<polyline class="st2" points="128.9,75.9 127.5,75.6 117.7,82.8 119,83.1 128.9,75.9 "/>
<rect x="123.9" y="77.5" transform="matrix(0.8087 -0.5882 0.5882 0.8087 -26.84 93.3232)" class="st2" width="12.2" height="20.9"/>
<line class="st3" x1="131.3" y1="79.3" x2="121.4" y2="86.5"/>
<line class="st3" x1="133.8" y1="82.6" x2="123.9" y2="89.8"/>
<line class="st3" x1="136.2" y1="86" x2="126.3" y2="93.2"/>
<line class="st3" x1="138.7" y1="89.4" x2="128.8" y2="96.6"/>
<line class="st3" x1="122.3" y1="80.8" x2="134.5" y2="97.6"/>
<line class="st3" x1="125.7" y1="78.3" x2="137.9" y2="95.1"/>
<polyline class="st2" points="120.2,108.3 118.7,107.9 106.6,91.2 107.9,91.5 "/>
<polyline class="st2" points="117.8,84.3 116.4,84 106.6,91.2 107.9,91.5 117.8,84.3 "/>
<rect x="112.9" y="85.8" transform="matrix(0.8087 -0.5882 0.5882 0.8087 -33.8728 88.3979)" class="st2" width="12.2" height="20.9"/>
<line class="st3" x1="120.2" y1="87.6" x2="110.3" y2="94.8"/>
<line class="st3" x1="122.7" y1="91" x2="112.8" y2="98.2"/>
<line class="st3" x1="125.2" y1="94.4" x2="115.3" y2="101.6"/>
<line class="st3" x1="127.6" y1="97.8" x2="117.7" y2="105"/>
<line class="st3" x1="111.2" y1="89.2" x2="123.4" y2="106"/>
<line class="st3" x1="114.6" y1="86.7" x2="126.8" y2="103.5"/>
<polygon class="st2" points="95.5,102.8 133.9,131.2 133.9,188.2 95.4,159.9 "/>
<polygon class="st2" points="172.2,102.8 133.9,131.2 133.9,188.2 172.3,159.9 "/>
<polygon class="st2" points="122.1,124.3 132.3,131.9 132.3,148.8 122.1,141.2 "/>
<polygon class="st2" points="109.4,114.8 120.3,123 120.3,139.9 109.3,131.7 "/>
<polygon class="st2" points="97.1,105.6 107.5,113.4 107.5,130.3 97,122.5 "/>
<polygon class="st2" points="122.1,144 132.3,151.6 132.3,168.5 122.1,160.9 "/>
<polygon class="st2" points="109.4,134.4 120.3,142.6 120.3,159.5 109.3,151.3 "/>
<polygon class="st2" points="97.1,125.2 107.5,133.1 107.5,150 97,142.1 "/>
<polygon class="st2" points="122.1,163.7 132.3,171.3 132.3,187.1 122.1,179.5 "/>
<polygon class="st2" points="109.4,154.1 120.3,162.3 120.3,178.2 109.3,170 "/>
<polygon class="st2" points="97.1,144.9 107.5,152.8 107.5,168.6 97,160.8 "/>
<polygon class="st2" points="145.8,124.3 135.7,131.9 135.7,148.8 145.8,141.2 "/>
<polygon class="st2" points="158.5,114.8 147.6,123 147.6,139.9 158.6,131.7 "/>
<polygon class="st2" points="170.6,105.8 160.4,113.4 160.4,130.3 170.6,122.7 "/>
<polygon class="st2" points="145.8,144 135.7,151.6 135.7,168.5 145.8,160.9 "/>
<polygon class="st2" points="158.5,134.4 147.6,142.6 147.6,159.5 158.6,151.3 "/>
<polygon class="st2" points="170.6,125.4 160.4,133.1 160.4,150 170.6,142.3 "/>
<polygon class="st2" points="145.8,163.7 135.7,171.3 135.7,187.1 145.8,179.5 "/>
<polygon class="st2" points="158.5,154.1 147.6,162.3 147.6,178.2 158.6,170 "/>
<polygon class="st2" points="170.6,145.1 160.4,152.8 160.4,168.6 170.6,161 "/>
</svg>
