<svg xmlns="http://www.w3.org/2000/svg" viewBox="0 0 320.73 184.77"><title>Asset 2</title><line x1="313.19" y1="28.01" x2="313.19" y2="182.96" style="fill:#f5f5f5;stroke:#a9a5a6;stroke-miterlimit:10;stroke-width:0.5px"/><rect x="0.25" y="28.01" width="312.94" height="154.96" style="fill:#f5f5f5;stroke:#a9a5a6;stroke-miterlimit:10;stroke-width:0.5px"/><path d="M.27,27.59,7.11,2.13a.41.41,0,0,1,.43-.3h312.6c.27,0,.38.14.32.41l-6.84,25.46a.41.41,0,0,1-.43.3H.59Q.17,28,.27,27.59Z" style="fill:#f5f5f5;stroke:#a9a5a6;stroke-miterlimit:10;stroke-width:0.5px"/><line x1="0.27" y1="182.55" x2="0.27" y2="27.59" style="fill:#f5f5f5;stroke:#a9a5a6;stroke-miterlimit:10;stroke-width:0.5px"/><line x1="7.11" y1="157.09" x2="7.11" y2="1.83" style="fill:#f5f5f5;stroke:#a9a5a6;stroke-miterlimit:10;stroke-width:0.5px"/><polygon points="320.46 157.2 320.46 1.83 313.19 28.01 313.19 182.96 320.46 157.2" style="fill:#f5f5f5;stroke:#a9a5a6;stroke-miterlimit:10;stroke-width:0.5px"/><path d="M.27,182.55l6.84-25.46a.41.41,0,0,1,.43-.3h312.6c.27,0,.38.14.32.41l-6.84,25.46a.41.41,0,0,1-.43.3H.59Q.17,183,.27,182.55Z" style="fill:#f5f5f5;stroke:#a9a5a6;stroke-miterlimit:10;stroke-width:0.5px"/><line x1="313.19" y1="28.01" x2="313.19" y2="182.96" style="fill:none;stroke:#a9a5a6;stroke-miterlimit:10;stroke-width:0.5px"/></svg>